#define Frame_4__80ms___replace__width 92
#define Frame_4__80ms___replace__height 64
static unsigned char Frame_4__80ms___replace__bits[] = {
   0x00, 0x00, 0x00, 0x00, 0x00, 0x00, 0x00, 0x00, 0x00, 0x00, 0x00, 0x00,
   0x00, 0x00, 0x00, 0x00, 0x00, 0x00, 0x00, 0x00, 0x00, 0x00, 0x00, 0x00,
   0x00, 0x00, 0x00, 0x00, 0x00, 0x00, 0x00, 0x00, 0x00, 0x00, 0x00, 0x00,
   0x00, 0x00, 0x00, 0x06, 0x00, 0xfe, 0x03, 0x00, 0x00, 0x00, 0x00, 0x00,
   0x00, 0x00, 0x90, 0xef, 0xff, 0xff, 0xff, 0x07, 0x00, 0x00, 0x00, 0x00,
   0x00, 0xc0, 0xff, 0xfd, 0x1f, 0x00, 0xf0, 0x7f, 0x00, 0x00, 0x00, 0x00,
   0x00, 0xf0, 0xf7, 0x68, 0x00, 0x00, 0x00, 0xfc, 0x07, 0x00, 0x00, 0x00,
   0x00, 0xfc, 0x73, 0xc8, 0x00, 0x00, 0x00, 0xc0, 0x1f, 0xc0, 0x03, 0x00,
   0x00, 0xfe, 0x38, 0xd8, 0x00, 0x00, 0x00, 0x00, 0x7c, 0xe0, 0x07, 0x00,
   0x00, 0xfe, 0x0f, 0xd8, 0x00, 0x00, 0x00, 0x00, 0xf0, 0x60, 0x06, 0x00,
   0x00, 0xe7, 0x07, 0xce, 0x01, 0x00, 0x00, 0x00, 0xc0, 0x21, 0x06, 0x00,
   0x80, 0x03, 0x00, 0x86, 0x01, 0x00, 0x00, 0x00, 0x80, 0x3f, 0x06, 0x00,
   0xc0, 0x01, 0xfe, 0x81, 0x01, 0x00, 0x00, 0x00, 0xc0, 0x3f, 0x06, 0x00,
   0xe0, 0x00, 0xff, 0x83, 0x01, 0x00, 0x00, 0x00, 0x60, 0x00, 0x06, 0x00,
   0xf0, 0x80, 0x7f, 0x87, 0x01, 0x00, 0x00, 0x00, 0x60, 0x00, 0x06, 0x00,
   0x70, 0x80, 0xff, 0x07, 0x03, 0x00, 0x00, 0x00, 0x60, 0x00, 0x02, 0x00,
   0x30, 0xc0, 0xff, 0x06, 0x03, 0x00, 0x00, 0x00, 0x60, 0x1e, 0x03, 0x00,
   0x38, 0xc0, 0xff, 0x0e, 0x03, 0x00, 0x00, 0x00, 0x60, 0xbe, 0x01, 0x00,
   0x18, 0xc0, 0xff, 0x0c, 0x02, 0x00, 0x00, 0x00, 0x20, 0xfe, 0x00, 0x00,
   0x18, 0xc0, 0x7f, 0x0c, 0x06, 0x00, 0x00, 0x00, 0x60, 0x0e, 0x00, 0x00,
   0x18, 0xc0, 0x3f, 0x06, 0x06, 0x00, 0x00, 0x00, 0x40, 0x1e, 0x00, 0x00,
   0x18, 0x80, 0x1f, 0x06, 0x04, 0x00, 0x00, 0x00, 0x40, 0x1e, 0x00, 0x00,
   0x1c, 0x80, 0x83, 0x03, 0x00, 0x00, 0x00, 0x00, 0x00, 0x1e, 0x00, 0x00,
   0x18, 0x00, 0xff, 0x01, 0x00, 0x00, 0x00, 0x00, 0x00, 0x18, 0x00, 0x00,
   0x18, 0x00, 0xfe, 0x00, 0x00, 0x00, 0x00, 0x00, 0x00, 0x18, 0x00, 0x00,
   0x18, 0x00, 0x00, 0x00, 0x00, 0x00, 0x00, 0x70, 0x00, 0x18, 0xc0, 0x07,
   0x18, 0x00, 0x00, 0x00, 0x00, 0x00, 0x00, 0xfc, 0x00, 0x18, 0xe0, 0x07,
   0x18, 0x00, 0x00, 0x00, 0x00, 0x00, 0x00, 0xce, 0x00, 0x38, 0x60, 0x0e,
   0x18, 0x00, 0x00, 0x00, 0x00, 0x00, 0x0c, 0x67, 0x00, 0xf8, 0x60, 0x0e,
   0x18, 0x00, 0x00, 0x00, 0x00, 0x00, 0xfc, 0x73, 0x00, 0xf8, 0x63, 0x0c,
   0x18, 0x00, 0x00, 0x00, 0x00, 0x00, 0xf8, 0xf0, 0x00, 0xb8, 0x7f, 0x0e,
   0x38, 0x00, 0x00, 0x00, 0x00, 0x00, 0x00, 0xc0, 0x00, 0x38, 0x7c, 0x0e,
   0x30, 0x00, 0x00, 0x00, 0x00, 0x00, 0xfe, 0xf1, 0x00, 0xf8, 0x61, 0x06,
   0x70, 0x00, 0x00, 0x00, 0x00, 0x00, 0xf0, 0xf3, 0x00, 0xf8, 0x07, 0x06,
   0xe0, 0x00, 0x00, 0x00, 0x00, 0x00, 0x00, 0x7e, 0x00, 0x38, 0x1f, 0x06,
   0xe0, 0x00, 0x00, 0x00, 0x00, 0x00, 0x00, 0x7c, 0x00, 0x38, 0xfe, 0x06,
   0xc0, 0x01, 0x00, 0x00, 0xf0, 0x1f, 0x00, 0x38, 0x00, 0x38, 0xf0, 0x07,
   0x80, 0x03, 0x00, 0x00, 0xfe, 0xff, 0x00, 0x00, 0x00, 0x38, 0x80, 0x07,
   0x00, 0x07, 0x00, 0xc0, 0x7f, 0xf8, 0x03, 0x00, 0x00, 0x38, 0x00, 0x00,
   0x00, 0x1e, 0x00, 0xfe, 0x03, 0x00, 0x02, 0x00, 0x00, 0x38, 0x00, 0x00,
   0x00, 0xfc, 0xff, 0x7f, 0x00, 0x00, 0x02, 0x00, 0x00, 0x38, 0x00, 0x00,
   0x00, 0xf0, 0xff, 0x0f, 0x00, 0x00, 0x03, 0x00, 0x00, 0x38, 0x00, 0x00,
   0x00, 0x00, 0x7e, 0x00, 0x00, 0x00, 0x03, 0x00, 0x00, 0x18, 0x00, 0x00,
   0x00, 0x00, 0x00, 0x00, 0x00, 0x00, 0x33, 0x00, 0x00, 0x18, 0x00, 0x00,
   0x00, 0x00, 0x00, 0x00, 0x00, 0x00, 0x3b, 0x00, 0x00, 0x18, 0x00, 0x00,
   0x00, 0x00, 0x00, 0x00, 0x00, 0x00, 0x3f, 0x40, 0x00, 0x18, 0x00, 0x00,
   0x00, 0x00, 0x00, 0x00, 0x00, 0xc0, 0x37, 0x00, 0x00, 0x1c, 0x00, 0x00,
   0x00, 0x00, 0x00, 0x00, 0x00, 0xe0, 0x31, 0x00, 0x00, 0x0c, 0x00, 0x00,
   0x00, 0x00, 0x00, 0x00, 0x00, 0xf0, 0x30, 0x00, 0x00, 0x0e, 0x00, 0x00,
   0x00, 0x00, 0x00, 0x00, 0x00, 0x70, 0x30, 0x08, 0x02, 0x06, 0x00, 0x00,
   0x00, 0x00, 0x00, 0x00, 0x00, 0x30, 0x70, 0x00, 0x00, 0x06, 0x00, 0x00,
   0x00, 0x00, 0x00, 0x00, 0x00, 0x38, 0xfc, 0x00, 0x00, 0x03, 0x00, 0x00,
   0x00, 0x00, 0x00, 0x00, 0x00, 0x18, 0xfc, 0x00, 0x80, 0x03, 0x00, 0x00,
   0x00, 0x00, 0x00, 0x00, 0x00, 0x18, 0xfe, 0x01, 0xc0, 0x01, 0x00, 0x00,
   0x00, 0x00, 0x00, 0x00, 0x00, 0x18, 0xe6, 0x07, 0xe0, 0x00, 0x00, 0x00,
   0x00, 0x00, 0x00, 0x00, 0x00, 0x18, 0x06, 0x3e, 0x78, 0x00, 0x00, 0x00,
   0x00, 0x00, 0x00, 0x00, 0x00, 0x18, 0x06, 0xf8, 0x3f, 0x00, 0x00, 0x00,
   0x00, 0x00, 0x00, 0x00, 0x00, 0x18, 0x06, 0xe0, 0x0f, 0x00, 0x00, 0x00,
   0x00, 0x00, 0x00, 0x00, 0x00, 0x38, 0x06, 0x00, 0x00, 0x00, 0x00, 0x00,
   0x00, 0x00, 0x00, 0x00, 0x00, 0x30, 0x06, 0x00, 0x00, 0x00, 0x00, 0x00,
   0x00, 0x00, 0x00, 0x00, 0x00, 0xf0, 0x07, 0x00, 0x00, 0x00, 0x00, 0x00,
   0x00, 0x00, 0x00, 0x00, 0x00, 0xe0, 0x03, 0x00, 0x00, 0x00, 0x00, 0x00,
   0x00, 0x00, 0x00, 0x00, 0x00, 0x00, 0x00, 0x00, 0x00, 0x00, 0x00, 0x00,
   0x00, 0x00, 0x00, 0x00, 0x00, 0x00, 0x00, 0x00, 0x00, 0x00, 0x00, 0x00 };
