#define Background__80ms__width 92
#define Background__80ms__height 64
static unsigned char Background__80ms__bits[] = {
   0x00, 0x00, 0x00, 0x00, 0x00, 0xf8, 0x7f, 0x00, 0x00, 0x00, 0x00, 0x00,
   0x00, 0x00, 0x00, 0x00, 0xe0, 0xff, 0xff, 0x3f, 0x00, 0x00, 0x1f, 0x00,
   0x00, 0x00, 0x00, 0x00, 0xfe, 0xff, 0xff, 0xff, 0x03, 0x00, 0x3f, 0x00,
   0x00, 0x00, 0x00, 0xc0, 0x7f, 0x00, 0x00, 0xf8, 0x1f, 0x00, 0x73, 0x00,
   0x00, 0xe0, 0x0f, 0xff, 0x03, 0x00, 0x00, 0x00, 0xfe, 0x00, 0xe3, 0x00,
   0x00, 0xf0, 0xff, 0x7f, 0x00, 0x00, 0x00, 0x00, 0xf0, 0x01, 0xc6, 0x00,
   0x00, 0xf0, 0xff, 0x77, 0x00, 0x00, 0x00, 0x00, 0xc0, 0x07, 0x86, 0x01,
   0x00, 0xf8, 0x6f, 0x60, 0x00, 0x00, 0x00, 0x00, 0x00, 0x0f, 0x8c, 0x01,
   0x00, 0xf8, 0x6f, 0x60, 0x00, 0x00, 0x00, 0x00, 0x00, 0x1e, 0x1c, 0x03,
   0x00, 0xfe, 0x6f, 0x67, 0x00, 0x00, 0x00, 0x00, 0x00, 0x38, 0x18, 0x03,
   0x00, 0xff, 0xef, 0x6f, 0x00, 0x00, 0x00, 0x00, 0x00, 0x38, 0x9e, 0x03,
   0xc0, 0xf3, 0xe7, 0xc8, 0x00, 0x00, 0x00, 0x00, 0x00, 0x70, 0xc7, 0x01,
   0xe0, 0xf1, 0xe7, 0xc8, 0x00, 0x00, 0x00, 0x00, 0x00, 0xe0, 0xf3, 0x00,
   0xf0, 0xe0, 0x61, 0xc8, 0x00, 0x00, 0x00, 0x00, 0x00, 0xe0, 0x38, 0x00,
   0x70, 0xe0, 0x38, 0xca, 0x00, 0x00, 0x00, 0x00, 0x00, 0xc0, 0x1c, 0x00,
   0x38, 0xc0, 0x1f, 0xce, 0x00, 0x00, 0x00, 0x00, 0x00, 0xc0, 0x0f, 0x00,
   0x18, 0x80, 0x03, 0x8e, 0x01, 0x00, 0x00, 0x00, 0x00, 0xc0, 0x07, 0x00,
   0x18, 0x00, 0x00, 0x86, 0x01, 0x00, 0x00, 0x00, 0x00, 0x80, 0x01, 0x00,
   0x0c, 0x00, 0x78, 0x80, 0x01, 0x00, 0x00, 0xc0, 0x00, 0x80, 0x01, 0x00,
   0x0c, 0x00, 0xfe, 0x81, 0x01, 0x00, 0x00, 0xc0, 0x01, 0x80, 0x01, 0x00,
   0x0c, 0x00, 0xff, 0x83, 0x01, 0x00, 0x00, 0x60, 0x03, 0x80, 0x01, 0x00,
   0x0c, 0x00, 0xff, 0x07, 0x03, 0x00, 0x00, 0x60, 0x0f, 0x80, 0x01, 0x00,
   0x0c, 0x80, 0xff, 0x06, 0x03, 0x00, 0x00, 0x60, 0x09, 0x80, 0x01, 0x00,
   0x0c, 0x80, 0xff, 0x06, 0x03, 0x00, 0x00, 0x70, 0x0c, 0x80, 0x01, 0x00,
   0x0c, 0x80, 0xff, 0x0c, 0x02, 0x00, 0x00, 0x38, 0x0e, 0x80, 0x01, 0x00,
   0x0c, 0x80, 0xff, 0x0c, 0x02, 0x00, 0x00, 0x1c, 0x18, 0x80, 0x01, 0x00,
   0x0c, 0x80, 0x7f, 0x0c, 0x06, 0x00, 0x00, 0xce, 0x1d, 0x80, 0x01, 0x00,
   0x0c, 0x00, 0x3f, 0x0c, 0x04, 0x00, 0x80, 0xf3, 0x0f, 0x80, 0x01, 0x00,
   0x1c, 0x00, 0x1f, 0x06, 0x04, 0x00, 0x80, 0x19, 0x00, 0x80, 0x01, 0x00,
   0x18, 0x00, 0x06, 0x07, 0x00, 0x00, 0x00, 0x0c, 0x00, 0x80, 0x01, 0x00,
   0x18, 0x00, 0xfe, 0x03, 0x00, 0x00, 0x00, 0x03, 0x00, 0x80, 0x01, 0x00,
   0x18, 0x00, 0xfc, 0x01, 0x00, 0x00, 0x00, 0x01, 0x00, 0xc0, 0x03, 0x01,
   0x30, 0x00, 0x00, 0x00, 0x00, 0x00, 0x00, 0x00, 0x00, 0x00, 0xc7, 0x03,
   0x30, 0x00, 0x00, 0x00, 0x00, 0x00, 0x00, 0x00, 0x00, 0x00, 0x6e, 0x03,
   0x70, 0x00, 0x00, 0x00, 0x00, 0x00, 0x00, 0x00, 0x00, 0x40, 0x6c, 0x03,
   0xe0, 0x00, 0x00, 0x00, 0x00, 0xfe, 0x1f, 0x00, 0x00, 0xc0, 0x6c, 0x03,
   0xc0, 0x00, 0x00, 0x00, 0xc0, 0xff, 0xff, 0x01, 0x00, 0xc0, 0x7c, 0x03,
   0xc0, 0x01, 0x00, 0x00, 0xf0, 0x03, 0x06, 0x00, 0x00, 0xc0, 0x7c, 0x03,
   0x80, 0x03, 0x00, 0x00, 0x7c, 0x00, 0x02, 0x00, 0x00, 0xc0, 0x6c, 0x03,
   0x00, 0x0f, 0x00, 0xc0, 0x0f, 0x00, 0x03, 0x00, 0x00, 0xe0, 0x41, 0x03,
   0x00, 0x3c, 0x00, 0xf8, 0x03, 0x00, 0x03, 0x00, 0x00, 0xe0, 0x03, 0x03,
   0x00, 0xf8, 0xf3, 0xff, 0x00, 0x80, 0x03, 0x00, 0x00, 0x60, 0xbf, 0x03,
   0x00, 0xe0, 0xff, 0x1f, 0x00, 0x80, 0xf9, 0x02, 0x00, 0x60, 0xfc, 0x03,
   0x00, 0x00, 0x7f, 0x00, 0x00, 0x80, 0xff, 0x03, 0x00, 0x30, 0xe0, 0x00,
   0x00, 0x00, 0x00, 0x00, 0x00, 0xe0, 0x07, 0x01, 0x00, 0x30, 0x00, 0x00,
   0x00, 0x00, 0x00, 0x00, 0x00, 0xf8, 0x80, 0x01, 0x01, 0x30, 0x00, 0x00,
   0x00, 0x00, 0x00, 0x00, 0x00, 0x1e, 0x80, 0x01, 0x80, 0x18, 0x00, 0x00,
   0x00, 0x00, 0x00, 0x00, 0x00, 0x07, 0x80, 0x18, 0x08, 0x18, 0x00, 0x00,
   0x00, 0x00, 0x00, 0x00, 0x00, 0x03, 0xde, 0x18, 0x00, 0x1c, 0x00, 0x00,
   0x00, 0x00, 0x00, 0x00, 0x80, 0x01, 0xdf, 0x10, 0x00, 0x0c, 0x00, 0x00,
   0x00, 0x00, 0x00, 0x00, 0x80, 0xc1, 0xd3, 0x00, 0x00, 0x06, 0x00, 0x00,
   0x00, 0x00, 0x00, 0x00, 0x80, 0xe3, 0xf0, 0x01, 0x00, 0x06, 0x00, 0x00,
   0x00, 0x00, 0x00, 0x00, 0x00, 0x7f, 0x80, 0x03, 0x00, 0x03, 0x00, 0x00,
   0x00, 0x00, 0x00, 0x00, 0x00, 0x00, 0x00, 0x07, 0xc0, 0x01, 0x00, 0x00,
   0x00, 0x00, 0x00, 0x00, 0x00, 0x00, 0x00, 0x7e, 0xf0, 0x01, 0x00, 0x00,
   0x00, 0x00, 0x00, 0x00, 0x00, 0x00, 0x00, 0xf8, 0x7f, 0x00, 0x00, 0x00,
   0x00, 0x00, 0x00, 0x00, 0x00, 0x00, 0x00, 0x00, 0x0e, 0x00, 0x00, 0x00,
   0x00, 0x00, 0x00, 0x00, 0x00, 0x00, 0x00, 0x00, 0x00, 0x00, 0x00, 0x00,
   0x00, 0x00, 0x00, 0x00, 0x00, 0x00, 0x00, 0x00, 0x00, 0x00, 0x00, 0x00,
   0x00, 0x00, 0x00, 0x00, 0x00, 0x00, 0x00, 0x00, 0x00, 0x00, 0x00, 0x00,
   0x00, 0x00, 0x00, 0x00, 0x00, 0x00, 0x00, 0x00, 0x00, 0x00, 0x00, 0x00,
   0x00, 0x00, 0x00, 0x00, 0x00, 0x00, 0x00, 0x00, 0x00, 0x00, 0x00, 0x00,
   0x00, 0x00, 0x00, 0x00, 0x00, 0x00, 0x00, 0x00, 0x00, 0x00, 0x00, 0x00,
   0x00, 0x00, 0x00, 0x00, 0x00, 0x00, 0x00, 0x00, 0x00, 0x00, 0x00, 0x00 };
