#define Frame_7__80ms___replace__width 92
#define Frame_7__80ms___replace__height 64
static unsigned char Frame_7__80ms___replace__bits[] = {
   0x00, 0x00, 0x00, 0x00, 0x00, 0x00, 0x00, 0x00, 0x00, 0x00, 0x00, 0x00,
   0x00, 0x00, 0x00, 0x00, 0x00, 0x00, 0x00, 0x00, 0x00, 0x00, 0x00, 0x00,
   0x00, 0x00, 0x00, 0x00, 0x00, 0x00, 0x00, 0x00, 0x00, 0x00, 0x00, 0x00,
   0x00, 0x00, 0xf8, 0x03, 0xfc, 0xff, 0xff, 0x07, 0x00, 0x00, 0x00, 0x00,
   0x00, 0x00, 0xfe, 0xc7, 0xff, 0xff, 0xff, 0x7f, 0x00, 0x00, 0x00, 0x00,
   0x00, 0x00, 0xff, 0xfe, 0x07, 0x00, 0x00, 0xf8, 0x03, 0x00, 0x00, 0x00,
   0x00, 0x80, 0xff, 0xfe, 0x06, 0x00, 0x00, 0x80, 0x0f, 0x00, 0x00, 0x00,
   0x00, 0x80, 0xff, 0xfe, 0x06, 0x00, 0x00, 0x00, 0x3e, 0x00, 0x00, 0x00,
   0x00, 0xc0, 0x7f, 0x9e, 0x0f, 0x00, 0x00, 0x00, 0x78, 0x00, 0x00, 0x00,
   0x00, 0xf0, 0xbf, 0x87, 0x0d, 0x00, 0x00, 0x00, 0xe0, 0x00, 0x00, 0x00,
   0x00, 0x70, 0xfe, 0x87, 0x0d, 0x00, 0x00, 0x00, 0xc0, 0x01, 0x00, 0x00,
   0x00, 0x3c, 0x20, 0x81, 0x0d, 0x00, 0x00, 0x00, 0x00, 0x07, 0x00, 0x00,
   0x00, 0x1e, 0x00, 0xe0, 0x0d, 0x00, 0x00, 0x00, 0x00, 0x06, 0x00, 0x00,
   0x00, 0x0f, 0x00, 0xe0, 0x1c, 0x00, 0x00, 0x00, 0x00, 0x0c, 0x00, 0x00,
   0x00, 0x07, 0x00, 0x04, 0x18, 0x00, 0x00, 0x00, 0x00, 0x1c, 0x00, 0x00,
   0x80, 0x03, 0xe0, 0x1f, 0x18, 0x00, 0x00, 0x00, 0x00, 0x38, 0x00, 0x00,
   0x80, 0x03, 0xf0, 0x3f, 0x18, 0x00, 0x00, 0x00, 0x00, 0x30, 0x00, 0x00,
   0xc0, 0x01, 0xf8, 0x7f, 0x18, 0x00, 0x00, 0x00, 0x00, 0x60, 0x00, 0x00,
   0xc0, 0x01, 0xf8, 0x6f, 0x18, 0x00, 0x00, 0x00, 0x00, 0xc0, 0x80, 0x03,
   0xc0, 0x00, 0xf8, 0x6f, 0x18, 0x00, 0x00, 0x00, 0x00, 0xc0, 0xe0, 0x03,
   0xc0, 0x00, 0xf8, 0x6f, 0x18, 0x00, 0x00, 0x00, 0x00, 0x80, 0x61, 0x06,
   0xc0, 0x00, 0xf8, 0x6f, 0x30, 0x00, 0x00, 0x00, 0x00, 0x80, 0x61, 0x06,
   0xc0, 0x00, 0xf8, 0x67, 0x30, 0x00, 0x00, 0x00, 0x00, 0x80, 0x71, 0x06,
   0xc0, 0x00, 0xf8, 0x63, 0x30, 0x00, 0x00, 0x00, 0x00, 0x00, 0x71, 0x06,
   0xc0, 0x00, 0x98, 0x61, 0x30, 0x00, 0x00, 0x00, 0x00, 0xf0, 0x7f, 0x06,
   0xc0, 0x00, 0x38, 0x30, 0x10, 0x00, 0x00, 0x80, 0x01, 0x00, 0x7e, 0x06,
   0xc0, 0x00, 0x70, 0x3c, 0x00, 0x00, 0x00, 0xe0, 0x01, 0x00, 0x30, 0x06,
   0xc0, 0x00, 0xf0, 0x1f, 0x00, 0x00, 0x00, 0x70, 0x01, 0x00, 0x00, 0x02,
   0xc0, 0x00, 0xc0, 0x07, 0x00, 0x00, 0x00, 0xf8, 0x01, 0xe0, 0x1f, 0x02,
   0xc0, 0x01, 0x00, 0x00, 0x00, 0x00, 0xe0, 0xdf, 0x07, 0xe0, 0x7f, 0x02,
   0xc0, 0x01, 0x00, 0x00, 0x00, 0x00, 0xc0, 0x87, 0x0e, 0x00, 0xf7, 0x03,
   0x80, 0x01, 0x00, 0x00, 0x00, 0x00, 0x80, 0x80, 0x07, 0x00, 0xe7, 0x03,
   0x80, 0x01, 0x00, 0x00, 0x00, 0x00, 0x80, 0xdf, 0x03, 0x00, 0x23, 0x00,
   0x80, 0x03, 0x00, 0x00, 0x00, 0x00, 0x00, 0xbc, 0x01, 0x00, 0x33, 0x00,
   0x00, 0x07, 0x00, 0x00, 0x00, 0x00, 0x00, 0x70, 0x01, 0x00, 0x33, 0x00,
   0x00, 0x06, 0x00, 0x00, 0x00, 0x00, 0x00, 0xe0, 0x03, 0x00, 0x33, 0x00,
   0x00, 0x0e, 0x00, 0x00, 0x00, 0x00, 0x00, 0x80, 0x01, 0x00, 0x3b, 0x00,
   0x00, 0x1c, 0x00, 0x00, 0x00, 0xe0, 0x03, 0x00, 0x00, 0x00, 0x1f, 0x00,
   0x00, 0x18, 0x00, 0x00, 0x00, 0xff, 0x3f, 0x00, 0x00, 0x00, 0x0f, 0x00,
   0x00, 0x78, 0x00, 0x00, 0xfc, 0x1f, 0xf0, 0x00, 0x00, 0x00, 0x07, 0x00,
   0x00, 0xf0, 0x00, 0x80, 0xff, 0x00, 0x30, 0x00, 0x00, 0x80, 0x03, 0x00,
   0x00, 0xe0, 0x03, 0xf0, 0x0f, 0x00, 0x38, 0x00, 0x00, 0x80, 0x03, 0x00,
   0x00, 0xc0, 0xdf, 0xff, 0x01, 0x00, 0x38, 0x04, 0x00, 0x80, 0x03, 0x00,
   0x00, 0x00, 0xff, 0x3f, 0x00, 0x00, 0x38, 0x06, 0x00, 0x80, 0x01, 0x00,
   0x00, 0x00, 0xf8, 0x01, 0x00, 0x00, 0xb8, 0x07, 0x00, 0x80, 0x01, 0x00,
   0x00, 0x00, 0x00, 0x00, 0x00, 0x00, 0xf8, 0x07, 0x08, 0xc0, 0x01, 0x00,
   0x00, 0x00, 0x00, 0x00, 0x00, 0x00, 0xf8, 0x06, 0x08, 0xc2, 0x01, 0x00,
   0x00, 0x00, 0x00, 0x00, 0x00, 0x00, 0x3c, 0x06, 0x00, 0xc0, 0x00, 0x00,
   0x00, 0x00, 0x00, 0x00, 0x00, 0x00, 0x1e, 0x0c, 0x00, 0xe0, 0x00, 0x00,
   0x00, 0x00, 0x00, 0x00, 0x00, 0x00, 0x07, 0x0c, 0x03, 0xe0, 0x00, 0x00,
   0x00, 0x00, 0x00, 0x00, 0x00, 0x80, 0x03, 0x1c, 0x00, 0x70, 0x00, 0x00,
   0x00, 0x00, 0x00, 0x00, 0x00, 0xc0, 0x01, 0x1b, 0x00, 0x70, 0x00, 0x00,
   0x00, 0x00, 0x00, 0x00, 0x00, 0xc0, 0xc0, 0x3f, 0x00, 0x38, 0x00, 0x00,
   0x00, 0x00, 0x00, 0x00, 0x00, 0xe0, 0xf0, 0xfd, 0x00, 0x1c, 0x00, 0x00,
   0x00, 0x00, 0x00, 0x00, 0x00, 0x60, 0x78, 0xf8, 0x87, 0x0f, 0x00, 0x00,
   0x00, 0x00, 0x00, 0x00, 0x00, 0x70, 0x3c, 0x80, 0xff, 0x07, 0x00, 0x00,
   0x00, 0x00, 0x00, 0x00, 0x00, 0x70, 0x1e, 0x00, 0xfe, 0x01, 0x00, 0x00,
   0x00, 0x00, 0x00, 0x00, 0x00, 0xf0, 0x07, 0x00, 0x00, 0x00, 0x00, 0x00,
   0x00, 0x00, 0x00, 0x00, 0x00, 0xe0, 0x03, 0x00, 0x00, 0x00, 0x00, 0x00,
   0x00, 0x00, 0x00, 0x00, 0x00, 0x00, 0x00, 0x00, 0x00, 0x00, 0x00, 0x00,
   0x00, 0x00, 0x00, 0x00, 0x00, 0x00, 0x00, 0x00, 0x00, 0x00, 0x00, 0x00,
   0x00, 0x00, 0x00, 0x00, 0x00, 0x00, 0x00, 0x00, 0x00, 0x00, 0x00, 0x00,
   0x00, 0x00, 0x00, 0x00, 0x00, 0x00, 0x00, 0x00, 0x00, 0x00, 0x00, 0x00,
   0x00, 0x00, 0x00, 0x00, 0x00, 0x00, 0x00, 0x00, 0x00, 0x00, 0x00, 0x00 };
