#define Frame_8__80ms___replace__width 92
#define Frame_8__80ms___replace__height 64
static unsigned char Frame_8__80ms___replace__bits[] = {
   0x00, 0x00, 0x00, 0x00, 0x00, 0x00, 0x00, 0x00, 0x00, 0x00, 0x00, 0x00,
   0x00, 0xe0, 0x0f, 0x00, 0x00, 0xf8, 0xff, 0x0f, 0x00, 0x00, 0x00, 0x00,
   0x00, 0xf8, 0x1f, 0xf0, 0xff, 0xff, 0xff, 0xff, 0x01, 0x00, 0x00, 0x00,
   0x00, 0xf8, 0x1f, 0xfe, 0xff, 0x0f, 0x00, 0xfc, 0x0f, 0x00, 0x00, 0x00,
   0x00, 0xfc, 0xff, 0x3f, 0x00, 0x00, 0x00, 0x00, 0x7e, 0x00, 0x00, 0x00,
   0x00, 0xfc, 0xf7, 0x39, 0x00, 0x00, 0x00, 0x00, 0xf8, 0x00, 0x00, 0x00,
   0x00, 0xfc, 0xb3, 0x37, 0x00, 0x00, 0x00, 0x00, 0xc0, 0x81, 0x03, 0x00,
   0x00, 0xfc, 0xf1, 0x77, 0x00, 0x00, 0x00, 0x00, 0x00, 0xc7, 0x07, 0x00,
   0x00, 0xfe, 0xf8, 0x74, 0x00, 0x00, 0x00, 0x00, 0x00, 0x6e, 0x06, 0x00,
   0x80, 0x3f, 0x7c, 0x74, 0x00, 0x00, 0x00, 0x00, 0x00, 0x7c, 0x0e, 0x00,
   0xc0, 0x1f, 0x3c, 0x6c, 0x00, 0x00, 0x00, 0x00, 0x00, 0x78, 0x0e, 0x00,
   0xe0, 0xf9, 0x0f, 0x6c, 0x00, 0x00, 0x00, 0x00, 0x00, 0x78, 0x0c, 0x00,
   0xf0, 0xf0, 0x03, 0xe4, 0x00, 0x00, 0x00, 0x00, 0x00, 0x30, 0x0c, 0x00,
   0x70, 0x00, 0x00, 0xe7, 0x00, 0x00, 0x00, 0x00, 0x00, 0x30, 0x0c, 0x00,
   0x38, 0x00, 0x1c, 0xc7, 0x00, 0x00, 0x00, 0x00, 0x00, 0x30, 0x0c, 0x00,
   0x18, 0x00, 0x7f, 0xc0, 0x00, 0x00, 0x00, 0x00, 0x00, 0x70, 0x0c, 0x00,
   0x1c, 0x80, 0xff, 0xc0, 0x00, 0x00, 0x00, 0x00, 0x00, 0x60, 0x0c, 0x00,
   0x0c, 0xc0, 0xff, 0xc1, 0x00, 0x00, 0x00, 0x00, 0x00, 0xe0, 0x0e, 0x00,
   0x0e, 0xc0, 0xbf, 0xc1, 0x01, 0x00, 0x00, 0x00, 0x00, 0xe0, 0x07, 0x00,
   0x0e, 0xe0, 0xbf, 0xc1, 0x01, 0x00, 0x00, 0x00, 0x00, 0x60, 0x03, 0x00,
   0x0e, 0xe0, 0xff, 0x83, 0x01, 0x00, 0x00, 0x00, 0x00, 0x60, 0x00, 0x00,
   0x06, 0xe0, 0xbf, 0x83, 0x01, 0x00, 0x00, 0x00, 0x00, 0x60, 0x00, 0x00,
   0x07, 0xe0, 0x3f, 0x83, 0x01, 0x00, 0x00, 0x10, 0x00, 0x60, 0x00, 0x00,
   0x07, 0xe0, 0x1f, 0x03, 0x01, 0x00, 0x00, 0x38, 0x00, 0xe0, 0x00, 0x00,
   0x07, 0xe0, 0x8f, 0x03, 0x00, 0x00, 0x00, 0x2c, 0x00, 0xe0, 0x00, 0x00,
   0x07, 0x60, 0xc1, 0x01, 0x00, 0x00, 0x00, 0x34, 0x00, 0xe0, 0x00, 0x00,
   0x07, 0xc0, 0xe1, 0x00, 0x00, 0x00, 0x00, 0xf6, 0x00, 0x60, 0x00, 0x00,
   0x07, 0xc0, 0x7f, 0x00, 0x00, 0x00, 0x00, 0xf7, 0x00, 0x60, 0xc0, 0x03,
   0x07, 0x00, 0x3f, 0x00, 0x00, 0x00, 0xe0, 0xc7, 0x00, 0x60, 0xe0, 0x03,
   0x07, 0x00, 0x00, 0x00, 0x00, 0x00, 0x78, 0xf0, 0x00, 0x7c, 0x60, 0x02,
   0x06, 0x00, 0x00, 0x00, 0x00, 0x00, 0x0e, 0xf0, 0x00, 0xf0, 0x23, 0x03,
   0x06, 0x00, 0x00, 0x00, 0x00, 0x00, 0xf8, 0xdf, 0x01, 0x00, 0x3f, 0x03,
   0x0e, 0x00, 0x00, 0x00, 0x00, 0x00, 0xfc, 0xf9, 0x01, 0x00, 0x38, 0x03,
   0x0e, 0x00, 0x00, 0x00, 0x00, 0x00, 0x00, 0xe0, 0x00, 0x3c, 0x00, 0x03,
   0x0c, 0x00, 0x00, 0x00, 0x00, 0x00, 0x00, 0x00, 0x00, 0xfc, 0x01, 0x03,
   0x1c, 0x00, 0x00, 0x00, 0x00, 0x00, 0x00, 0x00, 0x00, 0xf8, 0x07, 0x03,
   0x18, 0x00, 0x00, 0x00, 0xf8, 0xff, 0x01, 0x00, 0x00, 0x38, 0x1e, 0x03,
   0x38, 0x00, 0x00, 0x00, 0xff, 0xff, 0x0f, 0x00, 0x00, 0x38, 0x78, 0x03,
   0x70, 0x00, 0x00, 0xe0, 0x0f, 0x00, 0x0a, 0x00, 0x00, 0x18, 0xe0, 0x01,
   0xe0, 0x00, 0x00, 0xf8, 0x00, 0x00, 0x03, 0x00, 0x00, 0x18, 0x00, 0x00,
   0xc0, 0x03, 0x00, 0x3f, 0x00, 0x00, 0x03, 0x00, 0x00, 0x18, 0x00, 0x00,
   0x80, 0x1f, 0xf8, 0x0f, 0x00, 0x00, 0x03, 0x00, 0x00, 0x1c, 0x00, 0x00,
   0x00, 0xfe, 0xff, 0x01, 0x00, 0x00, 0x03, 0x00, 0x00, 0x1c, 0x00, 0x00,
   0x00, 0xf0, 0x3f, 0x00, 0x00, 0x00, 0x33, 0x00, 0x00, 0x0c, 0x00, 0x00,
   0x00, 0x00, 0x00, 0x00, 0x00, 0x00, 0x33, 0x40, 0x10, 0x0c, 0x00, 0x00,
   0x00, 0x00, 0x00, 0x00, 0x00, 0x00, 0x3f, 0x00, 0x00, 0x0e, 0x00, 0x00,
   0x00, 0x00, 0x00, 0x00, 0x00, 0x80, 0x3f, 0x00, 0x00, 0x06, 0x00, 0x00,
   0x00, 0x00, 0x00, 0x00, 0x00, 0xc0, 0x33, 0x0c, 0x00, 0x07, 0x00, 0x00,
   0x00, 0x00, 0x00, 0x00, 0x00, 0xe0, 0x31, 0x0c, 0x02, 0x03, 0x00, 0x00,
   0x00, 0x00, 0x00, 0x00, 0x00, 0x70, 0x70, 0x00, 0x80, 0x01, 0x00, 0x00,
   0x00, 0x00, 0x00, 0x00, 0x00, 0x38, 0x60, 0x00, 0xc0, 0x01, 0x00, 0x00,
   0x00, 0x00, 0x00, 0x00, 0x00, 0x18, 0xf8, 0x00, 0xe0, 0x00, 0x00, 0x00,
   0x00, 0x00, 0x00, 0x00, 0x00, 0x1c, 0xfc, 0x01, 0x78, 0x00, 0x00, 0x00,
   0x00, 0x00, 0x00, 0x00, 0x00, 0x0c, 0xce, 0x8f, 0x3f, 0x00, 0x00, 0x00,
   0x00, 0x00, 0x00, 0x00, 0x00, 0x0c, 0x06, 0xfe, 0x0f, 0x00, 0x00, 0x00,
   0x00, 0x00, 0x00, 0x00, 0x00, 0x0c, 0x06, 0xf0, 0x01, 0x00, 0x00, 0x00,
   0x00, 0x00, 0x00, 0x00, 0x00, 0x0c, 0x06, 0x00, 0x00, 0x00, 0x00, 0x00,
   0x00, 0x00, 0x00, 0x00, 0x00, 0x0c, 0x06, 0x00, 0x00, 0x00, 0x00, 0x00,
   0x00, 0x00, 0x00, 0x00, 0x00, 0x0c, 0x06, 0x00, 0x00, 0x00, 0x00, 0x00,
   0x00, 0x00, 0x00, 0x00, 0x00, 0x1c, 0x02, 0x00, 0x00, 0x00, 0x00, 0x00,
   0x00, 0x00, 0x00, 0x00, 0x00, 0x18, 0x03, 0x00, 0x00, 0x00, 0x00, 0x00,
   0x00, 0x00, 0x00, 0x00, 0x00, 0xb8, 0x03, 0x00, 0x00, 0x00, 0x00, 0x00,
   0x00, 0x00, 0x00, 0x00, 0x00, 0xf0, 0x01, 0x00, 0x00, 0x00, 0x00, 0x00,
   0x00, 0x00, 0x00, 0x00, 0x00, 0xe0, 0x00, 0x00, 0x00, 0x00, 0x00, 0x00 };
