#define Frame_2__80ms___replace__width 92
#define Frame_2__80ms___replace__height 64
static unsigned char Frame_2__80ms___replace__bits[] = {
   0x00, 0x00, 0x00, 0x04, 0x00, 0x00, 0x00, 0x00, 0x00, 0x00, 0x00, 0x00,
   0x00, 0x00, 0xe0, 0x1f, 0x00, 0x00, 0x00, 0x00, 0x00, 0x00, 0x00, 0x00,
   0x00, 0x00, 0xf0, 0x3f, 0x00, 0x00, 0x00, 0xf8, 0x1f, 0x00, 0x00, 0x00,
   0x00, 0x00, 0xf0, 0xff, 0xff, 0xff, 0xff, 0xff, 0xff, 0x03, 0x00, 0x00,
   0x00, 0x00, 0xf8, 0x6f, 0x3e, 0x00, 0x20, 0x15, 0xc0, 0x0f, 0x00, 0x00,
   0x00, 0x00, 0xff, 0x67, 0x38, 0x00, 0x00, 0x00, 0x00, 0x1e, 0x00, 0x00,
   0x00, 0x80, 0xff, 0x67, 0x30, 0x00, 0x00, 0x00, 0x00, 0x38, 0x00, 0x00,
   0x00, 0xe0, 0xf7, 0xe7, 0x3f, 0x00, 0x00, 0x00, 0x00, 0x70, 0x00, 0x00,
   0x00, 0xe0, 0xf1, 0xe3, 0x3c, 0x00, 0x00, 0x00, 0x00, 0xe0, 0x80, 0x01,
   0x00, 0x70, 0xf0, 0x70, 0x3c, 0x00, 0x00, 0x00, 0x00, 0xc0, 0xc0, 0x01,
   0x00, 0x30, 0xe0, 0x38, 0x3c, 0x00, 0x00, 0x00, 0x00, 0xc0, 0xc1, 0x03,
   0x00, 0x38, 0xc0, 0x1f, 0x7c, 0x00, 0x00, 0x00, 0x00, 0x80, 0x61, 0x03,
   0x00, 0x18, 0x00, 0x03, 0x6c, 0x00, 0x00, 0x00, 0x00, 0x80, 0x6f, 0x03,
   0x00, 0x1c, 0x00, 0x00, 0x67, 0x00, 0x00, 0x00, 0x00, 0x00, 0x7f, 0x03,
   0x00, 0x1c, 0x00, 0x00, 0x67, 0x00, 0x00, 0x00, 0x00, 0x00, 0x73, 0x03,
   0x00, 0x0c, 0x00, 0x00, 0x60, 0x00, 0x00, 0x00, 0x00, 0x00, 0x66, 0x03,
   0x00, 0x0c, 0x00, 0x3f, 0x60, 0x00, 0x00, 0x00, 0x00, 0x00, 0x06, 0x03,
   0x00, 0x0e, 0x80, 0x7f, 0x60, 0x00, 0x00, 0x00, 0x00, 0x00, 0x1e, 0x03,
   0x00, 0x0e, 0xc0, 0xff, 0x60, 0x00, 0x00, 0x00, 0x00, 0x00, 0x3e, 0x03,
   0x00, 0x0e, 0xc0, 0xff, 0x61, 0x00, 0x00, 0x00, 0x00, 0x00, 0x66, 0x01,
   0x00, 0x0e, 0xe0, 0xbf, 0x61, 0x00, 0x00, 0x00, 0x00, 0x00, 0xcc, 0x01,
   0x00, 0x0e, 0xe0, 0xbf, 0x61, 0x00, 0x00, 0x00, 0x00, 0x00, 0x0c, 0x01,
   0x00, 0x0e, 0xe0, 0xbf, 0x61, 0x00, 0x00, 0x00, 0x03, 0x00, 0x0c, 0x00,
   0x00, 0x0e, 0xe0, 0xbf, 0x61, 0x00, 0x00, 0x80, 0x07, 0x00, 0x0c, 0x00,
   0x00, 0x0e, 0xe0, 0x9f, 0x41, 0x00, 0x00, 0xc0, 0x06, 0x00, 0x0c, 0x00,
   0x00, 0x0e, 0xc0, 0x8f, 0x41, 0x00, 0x00, 0xe0, 0x1f, 0x00, 0x0c, 0x00,
   0x00, 0x0e, 0xc0, 0xc1, 0x41, 0x00, 0x00, 0x70, 0x3c, 0x00, 0x0c, 0x00,
   0x00, 0x0c, 0x80, 0xe3, 0x40, 0x00, 0x00, 0x7c, 0x38, 0x00, 0x0c, 0x00,
   0x00, 0x0c, 0x00, 0x7f, 0x40, 0x00, 0x00, 0x0e, 0x1c, 0x00, 0x0c, 0x00,
   0x00, 0x0c, 0x00, 0x3e, 0x00, 0x00, 0x00, 0x07, 0x39, 0x00, 0x0c, 0x00,
   0x00, 0x18, 0x00, 0x00, 0x00, 0x00, 0x00, 0xe0, 0x3f, 0x00, 0x0c, 0x00,
   0x00, 0x18, 0x00, 0x00, 0x00, 0x00, 0x00, 0x7c, 0x3e, 0x00, 0x0c, 0x00,
   0x00, 0x30, 0x00, 0x00, 0x00, 0x00, 0x00, 0x07, 0x00, 0x00, 0x0c, 0x00,
   0x00, 0x70, 0x00, 0x00, 0x00, 0x00, 0x00, 0x00, 0x00, 0x00, 0x0c, 0x00,
   0x00, 0xe0, 0x00, 0x00, 0x00, 0x00, 0x00, 0x00, 0x00, 0x00, 0x0c, 0x00,
   0x00, 0xc0, 0x01, 0x00, 0x00, 0x00, 0x00, 0x00, 0x00, 0x00, 0x0c, 0x00,
   0x00, 0x80, 0x03, 0x00, 0x00, 0x00, 0x00, 0x00, 0x00, 0x00, 0x0c, 0x00,
   0x00, 0x00, 0x07, 0x00, 0x00, 0x00, 0xfc, 0x03, 0x00, 0x00, 0x0e, 0x00,
   0x00, 0x00, 0x0e, 0x00, 0x00, 0x80, 0xff, 0x07, 0x00, 0x28, 0x0e, 0x00,
   0x00, 0x00, 0x3c, 0x00, 0x00, 0xf8, 0x87, 0x01, 0x00, 0x4c, 0x06, 0x00,
   0x00, 0x00, 0x78, 0x00, 0xe0, 0x7f, 0x80, 0x01, 0x00, 0xdc, 0x06, 0x00,
   0x00, 0x00, 0xe0, 0x0f, 0xff, 0x07, 0x80, 0x01, 0x00, 0x98, 0x07, 0x00,
   0x00, 0x00, 0x80, 0xff, 0x1f, 0x00, 0x80, 0x01, 0x00, 0x98, 0x07, 0x00,
   0x00, 0x00, 0x00, 0xf0, 0x01, 0x00, 0x80, 0x09, 0x00, 0x38, 0x03, 0x00,
   0x00, 0x00, 0x00, 0x00, 0x00, 0x00, 0x80, 0x1f, 0x00, 0x30, 0x06, 0x00,
   0x00, 0x00, 0x00, 0x00, 0x00, 0x00, 0xc0, 0x1f, 0x00, 0x30, 0xfe, 0x01,
   0x00, 0x00, 0x00, 0x00, 0x00, 0xe0, 0xff, 0x1d, 0x20, 0x60, 0xfe, 0x03,
   0x00, 0x00, 0x00, 0x00, 0x00, 0xf8, 0x07, 0x18, 0x00, 0x60, 0x00, 0x03,
   0x00, 0x00, 0x00, 0x00, 0x00, 0x38, 0x00, 0x18, 0x00, 0x60, 0x80, 0x03,
   0x00, 0x00, 0x00, 0x00, 0x00, 0x0c, 0x00, 0x38, 0x06, 0xc0, 0xe0, 0x01,
   0x00, 0x00, 0x00, 0x00, 0x00, 0x18, 0x00, 0x32, 0x00, 0xc0, 0xff, 0x00,
   0x00, 0x00, 0x00, 0x00, 0x00, 0x38, 0xe0, 0x73, 0x00, 0x80, 0x3f, 0x00,
   0x00, 0x00, 0x00, 0x00, 0x00, 0xf0, 0xff, 0xf7, 0x00, 0xc0, 0x00, 0x00,
   0x00, 0x00, 0x00, 0x00, 0x00, 0x80, 0x07, 0xec, 0x01, 0x60, 0x00, 0x00,
   0x00, 0x00, 0x00, 0x00, 0x00, 0x00, 0x00, 0xbc, 0x03, 0x38, 0x00, 0x00,
   0x00, 0x00, 0x00, 0x00, 0x00, 0x00, 0x00, 0x38, 0xff, 0x1f, 0x00, 0x00,
   0x00, 0x00, 0x00, 0x00, 0x00, 0x00, 0x00, 0x00, 0xfc, 0x0f, 0x00, 0x00,
   0x00, 0x00, 0x00, 0x00, 0x00, 0x00, 0x00, 0x00, 0x00, 0x00, 0x00, 0x00,
   0x00, 0x00, 0x00, 0x00, 0x00, 0x00, 0x00, 0x00, 0x00, 0x00, 0x00, 0x00,
   0x00, 0x00, 0x00, 0x00, 0x00, 0x00, 0x00, 0x00, 0x00, 0x00, 0x00, 0x00,
   0x00, 0x00, 0x00, 0x00, 0x00, 0x00, 0x00, 0x00, 0x00, 0x00, 0x00, 0x00,
   0x00, 0x00, 0x00, 0x00, 0x00, 0x00, 0x00, 0x00, 0x00, 0x00, 0x00, 0x00,
   0x00, 0x00, 0x00, 0x00, 0x00, 0x00, 0x00, 0x00, 0x00, 0x00, 0x00, 0x00,
   0x00, 0x00, 0x00, 0x00, 0x00, 0x00, 0x00, 0x00, 0x00, 0x00, 0x00, 0x00 };
