#define Frame_6__80ms___replace__width 92
#define Frame_6__80ms___replace__height 64
static unsigned char Frame_6__80ms___replace__bits[] = {
   0x00, 0x00, 0x00, 0x00, 0x00, 0x00, 0x00, 0x00, 0x00, 0x00, 0x00, 0x00,
   0x00, 0x00, 0x00, 0x00, 0x1e, 0xfe, 0xff, 0xff, 0x03, 0x00, 0x00, 0x00,
   0x00, 0x00, 0x00, 0x3f, 0xff, 0xff, 0xff, 0xff, 0x3f, 0x00, 0x00, 0x00,
   0x00, 0x00, 0xe0, 0xbf, 0xfb, 0xff, 0x0f, 0x00, 0xfe, 0x00, 0x00, 0x00,
   0x00, 0x00, 0xf0, 0xf7, 0x71, 0x00, 0x00, 0x00, 0xe0, 0x03, 0x00, 0x00,
   0x00, 0x00, 0xf0, 0xf9, 0xf0, 0x00, 0x00, 0x00, 0x00, 0x0f, 0x00, 0x01,
   0x00, 0x00, 0x7c, 0x7e, 0xf0, 0x00, 0x00, 0x00, 0x00, 0x1e, 0xc0, 0x03,
   0x00, 0x00, 0xfe, 0x07, 0xd8, 0x00, 0x00, 0x00, 0x00, 0x38, 0xc0, 0x03,
   0x00, 0x00, 0x0f, 0x00, 0xde, 0x00, 0x00, 0x00, 0x00, 0x70, 0x60, 0x03,
   0x00, 0x00, 0x07, 0x30, 0xde, 0x00, 0x00, 0x00, 0x00, 0xf0, 0x60, 0x02,
   0x00, 0x80, 0x03, 0xfe, 0xc0, 0x00, 0x00, 0x00, 0x00, 0xe0, 0x20, 0x03,
   0x00, 0xc0, 0x01, 0xff, 0xc1, 0x00, 0x00, 0x00, 0x00, 0xc0, 0x31, 0x03,
   0x00, 0xc0, 0x81, 0xff, 0x83, 0x00, 0x00, 0x00, 0x00, 0x80, 0x31, 0x02,
   0x00, 0xe0, 0xc0, 0xff, 0x83, 0x01, 0x00, 0x00, 0x00, 0x80, 0x3f, 0x03,
   0x00, 0xe0, 0xc0, 0x7f, 0x83, 0x01, 0x00, 0x00, 0x00, 0x80, 0x3f, 0x03,
   0x00, 0x70, 0xc0, 0x7f, 0x83, 0x01, 0x00, 0x00, 0x00, 0xc0, 0x01, 0x03,
   0x00, 0x70, 0xc0, 0x7f, 0x83, 0x01, 0x00, 0x00, 0x00, 0x60, 0x00, 0x03,
   0x00, 0x30, 0xc0, 0x7f, 0x87, 0x01, 0x00, 0x00, 0x00, 0x30, 0x3c, 0x03,
   0x00, 0x38, 0xc0, 0x3f, 0x87, 0x01, 0x00, 0x00, 0x00, 0x10, 0xee, 0x03,
   0x00, 0x18, 0xc0, 0x01, 0x87, 0x01, 0x00, 0x00, 0x00, 0x10, 0xc3, 0x03,
   0x00, 0x18, 0x80, 0x01, 0x07, 0x01, 0x00, 0x00, 0x00, 0x80, 0x03, 0x03,
   0x00, 0x18, 0x80, 0x87, 0x03, 0x01, 0x00, 0x00, 0x00, 0x00, 0x03, 0x00,
   0x00, 0x18, 0x00, 0xff, 0x01, 0x01, 0x00, 0x00, 0x00, 0x00, 0x03, 0x00,
   0x00, 0x18, 0x00, 0xfc, 0x00, 0x00, 0x00, 0x00, 0x00, 0x00, 0x07, 0x00,
   0x00, 0x18, 0x00, 0x00, 0x00, 0x00, 0x00, 0x00, 0x00, 0x00, 0x07, 0x00,
   0x00, 0x18, 0x00, 0x00, 0x00, 0x00, 0x00, 0x00, 0x00, 0x00, 0x06, 0x00,
   0x00, 0x18, 0x00, 0x00, 0x00, 0x00, 0x00, 0x00, 0x00, 0x00, 0x06, 0x00,
   0x00, 0x38, 0x00, 0x00, 0x00, 0x00, 0x00, 0x00, 0x0e, 0x00, 0x0e, 0x00,
   0x00, 0x30, 0x00, 0x00, 0x00, 0x00, 0x00, 0x80, 0x0b, 0x00, 0x0e, 0x00,
   0x00, 0x30, 0x00, 0x00, 0x00, 0x00, 0x80, 0xc3, 0x0d, 0x00, 0x0c, 0x00,
   0x00, 0x70, 0x00, 0x00, 0x00, 0x00, 0x00, 0x7f, 0x0e, 0x00, 0x0e, 0x00,
   0x00, 0x60, 0x00, 0x00, 0x00, 0x00, 0x00, 0x06, 0x0f, 0x00, 0x0c, 0x00,
   0x00, 0xe0, 0x00, 0x00, 0x00, 0x00, 0x00, 0x3e, 0x1c, 0x00, 0x0c, 0x00,
   0x00, 0xc0, 0x01, 0x00, 0x00, 0x00, 0x00, 0x78, 0x1f, 0x00, 0x0c, 0x00,
   0x00, 0x80, 0x01, 0x00, 0x00, 0x00, 0x00, 0xe0, 0x0f, 0x00, 0x0e, 0x00,
   0x00, 0x80, 0x03, 0x00, 0x00, 0x00, 0x00, 0xc0, 0x03, 0x00, 0x0c, 0x00,
   0x00, 0x00, 0x07, 0x00, 0x00, 0x00, 0x00, 0x80, 0x03, 0x00, 0x0c, 0x00,
   0x00, 0x00, 0x06, 0x00, 0x00, 0xe0, 0x3f, 0x00, 0x00, 0x00, 0x0c, 0x00,
   0x00, 0x00, 0x0e, 0x00, 0x00, 0xfe, 0xff, 0x03, 0x00, 0x00, 0x0c, 0x00,
   0x00, 0x00, 0x3c, 0x00, 0x80, 0x3f, 0xc0, 0x0f, 0x00, 0x00, 0x0c, 0x00,
   0x00, 0x00, 0x78, 0x00, 0xf0, 0x03, 0x00, 0x1e, 0x00, 0x00, 0x0c, 0x00,
   0x00, 0x00, 0xf0, 0xff, 0xff, 0x00, 0x00, 0x22, 0x00, 0x00, 0x0c, 0x00,
   0x00, 0x00, 0xc0, 0xff, 0x3f, 0x00, 0x00, 0x03, 0x00, 0x00, 0x0c, 0x00,
   0x00, 0x00, 0x00, 0xfc, 0x00, 0x00, 0x00, 0x03, 0x00, 0x00, 0x8c, 0x01,
   0x00, 0x00, 0x00, 0x00, 0x00, 0x00, 0x00, 0x03, 0x00, 0x00, 0xfe, 0x03,
   0x00, 0x00, 0x00, 0x00, 0x00, 0x00, 0x00, 0x03, 0x00, 0x00, 0x3e, 0x03,
   0x00, 0x00, 0x00, 0x00, 0x00, 0x00, 0x80, 0x03, 0x00, 0x00, 0x0e, 0x03,
   0x00, 0x00, 0x00, 0x00, 0x00, 0x00, 0x80, 0x3b, 0x00, 0x00, 0x06, 0x03,
   0x00, 0x00, 0x00, 0x00, 0x00, 0x00, 0x80, 0x3f, 0x00, 0x00, 0xc6, 0x01,
   0x00, 0x00, 0x00, 0x00, 0x00, 0x00, 0xc0, 0x3f, 0x20, 0x00, 0xfe, 0x00,
   0x00, 0x00, 0x00, 0x00, 0x00, 0x80, 0xff, 0x33, 0x00, 0x00, 0x7f, 0x00,
   0x00, 0x00, 0x00, 0x00, 0x00, 0xf8, 0xff, 0x30, 0x00, 0x00, 0x0f, 0x00,
   0x00, 0x00, 0x00, 0x00, 0x00, 0xfc, 0x03, 0x30, 0x02, 0x00, 0x03, 0x00,
   0x00, 0x00, 0x00, 0x00, 0x00, 0x06, 0x00, 0x30, 0x00, 0x80, 0x01, 0x00,
   0x00, 0x00, 0x00, 0x00, 0x00, 0x06, 0x00, 0x3c, 0x40, 0x80, 0x01, 0x00,
   0x00, 0x00, 0x00, 0x00, 0x00, 0x1c, 0x00, 0x3f, 0x00, 0xc0, 0x01, 0x00,
   0x00, 0x00, 0x00, 0x00, 0x00, 0xfc, 0xe0, 0x7b, 0x00, 0xe0, 0x00, 0x00,
   0x00, 0x00, 0x00, 0x00, 0x00, 0xf0, 0xff, 0xe0, 0x00, 0x70, 0x00, 0x00,
   0x00, 0x00, 0x00, 0x00, 0x00, 0x80, 0x3f, 0xc0, 0x01, 0x38, 0x00, 0x00,
   0x00, 0x00, 0x00, 0x00, 0x00, 0x00, 0x00, 0x80, 0x07, 0x1c, 0x00, 0x00,
   0x00, 0x00, 0x00, 0x00, 0x00, 0x00, 0x00, 0x00, 0xff, 0x0f, 0x00, 0x00,
   0x00, 0x00, 0x00, 0x00, 0x00, 0x00, 0x00, 0x00, 0xfc, 0x07, 0x00, 0x00,
   0x00, 0x00, 0x00, 0x00, 0x00, 0x00, 0x00, 0x00, 0xe0, 0x00, 0x00, 0x00,
   0x00, 0x00, 0x00, 0x00, 0x00, 0x00, 0x00, 0x00, 0x00, 0x00, 0x00, 0x00 };
