#define Frame_8__80ms___replace__width 91
#define Frame_8__80ms___replace__height 64
static unsigned char Frame_8__80ms___replace__bits[] = {
   0x00, 0x00, 0x00, 0x00, 0x00, 0x3c, 0x00, 0x00, 0x00, 0x00, 0x00, 0x00,
   0x00, 0x00, 0x00, 0x00, 0x00, 0x7e, 0x00, 0x00, 0x00, 0x00, 0x00, 0x00,
   0x00, 0x00, 0x00, 0x00, 0x00, 0xe7, 0x00, 0x00, 0x00, 0x00, 0x00, 0x00,
   0x00, 0x00, 0x00, 0x00, 0x00, 0xc3, 0x00, 0x00, 0x00, 0x00, 0x00, 0x00,
   0x00, 0x00, 0x00, 0x00, 0x00, 0xc3, 0x01, 0x00, 0x00, 0x00, 0x00, 0x00,
   0x00, 0x00, 0x00, 0x00, 0x00, 0xc3, 0x01, 0x00, 0x00, 0x00, 0x00, 0x00,
   0x00, 0x00, 0x00, 0x00, 0x00, 0x83, 0x01, 0x00, 0x00, 0x00, 0x00, 0x00,
   0x00, 0x00, 0x00, 0x00, 0x00, 0x83, 0x01, 0x00, 0x00, 0x00, 0x00, 0x00,
   0x00, 0x00, 0x00, 0xff, 0x01, 0xc3, 0x01, 0x00, 0x00, 0x00, 0x00, 0x00,
   0x00, 0x00, 0xe0, 0xff, 0x87, 0xc3, 0x01, 0x00, 0x00, 0x00, 0x00, 0x00,
   0x00, 0x00, 0xf0, 0x01, 0xff, 0xc1, 0x01, 0x00, 0x00, 0x00, 0x00, 0x00,
   0x00, 0x00, 0x78, 0x00, 0xfc, 0xc0, 0x00, 0x00, 0x00, 0x00, 0x00, 0x00,
   0x00, 0x00, 0x1c, 0x00, 0x58, 0xe0, 0x00, 0x00, 0x00, 0x00, 0x00, 0x00,
   0x00, 0x00, 0x0e, 0x00, 0x30, 0x70, 0x00, 0x00, 0x00, 0x00, 0x00, 0x00,
   0x00, 0x00, 0x0e, 0x00, 0x30, 0x78, 0x00, 0x00, 0x00, 0x00, 0x00, 0x00,
   0x00, 0x00, 0x07, 0x81, 0x31, 0x3c, 0x00, 0x00, 0x00, 0x00, 0x00, 0x00,
   0x00, 0x00, 0x03, 0x80, 0x71, 0x1f, 0x00, 0x00, 0x00, 0x00, 0x00, 0x00,
   0x00, 0x80, 0x03, 0x00, 0xe0, 0x07, 0x00, 0x00, 0x00, 0x00, 0x00, 0x00,
   0x00, 0x80, 0x41, 0x00, 0xe0, 0x07, 0x00, 0x00, 0x00, 0x00, 0x00, 0x00,
   0x00, 0xc0, 0x21, 0x08, 0x60, 0x06, 0x00, 0x00, 0x00, 0x00, 0x00, 0x00,
   0x00, 0xc0, 0x00, 0x00, 0x60, 0x07, 0x00, 0x00, 0xe0, 0x7f, 0x00, 0x00,
   0x00, 0xc0, 0x00, 0x00, 0x20, 0x07, 0x00, 0x00, 0xfc, 0xff, 0x03, 0x00,
   0x00, 0xc0, 0x00, 0x00, 0x00, 0x07, 0x00, 0x80, 0xff, 0xc0, 0x0f, 0x00,
   0x00, 0xe0, 0x00, 0x00, 0x00, 0x07, 0x00, 0xe0, 0x07, 0x00, 0x1e, 0x00,
   0x06, 0xe0, 0x00, 0x00, 0x00, 0x03, 0x00, 0x7c, 0x00, 0x00, 0x78, 0x00,
   0x3e, 0xe0, 0x00, 0x00, 0xc0, 0x03, 0x80, 0x1f, 0x00, 0x00, 0x70, 0x00,
   0x7a, 0x60, 0x00, 0x00, 0x80, 0xff, 0xff, 0x07, 0x00, 0x00, 0xe0, 0x00,
   0xe3, 0x63, 0x00, 0x00, 0x00, 0xfc, 0xff, 0x00, 0x00, 0x00, 0xc0, 0x01,
   0x83, 0x7f, 0x00, 0x00, 0x00, 0x00, 0x00, 0x00, 0x00, 0x00, 0xc0, 0x01,
   0x03, 0xfc, 0x00, 0x00, 0x00, 0x00, 0x00, 0x00, 0x00, 0x00, 0x80, 0x01,
   0x03, 0xe0, 0x01, 0x38, 0x00, 0x00, 0x00, 0x00, 0x00, 0x00, 0x80, 0x03,
   0xe3, 0x00, 0x00, 0xfc, 0xfc, 0x01, 0x00, 0x00, 0x00, 0x00, 0x00, 0x03,
   0xf3, 0x03, 0x00, 0xcc, 0xff, 0x00, 0x00, 0x00, 0x00, 0x00, 0x00, 0x03,
   0x33, 0x3f, 0x00, 0x3c, 0x80, 0x03, 0x00, 0x00, 0x00, 0x00, 0x00, 0x07,
   0x33, 0xf8, 0x00, 0x38, 0xf0, 0x00, 0x00, 0x00, 0x00, 0x00, 0x00, 0x07,
   0x1b, 0xb8, 0x00, 0x1c, 0x3f, 0x00, 0x00, 0x00, 0xc0, 0x07, 0x00, 0x07,
   0x1f, 0x38, 0x00, 0x2c, 0x07, 0x00, 0x00, 0x00, 0xf0, 0x0f, 0x00, 0x07,
   0x06, 0x38, 0x00, 0x7c, 0x01, 0x00, 0x00, 0x00, 0x78, 0x1c, 0x00, 0x07,
   0x00, 0x18, 0x00, 0xb0, 0x01, 0x00, 0x00, 0x00, 0x1c, 0x38, 0x00, 0x07,
   0x00, 0x18, 0x00, 0xb0, 0x01, 0x00, 0x00, 0x00, 0x0c, 0x3f, 0x00, 0x07,
   0x00, 0x18, 0x00, 0xf0, 0x00, 0x00, 0x00, 0x04, 0xc6, 0x3f, 0x00, 0x07,
   0x00, 0x18, 0x00, 0x60, 0x00, 0x00, 0x00, 0x04, 0xe6, 0x3f, 0x00, 0x07,
   0x00, 0x18, 0x00, 0x00, 0x00, 0x00, 0x00, 0x0c, 0xee, 0x3f, 0x00, 0x07,
   0x00, 0x18, 0x00, 0x00, 0x00, 0x00, 0x00, 0x0c, 0xfe, 0x3f, 0x00, 0x03,
   0x00, 0x18, 0x00, 0x00, 0x00, 0x00, 0x00, 0x0c, 0xec, 0x3f, 0x80, 0x03,
   0x80, 0x1f, 0x00, 0x00, 0x00, 0x00, 0x00, 0x0c, 0xec, 0x3f, 0x80, 0x03,
   0x80, 0x3f, 0x00, 0x00, 0x00, 0x00, 0x00, 0x18, 0xfc, 0x1f, 0x80, 0x03,
   0x80, 0x39, 0x00, 0x00, 0x00, 0x00, 0x00, 0x18, 0xf8, 0x0f, 0xc0, 0x01,
   0x80, 0x30, 0x00, 0x00, 0x00, 0x00, 0x00, 0x18, 0xf0, 0x07, 0xc0, 0x01,
   0xc0, 0x30, 0x00, 0x00, 0x00, 0x00, 0x00, 0x18, 0xe2, 0x03, 0xe0, 0x00,
   0xc0, 0x30, 0x00, 0x00, 0x00, 0x00, 0x00, 0x18, 0x07, 0x00, 0xe0, 0x00,
   0xc0, 0x70, 0x00, 0x00, 0x00, 0x00, 0x00, 0x98, 0x07, 0x38, 0x70, 0x00,
   0xc0, 0x70, 0x00, 0x00, 0x00, 0x00, 0x00, 0xb8, 0x81, 0x7f, 0x38, 0x00,
   0x80, 0xf1, 0x00, 0x00, 0x00, 0x00, 0x00, 0xb8, 0xc1, 0xe3, 0x1e, 0x00,
   0x80, 0xd9, 0x00, 0x00, 0x00, 0x00, 0x00, 0xb0, 0xe1, 0xc1, 0x1f, 0x00,
   0x80, 0xd9, 0x01, 0x00, 0x00, 0x00, 0x00, 0xb0, 0xf1, 0xf0, 0x07, 0x00,
   0x80, 0x9f, 0x03, 0x00, 0x00, 0x00, 0x00, 0x70, 0xfb, 0xfc, 0x01, 0x00,
   0x00, 0x0f, 0x0f, 0x00, 0x00, 0x00, 0x00, 0x70, 0x6f, 0xfe, 0x01, 0x00,
   0x00, 0x00, 0x3c, 0x00, 0x00, 0x00, 0x00, 0x70, 0x70, 0xff, 0x01, 0x00,
   0x00, 0x00, 0xf8, 0x01, 0x00, 0x00, 0x00, 0xe0, 0x7f, 0xff, 0x01, 0x00,
   0x00, 0x00, 0xe0, 0x1f, 0x00, 0x00, 0x00, 0xfc, 0xef, 0xff, 0x01, 0x00,
   0x00, 0x00, 0x00, 0xff, 0xaf, 0xff, 0xff, 0xff, 0xc1, 0xff, 0x00, 0x00,
   0x00, 0x00, 0x00, 0xf8, 0xff, 0xff, 0xff, 0x03, 0xc0, 0x7f, 0x00, 0x00,
   0x00, 0x00, 0x00, 0x00, 0xf8, 0x00, 0x00, 0x00, 0x00, 0x1f, 0x00, 0x00 };
