#define Frame_4__80ms___replace__width 90
#define Frame_4__80ms___replace__height 60
static unsigned char Frame_4__80ms___replace__bits[] = {
   0x00, 0x00, 0x00, 0x00, 0x00, 0x3c, 0x00, 0x00, 0x00, 0x00, 0x00, 0x00,
   0x00, 0x00, 0x00, 0x00, 0x00, 0x7e, 0x00, 0x00, 0x00, 0x00, 0x00, 0x00,
   0x00, 0x00, 0x00, 0x00, 0x00, 0xe6, 0x00, 0x00, 0x00, 0x00, 0x00, 0x00,
   0x00, 0x00, 0x00, 0x00, 0x00, 0xc6, 0x01, 0x00, 0x00, 0x00, 0x00, 0x00,
   0x00, 0x00, 0x00, 0x00, 0x00, 0x86, 0x01, 0x00, 0x00, 0x00, 0x00, 0x00,
   0x00, 0x00, 0x80, 0xff, 0x00, 0x86, 0x01, 0x00, 0x00, 0x00, 0x00, 0x00,
   0x00, 0x00, 0xe0, 0xf3, 0x03, 0x86, 0x01, 0x00, 0x00, 0x00, 0x00, 0x00,
   0x00, 0x00, 0xf0, 0x00, 0x6f, 0x86, 0x01, 0x00, 0x00, 0x00, 0x00, 0x00,
   0x00, 0x00, 0x38, 0x00, 0xfc, 0x87, 0x01, 0x00, 0x00, 0x00, 0x00, 0x00,
   0x00, 0x00, 0x1c, 0x00, 0xf8, 0x87, 0x01, 0x00, 0x00, 0x00, 0x00, 0x00,
   0x00, 0x00, 0x0c, 0x00, 0xf0, 0x83, 0x01, 0x00, 0x00, 0x00, 0x00, 0x00,
   0x00, 0x00, 0x0e, 0x00, 0xe0, 0xc1, 0x01, 0x00, 0x00, 0x00, 0x00, 0x00,
   0x00, 0x00, 0x06, 0x04, 0xe1, 0xe0, 0x00, 0x00, 0x00, 0x00, 0x00, 0x00,
   0x00, 0x00, 0x03, 0x80, 0xc1, 0xe0, 0x00, 0x00, 0x00, 0x00, 0x00, 0x00,
   0x00, 0x00, 0x03, 0x00, 0xc0, 0x70, 0x00, 0x00, 0x00, 0x00, 0x00, 0x00,
   0x00, 0x80, 0x03, 0x00, 0xc0, 0x3c, 0x00, 0x00, 0x00, 0x00, 0x00, 0x00,
   0x00, 0x80, 0x11, 0x00, 0xc0, 0x1f, 0x00, 0x00, 0x00, 0x00, 0x00, 0x00,
   0x00, 0x80, 0x01, 0x20, 0xc0, 0x0f, 0x00, 0x00, 0x00, 0x00, 0x00, 0x00,
   0x00, 0x80, 0x01, 0x00, 0xc0, 0x0c, 0x00, 0x00, 0x00, 0x00, 0x00, 0x00,
   0x00, 0xc0, 0x01, 0x00, 0x40, 0x0c, 0x00, 0x00, 0x00, 0x00, 0x00, 0x00,
   0x00, 0xc0, 0x01, 0x00, 0x00, 0x0c, 0x00, 0x00, 0xf8, 0x3f, 0x00, 0x00,
   0x00, 0xc0, 0x01, 0x00, 0x00, 0x0c, 0x00, 0x80, 0xff, 0xff, 0x01, 0x00,
   0x00, 0xc0, 0x00, 0x00, 0x00, 0x04, 0x00, 0xf0, 0x7f, 0xe0, 0x07, 0x00,
   0x00, 0xc0, 0x00, 0x00, 0x00, 0x07, 0x00, 0xff, 0x01, 0x00, 0x0f, 0x00,
   0x00, 0xc0, 0x00, 0x00, 0x00, 0xfc, 0xff, 0x1f, 0x00, 0x00, 0x1e, 0x00,
   0x3e, 0xc0, 0x01, 0x00, 0x00, 0xf0, 0xff, 0x03, 0x00, 0x00, 0x18, 0x00,
   0xfe, 0xc0, 0x00, 0xe0, 0x01, 0x00, 0x7f, 0x00, 0x00, 0x00, 0x38, 0x00,
   0xe6, 0xc7, 0x00, 0xe0, 0x03, 0x00, 0x00, 0x00, 0x00, 0x00, 0x70, 0x00,
   0x86, 0xcf, 0x00, 0xe0, 0x0f, 0x00, 0x00, 0x00, 0x00, 0x00, 0xe0, 0x00,
   0x07, 0xfe, 0x01, 0xf0, 0xfc, 0x01, 0x00, 0x00, 0x00, 0x00, 0xc0, 0x00,
   0xe7, 0xf0, 0x00, 0x30, 0xf0, 0x03, 0x00, 0x00, 0x00, 0x00, 0xc0, 0x01,
   0xe3, 0xc7, 0x01, 0x30, 0x00, 0x00, 0x00, 0x00, 0x00, 0x00, 0x80, 0x01,
   0xf3, 0xdf, 0x01, 0xf0, 0xf8, 0x01, 0x00, 0x00, 0x00, 0x00, 0x80, 0x01,
   0x23, 0xfc, 0x01, 0xe0, 0xfc, 0x03, 0x00, 0x00, 0x00, 0x00, 0x80, 0x01,
   0x33, 0xe0, 0x01, 0x70, 0x0e, 0x00, 0x00, 0x00, 0x00, 0x00, 0x80, 0x01,
   0x33, 0xc0, 0x01, 0x30, 0x03, 0x00, 0x00, 0x00, 0x00, 0x00, 0x80, 0x03,
   0x3f, 0xc0, 0x01, 0xf0, 0x01, 0x00, 0x00, 0x00, 0x00, 0x00, 0x80, 0x03,
   0x3e, 0xc0, 0x01, 0x00, 0x00, 0x00, 0x00, 0x00, 0x00, 0x00, 0x80, 0x03,
   0x00, 0x80, 0x01, 0x00, 0x00, 0x00, 0x00, 0x00, 0xf0, 0x07, 0x80, 0x03,
   0x00, 0x80, 0x01, 0x00, 0x00, 0x00, 0x00, 0x00, 0xf8, 0x0f, 0x80, 0x03,
   0x00, 0x80, 0x05, 0x00, 0x00, 0x00, 0x00, 0x00, 0x1c, 0x1c, 0x80, 0x03,
   0x00, 0x80, 0x07, 0x00, 0x00, 0x00, 0x00, 0x00, 0x8e, 0x1f, 0x80, 0x03,
   0x00, 0x80, 0x27, 0x00, 0x00, 0x00, 0x00, 0x06, 0xc6, 0x3f, 0x80, 0x03,
   0x00, 0x80, 0x27, 0x00, 0x00, 0x00, 0x00, 0x04, 0xe7, 0x3f, 0x80, 0x03,
   0x00, 0xf0, 0x67, 0x00, 0x00, 0x00, 0x00, 0x0c, 0xf7, 0x3f, 0x80, 0x01,
   0x00, 0xdc, 0x67, 0x00, 0x00, 0x00, 0x00, 0x0c, 0xf7, 0x3f, 0xc0, 0x01,
   0x00, 0x8c, 0x63, 0x00, 0x00, 0x00, 0x00, 0x0c, 0xf6, 0x3f, 0xc0, 0x01,
   0x00, 0x06, 0x60, 0x00, 0x00, 0x00, 0x00, 0x08, 0xee, 0x3f, 0xe0, 0x00,
   0x00, 0x06, 0x60, 0x00, 0x00, 0x00, 0x00, 0x18, 0xfc, 0x1f, 0xe0, 0x00,
   0x00, 0x06, 0x20, 0x00, 0x00, 0x00, 0x00, 0x18, 0xfc, 0x0f, 0x70, 0x00,
   0x00, 0xc2, 0x3f, 0x00, 0x00, 0x00, 0x00, 0x18, 0xf0, 0x07, 0x38, 0x00,
   0x00, 0xc2, 0x1f, 0x00, 0x00, 0x00, 0x00, 0x18, 0x06, 0x00, 0x3c, 0x00,
   0x00, 0x62, 0x3c, 0x00, 0x00, 0x00, 0x00, 0x30, 0x0f, 0x7c, 0x1e, 0x00,
   0x00, 0x66, 0x78, 0x00, 0x00, 0x00, 0x00, 0xb0, 0x01, 0xff, 0x0e, 0x00,
   0x00, 0x7e, 0xe0, 0x03, 0x00, 0x00, 0x00, 0x30, 0x81, 0xe1, 0x07, 0x00,
   0x00, 0x3c, 0xc0, 0x3f, 0x00, 0x00, 0x00, 0x30, 0xc1, 0xfc, 0x03, 0x00,
   0x00, 0x00, 0x00, 0xfe, 0x03, 0x00, 0x00, 0x60, 0xf3, 0xfe, 0x00, 0x00,
   0x00, 0x00, 0x00, 0xe0, 0xff, 0x00, 0x80, 0xff, 0xfb, 0x3f, 0x00, 0x00,
   0x00, 0x00, 0x00, 0x00, 0xfe, 0xff, 0xff, 0x7f, 0x1f, 0x00, 0x00, 0x00,
   0x00, 0x00, 0x00, 0x00, 0x00, 0xff, 0x7f, 0x00, 0x0e, 0x00, 0x00, 0x00 };
