#define Frame_7__80ms___replace__width 86
#define Frame_7__80ms___replace__height 57
static unsigned char Frame_7__80ms___replace__bits[] = {
   0x00, 0x00, 0x00, 0x00, 0x00, 0x3c, 0x00, 0x00, 0x00, 0x00, 0x00, 0x00,
   0x00, 0x00, 0x00, 0x00, 0x7e, 0x00, 0x00, 0x00, 0x00, 0x00, 0x00, 0x00,
   0x00, 0x00, 0x80, 0x77, 0x00, 0x00, 0x00, 0x00, 0x00, 0x00, 0x00, 0xfe,
   0x0f, 0xc0, 0x63, 0x00, 0x00, 0x00, 0x00, 0x00, 0x00, 0x80, 0xff, 0x3f,
   0xe0, 0x71, 0x00, 0x00, 0x00, 0x00, 0x00, 0x00, 0xc0, 0x01, 0xf8, 0x79,
   0x30, 0x00, 0x00, 0x00, 0x00, 0x00, 0x00, 0xe0, 0x00, 0xe0, 0x3f, 0x38,
   0x00, 0x00, 0x00, 0x00, 0x00, 0x00, 0x60, 0x00, 0xc0, 0x0e, 0x18, 0x00,
   0x00, 0x00, 0x00, 0x00, 0x00, 0x70, 0x00, 0xc0, 0x01, 0x0c, 0x00, 0x00,
   0x00, 0x00, 0x00, 0x00, 0x38, 0x10, 0x86, 0x01, 0x0e, 0x00, 0x00, 0x00,
   0x00, 0x00, 0x00, 0x38, 0x00, 0x84, 0x83, 0x07, 0x00, 0x00, 0x00, 0x00,
   0x00, 0x00, 0x18, 0x00, 0x80, 0xe3, 0x03, 0x00, 0x00, 0x00, 0x00, 0x00,
   0x00, 0x1c, 0x02, 0x00, 0xf3, 0x00, 0x00, 0x00, 0x00, 0x00, 0x00, 0x00,
   0x1c, 0x80, 0x00, 0xff, 0x00, 0x00, 0x00, 0x00, 0x00, 0x00, 0x00, 0x0c,
   0x00, 0x00, 0xdf, 0x00, 0x00, 0x00, 0x00, 0x00, 0x00, 0x00, 0x0c, 0x00,
   0x00, 0xcf, 0x00, 0x00, 0x80, 0xff, 0x07, 0x00, 0x00, 0x0e, 0x00, 0x00,
   0xc3, 0x00, 0x00, 0xf0, 0xff, 0x1f, 0x00, 0x00, 0x0e, 0x00, 0x00, 0xc1,
   0x00, 0x00, 0xfe, 0x01, 0x3e, 0x00, 0x00, 0x0e, 0x00, 0x00, 0xe0, 0x00,
   0xe0, 0x1f, 0x00, 0x78, 0x00, 0x00, 0x07, 0x00, 0x00, 0x60, 0x00, 0xff,
   0x03, 0x00, 0xe0, 0x00, 0x80, 0x07, 0x00, 0x00, 0xf0, 0xff, 0x7f, 0x00,
   0x00, 0xc0, 0x01, 0xc0, 0x07, 0x00, 0x00, 0xc0, 0xff, 0x03, 0x00, 0x00,
   0xc0, 0x01, 0xc0, 0x06, 0x00, 0x00, 0x00, 0x00, 0x00, 0x00, 0x00, 0x80,
   0x03, 0xe0, 0x06, 0x00, 0x1c, 0x00, 0x00, 0x00, 0x00, 0x00, 0x00, 0x07,
   0x60, 0x06, 0x00, 0x34, 0x00, 0x00, 0x00, 0x00, 0x00, 0x00, 0x06, 0x20,
   0x06, 0x00, 0xec, 0x00, 0x00, 0x00, 0x00, 0x00, 0x00, 0x0e, 0x20, 0x06,
   0x00, 0xdc, 0x0f, 0x00, 0x00, 0x00, 0x00, 0x00, 0x0c, 0x2e, 0x06, 0x00,
   0x1f, 0x1f, 0x00, 0x00, 0x00, 0x00, 0x00, 0x1c, 0x3f, 0x07, 0x80, 0x03,
   0x00, 0x00, 0x00, 0x00, 0x00, 0x00, 0x18, 0xfb, 0x0f, 0x00, 0x9f, 0x7f,
   0x00, 0x00, 0x00, 0x00, 0x00, 0x18, 0xe3, 0x3f, 0x00, 0xdf, 0x01, 0x00,
   0x00, 0x00, 0x00, 0x00, 0x38, 0x03, 0x1f, 0x00, 0x6c, 0x00, 0x00, 0x00,
   0x80, 0x3f, 0x00, 0x38, 0x03, 0x00, 0x00, 0x7c, 0x00, 0x00, 0x00, 0xc0,
   0x7f, 0x00, 0x38, 0xf3, 0x00, 0x00, 0x1c, 0x00, 0x00, 0x40, 0xe0, 0xe0,
   0x00, 0x38, 0xf3, 0x3f, 0x00, 0x00, 0x00, 0x00, 0x40, 0x60, 0xc0, 0x00,
   0x38, 0x33, 0x3e, 0x00, 0x00, 0x00, 0x00, 0x40, 0x30, 0xfc, 0x01, 0x38,
   0x33, 0x04, 0x00, 0x00, 0x00, 0x00, 0x40, 0x30, 0xfe, 0x01, 0x38, 0x33,
   0x0c, 0x00, 0x00, 0x00, 0x00, 0xc0, 0x30, 0xff, 0x01, 0x38, 0x33, 0x0c,
   0x00, 0x00, 0x00, 0x00, 0xc0, 0x30, 0xff, 0x01, 0x38, 0x3b, 0x08, 0x00,
   0x00, 0x00, 0x00, 0xc0, 0xb0, 0xff, 0x01, 0x38, 0x1e, 0x18, 0x00, 0x00,
   0x00, 0x00, 0xc0, 0xf0, 0xff, 0x01, 0x38, 0x04, 0x38, 0x00, 0x00, 0x00,
   0x00, 0xc0, 0xf0, 0xff, 0x01, 0x38, 0x00, 0x30, 0x00, 0x00, 0x00, 0x00,
   0xc0, 0xe0, 0xff, 0x00, 0x18, 0x00, 0x60, 0x00, 0x00, 0x00, 0x00, 0xc0,
   0xc0, 0x7f, 0x00, 0x1c, 0x00, 0xc0, 0x00, 0x00, 0x00, 0x00, 0x80, 0x81,
   0x1f, 0x00, 0x0e, 0x00, 0xc0, 0x01, 0x00, 0x00, 0x00, 0x80, 0x31, 0x00,
   0x00, 0x0f, 0x00, 0x80, 0x03, 0x00, 0x00, 0x00, 0x80, 0x39, 0x00, 0x00,
   0x07, 0x00, 0x00, 0x07, 0x00, 0x00, 0x00, 0x80, 0x19, 0x00, 0xc0, 0x03,
   0x00, 0x00, 0x0e, 0x00, 0x00, 0x00, 0x80, 0x19, 0xfc, 0xe1, 0x01, 0x00,
   0x00, 0x1c, 0x00, 0x00, 0x00, 0x80, 0x1b, 0xfe, 0xf7, 0x00, 0x00, 0x00,
   0x38, 0x00, 0x00, 0x00, 0x00, 0x1b, 0xef, 0x7f, 0x00, 0x00, 0x00, 0xf0,
   0x00, 0x00, 0x00, 0x00, 0xdb, 0xf7, 0x3f, 0x00, 0x00, 0x00, 0xc0, 0x07,
   0x00, 0x00, 0x00, 0xfb, 0xf6, 0x1f, 0x00, 0x00, 0x00, 0x00, 0x3f, 0x00,
   0x00, 0x00, 0xfb, 0xf7, 0x0f, 0x00, 0x00, 0x00, 0x00, 0xfc, 0x07, 0x00,
   0x80, 0xff, 0xf7, 0x07, 0x00, 0x00, 0x00, 0x00, 0xe0, 0xff, 0xff, 0xff,
   0x0f, 0xfe, 0x03, 0x00, 0x00, 0x00, 0x00, 0x00, 0xfe, 0xff, 0xff, 0x01,
   0xfc, 0x00, 0x00 };
