#define Frame_5__80ms___replace__width 90
#define Frame_5__80ms___replace__height 60
static unsigned char Frame_5__80ms___replace__bits[] = {
   0x00, 0x00, 0x00, 0x0e, 0x00, 0x80, 0x0f, 0x00, 0x00, 0x00, 0x00, 0x00,
   0x00, 0x00, 0xe0, 0xff, 0x00, 0xe0, 0x0f, 0x00, 0x00, 0x00, 0x00, 0x00,
   0x00, 0x00, 0xf8, 0xff, 0x03, 0x70, 0x0c, 0x00, 0x00, 0x00, 0x00, 0x00,
   0x00, 0x00, 0x3c, 0x80, 0x0f, 0x18, 0x0c, 0x00, 0x00, 0x00, 0x00, 0x00,
   0x00, 0x00, 0x0e, 0x00, 0x1e, 0x1c, 0x0c, 0x00, 0x00, 0x00, 0x00, 0x00,
   0x00, 0x00, 0x06, 0x00, 0x7c, 0x06, 0x0e, 0x00, 0x00, 0x00, 0x00, 0x00,
   0x00, 0x00, 0x07, 0x00, 0x78, 0x07, 0x06, 0x00, 0x00, 0x00, 0x00, 0x00,
   0x00, 0x80, 0x03, 0x00, 0xf0, 0x03, 0x03, 0x00, 0x00, 0x00, 0x00, 0x00,
   0x00, 0x80, 0x01, 0x02, 0xb0, 0x80, 0x03, 0x00, 0x00, 0x00, 0x00, 0x00,
   0x00, 0xc0, 0x01, 0x40, 0x30, 0xc0, 0x01, 0x00, 0x00, 0x00, 0x00, 0x00,
   0x00, 0xe0, 0x00, 0x00, 0x30, 0xe0, 0x00, 0x00, 0x00, 0x00, 0x00, 0x00,
   0x00, 0x60, 0x00, 0x00, 0x30, 0x78, 0x00, 0x00, 0x00, 0x00, 0x00, 0x00,
   0x00, 0x60, 0x00, 0x00, 0xb8, 0x1f, 0x00, 0x00, 0x00, 0x00, 0x00, 0x00,
   0x00, 0x70, 0x00, 0x04, 0xf8, 0x07, 0x00, 0x00, 0x00, 0x00, 0x00, 0x00,
   0x00, 0x30, 0x00, 0x00, 0xf8, 0x01, 0x00, 0x00, 0x00, 0x00, 0x00, 0x00,
   0x00, 0x30, 0x00, 0x00, 0x08, 0x03, 0x00, 0x00, 0x00, 0x00, 0x00, 0x00,
   0x00, 0x30, 0x00, 0x00, 0x00, 0x03, 0x00, 0x00, 0xc0, 0x3f, 0x00, 0x00,
   0x00, 0x30, 0x00, 0x00, 0x00, 0x03, 0x00, 0x00, 0xfc, 0xff, 0x00, 0x00,
   0xe0, 0x31, 0x00, 0x00, 0x00, 0x02, 0x00, 0x80, 0xff, 0xf9, 0x03, 0x00,
   0xf8, 0x3b, 0x00, 0x00, 0x00, 0x03, 0x00, 0xf8, 0x1f, 0x80, 0x07, 0x00,
   0x3e, 0x3b, 0x00, 0xf0, 0x00, 0x03, 0x80, 0xff, 0x01, 0x00, 0x0f, 0x00,
   0x0f, 0x3f, 0x00, 0xf0, 0x01, 0x03, 0xfc, 0x1f, 0x00, 0x00, 0x1c, 0x00,
   0x03, 0x3e, 0x00, 0x30, 0xf3, 0xff, 0xff, 0x03, 0x00, 0x00, 0x38, 0x00,
   0x33, 0x3e, 0x00, 0x34, 0xc3, 0xff, 0x1f, 0x00, 0x00, 0x00, 0x38, 0x00,
   0x33, 0x1c, 0x00, 0x7e, 0x03, 0x00, 0x00, 0x00, 0x00, 0x00, 0x70, 0x00,
   0x63, 0x18, 0x00, 0x26, 0x03, 0x00, 0x00, 0x00, 0x00, 0x00, 0xe0, 0x00,
   0xe3, 0x18, 0x00, 0x1e, 0x07, 0x00, 0x00, 0x00, 0x00, 0x00, 0xe0, 0x00,
   0xe3, 0x19, 0x00, 0x18, 0x1e, 0x00, 0x00, 0x00, 0x00, 0x00, 0xc0, 0x01,
   0xbf, 0x1f, 0x00, 0x9e, 0x38, 0x00, 0x00, 0x00, 0x00, 0x00, 0xc0, 0x01,
   0x3e, 0x1f, 0x00, 0xe6, 0x77, 0x00, 0x00, 0x00, 0x00, 0x00, 0x80, 0x01,
   0x00, 0x18, 0x00, 0x3e, 0x1e, 0x00, 0x00, 0x00, 0x00, 0x00, 0x80, 0x01,
   0x00, 0x18, 0x00, 0x0e, 0x30, 0x00, 0x00, 0x00, 0x00, 0x00, 0x80, 0x03,
   0x00, 0x1c, 0x00, 0x00, 0x00, 0x00, 0x00, 0x00, 0x00, 0x00, 0x80, 0x03,
   0x00, 0x1c, 0x00, 0x00, 0x00, 0x00, 0x00, 0x00, 0x00, 0x00, 0x80, 0x03,
   0x00, 0x1c, 0x00, 0x00, 0x00, 0x00, 0x00, 0x00, 0x00, 0x00, 0x80, 0x03,
   0x00, 0x1c, 0x00, 0x00, 0x00, 0x00, 0x00, 0x00, 0x00, 0x00, 0x80, 0x03,
   0x00, 0x1c, 0x00, 0x00, 0x00, 0x00, 0x00, 0x00, 0xf8, 0x07, 0x80, 0x03,
   0x00, 0x1c, 0x00, 0x00, 0x00, 0x00, 0x00, 0x00, 0xfc, 0x0f, 0x80, 0x03,
   0x00, 0x1c, 0x00, 0x00, 0x00, 0x00, 0x00, 0x00, 0x0e, 0x0e, 0x80, 0x03,
   0x00, 0x1c, 0x00, 0x00, 0x00, 0x00, 0x00, 0x02, 0x07, 0x1c, 0x80, 0x01,
   0x00, 0x18, 0x00, 0x00, 0x00, 0x00, 0x00, 0x02, 0xc3, 0x19, 0x80, 0x01,
   0x00, 0x18, 0x00, 0x00, 0x00, 0x00, 0x00, 0x02, 0xe3, 0x1f, 0xc0, 0x01,
   0x00, 0x18, 0x00, 0x00, 0x00, 0x00, 0x00, 0x06, 0xf1, 0x1f, 0xc0, 0x00,
   0x00, 0x1e, 0x00, 0x00, 0x00, 0x00, 0x00, 0x06, 0xfb, 0x1f, 0xe0, 0x00,
   0x80, 0x07, 0x00, 0x00, 0x00, 0x00, 0x00, 0x06, 0xfb, 0x1f, 0x60, 0x00,
   0xc0, 0x21, 0x00, 0x00, 0x00, 0x00, 0x00, 0x06, 0xfb, 0x0f, 0x70, 0x00,
   0x70, 0x38, 0x00, 0x00, 0x00, 0x00, 0x00, 0x0e, 0xff, 0x0f, 0x38, 0x00,
   0x38, 0x1c, 0x00, 0x00, 0x00, 0x00, 0x00, 0x0c, 0xfe, 0x07, 0x1c, 0x00,
   0x1c, 0x1e, 0x00, 0x00, 0x00, 0x00, 0x00, 0x0c, 0xfc, 0x01, 0x0e, 0x00,
   0x0c, 0x37, 0x00, 0x00, 0x00, 0x00, 0x00, 0x0c, 0x78, 0x00, 0x0f, 0x00,
   0x86, 0x73, 0x00, 0x00, 0x00, 0x00, 0x00, 0x8c, 0x07, 0xe0, 0x07, 0x00,
   0xc6, 0xe0, 0x00, 0x00, 0x00, 0x00, 0x00, 0x8c, 0x07, 0xff, 0x01, 0x00,
   0xc6, 0xc0, 0x03, 0x00, 0x00, 0x00, 0x00, 0xcc, 0xe0, 0xff, 0x00, 0x00,
   0xcc, 0x01, 0x1f, 0x00, 0x00, 0x00, 0x00, 0xcc, 0xf0, 0x7e, 0x00, 0x00,
   0x8c, 0x01, 0xfe, 0x07, 0x00, 0x00, 0x00, 0xcc, 0x78, 0x7f, 0x00, 0x00,
   0x18, 0x03, 0xf0, 0xff, 0x0f, 0x00, 0x80, 0xff, 0xfc, 0x1f, 0x00, 0x00,
   0x38, 0x06, 0x00, 0xfe, 0xff, 0xff, 0xff, 0xff, 0xef, 0x07, 0x00, 0x00,
   0x30, 0x06, 0x00, 0x00, 0xff, 0xff, 0xff, 0xc7, 0x07, 0x00, 0x00, 0x00,
   0xe0, 0x07, 0x00, 0x00, 0x00, 0xff, 0x07, 0x80, 0x01, 0x00, 0x00, 0x00,
   0xc0, 0x07, 0x00, 0x00, 0x00, 0x00, 0x00, 0x00, 0x00, 0x00, 0x00, 0x00 };
