#define Frame_2__80ms___replace__width 82
#define Frame_2__80ms___replace__height 58
static unsigned char Frame_2__80ms___replace__bits[] = {
   0x00, 0x80, 0x7f, 0x00, 0x00, 0x00, 0x00, 0x00, 0x00, 0x00, 0x00, 0x00,
   0xe0, 0xff, 0x21, 0x00, 0x00, 0x00, 0x00, 0x00, 0x00, 0x00, 0x00, 0xf0,
   0xc0, 0xf7, 0x00, 0x00, 0x00, 0x00, 0x00, 0x00, 0x00, 0x00, 0x38, 0x00,
   0xfe, 0x01, 0x00, 0x00, 0x00, 0x00, 0x00, 0x00, 0x00, 0x1c, 0x00, 0xbc,
   0xf9, 0x1f, 0x00, 0x00, 0x00, 0x00, 0x00, 0x00, 0x04, 0x00, 0x38, 0xff,
   0x7f, 0x00, 0x00, 0x00, 0x00, 0x00, 0xf8, 0x0f, 0x00, 0x30, 0x0f, 0x60,
   0x00, 0x00, 0x00, 0x00, 0x00, 0xfe, 0x0e, 0x82, 0x70, 0x00, 0xc0, 0x00,
   0x00, 0x00, 0x00, 0x00, 0x0f, 0x0c, 0x80, 0x61, 0x00, 0xc0, 0x00, 0x00,
   0x00, 0x00, 0x00, 0x03, 0x18, 0x00, 0x60, 0x00, 0xf0, 0x00, 0x00, 0x00,
   0x00, 0x00, 0xf3, 0x58, 0x00, 0xc0, 0xfc, 0x3f, 0x00, 0x00, 0x00, 0x00,
   0x00, 0xff, 0x39, 0x00, 0xc0, 0xff, 0x0f, 0x00, 0x00, 0x00, 0x00, 0x00,
   0x8e, 0x31, 0x00, 0xe0, 0x0f, 0x00, 0x00, 0x00, 0x00, 0x00, 0x00, 0x00,
   0x33, 0x00, 0xe0, 0x0e, 0x00, 0x00, 0x00, 0x00, 0x00, 0x00, 0x80, 0x73,
   0x00, 0x00, 0x0e, 0x00, 0x00, 0xff, 0x01, 0x00, 0x00, 0x80, 0x67, 0x00,
   0x00, 0x0c, 0x00, 0xf8, 0xff, 0x1f, 0x00, 0x00, 0x80, 0x6f, 0x00, 0x00,
   0x0c, 0xe0, 0xff, 0x01, 0x3e, 0x00, 0x00, 0x80, 0xed, 0x00, 0x00, 0x04,
   0xfc, 0x07, 0x00, 0xf0, 0x00, 0x00, 0xc0, 0xc9, 0x00, 0x00, 0xc4, 0x3f,
   0x00, 0x00, 0xc0, 0x01, 0x00, 0xc0, 0x11, 0x00, 0x80, 0xff, 0x07, 0x00,
   0x00, 0x80, 0x03, 0x00, 0xc0, 0x00, 0x00, 0x00, 0x7c, 0x00, 0x00, 0x00,
   0x00, 0x07, 0x00, 0xc0, 0x00, 0x00, 0x00, 0x00, 0x00, 0x00, 0x00, 0x00,
   0x0e, 0x00, 0xc0, 0x00, 0x00, 0x00, 0x00, 0x00, 0x00, 0x00, 0x00, 0x1c,
   0x00, 0xc0, 0x00, 0x00, 0x00, 0x00, 0x00, 0x00, 0x00, 0x00, 0x38, 0x00,
   0xc0, 0x00, 0x00, 0x00, 0x00, 0x00, 0x00, 0x00, 0x00, 0x70, 0x00, 0xc0,
   0x00, 0x00, 0xc0, 0x07, 0x00, 0x00, 0x00, 0x00, 0xe0, 0x00, 0xc0, 0x00,
   0xf0, 0xf9, 0x00, 0x00, 0x00, 0x00, 0x00, 0xe0, 0x00, 0xc0, 0x00, 0xf0,
   0x1f, 0x00, 0x00, 0x00, 0x00, 0x00, 0xc0, 0x00, 0xc0, 0x00, 0x70, 0x02,
   0x03, 0x00, 0x00, 0xe0, 0x03, 0xc0, 0x01, 0xc0, 0x00, 0xe0, 0xe0, 0x01,
   0x00, 0x18, 0xf8, 0x07, 0x80, 0x01, 0xc0, 0x00, 0x70, 0x78, 0x00, 0x00,
   0x18, 0x1c, 0x0e, 0x80, 0x01, 0xc0, 0x00, 0xf0, 0x19, 0x00, 0x00, 0x18,
   0x0c, 0x1d, 0x80, 0x03, 0xc0, 0x00, 0xe0, 0x1b, 0x00, 0x00, 0x18, 0x86,
   0x1f, 0x80, 0x03, 0xc0, 0x00, 0x80, 0x0d, 0x00, 0x00, 0x18, 0xc6, 0x1f,
   0x80, 0x03, 0xc0, 0x00, 0x80, 0x07, 0x00, 0x00, 0x18, 0xe6, 0x3f, 0x80,
   0x03, 0xc0, 0x00, 0x00, 0x03, 0x00, 0x00, 0x18, 0xf6, 0x3f, 0x80, 0x03,
   0xc2, 0x00, 0x00, 0x00, 0x00, 0x00, 0x18, 0xfe, 0x3f, 0x80, 0x03, 0xcf,
   0x00, 0x00, 0x00, 0x00, 0x00, 0x18, 0xfc, 0x1f, 0x80, 0x03, 0x9b, 0x00,
   0x00, 0x00, 0x00, 0x00, 0x18, 0xfc, 0x1f, 0x80, 0x03, 0xf3, 0x01, 0x00,
   0x00, 0x00, 0x00, 0x38, 0xf8, 0x1f, 0x80, 0x03, 0xe3, 0x01, 0x00, 0x00,
   0x00, 0x00, 0x38, 0xf8, 0x0f, 0x80, 0x03, 0x83, 0x01, 0x00, 0x00, 0x00,
   0x00, 0x30, 0xf0, 0x07, 0x80, 0x01, 0x83, 0x01, 0x00, 0x00, 0x00, 0x00,
   0x30, 0x80, 0x01, 0x80, 0x01, 0x3b, 0x03, 0x00, 0x00, 0x00, 0x00, 0x30,
   0x03, 0x00, 0xc0, 0x01, 0xfb, 0x03, 0x00, 0x00, 0x00, 0x00, 0xb0, 0x07,
   0x00, 0xc0, 0x01, 0xdb, 0x07, 0x00, 0x00, 0x00, 0x00, 0xb0, 0x01, 0x02,
   0xc0, 0x00, 0x1b, 0x06, 0x00, 0x00, 0x00, 0x00, 0xb0, 0xc1, 0x1f, 0xe0,
   0x00, 0x0f, 0x0e, 0x00, 0x00, 0x00, 0x00, 0xb0, 0xe0, 0x39, 0xe0, 0x00,
   0x0f, 0x0c, 0x00, 0x00, 0x00, 0x00, 0xb0, 0x30, 0x70, 0x70, 0x00, 0x07,
   0x1c, 0x00, 0x00, 0x00, 0x00, 0xf0, 0x3d, 0x7e, 0x38, 0x00, 0x00, 0x38,
   0x00, 0x00, 0x00, 0x00, 0xf0, 0x3f, 0x7f, 0x3e, 0x00, 0x00, 0x30, 0x00,
   0x00, 0x00, 0x00, 0x70, 0x33, 0xff, 0x0f, 0x00, 0x00, 0xe0, 0x00, 0x00,
   0x00, 0x00, 0x60, 0xb0, 0xff, 0x07, 0x00, 0x00, 0xc0, 0x0f, 0x00, 0x00,
   0x00, 0x60, 0xb0, 0x7f, 0x00, 0x00, 0x00, 0x80, 0xff, 0xff, 0xff, 0xff,
   0xff, 0xbf, 0x7f, 0x00, 0x00, 0x00, 0x00, 0xfc, 0xff, 0xff, 0xff, 0xff,
   0xf0, 0x7f, 0x00, 0x00, 0x00, 0x00, 0x00, 0x00, 0x00, 0x00, 0x00, 0xe0,
   0x3f, 0x00, 0x00, 0x00, 0x00, 0x00, 0x00, 0x00, 0x00, 0x00, 0x80, 0x0f,
   0x00, 0x00 };
