#define Background__80ms__width 93
#define Background__80ms__height 64
static unsigned char Background__80ms__bits[] = {
   0x00, 0x00, 0x00, 0x00, 0x00, 0x00, 0x00, 0x00, 0x00, 0x00, 0x00, 0x00,
   0x00, 0x00, 0x00, 0x00, 0x00, 0x00, 0x00, 0x00, 0x00, 0x00, 0x00, 0x00,
   0x00, 0x00, 0x00, 0x00, 0x00, 0x00, 0x00, 0x00, 0x00, 0x00, 0x00, 0x00,
   0x00, 0x00, 0x00, 0x00, 0x00, 0x00, 0x00, 0x00, 0x00, 0x00, 0x00, 0x00,
   0x00, 0x00, 0x00, 0x00, 0x00, 0x00, 0x00, 0x00, 0x00, 0x00, 0x00, 0x00,
   0x00, 0x00, 0x00, 0x00, 0x00, 0x00, 0x00, 0x00, 0x00, 0x00, 0x00, 0x00,
   0x00, 0x00, 0x00, 0x00, 0x00, 0x00, 0x00, 0x00, 0x00, 0x00, 0x00, 0x00,
   0x00, 0x00, 0x80, 0x3f, 0x00, 0x00, 0x00, 0x00, 0x00, 0x00, 0x00, 0x00,
   0x00, 0x00, 0xe0, 0xff, 0x01, 0x00, 0x00, 0x00, 0x00, 0x00, 0x00, 0x00,
   0x00, 0x00, 0x70, 0x80, 0x07, 0x00, 0x00, 0x00, 0x00, 0x00, 0x00, 0x00,
   0x00, 0x00, 0x38, 0x00, 0x1e, 0x00, 0x03, 0x00, 0x00, 0x00, 0x00, 0x00,
   0x00, 0x00, 0x0c, 0x00, 0x18, 0xc0, 0x1f, 0x00, 0x00, 0x00, 0x00, 0x00,
   0x00, 0x00, 0x0e, 0x00, 0xf0, 0xf0, 0x3c, 0x00, 0x00, 0x00, 0x00, 0x00,
   0x00, 0x00, 0x06, 0x00, 0xb0, 0x3d, 0x30, 0x00, 0x00, 0x00, 0x00, 0x00,
   0x00, 0x00, 0x03, 0x80, 0xb0, 0x1f, 0x18, 0x00, 0x00, 0x00, 0x00, 0x00,
   0x00, 0x00, 0x03, 0x80, 0xb1, 0x07, 0x18, 0x00, 0x00, 0x00, 0x00, 0x00,
   0x00, 0x80, 0x01, 0x00, 0x31, 0x00, 0x0e, 0x00, 0x00, 0x00, 0x00, 0x00,
   0x00, 0x80, 0x11, 0x00, 0x10, 0x80, 0x07, 0x00, 0x00, 0x00, 0x00, 0x00,
   0x00, 0xc0, 0x01, 0x08, 0x18, 0xe0, 0x01, 0x00, 0x00, 0x00, 0x00, 0x00,
   0x00, 0xc0, 0x00, 0x00, 0x18, 0x7e, 0x00, 0x00, 0x00, 0x00, 0x00, 0x00,
   0x70, 0xc0, 0x00, 0x00, 0xf8, 0x1f, 0x00, 0x00, 0xe0, 0x1f, 0x00, 0x00,
   0xfc, 0xe3, 0x00, 0x00, 0xf4, 0x1b, 0x00, 0x00, 0xff, 0xff, 0x00, 0x00,
   0x9c, 0x6f, 0x00, 0x00, 0x04, 0x18, 0x00, 0xe0, 0xff, 0xf9, 0x03, 0x00,
   0x0c, 0x7c, 0x00, 0x00, 0x00, 0x18, 0x00, 0xf8, 0x03, 0x80, 0x07, 0x00,
   0x2c, 0x78, 0x00, 0x00, 0x00, 0x18, 0x00, 0x3e, 0x00, 0x00, 0x1e, 0x00,
   0x6c, 0x70, 0x00, 0x00, 0x00, 0x0c, 0xc0, 0x0f, 0x00, 0x00, 0x3c, 0x00,
   0x6c, 0x33, 0x00, 0x00, 0x00, 0x0c, 0xf8, 0x01, 0x00, 0x00, 0x30, 0x00,
   0xcc, 0x33, 0x00, 0x00, 0xf0, 0xff, 0x7f, 0x00, 0x00, 0x00, 0x60, 0x00,
   0x6c, 0x33, 0x00, 0x00, 0x80, 0xff, 0x0f, 0x00, 0x00, 0x00, 0xe0, 0x00,
   0x6c, 0x23, 0x00, 0x00, 0x00, 0x00, 0x00, 0x00, 0x00, 0x00, 0xc0, 0x01,
   0x6c, 0x07, 0x00, 0x00, 0x00, 0x00, 0x00, 0x00, 0x00, 0x00, 0xc0, 0x01,
   0x7c, 0x0e, 0x00, 0x00, 0x00, 0x00, 0x00, 0x00, 0x00, 0x00, 0x80, 0x01,
   0x18, 0x3c, 0x00, 0x00, 0x00, 0x00, 0x00, 0x00, 0xe0, 0x03, 0x80, 0x03,
   0x00, 0x18, 0x00, 0x00, 0x0c, 0x00, 0x00, 0x00, 0xf8, 0x07, 0x00, 0x03,
   0x00, 0x18, 0x00, 0x00, 0x06, 0x00, 0x00, 0x00, 0x1c, 0x0c, 0x00, 0x03,
   0x00, 0x18, 0x00, 0x80, 0x13, 0x00, 0x00, 0x04, 0x0e, 0x1d, 0x00, 0x07,
   0x00, 0x18, 0x00, 0xde, 0x1c, 0x00, 0x00, 0x04, 0x86, 0x1f, 0x00, 0x07,
   0x00, 0x18, 0x00, 0x7b, 0x06, 0x00, 0x00, 0x0c, 0xc6, 0x1f, 0x00, 0x07,
   0x00, 0x18, 0x00, 0x01, 0x03, 0x00, 0x00, 0x0c, 0xe6, 0x3f, 0x00, 0x06,
   0x00, 0x18, 0x00, 0x87, 0x01, 0x00, 0x00, 0x08, 0xe6, 0x3f, 0x00, 0x06,
   0x00, 0x18, 0x00, 0xc3, 0x00, 0x00, 0x00, 0x08, 0xe6, 0x3f, 0x00, 0x06,
   0x00, 0x18, 0x00, 0x61, 0x00, 0x00, 0x00, 0x18, 0xee, 0x3f, 0x00, 0x06,
   0x00, 0x18, 0x00, 0x6f, 0x00, 0x00, 0x00, 0x18, 0xec, 0x1f, 0x00, 0x06,
   0x00, 0x18, 0x00, 0x6e, 0x00, 0x00, 0x00, 0x18, 0xfc, 0x1f, 0x00, 0x06,
   0x00, 0x18, 0x00, 0x78, 0x00, 0x00, 0x00, 0x10, 0xf0, 0x0f, 0x00, 0x06,
   0x00, 0x18, 0x00, 0x30, 0x00, 0x00, 0x00, 0x30, 0xe0, 0x07, 0x00, 0x07,
   0x00, 0x38, 0x00, 0x00, 0x00, 0x00, 0x00, 0x30, 0x04, 0x00, 0x00, 0x03,
   0x00, 0x3c, 0x00, 0x00, 0x00, 0x00, 0x00, 0x30, 0x0e, 0x00, 0x00, 0x03,
   0x00, 0x3e, 0x00, 0x00, 0x00, 0x00, 0x00, 0x30, 0x0b, 0x3f, 0x80, 0x03,
   0x80, 0x33, 0x00, 0x00, 0x00, 0x00, 0x00, 0x30, 0x8b, 0x73, 0xc0, 0x01,
   0xc0, 0x71, 0x00, 0x00, 0x00, 0x00, 0x00, 0x20, 0xc3, 0xc0, 0xc0, 0x01,
   0xe0, 0x78, 0x00, 0x00, 0x00, 0x00, 0x00, 0x60, 0xe3, 0xfc, 0xe1, 0x00,
   0x78, 0xee, 0x00, 0x00, 0x00, 0x00, 0x00, 0x60, 0xe3, 0xfc, 0x79, 0x00,
   0x38, 0xc7, 0x01, 0x00, 0x00, 0x00, 0x00, 0x60, 0xf6, 0xfe, 0x3f, 0x00,
   0x9c, 0xc3, 0x01, 0x00, 0x00, 0x00, 0x00, 0xe0, 0xde, 0xfe, 0x0f, 0x00,
   0x8c, 0x81, 0x03, 0x00, 0x00, 0x00, 0x00, 0xe0, 0xc0, 0xfe, 0x07, 0x00,
   0x1c, 0x03, 0x0f, 0x00, 0x00, 0x00, 0x00, 0xc0, 0xc0, 0xfe, 0x03, 0x00,
   0x18, 0x07, 0x1e, 0x00, 0x00, 0x00, 0x00, 0xc0, 0xf8, 0xff, 0x03, 0x00,
   0x38, 0x06, 0x7c, 0x00, 0x00, 0x00, 0x00, 0xc0, 0xff, 0xff, 0x01, 0x00,
   0x70, 0x0c, 0xf0, 0x07, 0x00, 0x00, 0x00, 0xf8, 0x1f, 0xff, 0x00, 0x00,
   0x60, 0x0c, 0xc0, 0x7f, 0x00, 0x00, 0x00, 0xff, 0x00, 0x00, 0x00, 0x00,
   0xc0, 0x0d, 0x00, 0xfe, 0x7f, 0x00, 0xfe, 0x1f, 0x00, 0x00, 0x00, 0x00,
   0x80, 0x0f, 0x00, 0xf0, 0xff, 0xff, 0xff, 0x03, 0x00, 0x00, 0x00, 0x00,
   0x00, 0x06, 0x00, 0x00, 0xfc, 0xff, 0x1f, 0x00, 0x00, 0x00, 0x00, 0x00 };
