#define Frame_6__80ms___replace__width 81
#define Frame_6__80ms___replace__height 62
static unsigned char Frame_6__80ms___replace__bits[] = {
   0x00, 0x00, 0x7e, 0x00, 0x00, 0x00, 0x00, 0x00, 0x00, 0x00, 0x00, 0x00,
   0x80, 0xff, 0x03, 0x00, 0x00, 0x00, 0x00, 0x00, 0x00, 0x00, 0x00, 0xc0,
   0xe7, 0x07, 0x00, 0x00, 0x00, 0x00, 0x00, 0x00, 0x00, 0x00, 0xe0, 0x00,
   0x0f, 0x00, 0x00, 0x00, 0x00, 0x00, 0x00, 0x00, 0x00, 0x70, 0x00, 0x1c,
   0xf0, 0x3f, 0x00, 0x00, 0x00, 0x00, 0x00, 0x00, 0x38, 0x00, 0x78, 0xfc,
   0xff, 0x00, 0x00, 0x00, 0x00, 0x00, 0x00, 0x1c, 0x00, 0xf0, 0x0f, 0xf0,
   0x01, 0x00, 0x00, 0x00, 0x00, 0x00, 0x0c, 0x00, 0xe0, 0x03, 0x80, 0x03,
   0x00, 0x00, 0x00, 0x00, 0x00, 0x0e, 0x00, 0x60, 0x00, 0x00, 0x03, 0x00,
   0x00, 0x00, 0x00, 0x00, 0x06, 0x00, 0x62, 0x00, 0xc0, 0x03, 0x00, 0x00,
   0x00, 0x00, 0x00, 0x07, 0x00, 0x62, 0x80, 0xff, 0x01, 0x00, 0x00, 0x00,
   0x00, 0xe0, 0x83, 0x00, 0x60, 0xfc, 0xff, 0x00, 0x00, 0x00, 0x00, 0x00,
   0xf8, 0x03, 0x00, 0x60, 0xff, 0x00, 0x00, 0x00, 0x00, 0x00, 0x00, 0x9e,
   0x03, 0x20, 0xf0, 0x07, 0x00, 0x00, 0x00, 0x00, 0x00, 0x00, 0x86, 0x03,
   0x00, 0xf0, 0x07, 0x00, 0x00, 0x00, 0x00, 0x00, 0x00, 0x87, 0x01, 0x00,
   0x20, 0x06, 0x00, 0x00, 0x00, 0x00, 0x00, 0x00, 0x83, 0x01, 0x00, 0x00,
   0x06, 0x00, 0x00, 0x00, 0x00, 0x00, 0x00, 0xf3, 0x01, 0x00, 0x00, 0x06,
   0x00, 0x00, 0x00, 0x00, 0x00, 0x00, 0xff, 0x01, 0x00, 0x00, 0x06, 0x00,
   0x00, 0x00, 0x00, 0x00, 0x00, 0xc0, 0x01, 0x00, 0x00, 0x07, 0x00, 0x00,
   0xff, 0x0f, 0x00, 0x00, 0xc0, 0x01, 0x00, 0x00, 0x03, 0x00, 0xf0, 0xff,
   0x3f, 0x00, 0x00, 0xc0, 0x01, 0x00, 0x60, 0x03, 0x00, 0xfc, 0x03, 0x7c,
   0x00, 0x00, 0xc0, 0x01, 0x00, 0xc0, 0x03, 0x00, 0x3f, 0x00, 0xe0, 0x00,
   0x00, 0xc0, 0x01, 0x00, 0x80, 0xff, 0xff, 0x07, 0x00, 0xc0, 0x01, 0x00,
   0xc0, 0x01, 0x00, 0x00, 0xfc, 0xff, 0x01, 0x00, 0x80, 0x03, 0x00, 0xc0,
   0x01, 0x00, 0x04, 0x80, 0x04, 0x00, 0x00, 0x00, 0x07, 0x00, 0xc0, 0x01,
   0x00, 0x0f, 0x00, 0x00, 0x00, 0x00, 0x00, 0x0e, 0x00, 0xc0, 0x01, 0x00,
   0x1f, 0x00, 0x00, 0x00, 0x00, 0x00, 0x0c, 0x00, 0xc0, 0x01, 0xc0, 0x3f,
   0x00, 0x00, 0x00, 0x00, 0x00, 0x1c, 0x00, 0xc0, 0x01, 0xc0, 0xf0, 0x01,
   0x00, 0x00, 0x00, 0x00, 0x38, 0x00, 0xc0, 0x01, 0xc0, 0xc3, 0x03, 0x00,
   0x00, 0x00, 0x00, 0x30, 0x00, 0xc0, 0x01, 0x80, 0x33, 0x00, 0x00, 0x00,
   0x00, 0x00, 0x70, 0x00, 0xc0, 0x01, 0x80, 0xf9, 0x07, 0x00, 0x00, 0x00,
   0x00, 0x60, 0x00, 0xc0, 0x01, 0xc0, 0x0c, 0x04, 0x00, 0x00, 0x00, 0x00,
   0xe0, 0x00, 0x80, 0x01, 0xc0, 0x07, 0x00, 0x00, 0x00, 0x00, 0x00, 0xe0,
   0x00, 0x80, 0x03, 0x80, 0x01, 0x00, 0x00, 0x00, 0x00, 0x00, 0xc0, 0x00,
   0x80, 0x03, 0x00, 0x00, 0x00, 0x00, 0x00, 0x00, 0x00, 0xc0, 0x01, 0x00,
   0x03, 0x00, 0x00, 0x00, 0x00, 0x00, 0x00, 0x00, 0xc0, 0x01, 0x00, 0x03,
   0x00, 0x00, 0x00, 0x00, 0x00, 0x00, 0x00, 0x80, 0x01, 0x00, 0x03, 0x00,
   0x00, 0x00, 0x00, 0x00, 0xf8, 0x03, 0x80, 0x01, 0x00, 0x07, 0x00, 0x00,
   0x00, 0x00, 0x04, 0xfc, 0x07, 0x80, 0x01, 0x00, 0x07, 0x00, 0x00, 0x00,
   0x00, 0x04, 0x0e, 0x0e, 0xc0, 0x01, 0x07, 0x07, 0x00, 0x00, 0x00, 0x00,
   0x0c, 0x06, 0x1c, 0xc0, 0x01, 0x1f, 0x03, 0x00, 0x00, 0x00, 0x00, 0x0c,
   0xc6, 0x1f, 0xc0, 0x01, 0xfb, 0x21, 0x00, 0x00, 0x00, 0x00, 0x0c, 0xe6,
   0x3f, 0xe0, 0x00, 0xf3, 0x30, 0x00, 0x00, 0x00, 0x00, 0x0c, 0xf6, 0x3f,
   0xe0, 0x00, 0x03, 0x18, 0x00, 0x00, 0x00, 0x00, 0x08, 0xf6, 0x3f, 0x60,
   0x00, 0x33, 0x0c, 0x00, 0x00, 0x00, 0x00, 0x08, 0xf6, 0x3f, 0x70, 0x00,
   0xf3, 0x07, 0x00, 0x00, 0x00, 0x00, 0x08, 0xf6, 0x1f, 0x30, 0x00, 0xf3,
   0x07, 0x00, 0x00, 0x00, 0x00, 0x08, 0xfe, 0x1f, 0x38, 0x00, 0x33, 0x0e,
   0x00, 0x00, 0x00, 0x00, 0x08, 0xfc, 0x0f, 0x1c, 0x00, 0x33, 0x1c, 0x00,
   0x00, 0x00, 0x00, 0x18, 0xfc, 0x07, 0x1c, 0x00, 0x33, 0x1c, 0x00, 0x00,
   0x00, 0x00, 0x18, 0xf9, 0x03, 0x0e, 0x00, 0x1b, 0x38, 0x00, 0x00, 0x00,
   0x00, 0xd8, 0x03, 0x00, 0x0f, 0x00, 0x1b, 0x70, 0x00, 0x00, 0x00, 0x00,
   0xd8, 0x02, 0x88, 0x07, 0x00, 0x0f, 0xe0, 0x00, 0x00, 0x00, 0x00, 0xf8,
   0x20, 0xff, 0x03, 0x00, 0x0f, 0xc0, 0x01, 0x00, 0x00, 0x00, 0x78, 0xf0,
   0xf3, 0x01, 0x00, 0x02, 0x80, 0x0f, 0x00, 0x00, 0x00, 0x70, 0xf8, 0x7c,
   0x00, 0x00, 0x00, 0x00, 0x7e, 0x00, 0x00, 0x00, 0xf0, 0x7c, 0x7f, 0x00,
   0x00, 0x00, 0x00, 0xf8, 0x07, 0xc0, 0xff, 0xff, 0xee, 0x3f, 0x00, 0x00,
   0x00, 0x00, 0xe0, 0xff, 0xff, 0xff, 0xff, 0xe7, 0x07, 0x00, 0x00, 0x00,
   0x00, 0x00, 0xfe, 0xff, 0x00, 0x80, 0x03, 0x00, 0x00, 0x00 };
