#define Frame_3__80ms___replace__width 86
#define Frame_3__80ms___replace__height 58
static unsigned char Frame_3__80ms___replace__bits[] = {
   0x00, 0x00, 0x00, 0x00, 0x00, 0x38, 0x00, 0x00, 0x00, 0x00, 0x00, 0x00,
   0x00, 0x00, 0x00, 0x00, 0x7e, 0x00, 0x00, 0x00, 0x00, 0x00, 0x00, 0x00,
   0x00, 0x00, 0x00, 0xc7, 0x00, 0x00, 0x00, 0x00, 0x00, 0x00, 0x00, 0xfe,
   0x0f, 0xc0, 0xc1, 0x00, 0x00, 0x00, 0x00, 0x00, 0x00, 0x80, 0xff, 0x3f,
   0xe0, 0xe0, 0x00, 0x00, 0x00, 0x00, 0x00, 0x00, 0xc0, 0x03, 0x78, 0x71,
   0x60, 0x00, 0x00, 0x00, 0x00, 0x00, 0x00, 0xe0, 0x00, 0xe0, 0x3b, 0x30,
   0x00, 0x00, 0x00, 0x00, 0x00, 0x00, 0x60, 0x00, 0xc0, 0x1e, 0x38, 0x00,
   0x00, 0x00, 0x00, 0x00, 0x00, 0x30, 0x00, 0xc0, 0x0f, 0x18, 0x00, 0x00,
   0x00, 0x00, 0x00, 0x00, 0x38, 0x00, 0x80, 0x01, 0x0c, 0x00, 0x00, 0x00,
   0x00, 0x00, 0x00, 0x18, 0x00, 0x8c, 0x01, 0x07, 0x00, 0x00, 0x00, 0x00,
   0x00, 0x00, 0x18, 0x00, 0x00, 0xc3, 0x03, 0x00, 0x00, 0x00, 0x00, 0x00,
   0x00, 0x1c, 0x00, 0x00, 0xe3, 0x01, 0x00, 0x00, 0x00, 0x00, 0x00, 0x00,
   0x1c, 0x80, 0x00, 0x7b, 0x00, 0x00, 0x00, 0x00, 0x00, 0x00, 0x00, 0x0c,
   0x00, 0x00, 0x3f, 0x00, 0x00, 0x00, 0x1e, 0x00, 0x00, 0x00, 0x0c, 0x00,
   0x00, 0x6f, 0x00, 0x00, 0xf0, 0xff, 0x03, 0x00, 0x00, 0x0c, 0x00, 0x00,
   0x47, 0x00, 0x00, 0xfe, 0xff, 0x0f, 0x00, 0x00, 0x0c, 0x00, 0x00, 0x41,
   0x00, 0x80, 0x3f, 0x00, 0x3f, 0x00, 0x00, 0x0c, 0x00, 0x00, 0x40, 0x00,
   0xe0, 0x07, 0x00, 0x7c, 0x00, 0x00, 0x1e, 0x00, 0x00, 0x60, 0x00, 0xfe,
   0x00, 0x00, 0xf0, 0x00, 0x00, 0x3f, 0x00, 0x00, 0x78, 0xf8, 0x3f, 0x00,
   0x00, 0xc0, 0x01, 0x80, 0x33, 0x00, 0x00, 0xf8, 0xff, 0x07, 0x00, 0x00,
   0x80, 0x03, 0x80, 0x31, 0x00, 0x00, 0x00, 0x7f, 0x00, 0x00, 0x00, 0x00,
   0x07, 0xc0, 0x30, 0x00, 0x00, 0x00, 0x00, 0x00, 0x00, 0x00, 0x00, 0x06,
   0xc0, 0xe0, 0x03, 0x1c, 0x00, 0x00, 0x00, 0x00, 0x00, 0x00, 0x0e, 0x60,
   0xe4, 0x01, 0x3c, 0x00, 0x00, 0x00, 0x00, 0x00, 0x00, 0x0c, 0x60, 0x06,
   0x00, 0x6c, 0x00, 0x00, 0x00, 0x00, 0x00, 0x00, 0x1c, 0x7e, 0x0e, 0x00,
   0xde, 0x3f, 0x00, 0x00, 0x00, 0x00, 0x00, 0x18, 0x7f, 0x0f, 0x06, 0x07,
   0x00, 0x00, 0x00, 0x00, 0x00, 0x00, 0x18, 0xf3, 0xff, 0x03, 0x0f, 0x00,
   0x00, 0x00, 0x00, 0x00, 0x00, 0x38, 0xc3, 0xff, 0x00, 0xdf, 0x3f, 0x00,
   0x00, 0x00, 0x00, 0x00, 0x38, 0x03, 0x0e, 0x00, 0xec, 0x3f, 0x00, 0x00,
   0x00, 0x1f, 0x00, 0x38, 0x03, 0x0e, 0x00, 0x6c, 0x00, 0x00, 0x00, 0x80,
   0x7f, 0x00, 0x38, 0x33, 0x0e, 0x00, 0x7c, 0x00, 0x00, 0x00, 0xc0, 0xf1,
   0x00, 0x38, 0xf3, 0x0f, 0x00, 0x3c, 0x00, 0x00, 0x40, 0xe0, 0xc0, 0x00,
   0x38, 0xf3, 0x0f, 0x00, 0x00, 0x00, 0x00, 0x40, 0x60, 0xf8, 0x01, 0x38,
   0x33, 0x0e, 0x00, 0x00, 0x00, 0x00, 0x40, 0x60, 0xfe, 0x01, 0x38, 0x33,
   0x0c, 0x00, 0x00, 0x00, 0x00, 0xc0, 0x60, 0xfe, 0x03, 0x38, 0x33, 0x1c,
   0x00, 0x00, 0x00, 0x00, 0x80, 0x20, 0xff, 0x03, 0x38, 0x1b, 0x1c, 0x00,
   0x00, 0x00, 0x00, 0x80, 0x60, 0xff, 0x03, 0x18, 0x1f, 0x18, 0x00, 0x00,
   0x00, 0x00, 0x80, 0x60, 0xff, 0x03, 0x18, 0x0e, 0x38, 0x00, 0x00, 0x00,
   0x00, 0x80, 0x61, 0xff, 0x01, 0x1c, 0x00, 0x30, 0x00, 0x00, 0x00, 0x00,
   0x80, 0xe1, 0xff, 0x01, 0x1c, 0x00, 0x70, 0x00, 0x00, 0x00, 0x00, 0x80,
   0xc1, 0xff, 0x00, 0x0c, 0x00, 0x60, 0x00, 0x00, 0x00, 0x00, 0x80, 0x81,
   0x7f, 0x00, 0x0e, 0x00, 0xe0, 0x00, 0x00, 0x00, 0x00, 0x80, 0x01, 0x1c,
   0x00, 0x0e, 0x00, 0xc0, 0x01, 0x00, 0x00, 0x00, 0x80, 0x71, 0x00, 0x00,
   0x07, 0x00, 0x80, 0x03, 0x00, 0x00, 0x00, 0x00, 0xf1, 0x00, 0x00, 0x07,
   0x00, 0x00, 0x07, 0x00, 0x00, 0x00, 0x00, 0x1b, 0xe0, 0x81, 0x03, 0x00,
   0x00, 0x1e, 0x00, 0x00, 0x00, 0x00, 0x1b, 0xfc, 0xe7, 0x01, 0x00, 0x00,
   0x3c, 0x00, 0x00, 0x00, 0x00, 0x1b, 0x9e, 0xff, 0x00, 0x00, 0x00, 0xf8,
   0x00, 0x00, 0x00, 0x00, 0x1b, 0xcf, 0x7f, 0x00, 0x00, 0x00, 0xe0, 0x03,
   0x00, 0x00, 0x00, 0x93, 0xe7, 0x1f, 0x00, 0x00, 0x00, 0xc0, 0x0f, 0x00,
   0x00, 0x00, 0xf3, 0xf6, 0x1f, 0x00, 0x00, 0x00, 0x00, 0xff, 0x00, 0x00,
   0x00, 0xff, 0xf7, 0x1f, 0x00, 0x00, 0x00, 0x00, 0xf8, 0x0f, 0x00, 0xf8,
   0xff, 0xff, 0x0f, 0x00, 0x00, 0x00, 0x00, 0xc0, 0xff, 0xff, 0xff, 0x07,
   0xfc, 0x03, 0x00, 0x00, 0x00, 0x00, 0x00, 0xfc, 0xff, 0x0f, 0x00, 0x00,
   0x00, 0x00 };
