#define Frame_4__30ms___replace__width 128
#define Frame_4__30ms___replace__height 64
static unsigned char Frame_4__30ms___replace__bits[] = {
   0x00, 0x00, 0x00, 0x00, 0x00, 0x00, 0x00, 0x00, 0x00, 0x00, 0x00, 0x00,
   0x00, 0x00, 0x00, 0x00, 0x00, 0x00, 0x00, 0x00, 0x00, 0x00, 0x00, 0x00,
   0x00, 0x00, 0x00, 0x00, 0x00, 0x00, 0x00, 0x00, 0x00, 0x00, 0x00, 0x00,
   0x00, 0x00, 0x00, 0x00, 0x00, 0x00, 0x00, 0x00, 0x00, 0x00, 0x00, 0x00,
   0x00, 0x00, 0x00, 0x00, 0x00, 0x00, 0x00, 0x00, 0x00, 0x00, 0x00, 0x00,
   0x00, 0x00, 0x00, 0x00, 0x00, 0x00, 0x00, 0x00, 0x00, 0x00, 0x00, 0x00,
   0x00, 0x00, 0x00, 0x00, 0x00, 0x00, 0x00, 0x00, 0x00, 0x00, 0x00, 0x00,
   0x00, 0x00, 0x00, 0x00, 0x00, 0x00, 0x00, 0x00, 0x00, 0x00, 0x00, 0x00,
   0x00, 0x00, 0x00, 0x00, 0x00, 0x00, 0x00, 0x00, 0x00, 0x00, 0x00, 0x00,
   0x00, 0x00, 0x00, 0x00, 0x00, 0x00, 0x00, 0x00, 0x00, 0x00, 0x00, 0x00,
   0x00, 0x00, 0x00, 0x00, 0x00, 0x00, 0x00, 0x00, 0x00, 0xff, 0x0f, 0x00,
   0x00, 0x00, 0x00, 0x00, 0x00, 0x00, 0x00, 0x00, 0x00, 0x00, 0x00, 0x00,
   0xe0, 0xff, 0x3f, 0x00, 0x00, 0x00, 0x00, 0x00, 0x00, 0x00, 0x00, 0x00,
   0x00, 0x00, 0x00, 0x00, 0xfc, 0xff, 0xff, 0x00, 0x00, 0x00, 0x00, 0x00,
   0x00, 0x00, 0x00, 0x00, 0x00, 0x00, 0x00, 0x00, 0xfe, 0x00, 0xf8, 0x03,
   0x00, 0x00, 0x00, 0x00, 0x00, 0x00, 0x00, 0x00, 0x00, 0x00, 0x00, 0x00,
   0x1f, 0x00, 0xc0, 0x07, 0x00, 0x00, 0x00, 0x00, 0x00, 0x00, 0x00, 0x00,
   0x00, 0x00, 0x00, 0x00, 0x07, 0x00, 0x80, 0x0f, 0x00, 0x00, 0x00, 0x00,
   0x00, 0x00, 0x00, 0x00, 0x00, 0x00, 0x00, 0x00, 0x03, 0x00, 0x00, 0x1e,
   0x00, 0x00, 0x00, 0x00, 0x00, 0x00, 0x00, 0xc0, 0x00, 0x00, 0x00, 0x00,
   0x00, 0x00, 0x00, 0x3c, 0x00, 0x00, 0x00, 0x00, 0x00, 0x00, 0x00, 0xfe,
   0x07, 0x00, 0x00, 0x00, 0x00, 0x00, 0x00, 0x78, 0x00, 0x00, 0x00, 0x00,
   0x00, 0x00, 0x80, 0x07, 0x1c, 0x00, 0x00, 0x00, 0x00, 0x00, 0x00, 0x78,
   0x00, 0x00, 0x00, 0x00, 0x00, 0x00, 0xc0, 0x00, 0x30, 0x00, 0x00, 0x00,
   0x00, 0x00, 0x00, 0xf0, 0x00, 0x00, 0x00, 0x00, 0x00, 0x00, 0x70, 0x00,
   0x60, 0x00, 0x00, 0x00, 0x00, 0x00, 0x00, 0xe0, 0x00, 0x00, 0x00, 0x00,
   0x00, 0x00, 0x7c, 0x00, 0x40, 0x00, 0x00, 0x00, 0x00, 0x00, 0x00, 0xe0,
   0x01, 0x00, 0x00, 0x00, 0x00, 0x00, 0xfe, 0x00, 0xc0, 0x00, 0x00, 0x00,
   0x00, 0x00, 0x00, 0xc0, 0x03, 0x00, 0x00, 0x00, 0x00, 0x00, 0xbf, 0x00,
   0x80, 0x00, 0x00, 0x00, 0x00, 0x00, 0x00, 0xc0, 0x03, 0x00, 0x00, 0x00,
   0x00, 0x00, 0xbf, 0x00, 0x80, 0x00, 0x00, 0x00, 0x00, 0x00, 0x00, 0x80,
   0x03, 0x00, 0x00, 0x00, 0x00, 0x00, 0x87, 0xc3, 0x81, 0x00, 0x00, 0x00,
   0x00, 0x00, 0x00, 0x80, 0x07, 0x00, 0x00, 0x00, 0x00, 0x00, 0xfd, 0xf1,
   0x87, 0x00, 0x00, 0x00, 0x00, 0x00, 0xfe, 0x80, 0x07, 0x00, 0x00, 0x00,
   0x00, 0x80, 0x71, 0xf8, 0x87, 0x00, 0x00, 0x00, 0x00, 0x80, 0xff, 0x03,
   0x07, 0x00, 0x00, 0x00, 0x00, 0x80, 0x90, 0xf8, 0xc5, 0x00, 0x00, 0x00,
   0x00, 0xc0, 0x9f, 0x07, 0x0f, 0x00, 0x00, 0x00, 0x00, 0x40, 0xb0, 0xe9,
   0x4d, 0x00, 0x00, 0x00, 0x00, 0xe0, 0x1f, 0x07, 0x0f, 0x00, 0x00, 0x00,
   0x00, 0xc0, 0xe3, 0x59, 0x64, 0x00, 0x00, 0x00, 0x00, 0xf0, 0x3f, 0x0e,
   0x0e, 0x00, 0x00, 0x00, 0x00, 0x20, 0x9e, 0xf0, 0x27, 0x00, 0x00, 0x00,
   0x00, 0xf0, 0x3f, 0x1c, 0x1c, 0x00, 0x00, 0x00, 0x00, 0x20, 0xf0, 0xc1,
   0x21, 0x00, 0x00, 0x00, 0x00, 0xf8, 0x3f, 0x1c, 0x1c, 0x00, 0x00, 0x00,
   0x00, 0x30, 0x00, 0x7f, 0x30, 0x00, 0x00, 0x00, 0x00, 0xf8, 0x3f, 0x1c,
   0x3c, 0x00, 0x00, 0x00, 0x00, 0x18, 0x00, 0xe0, 0x11, 0x00, 0x00, 0x00,
   0x00, 0xfc, 0x3f, 0x1c, 0x38, 0x00, 0x00, 0x00, 0x00, 0x18, 0x00, 0x00,
   0x18, 0x00, 0x00, 0x00, 0x00, 0xfc, 0x3f, 0x1c, 0x38, 0x00, 0x00, 0x00,
   0x00, 0x18, 0x00, 0x00, 0x08, 0x00, 0x00, 0x00, 0x00, 0xfc, 0x3f, 0x1c,
   0x78, 0x00, 0x00, 0x00, 0x00, 0x0c, 0x00, 0x00, 0x0c, 0x00, 0x00, 0x00,
   0x00, 0xfc, 0x3f, 0x1e, 0x70, 0x00, 0x00, 0x00, 0x00, 0x0c, 0x00, 0x00,
   0x04, 0x00, 0x00, 0x00, 0x10, 0xfc, 0x1f, 0x0f, 0xf0, 0x00, 0x00, 0x00,
   0x00, 0x04, 0x00, 0x00, 0x04, 0x00, 0x00, 0x00, 0x38, 0xfc, 0x9f, 0x0f,
   0xe0, 0x00, 0x00, 0x00, 0x00, 0x04, 0x00, 0x08, 0x06, 0x00, 0x00, 0x00,
   0x39, 0xfc, 0xc3, 0x07, 0xe0, 0x00, 0x00, 0x00, 0x00, 0x06, 0x00, 0x28,
   0x06, 0x00, 0x00, 0x00, 0x1d, 0x78, 0xf0, 0x43, 0xc0, 0x01, 0x00, 0x00,
   0x00, 0x06, 0x00, 0x24, 0x02, 0x00, 0x00, 0x00, 0x0f, 0xf0, 0xff, 0xf1,
   0xc0, 0x01, 0x00, 0x00, 0x00, 0x06, 0x00, 0x34, 0x02, 0x00, 0xe0, 0x00,
   0x0f, 0xe0, 0x7f, 0xf8, 0x80, 0x03, 0x00, 0x00, 0x00, 0x06, 0x00, 0x16,
   0x02, 0x00, 0xc4, 0x04, 0x07, 0x80, 0x1f, 0x7c, 0x80, 0x03, 0x00, 0x00,
   0x00, 0x06, 0x00, 0x12, 0x03, 0x00, 0xa9, 0x08, 0x07, 0x00, 0x00, 0x3f,
   0x80, 0x07, 0x00, 0x00, 0x00, 0x02, 0x00, 0x1a, 0x03, 0x40, 0xc0, 0x10,
   0x07, 0x02, 0x80, 0x1f, 0x00, 0x0f, 0x00, 0x00, 0x00, 0x06, 0x00, 0x09,
   0x01, 0x20, 0x30, 0x10, 0xc3, 0x07, 0xe0, 0x07, 0x00, 0x0f, 0x00, 0x00,
   0x00, 0x06, 0x00, 0x09, 0xff, 0x01, 0xc0, 0x13, 0xf3, 0x0f, 0xf0, 0x03,
   0x00, 0x1e, 0x00, 0x00, 0x00, 0x06, 0x00, 0x0d, 0x87, 0x0b, 0x60, 0x13,
   0xfb, 0x0e, 0xfc, 0x00, 0x00, 0x1e, 0x00, 0x00, 0x00, 0x06, 0x80, 0x04,
   0x11, 0x06, 0x80, 0x02, 0x13, 0x0e, 0x7e, 0x00, 0x00, 0x3c, 0x00, 0x00,
   0x00, 0x06, 0x80, 0x06, 0x35, 0x04, 0x08, 0x06, 0x83, 0x87, 0x1f, 0x00,
   0x00, 0x3c, 0x00, 0x00, 0x80, 0x07, 0xc0, 0x06, 0xf0, 0x03, 0x8a, 0x00,
   0xf3, 0xe7, 0x0f, 0x00, 0x00, 0x78, 0x00, 0x00, 0xf0, 0x07, 0x20, 0x04,
   0x8c, 0xe3, 0x22, 0x00, 0xff, 0xf3, 0x03, 0x00, 0x00, 0xf0, 0x00, 0x00,
   0xf8, 0x0f, 0x70, 0x09, 0x02, 0xae, 0x10, 0x00, 0xff, 0xfc, 0x01, 0x00,
   0x00, 0xf0, 0x00, 0x00, 0xfe, 0x0f, 0x50, 0x13, 0x00, 0xf8, 0x04, 0x00,
   0x0c, 0x7f, 0x00, 0x00, 0x00, 0xe0, 0x01, 0x80, 0x1f, 0x18, 0xf0, 0x1f,
   0x00, 0x30, 0x08, 0x00, 0x80, 0x1f, 0x00, 0x00, 0x00, 0xe0, 0x01, 0xc0,
   0x07, 0x18, 0x80, 0x00, 0x20, 0x60, 0x16, 0x00, 0xf0, 0x07, 0x00, 0x00,
   0x00, 0xc0, 0x03, 0xe0, 0x01, 0x3c, 0xf8, 0x07, 0x10, 0x40, 0x08, 0x00,
   0xf8, 0x03, 0x00, 0x00, 0x00, 0xc0, 0x07, 0xf0, 0x00, 0x7c, 0xff, 0x1f,
   0x00, 0x40, 0x08, 0x00, 0xfe, 0x00, 0x00, 0x00, 0x70, 0x80, 0x07, 0x78,
   0x00, 0xfe, 0xff, 0xff, 0x00, 0x40, 0x00, 0x04, 0x3f, 0x00, 0x00, 0x00,
   0xf0, 0x00, 0x0f, 0x3c, 0x00, 0xfe, 0x07, 0xfc, 0x05, 0x40, 0x40, 0x08,
   0x0f, 0x00, 0x00, 0x80, 0xe1, 0x00, 0x1e, 0x1c, 0x00, 0x3f, 0x00, 0xc0,
   0x03, 0x60, 0x08, 0x03, 0x03, 0x00, 0x00, 0x80, 0xe3, 0x01, 0x1e, 0x8e,
   0xef, 0x0f, 0x00, 0x80, 0x07, 0xa0, 0x37, 0x00, 0x01, 0x00, 0x00, 0x80,
   0xc3, 0x01, 0x3c, 0x8f, 0xff, 0x03, 0x00, 0x00, 0x0f, 0x30, 0x00, 0x00,
   0x00, 0x00, 0x00, 0x00, 0xc7, 0x03, 0x78, 0x07, 0xff, 0x01, 0x00, 0x00,
   0x1e, 0x18, 0x48, 0x00 };
