#define Frame_13__30ms___replace__width 128
#define Frame_13__30ms___replace__height 64
static unsigned char Frame_13__30ms___replace__bits[] = {
   0x00, 0x00, 0x00, 0x00, 0x00, 0x00, 0x00, 0x00, 0x00, 0x00, 0x00, 0x00,
   0x00, 0x00, 0x00, 0x00, 0x00, 0x00, 0x00, 0x00, 0x00, 0x00, 0x00, 0x00,
   0x00, 0x00, 0x00, 0x00, 0x00, 0x00, 0x00, 0x00, 0x00, 0x00, 0x00, 0x00,
   0x00, 0x00, 0x00, 0x00, 0x00, 0x00, 0x00, 0x00, 0x00, 0x00, 0x00, 0x00,
   0x00, 0x00, 0x00, 0x00, 0x00, 0x00, 0x00, 0x00, 0x00, 0x00, 0x00, 0x00,
   0x00, 0x00, 0x00, 0x00, 0x00, 0x00, 0x00, 0x00, 0x00, 0x00, 0x40, 0x00,
   0x00, 0x00, 0x00, 0x00, 0x00, 0x00, 0x00, 0x00, 0x00, 0x00, 0x00, 0x00,
   0x00, 0x00, 0xfc, 0x0f, 0x00, 0x00, 0x00, 0x00, 0x00, 0x00, 0x00, 0x00,
   0x00, 0x00, 0x00, 0x00, 0x00, 0x00, 0xff, 0x7f, 0x00, 0x00, 0x00, 0x00,
   0x00, 0x00, 0x00, 0x00, 0x00, 0x00, 0x00, 0x00, 0x00, 0xc0, 0x03, 0xf0,
   0x01, 0x00, 0x00, 0x00, 0x00, 0x00, 0x00, 0x00, 0x00, 0x00, 0x00, 0x00,
   0x00, 0xf0, 0x00, 0xc0, 0x03, 0x00, 0x00, 0x00, 0x00, 0x00, 0x00, 0x00,
   0x00, 0x00, 0x00, 0x00, 0x00, 0x78, 0x00, 0x00, 0x07, 0x00, 0x00, 0x00,
   0x00, 0x00, 0x00, 0x00, 0x00, 0x00, 0x00, 0x00, 0x00, 0x1c, 0x00, 0x00,
   0x0e, 0x00, 0x00, 0x00, 0x00, 0x00, 0x00, 0x00, 0x00, 0x00, 0x00, 0x00,
   0x00, 0x0e, 0x00, 0x00, 0x0c, 0x00, 0x00, 0x00, 0x00, 0x00, 0x00, 0x00,
   0x00, 0x00, 0x00, 0x00, 0x00, 0x07, 0x00, 0x00, 0x1c, 0x00, 0x00, 0x00,
   0x00, 0x00, 0x00, 0x00, 0x00, 0x00, 0x00, 0x00, 0x00, 0x03, 0x00, 0x00,
   0x18, 0x00, 0x00, 0x00, 0x00, 0x00, 0x00, 0x00, 0x00, 0x00, 0x00, 0x00,
   0x80, 0x03, 0x00, 0x00, 0x18, 0x00, 0x00, 0x00, 0x00, 0x00, 0x00, 0x00,
   0x00, 0x00, 0x00, 0x00, 0x80, 0x01, 0x00, 0x00, 0x30, 0x00, 0x00, 0x00,
   0x00, 0x00, 0x00, 0x00, 0x00, 0x00, 0x00, 0x00, 0xc0, 0x00, 0x00, 0x00,
   0x30, 0x00, 0x00, 0x00, 0x00, 0x00, 0x00, 0x00, 0x00, 0x00, 0x00, 0x00,
   0xe0, 0x00, 0x00, 0x00, 0x30, 0x00, 0x00, 0x00, 0x00, 0x00, 0x00, 0x00,
   0x00, 0x00, 0x00, 0x00, 0xe0, 0x00, 0x00, 0x7f, 0x30, 0x00, 0x00, 0x00,
   0x00, 0x00, 0x00, 0x00, 0x00, 0x00, 0x00, 0x00, 0x70, 0x00, 0x80, 0xff,
   0x30, 0x00, 0x00, 0x00, 0x00, 0x00, 0x00, 0x00, 0x00, 0x00, 0x00, 0x00,
   0xf0, 0x07, 0xc0, 0xdf, 0x30, 0x00, 0x00, 0x00, 0x00, 0x00, 0x00, 0x00,
   0x00, 0x00, 0x00, 0x00, 0xf8, 0x0f, 0xe0, 0x9f, 0x71, 0x00, 0x00, 0x00,
   0x00, 0x00, 0x00, 0x00, 0x00, 0x00, 0x00, 0x00, 0xfc, 0x1d, 0xf0, 0x9f,
   0x71, 0x00, 0x00, 0x00, 0x00, 0x00, 0x00, 0x00, 0x00, 0x00, 0x00, 0x00,
   0xfe, 0x99, 0xf1, 0x9f, 0x71, 0x00, 0x00, 0x00, 0x00, 0x00, 0x00, 0x00,
   0x00, 0x00, 0x00, 0x00, 0xfe, 0xd9, 0xf8, 0x8f, 0x71, 0x00, 0x00, 0x00,
   0x00, 0x00, 0x00, 0x00, 0x00, 0x00, 0x00, 0x00, 0xff, 0x79, 0xf8, 0x8f,
   0x61, 0x00, 0x00, 0x00, 0x00, 0x00, 0x00, 0x00, 0x00, 0x00, 0x00, 0x00,
   0xff, 0x38, 0xf8, 0xc7, 0x61, 0x00, 0x00, 0x00, 0x00, 0x00, 0x00, 0x00,
   0x00, 0x00, 0x00, 0x00, 0x7f, 0x1c, 0x70, 0xf0, 0x60, 0x00, 0x00, 0x00,
   0x00, 0x9e, 0x01, 0x00, 0x00, 0x00, 0x00, 0x00, 0x3f, 0x1f, 0xe0, 0x7c,
   0x60, 0x00, 0x00, 0x00, 0xc0, 0x03, 0x06, 0x00, 0x00, 0x00, 0x00, 0x00,
   0xfe, 0xcf, 0xc3, 0x3f, 0x60, 0x00, 0x00, 0x00, 0xe0, 0x03, 0x0c, 0x00,
   0x00, 0x00, 0x00, 0x00, 0xfc, 0xe6, 0x03, 0x07, 0x60, 0x00, 0x00, 0x00,
   0xf0, 0x05, 0x08, 0x00, 0x00, 0x00, 0x00, 0x00, 0x0c, 0x06, 0x02, 0xe0,
   0x61, 0x00, 0x00, 0x00, 0xc8, 0x02, 0x10, 0x00, 0x00, 0x00, 0x00, 0x00,
   0x0c, 0xfe, 0x03, 0xfe, 0x61, 0x00, 0x00, 0x00, 0x84, 0x05, 0x10, 0x00,
   0x00, 0x00, 0x00, 0x00, 0x0c, 0xfc, 0xc3, 0x7f, 0xe0, 0x00, 0x00, 0x00,
   0x5a, 0xf1, 0x10, 0x00, 0x00, 0x00, 0x00, 0x00, 0x04, 0x40, 0xfc, 0x07,
   0xe0, 0x00, 0x00, 0x00, 0xa1, 0xfa, 0x11, 0x00, 0x00, 0x00, 0x00, 0x00,
   0x04, 0xe0, 0x7f, 0x00, 0xe0, 0x00, 0x00, 0x80, 0x41, 0x79, 0x09, 0x00,
   0x00, 0x00, 0x00, 0x00, 0x86, 0xff, 0x07, 0x00, 0xc0, 0x00, 0x00, 0xc0,
   0x80, 0x09, 0x09, 0x00, 0x00, 0x00, 0x00, 0x00, 0xfe, 0x3f, 0x00, 0x00,
   0xc0, 0x00, 0x00, 0x40, 0x00, 0xf6, 0x04, 0x00, 0x00, 0x00, 0x00, 0x00,
   0xfe, 0x03, 0x00, 0x00, 0xc0, 0x00, 0x00, 0x20, 0x00, 0x18, 0x02, 0x00,
   0x00, 0x00, 0x00, 0x00, 0x06, 0x00, 0x00, 0x00, 0xc0, 0x01, 0x00, 0x20,
   0x00, 0x30, 0x01, 0x00, 0x00, 0x00, 0x00, 0x00, 0x06, 0x00, 0x00, 0x00,
   0xc0, 0x01, 0x00, 0x10, 0x00, 0x80, 0x00, 0x00, 0x00, 0x00, 0x00, 0x00,
   0x06, 0x00, 0x00, 0x00, 0xc0, 0x01, 0x00, 0x10, 0x00, 0xc0, 0x00, 0x00,
   0x00, 0x00, 0x00, 0x00, 0x06, 0x00, 0x00, 0x00, 0x80, 0x01, 0x00, 0x18,
   0x00, 0x41, 0x00, 0x00, 0x00, 0x00, 0x00, 0x00, 0x06, 0x00, 0x00, 0x00,
   0x80, 0x01, 0x00, 0x08, 0x00, 0x21, 0x00, 0x00, 0x00, 0x00, 0x00, 0x00,
   0x0e, 0x00, 0x00, 0x30, 0x83, 0x03, 0x00, 0x08, 0x80, 0x32, 0x00, 0x00,
   0x00, 0x00, 0x00, 0x00, 0x0e, 0x00, 0x00, 0x30, 0x07, 0x03, 0x00, 0x08,
   0x40, 0x11, 0x00, 0x00, 0x00, 0x00, 0x00, 0x00, 0x0e, 0x00, 0x00, 0x60,
   0x07, 0x03, 0xf0, 0x0f, 0xa0, 0x08, 0x00, 0x00, 0x00, 0x00, 0x00, 0x00,
   0x0c, 0x00, 0x00, 0x60, 0x06, 0x03, 0xfc, 0x0f, 0xa0, 0x08, 0x00, 0x00,
   0x00, 0x00, 0x00, 0x00, 0x0c, 0x00, 0x00, 0x60, 0x06, 0x07, 0x1f, 0x0c,
   0x50, 0x04, 0x00, 0x00, 0x00, 0x00, 0x00, 0x00, 0x0c, 0x00, 0x00, 0x60,
   0x06, 0xc6, 0x03, 0x08, 0x2c, 0x7c, 0x00, 0x02, 0x00, 0x00, 0x00, 0x00,
   0x0c, 0x00, 0x00, 0x60, 0x06, 0xe6, 0x00, 0x0c, 0x26, 0x92, 0x08, 0x0e,
   0x00, 0x00, 0x00, 0x00, 0x0c, 0x00, 0x00, 0x40, 0x0e, 0x7e, 0x06, 0x0e,
   0x1e, 0x10, 0x03, 0x13, 0x00, 0x00, 0x00, 0x00, 0x1c, 0x00, 0x00, 0x40,
   0x0e, 0x3c, 0x0e, 0x3f, 0x54, 0x3c, 0x01, 0x01, 0x00, 0x00, 0x00, 0x00,
   0x1c, 0x00, 0x00, 0x40, 0x0e, 0x1c, 0xfc, 0xff, 0x07, 0xc0, 0x00, 0x06,
   0x00, 0x00, 0x00, 0x00, 0x18, 0x00, 0x00, 0xc0, 0x0c, 0x1c, 0xf8, 0x00,
   0x1f, 0x80, 0x00, 0x05, 0x00, 0x00, 0x00, 0x00, 0x18, 0x00, 0x00, 0xc0,
   0x0c, 0x98, 0x19, 0x00, 0x78, 0x08, 0x3b, 0x10, 0x00, 0x00, 0x00, 0x00,
   0x18, 0x00, 0x00, 0xc0, 0x0c, 0x18, 0x0e, 0x00, 0xe0, 0x00, 0x64, 0x00,
   0x00, 0x00, 0x00, 0x00, 0x38, 0x00, 0x00, 0xc0, 0x0c, 0x10, 0x07, 0x00,
   0xc0, 0x02, 0x02, 0x00, 0x00, 0x00, 0x00, 0x00, 0x38, 0x00, 0x00, 0xc0,
   0x0c, 0x00, 0x07, 0x00, 0x80, 0x01, 0x12, 0x00, 0x00, 0x00, 0x00, 0x00,
   0x30, 0x00, 0x00, 0x80, 0x0c, 0x00, 0x03, 0x00, 0x80, 0x01, 0x0a, 0x00,
   0x00, 0x00, 0x00, 0x00, 0x70, 0x00, 0x00, 0x80, 0x0c, 0x00, 0x00, 0x02,
   0x00, 0x03, 0x01, 0x00, 0x00, 0x00, 0x00, 0x00, 0x70, 0x00, 0x00, 0x80,
   0x0c, 0x00, 0x00, 0x03, 0x00, 0x83, 0x32, 0x00, 0x00, 0x00, 0x00, 0x00,
   0x60, 0x00, 0x00, 0x80, 0x1d, 0x00, 0x80, 0x01, 0x00, 0x7b, 0x00, 0x00,
   0x00, 0x00, 0x00, 0x00, 0xe0, 0x00, 0x00, 0x80, 0x39, 0x00, 0x80, 0x00,
   0x00, 0x03, 0x18, 0x02 };
