#define Frame_5__30ms___replace__width 128
#define Frame_5__30ms___replace__height 64
static unsigned char Frame_5__30ms___replace__bits[] = {
   0x00, 0x00, 0x00, 0x00, 0x00, 0x00, 0x00, 0x00, 0x00, 0x00, 0x00, 0x00,
   0x00, 0x00, 0x00, 0x00, 0x00, 0x00, 0x00, 0x00, 0x00, 0x00, 0x00, 0x00,
   0x00, 0x00, 0x00, 0x00, 0x00, 0x00, 0x00, 0x00, 0x00, 0x00, 0x00, 0x00,
   0x00, 0x00, 0x00, 0x00, 0x00, 0x00, 0x00, 0x00, 0x00, 0x00, 0x00, 0x00,
   0x00, 0x00, 0x00, 0x00, 0x00, 0x00, 0x00, 0x00, 0x00, 0x00, 0x00, 0x00,
   0x00, 0x00, 0x00, 0x00, 0x00, 0x00, 0x00, 0x00, 0x00, 0x00, 0x00, 0x00,
   0x00, 0x00, 0x00, 0x00, 0x00, 0x00, 0x00, 0x00, 0x00, 0x00, 0x00, 0x00,
   0x00, 0x00, 0x00, 0x00, 0x00, 0x00, 0x00, 0x00, 0x00, 0x00, 0x00, 0x00,
   0x00, 0x00, 0x00, 0x00, 0x00, 0x00, 0x00, 0x00, 0x00, 0x00, 0x00, 0x00,
   0x00, 0x00, 0x00, 0x00, 0x00, 0x00, 0x00, 0x00, 0x00, 0x00, 0x00, 0x00,
   0x00, 0x00, 0x00, 0x00, 0x00, 0x00, 0x00, 0x00, 0x00, 0x00, 0x00, 0x00,
   0x00, 0x00, 0x00, 0x00, 0x00, 0x00, 0x00, 0x00, 0x00, 0x00, 0x00, 0x00,
   0xf8, 0x00, 0x00, 0x00, 0x00, 0x00, 0x00, 0x00, 0x00, 0x00, 0x00, 0x00,
   0x00, 0x00, 0x00, 0x00, 0xff, 0x0f, 0x00, 0x00, 0x00, 0x00, 0x00, 0x00,
   0x00, 0x00, 0x00, 0x00, 0x00, 0x00, 0x00, 0x00, 0xff, 0x7f, 0x00, 0x00,
   0x00, 0x00, 0x00, 0x00, 0x00, 0x00, 0x00, 0x00, 0x00, 0x00, 0x00, 0x00,
   0xff, 0xff, 0x00, 0x00, 0x00, 0x00, 0x00, 0x00, 0x00, 0x00, 0x80, 0x3f,
   0x00, 0x00, 0x00, 0x00, 0x00, 0xf8, 0x03, 0x00, 0x00, 0x00, 0x00, 0x00,
   0x00, 0x00, 0xf0, 0xe1, 0x00, 0x00, 0x00, 0x00, 0x00, 0xe0, 0x07, 0x00,
   0x00, 0x00, 0x00, 0x00, 0x00, 0x00, 0x38, 0x80, 0x03, 0x00, 0x00, 0x00,
   0x00, 0x80, 0x0f, 0x00, 0x00, 0x00, 0x00, 0x00, 0x00, 0x00, 0x0c, 0x00,
   0x06, 0x00, 0x00, 0x00, 0x00, 0x00, 0x1f, 0x00, 0x00, 0x00, 0x00, 0x00,
   0x00, 0x00, 0x07, 0x00, 0x0c, 0x00, 0x00, 0x00, 0x00, 0x00, 0x3e, 0x00,
   0x00, 0x00, 0x00, 0x00, 0x00, 0x80, 0x03, 0x00, 0x08, 0x00, 0x00, 0x00,
   0x00, 0x00, 0x3c, 0x00, 0x00, 0x00, 0x00, 0x00, 0x00, 0xe0, 0x07, 0x00,
   0x18, 0x00, 0x00, 0x00, 0x00, 0x00, 0x78, 0x00, 0x00, 0x00, 0x00, 0x00,
   0x00, 0xf0, 0x0f, 0x00, 0x18, 0x00, 0x00, 0x00, 0x00, 0x00, 0xf0, 0x00,
   0x00, 0x00, 0x00, 0x00, 0x00, 0xf8, 0x0b, 0x00, 0x10, 0x00, 0x00, 0x00,
   0x00, 0x00, 0xf0, 0x01, 0x00, 0x00, 0x00, 0x00, 0x00, 0xf8, 0x09, 0x00,
   0x10, 0x00, 0x00, 0x00, 0x00, 0x00, 0xe0, 0x01, 0x00, 0x00, 0x00, 0x00,
   0x00, 0x30, 0x3c, 0x7e, 0x10, 0x00, 0x00, 0x00, 0x00, 0x00, 0xc0, 0x03,
   0x00, 0x00, 0x00, 0x00, 0x00, 0xd8, 0x0f, 0xff, 0x18, 0x00, 0x00, 0x00,
   0x00, 0x00, 0xc0, 0x03, 0x00, 0x00, 0x00, 0x00, 0x00, 0x08, 0x83, 0xbf,
   0x18, 0x00, 0x00, 0x00, 0x00, 0x00, 0xc0, 0x03, 0x00, 0x00, 0x00, 0x00,
   0x00, 0x84, 0x8d, 0xbf, 0x19, 0x00, 0x00, 0x00, 0x00, 0x00, 0x80, 0x07,
   0x00, 0x00, 0x00, 0x00, 0x00, 0x04, 0xbb, 0x9f, 0x0c, 0x00, 0x00, 0x00,
   0x00, 0x7e, 0x80, 0x07, 0x00, 0x00, 0x00, 0x00, 0x00, 0x1e, 0x1e, 0xc3,
   0x0c, 0x00, 0x00, 0x00, 0x00, 0xff, 0x01, 0x0f, 0x00, 0x00, 0x00, 0x00,
   0x00, 0xfa, 0x1c, 0x7e, 0x04, 0x00, 0x00, 0x00, 0xc0, 0xff, 0x03, 0x0f,
   0x00, 0x00, 0x00, 0x00, 0x00, 0xc3, 0x1f, 0x10, 0x06, 0x00, 0x00, 0x00,
   0xe0, 0x8f, 0x07, 0x1e, 0x00, 0x00, 0x00, 0x00, 0x00, 0x01, 0xf8, 0x0f,
   0x02, 0x00, 0x00, 0x00, 0xf0, 0x1f, 0x0f, 0x1e, 0x00, 0x00, 0x00, 0x00,
   0x80, 0x01, 0x00, 0x3e, 0x02, 0x00, 0x00, 0x00, 0xf8, 0x1f, 0x1e, 0x3c,
   0x00, 0x00, 0x00, 0x00, 0x80, 0x01, 0x00, 0x00, 0x03, 0x00, 0x00, 0x00,
   0xf8, 0x1f, 0x1e, 0x3c, 0x00, 0x00, 0x00, 0x00, 0x80, 0x00, 0x00, 0x00,
   0x03, 0x00, 0x00, 0x00, 0xfc, 0x3f, 0x1c, 0x38, 0x00, 0x00, 0x00, 0x00,
   0xc0, 0x00, 0x00, 0x00, 0x01, 0x00, 0x00, 0x00, 0xfc, 0x3f, 0x1c, 0x78,
   0x00, 0x00, 0x00, 0x00, 0xc0, 0x00, 0x00, 0x00, 0x01, 0x00, 0x00, 0x00,
   0xfe, 0x3f, 0x3c, 0x70, 0x00, 0x00, 0x00, 0x00, 0xc0, 0x00, 0x00, 0x80,
   0x01, 0x00, 0x00, 0x00, 0xfe, 0x3f, 0x3c, 0xf0, 0x00, 0x00, 0x00, 0x00,
   0x40, 0x00, 0x00, 0x80, 0x00, 0x00, 0x00, 0x00, 0xfe, 0x3f, 0x1c, 0xe0,
   0x00, 0x00, 0x00, 0x00, 0x60, 0x00, 0x80, 0x81, 0x00, 0x00, 0x00, 0x00,
   0xfe, 0x3f, 0x1e, 0xe0, 0x01, 0x00, 0x00, 0x00, 0x60, 0x00, 0x80, 0xc4,
   0x00, 0x00, 0x30, 0x00, 0xfe, 0x1f, 0x1f, 0xc0, 0x01, 0x00, 0x00, 0x00,
   0x60, 0x00, 0x80, 0xc6, 0x00, 0x00, 0x7c, 0x03, 0xfe, 0x9f, 0x0f, 0xc0,
   0x03, 0x00, 0x00, 0x00, 0x60, 0x00, 0x80, 0xc6, 0x00, 0x80, 0x51, 0x0c,
   0xfe, 0xc7, 0x07, 0x80, 0x03, 0x00, 0x00, 0x00, 0x20, 0x00, 0x80, 0xc6,
   0x00, 0x40, 0x24, 0x00, 0xfc, 0xe3, 0x07, 0x80, 0x07, 0x00, 0x00, 0x00,
   0x20, 0x00, 0x40, 0x42, 0x00, 0x30, 0x00, 0x00, 0x7c, 0xf0, 0xe1, 0x81,
   0x07, 0x00, 0x00, 0x00, 0x60, 0x00, 0x40, 0x43, 0x00, 0x08, 0xd8, 0x11,
   0xf8, 0xff, 0xf0, 0x01, 0x0f, 0x00, 0x00, 0x00, 0x60, 0x00, 0x40, 0x63,
   0x1c, 0x04, 0xd0, 0x11, 0xf0, 0x7f, 0xf8, 0x00, 0x0e, 0x00, 0x00, 0x00,
   0x60, 0x00, 0x20, 0xe1, 0xff, 0x01, 0x40, 0x00, 0xc0, 0x1f, 0xfc, 0x00,
   0x1e, 0x00, 0x00, 0x00, 0x60, 0x00, 0x20, 0xe1, 0x80, 0x03, 0xa0, 0x0d,
   0x00, 0x00, 0x3f, 0x00, 0x1c, 0x00, 0x00, 0x00, 0x60, 0x00, 0xa0, 0x60,
   0x04, 0x00, 0x04, 0x03, 0x00, 0x80, 0x1f, 0x00, 0x3c, 0x00, 0x00, 0x00,
   0x60, 0x00, 0xb0, 0x20, 0x8d, 0x01, 0xc1, 0x00, 0x03, 0xc0, 0x0f, 0x00,
   0x78, 0x00, 0x00, 0x00, 0x40, 0x00, 0xb0, 0x00, 0xfe, 0x01, 0x32, 0x00,
   0x07, 0xf0, 0x03, 0x00, 0xf8, 0x00, 0x00, 0x00, 0xe0, 0x00, 0x98, 0x00,
   0x83, 0xa3, 0x08, 0x00, 0x07, 0xf8, 0x01, 0x00, 0xf0, 0x00, 0x00, 0x00,
   0xf8, 0x00, 0x0c, 0x01, 0x01, 0x76, 0x04, 0x00, 0x0e, 0xfc, 0x00, 0x00,
   0xf0, 0x01, 0x00, 0x00, 0xff, 0x00, 0x56, 0x02, 0x00, 0x4c, 0x04, 0x00,
   0x0f, 0x3f, 0x00, 0x00, 0xe0, 0x01, 0x00, 0xc0, 0xff, 0x01, 0xda, 0x06,
   0x00, 0x18, 0x02, 0x00, 0x87, 0x1f, 0x00, 0x00, 0xc0, 0x03, 0x00, 0xe0,
   0x8f, 0x01, 0x34, 0x07, 0x18, 0x30, 0x14, 0x00, 0xe7, 0x07, 0x00, 0x00,
   0x80, 0x07, 0x00, 0xf8, 0x01, 0x03, 0x30, 0x00, 0x00, 0x20, 0x18, 0x00,
   0xf3, 0x03, 0x00, 0x00, 0x80, 0x0f, 0x00, 0xfc, 0x00, 0x03, 0xa0, 0x00,
   0x00, 0x20, 0x08, 0x04, 0xfd, 0x01, 0x00, 0x00, 0x00, 0x0f, 0x00, 0x3e,
   0x80, 0x87, 0xff, 0x0f, 0x00, 0x60, 0x10, 0x06, 0x7e, 0x00, 0x00, 0x00,
   0x00, 0x1f, 0x00, 0x0f, 0x80, 0xff, 0xff, 0x3f, 0x03, 0x20, 0x50, 0x00,
   0x3f, 0x00, 0x00, 0x00, 0x00, 0x3e, 0x80, 0x07, 0xc0, 0xff, 0x87, 0xff,
   0x01, 0x20, 0xc8, 0x02, 0x0f, 0x00, 0x00, 0x00, 0x00, 0x3c, 0x80, 0x07,
   0xc0, 0x3f, 0x00, 0xf0, 0x03, 0xb0, 0x07, 0x00, 0x07, 0x00, 0x00, 0xc0,
   0x01, 0x7c, 0xc0, 0x03, 0xe0, 0x07, 0x00, 0xc0, 0x03, 0x30, 0x00, 0x00,
   0x01, 0x00, 0x00, 0xc0, 0x03, 0xf8, 0xc0, 0x01, 0xf8, 0x01, 0x00, 0x80,
   0x07, 0x18, 0x08, 0x00 };
