#define Frame_14__30ms___replace__width 128
#define Frame_14__30ms___replace__height 64
static unsigned char Frame_14__30ms___replace__bits[] = {
   0x00, 0x00, 0x00, 0x00, 0x00, 0x00, 0x00, 0x00, 0x00, 0x00, 0x00, 0x00,
   0x00, 0x00, 0x00, 0x00, 0x00, 0x00, 0x00, 0x00, 0x00, 0x00, 0x00, 0x00,
   0x00, 0x00, 0x00, 0x00, 0x00, 0x00, 0x00, 0x00, 0x00, 0x00, 0x00, 0x00,
   0x00, 0x00, 0x00, 0x00, 0x00, 0x00, 0x00, 0x00, 0x00, 0x00, 0x00, 0x00,
   0x00, 0x00, 0x00, 0x00, 0x00, 0x00, 0x00, 0x00, 0x00, 0x00, 0x00, 0x00,
   0x00, 0x00, 0x00, 0x00, 0x00, 0x00, 0x00, 0x00, 0x00, 0x00, 0x00, 0x00,
   0x00, 0x00, 0x00, 0x00, 0x00, 0x00, 0x00, 0x00, 0x00, 0x00, 0x00, 0x00,
   0x00, 0x00, 0x06, 0x00, 0x00, 0x00, 0x00, 0x00, 0x00, 0x00, 0x00, 0x00,
   0x00, 0x00, 0x00, 0x00, 0x00, 0xf0, 0xff, 0x01, 0x00, 0x00, 0x00, 0x00,
   0x00, 0x00, 0x00, 0x00, 0x00, 0x00, 0x00, 0x00, 0x00, 0xfc, 0xfd, 0x07,
   0x00, 0x00, 0x00, 0x00, 0x00, 0x00, 0x00, 0x00, 0x00, 0x00, 0x00, 0x00,
   0x00, 0x1f, 0x00, 0x0f, 0x00, 0x00, 0x00, 0x00, 0x00, 0x00, 0x00, 0x00,
   0x00, 0x00, 0x00, 0x00, 0x80, 0x07, 0x00, 0x1c, 0x00, 0x00, 0x00, 0x00,
   0x00, 0x00, 0x00, 0x00, 0x00, 0x00, 0x00, 0x00, 0xc0, 0x01, 0x00, 0x38,
   0x00, 0x00, 0x00, 0x00, 0x00, 0x00, 0x00, 0x00, 0x00, 0x00, 0x00, 0x00,
   0xe0, 0x00, 0x00, 0x70, 0x00, 0x00, 0x00, 0x00, 0x00, 0x00, 0x00, 0x00,
   0x00, 0x00, 0x00, 0x00, 0x70, 0x00, 0x00, 0xe0, 0x00, 0x00, 0x00, 0x00,
   0x00, 0x00, 0x00, 0x00, 0x00, 0x00, 0x00, 0x00, 0x38, 0x00, 0x00, 0xc0,
   0x00, 0x00, 0x00, 0x00, 0x00, 0x00, 0x00, 0x00, 0x00, 0x00, 0x00, 0x00,
   0x1c, 0x00, 0x00, 0xc0, 0x01, 0x00, 0x00, 0x00, 0x00, 0x00, 0x00, 0x00,
   0x00, 0x00, 0x00, 0x00, 0x0c, 0x00, 0x00, 0x80, 0x01, 0x00, 0x00, 0x00,
   0x00, 0x00, 0x00, 0x00, 0x00, 0x00, 0x00, 0x00, 0x0e, 0x00, 0x00, 0x80,
   0x01, 0x00, 0x00, 0x00, 0x00, 0x00, 0x00, 0x00, 0x00, 0x00, 0x00, 0x00,
   0x06, 0x00, 0x00, 0x80, 0x03, 0x00, 0x00, 0x00, 0x00, 0x00, 0x00, 0x00,
   0x00, 0x00, 0x00, 0x00, 0x07, 0x00, 0x00, 0x00, 0x03, 0x00, 0x00, 0x00,
   0x00, 0x00, 0x00, 0x00, 0x00, 0x00, 0x00, 0x00, 0x03, 0x00, 0xf0, 0x03,
   0x03, 0x00, 0x00, 0x00, 0x00, 0x00, 0x00, 0x00, 0x00, 0x00, 0x00, 0x80,
   0x03, 0x00, 0xfc, 0x07, 0x03, 0x00, 0x00, 0x00, 0x00, 0x00, 0x00, 0x00,
   0x00, 0x00, 0x00, 0x80, 0x03, 0x00, 0xfe, 0x0c, 0x03, 0x00, 0x00, 0x00,
   0x00, 0x00, 0x00, 0x00, 0x00, 0x00, 0x00, 0x80, 0x1f, 0x00, 0xff, 0x0c,
   0x07, 0x00, 0x00, 0x00, 0x00, 0x00, 0x00, 0x00, 0x00, 0x00, 0x00, 0xc0,
   0x7f, 0x00, 0xff, 0x18, 0x07, 0x00, 0x00, 0x00, 0x00, 0x00, 0x00, 0x00,
   0x00, 0x00, 0x00, 0xe0, 0x77, 0x80, 0xff, 0x18, 0x07, 0x00, 0x00, 0x00,
   0x00, 0x00, 0x00, 0x00, 0x00, 0x00, 0x00, 0xf0, 0xef, 0x8c, 0xff, 0x18,
   0x07, 0x00, 0x00, 0x00, 0x00, 0x3c, 0x00, 0x00, 0x00, 0x00, 0x00, 0xf8,
   0xc7, 0x86, 0xff, 0x18, 0x07, 0x00, 0x00, 0x00, 0x80, 0xc3, 0x00, 0x00,
   0x00, 0x00, 0x00, 0xf8, 0xc7, 0xc3, 0x7f, 0x1c, 0x06, 0x00, 0x00, 0x00,
   0x78, 0x00, 0x01, 0x00, 0x00, 0x00, 0x00, 0xf8, 0xc7, 0x81, 0x3f, 0x0e,
   0x06, 0x00, 0x00, 0x00, 0xfc, 0x00, 0x02, 0x00, 0x00, 0x00, 0x00, 0xf8,
   0xe7, 0x81, 0x83, 0x0f, 0x06, 0x00, 0x00, 0x00, 0xbc, 0x00, 0x06, 0x00,
   0x00, 0x00, 0x00, 0xf8, 0xf1, 0x00, 0xff, 0x03, 0x06, 0x00, 0x00, 0x00,
   0x9a, 0x00, 0x04, 0x00, 0x00, 0x00, 0x00, 0xf8, 0x7e, 0x1c, 0xfc, 0x00,
   0x06, 0x00, 0x00, 0x00, 0xe1, 0x01, 0x04, 0x00, 0x00, 0x00, 0x00, 0xf0,
   0x7f, 0x3f, 0x00, 0x1c, 0x0e, 0x00, 0x00, 0x80, 0x53, 0x3c, 0x04, 0x00,
   0x00, 0x00, 0x00, 0xe0, 0x33, 0x32, 0x00, 0x1f, 0x0e, 0x00, 0x00, 0xc0,
   0xe6, 0x7e, 0x04, 0x00, 0x00, 0x00, 0x00, 0x60, 0x70, 0x38, 0xe0, 0x0f,
   0x0c, 0x00, 0x00, 0x60, 0x58, 0x3e, 0x04, 0x00, 0x00, 0x00, 0x00, 0x60,
   0xe0, 0x1f, 0xfc, 0x01, 0x0c, 0x00, 0x00, 0x20, 0x60, 0x4a, 0x02, 0x00,
   0x00, 0x00, 0x00, 0x20, 0xc0, 0xcf, 0x3f, 0x00, 0x0c, 0x00, 0x00, 0x10,
   0xc0, 0x7d, 0x01, 0x00, 0x00, 0x00, 0x00, 0x20, 0x00, 0xfc, 0x07, 0x00,
   0x1c, 0x00, 0x00, 0x18, 0x00, 0x86, 0x01, 0x00, 0x00, 0x00, 0x00, 0x20,
   0x80, 0xff, 0x01, 0x00, 0x1c, 0x00, 0x00, 0x08, 0x00, 0x8c, 0x00, 0x00,
   0x00, 0x00, 0x00, 0x20, 0xfc, 0x1f, 0x00, 0x00, 0x18, 0x00, 0x00, 0x08,
   0x00, 0x40, 0x00, 0x00, 0x00, 0x00, 0x00, 0xb0, 0xff, 0x01, 0x00, 0x00,
   0x18, 0x00, 0x00, 0x04, 0x00, 0x20, 0x00, 0x00, 0x00, 0x00, 0x00, 0xf0,
   0x0f, 0x00, 0x00, 0x00, 0x38, 0x00, 0x00, 0x04, 0x00, 0x30, 0x00, 0x00,
   0x00, 0x00, 0x00, 0x70, 0x00, 0x00, 0x00, 0x00, 0x38, 0x00, 0x00, 0x06,
   0x40, 0x10, 0x00, 0x00, 0x00, 0x00, 0x00, 0x60, 0x00, 0x00, 0x00, 0x00,
   0x30, 0x00, 0x00, 0x02, 0x40, 0x09, 0x00, 0x00, 0x00, 0x00, 0x00, 0x60,
   0x00, 0x00, 0x00, 0x00, 0x30, 0x00, 0x00, 0x02, 0xa0, 0x08, 0x00, 0x00,
   0x00, 0x00, 0x00, 0x60, 0x00, 0x00, 0x00, 0x60, 0x70, 0x00, 0x00, 0x02,
   0xc0, 0x04, 0x00, 0x00, 0x00, 0x00, 0x00, 0x60, 0x00, 0x00, 0x00, 0x66,
   0x70, 0x00, 0x00, 0x02, 0x50, 0x04, 0x00, 0x00, 0x00, 0x00, 0x00, 0x60,
   0x00, 0x00, 0x00, 0x66, 0x60, 0x00, 0xfc, 0x03, 0x28, 0x02, 0x00, 0x00,
   0x00, 0x00, 0x00, 0x60, 0x00, 0x00, 0x00, 0xe6, 0xe0, 0x00, 0xff, 0x03,
   0x14, 0x02, 0x00, 0x00, 0x00, 0x00, 0x00, 0x60, 0x00, 0x00, 0x00, 0xe4,
   0xe0, 0xc0, 0x03, 0x02, 0x1e, 0x3a, 0x08, 0x07, 0x00, 0x00, 0x00, 0x60,
   0x00, 0x00, 0x00, 0xcc, 0xc0, 0xf0, 0x00, 0x82, 0x12, 0xc9, 0x82, 0x12,
   0x00, 0x00, 0x00, 0xe0, 0x00, 0x00, 0x00, 0xcc, 0xc0, 0x39, 0x00, 0x83,
   0x17, 0x88, 0x80, 0x01, 0x00, 0x00, 0x00, 0xe0, 0x00, 0x00, 0x00, 0xcc,
   0xc1, 0x1d, 0x80, 0x07, 0x0e, 0xbe, 0x00, 0x02, 0x00, 0x00, 0x00, 0xc0,
   0x00, 0x00, 0x00, 0x88, 0x81, 0x8f, 0xc3, 0xff, 0x10, 0x40, 0x00, 0x06,
   0x00, 0x00, 0x00, 0xc0, 0x00, 0x00, 0x00, 0x88, 0x81, 0x87, 0xff, 0xff,
   0x07, 0x80, 0x0a, 0x11, 0x00, 0x00, 0x00, 0xc0, 0x00, 0x00, 0x00, 0x98,
   0x01, 0x03, 0x7c, 0x00, 0x1f, 0x0c, 0x87, 0x01, 0x00, 0x00, 0x00, 0xc0,
   0x01, 0x00, 0x00, 0x98, 0x01, 0x63, 0x0e, 0x00, 0x38, 0x00, 0x11, 0x00,
   0x00, 0x00, 0x00, 0xc0, 0x01, 0x00, 0x00, 0x98, 0x01, 0x66, 0x07, 0x00,
   0x70, 0x01, 0x01, 0x00, 0x00, 0x00, 0x00, 0x80, 0x01, 0x00, 0x00, 0x98,
   0x01, 0x86, 0x03, 0x00, 0xe0, 0x00, 0x10, 0x00, 0x00, 0x00, 0x00, 0x80,
   0x03, 0x00, 0x00, 0x10, 0x01, 0xc4, 0x01, 0x00, 0xc0, 0x01, 0x61, 0x00,
   0x00, 0x00, 0x00, 0x80, 0x03, 0x00, 0x00, 0x10, 0x03, 0xc0, 0x00, 0x00,
   0x80, 0x01, 0x11, 0x01, 0x00, 0x00, 0x00, 0x80, 0x03, 0x00, 0x00, 0x10,
   0x03, 0x80, 0x00, 0x01, 0x80, 0x81, 0x02, 0x03, 0x00, 0x00, 0x00, 0x00,
   0x07, 0x00, 0x00, 0x30, 0x03, 0x00, 0x80, 0x01, 0x80, 0x73, 0x20, 0x00,
   0x00, 0x00, 0x00, 0x00, 0x07, 0x00, 0x00, 0x30, 0x03, 0x00, 0xc0, 0x00,
   0x80, 0x0f, 0x18, 0x02 };
