#define Frame_3__30ms___replace__width 128
#define Frame_3__30ms___replace__height 64
static unsigned char Frame_3__30ms___replace__bits[] = {
   0x00, 0x00, 0x00, 0x00, 0x00, 0x00, 0x00, 0x00, 0x00, 0x00, 0x00, 0x00,
   0x00, 0x00, 0x00, 0x00, 0x00, 0x00, 0x00, 0x00, 0x00, 0x00, 0x00, 0x00,
   0x00, 0x00, 0x00, 0x00, 0x00, 0x00, 0x00, 0x00, 0x00, 0x00, 0x00, 0x00,
   0x00, 0x00, 0x00, 0x00, 0x00, 0x00, 0x00, 0x00, 0x00, 0x00, 0x00, 0x00,
   0x00, 0x00, 0x00, 0x00, 0x00, 0x00, 0x00, 0x00, 0x00, 0x00, 0x00, 0x00,
   0x00, 0x00, 0x00, 0x00, 0x00, 0x00, 0x00, 0x00, 0x00, 0x00, 0x00, 0x00,
   0x00, 0x00, 0x00, 0x00, 0x00, 0x00, 0x00, 0x00, 0x00, 0x00, 0x00, 0x00,
   0x00, 0x00, 0x00, 0x00, 0x00, 0x00, 0x00, 0x00, 0x00, 0x00, 0x00, 0x00,
   0x00, 0x00, 0x00, 0x00, 0x00, 0x00, 0x00, 0x00, 0x00, 0x00, 0x00, 0x00,
   0x00, 0x00, 0x00, 0x00, 0x00, 0x00, 0xfc, 0x1f, 0x00, 0x00, 0x00, 0x00,
   0x00, 0x00, 0x00, 0x00, 0x00, 0x00, 0x00, 0x00, 0x00, 0xc0, 0xff, 0x7f,
   0x00, 0x00, 0x00, 0x00, 0x00, 0x00, 0x00, 0x00, 0x00, 0x00, 0x00, 0x00,
   0x00, 0xf0, 0xff, 0xff, 0x01, 0x00, 0x00, 0x00, 0x00, 0x00, 0x00, 0x00,
   0x00, 0x00, 0x00, 0x00, 0x00, 0xf8, 0x01, 0xf0, 0x03, 0x00, 0x00, 0x00,
   0x00, 0x00, 0x00, 0x00, 0x00, 0x00, 0x00, 0x00, 0x00, 0x7e, 0x00, 0x80,
   0x0f, 0x00, 0x00, 0x00, 0x00, 0x00, 0x00, 0x00, 0x00, 0x00, 0x00, 0x00,
   0x00, 0x0f, 0x00, 0x00, 0x1f, 0x00, 0x00, 0x00, 0x00, 0x00, 0x00, 0x00,
   0x00, 0x00, 0x00, 0x00, 0x80, 0x07, 0x00, 0x00, 0x1c, 0x00, 0x00, 0x00,
   0x00, 0x00, 0x00, 0x00, 0x00, 0x00, 0x00, 0x00, 0xc0, 0x03, 0x00, 0x00,
   0x3c, 0x00, 0x00, 0x00, 0x00, 0x00, 0x00, 0x00, 0x00, 0x00, 0x00, 0x00,
   0xe0, 0x01, 0x00, 0x00, 0x78, 0x00, 0x00, 0x00, 0x00, 0x00, 0x00, 0x00,
   0x00, 0x00, 0x00, 0x00, 0xf0, 0x00, 0x00, 0x00, 0xf0, 0x00, 0x00, 0x00,
   0x00, 0x00, 0x00, 0x00, 0x00, 0x00, 0x00, 0x00, 0x78, 0x00, 0x00, 0x00,
   0xe0, 0x00, 0x00, 0x00, 0x00, 0x00, 0x00, 0xc0, 0x1f, 0x00, 0x00, 0x00,
   0x38, 0x00, 0x00, 0x00, 0xe0, 0x01, 0x00, 0x00, 0x00, 0x00, 0x00, 0x70,
   0x60, 0x00, 0x00, 0x00, 0x3c, 0x00, 0x00, 0x00, 0xc0, 0x01, 0x00, 0x00,
   0x00, 0x00, 0x00, 0x18, 0xc0, 0x00, 0x00, 0x00, 0x1c, 0x00, 0x00, 0x00,
   0xc0, 0x01, 0x00, 0x00, 0x00, 0x00, 0x00, 0x06, 0x80, 0x01, 0x00, 0x00,
   0x0e, 0x00, 0x00, 0x00, 0x80, 0x03, 0x00, 0x00, 0x00, 0x00, 0xc0, 0x07,
   0x00, 0x02, 0x00, 0x00, 0x0e, 0x00, 0x00, 0x00, 0x80, 0x03, 0x00, 0x00,
   0x00, 0x00, 0xe0, 0x0f, 0x00, 0x06, 0x00, 0x00, 0x07, 0x00, 0x00, 0xfc,
   0x80, 0x03, 0x00, 0x00, 0x00, 0x00, 0xe0, 0x0b, 0x00, 0x04, 0x00, 0x00,
   0x07, 0x00, 0x00, 0xfe, 0x03, 0x07, 0x00, 0x00, 0x00, 0x00, 0xe0, 0x09,
   0x00, 0x04, 0x00, 0x00, 0x07, 0x00, 0x80, 0xbf, 0x07, 0x07, 0x00, 0x00,
   0x00, 0x00, 0xf0, 0x3c, 0x0c, 0x04, 0x00, 0x00, 0x03, 0x00, 0xc0, 0x3f,
   0x0f, 0x07, 0x00, 0x00, 0x00, 0x00, 0x10, 0x0f, 0x3f, 0x04, 0x00, 0x00,
   0x03, 0x00, 0xe0, 0x3f, 0x0e, 0x0e, 0x00, 0x00, 0x00, 0x00, 0x08, 0x81,
   0x3f, 0x06, 0x00, 0x00, 0x03, 0x00, 0xe0, 0x3f, 0x0c, 0x0e, 0x00, 0x00,
   0x00, 0x00, 0x08, 0xcd, 0x5f, 0x02, 0x00, 0x00, 0x03, 0x00, 0xf0, 0x7f,
   0x1c, 0x0e, 0x00, 0x00, 0x00, 0x00, 0x3c, 0x96, 0x47, 0x02, 0x00, 0x00,
   0x03, 0x00, 0xf0, 0x7f, 0x1c, 0x1e, 0x00, 0x00, 0x00, 0x00, 0xe6, 0x8d,
   0x21, 0x03, 0x00, 0x00, 0x01, 0x00, 0xf8, 0x7f, 0x1c, 0x1c, 0x00, 0x00,
   0x00, 0x00, 0x02, 0x0f, 0x9f, 0x01, 0x00, 0x00, 0x79, 0x00, 0xf8, 0x3f,
   0x1c, 0x1c, 0x00, 0x00, 0x00, 0x00, 0x03, 0xf8, 0x80, 0x01, 0x00, 0x00,
   0xff, 0x00, 0xf8, 0x3f, 0x1c, 0x3c, 0x00, 0x00, 0x00, 0x00, 0x01, 0xc0,
   0x87, 0x00, 0x00, 0x00, 0xff, 0x61, 0xf8, 0x3f, 0x0e, 0x38, 0x00, 0x00,
   0x00, 0x80, 0x01, 0x00, 0x44, 0x00, 0x00, 0x00, 0xcf, 0x73, 0xf8, 0x1f,
   0x0f, 0x38, 0x00, 0x00, 0x00, 0x80, 0x00, 0x00, 0x40, 0x00, 0x00, 0x00,
   0x9f, 0x3f, 0xf8, 0xc7, 0x07, 0x70, 0x00, 0x00, 0x00, 0x80, 0x00, 0x00,
   0x60, 0x00, 0x00, 0x00, 0x1f, 0x3f, 0xf0, 0xe0, 0x03, 0x70, 0x00, 0x00,
   0x00, 0xc0, 0x00, 0x00, 0x20, 0x00, 0x00, 0x00, 0x1f, 0x1f, 0xf0, 0xff,
   0x61, 0xf0, 0x00, 0x00, 0x00, 0x40, 0x00, 0x00, 0x20, 0x00, 0x00, 0x00,
   0x1f, 0x1f, 0xc0, 0x7f, 0x78, 0xe0, 0x00, 0x00, 0x00, 0x40, 0x00, 0x40,
   0x10, 0x00, 0x00, 0x00, 0x1f, 0x0f, 0x00, 0x1f, 0x7c, 0xe0, 0x00, 0x00,
   0x00, 0x40, 0x00, 0x20, 0x11, 0x00, 0x00, 0x00, 0x1f, 0x0f, 0x00, 0x00,
   0x3f, 0xc0, 0x01, 0x00, 0x00, 0x60, 0x00, 0xa0, 0x19, 0x00, 0x00, 0x00,
   0x8f, 0xc7, 0x07, 0xc0, 0x0f, 0xc0, 0x01, 0x00, 0x00, 0x60, 0x00, 0xa0,
   0x18, 0x00, 0x00, 0x00, 0xc7, 0xe7, 0x0f, 0xe0, 0x07, 0xc0, 0x03, 0x00,
   0x00, 0x60, 0x00, 0xd0, 0x08, 0x00, 0xc0, 0x00, 0xf3, 0xf7, 0x0e, 0xf8,
   0x01, 0x80, 0x03, 0x00, 0x00, 0x20, 0x00, 0xd0, 0x08, 0x00, 0xc4, 0x05,
   0x7f, 0x07, 0x0e, 0x7e, 0x00, 0x80, 0x07, 0x00, 0x00, 0x20, 0x00, 0x48,
   0x0c, 0x00, 0xd1, 0x00, 0x3f, 0x87, 0x8f, 0x1f, 0x00, 0x00, 0x07, 0x00,
   0x00, 0x60, 0x00, 0x28, 0x64, 0x40, 0x60, 0x10, 0x0f, 0xff, 0xc7, 0x0f,
   0x00, 0x00, 0x0f, 0x00, 0x00, 0x60, 0x00, 0x28, 0xfc, 0x23, 0x20, 0x01,
   0x01, 0xff, 0xf3, 0x03, 0x00, 0x00, 0x0e, 0x00, 0x00, 0x60, 0x00, 0x14,
   0x04, 0x1c, 0x80, 0x03, 0x01, 0x7c, 0xfc, 0x01, 0x00, 0x00, 0x1e, 0x00,
   0x00, 0x78, 0x00, 0x14, 0x44, 0x08, 0xc0, 0x10, 0x01, 0x00, 0x3f, 0x00,
   0x00, 0x00, 0x1c, 0x00, 0x00, 0x7f, 0x00, 0x13, 0xd0, 0x0c, 0x80, 0x0c,
   0x01, 0xe0, 0x0f, 0x00, 0x00, 0x00, 0x3c, 0x00, 0xe0, 0x7f, 0x80, 0x32,
   0xf8, 0x07, 0x16, 0x01, 0x03, 0xf0, 0x07, 0x00, 0x00, 0x00, 0x38, 0x00,
   0xf0, 0x6f, 0x80, 0x2a, 0x08, 0xcc, 0x44, 0x00, 0x03, 0xfc, 0x01, 0x00,
   0x00, 0x00, 0x78, 0x00, 0xf8, 0xc0, 0x80, 0x5f, 0x00, 0xd0, 0x10, 0x00,
   0x83, 0x7f, 0x00, 0x00, 0x00, 0x08, 0x70, 0x00, 0x3e, 0xc0, 0x00, 0x66,
   0x00, 0xa0, 0x0c, 0x00, 0xe3, 0x0f, 0x00, 0x00, 0x00, 0x1c, 0xe0, 0x00,
   0x0f, 0xc0, 0x01, 0x01, 0xc0, 0x40, 0x10, 0x00, 0xfb, 0x03, 0x00, 0x00,
   0x60, 0x3c, 0xe0, 0x81, 0x07, 0xe0, 0xff, 0x7f, 0x00, 0x40, 0x08, 0x00,
   0xff, 0x00, 0x00, 0x00, 0xe0, 0x38, 0xc0, 0x81, 0x03, 0xe0, 0xff, 0xff,
   0x00, 0x80, 0x60, 0x00, 0x3f, 0x00, 0x00, 0x00, 0xe0, 0x38, 0xc0, 0xc3,
   0x01, 0xf8, 0x0f, 0xf8, 0x13, 0x80, 0x00, 0x00, 0x07, 0x00, 0x00, 0x00,
   0xc0, 0x71, 0x80, 0xe3, 0xf8, 0xfe, 0x00, 0x80, 0x07, 0x40, 0x10, 0x06,
   0x06, 0x00, 0x00, 0x00, 0x80, 0xf1, 0x00, 0xf7, 0xf8, 0x1f, 0x00, 0x00,
   0x1e, 0x40, 0x40, 0x01, 0x0e, 0x00, 0x00, 0x00, 0x00, 0xe3, 0x00, 0x7f,
   0xe0, 0x07, 0x00, 0x00, 0x1c, 0x60, 0x85, 0x02, 0x0e, 0x00, 0x00, 0x00,
   0x00, 0xe3, 0x00, 0x3e, 0x80, 0x03, 0x00, 0x00, 0x1c, 0x30, 0x00, 0x06,
   0x0e, 0x00, 0x00, 0x00, 0x00, 0xc3, 0x01, 0x3c, 0xc0, 0x01, 0x00, 0x00,
   0x38, 0x18, 0x08, 0x00 };
