#define Frame_2__30ms___replace__width 128
#define Frame_2__30ms___replace__height 64
static unsigned char Frame_2__30ms___replace__bits[] = {
   0x00, 0x00, 0x00, 0x00, 0x00, 0x00, 0x00, 0x00, 0x00, 0x00, 0x00, 0x00,
   0x00, 0x00, 0x00, 0x00, 0x00, 0x00, 0x00, 0x00, 0x00, 0x00, 0x00, 0x00,
   0x00, 0x00, 0x00, 0x00, 0x00, 0x00, 0x00, 0x00, 0x00, 0x00, 0x00, 0x00,
   0x00, 0x00, 0x00, 0x00, 0x00, 0x00, 0x00, 0x00, 0x00, 0x00, 0x00, 0x00,
   0x00, 0x00, 0x00, 0x00, 0x00, 0x00, 0x00, 0x00, 0x00, 0x00, 0x00, 0x00,
   0x00, 0x00, 0x00, 0x00, 0x00, 0x00, 0x00, 0x00, 0x00, 0x00, 0x00, 0x00,
   0x00, 0x00, 0x00, 0x00, 0x00, 0x00, 0x00, 0x00, 0x00, 0x00, 0x00, 0x00,
   0x00, 0x00, 0x00, 0x00, 0x00, 0x00, 0x00, 0x00, 0x00, 0x00, 0x00, 0x00,
   0x00, 0x00, 0x00, 0x00, 0x00, 0x00, 0x00, 0x00, 0x00, 0x00, 0x00, 0x00,
   0x00, 0x00, 0x00, 0x00, 0x00, 0x00, 0x00, 0xf8, 0x1f, 0x00, 0x00, 0x00,
   0x00, 0x00, 0x00, 0x00, 0x00, 0x00, 0x00, 0x00, 0x00, 0x00, 0x80, 0xff,
   0xff, 0x00, 0x00, 0x00, 0x00, 0x00, 0x00, 0x00, 0x00, 0x00, 0x00, 0x00,
   0x00, 0x00, 0xc0, 0xff, 0xff, 0x01, 0x00, 0x00, 0x00, 0x00, 0x00, 0x00,
   0x00, 0x00, 0x00, 0x00, 0x00, 0x00, 0xf0, 0x03, 0xe0, 0x07, 0x00, 0x00,
   0x00, 0x00, 0x00, 0x00, 0x00, 0x00, 0x00, 0x00, 0x00, 0x00, 0x78, 0x00,
   0x00, 0x0f, 0x00, 0x00, 0x00, 0x00, 0x00, 0x00, 0x00, 0x00, 0x00, 0x00,
   0x00, 0x00, 0x3e, 0x00, 0x00, 0x1e, 0x00, 0x00, 0x00, 0x00, 0x00, 0x00,
   0x00, 0x00, 0x00, 0x00, 0x00, 0x00, 0x0f, 0x00, 0x00, 0x3c, 0x00, 0x00,
   0x00, 0x00, 0x00, 0x00, 0x00, 0x00, 0x00, 0x00, 0x00, 0x00, 0x07, 0x00,
   0x00, 0x38, 0x00, 0x00, 0x00, 0x00, 0x00, 0x00, 0x00, 0x00, 0x00, 0x00,
   0x00, 0x80, 0x03, 0x00, 0x00, 0x70, 0x00, 0x00, 0x00, 0x00, 0x00, 0x00,
   0x00, 0x00, 0x00, 0x00, 0x00, 0xc0, 0x01, 0x00, 0x00, 0xe0, 0x00, 0x00,
   0x00, 0x00, 0x00, 0x00, 0x00, 0x00, 0x00, 0x00, 0x00, 0xe0, 0x01, 0x00,
   0x00, 0xe0, 0x00, 0x00, 0x00, 0x00, 0x00, 0x00, 0x00, 0x00, 0x00, 0x00,
   0x00, 0xf0, 0x00, 0x00, 0x00, 0xc0, 0x01, 0x00, 0x00, 0x00, 0x00, 0x00,
   0x00, 0x00, 0x00, 0x00, 0x00, 0x70, 0x00, 0x00, 0x00, 0xc0, 0x01, 0x00,
   0x00, 0x00, 0x00, 0x00, 0x00, 0x00, 0x00, 0x00, 0x00, 0x70, 0x00, 0x00,
   0x00, 0xc0, 0x01, 0x00, 0x00, 0x00, 0x00, 0x00, 0xfe, 0x00, 0x00, 0x00,
   0x00, 0x38, 0x00, 0x00, 0x00, 0x80, 0x03, 0x00, 0x00, 0x00, 0x00, 0x80,
   0x03, 0x03, 0x00, 0x00, 0x00, 0x38, 0x00, 0x00, 0xf8, 0x80, 0x03, 0x00,
   0x00, 0x00, 0x00, 0xe0, 0x00, 0x04, 0x00, 0x00, 0x00, 0x1c, 0x00, 0x00,
   0xfe, 0x83, 0x03, 0x00, 0x00, 0x00, 0x00, 0x7c, 0x00, 0x08, 0x00, 0x00,
   0x00, 0x1c, 0x00, 0x00, 0xff, 0x07, 0x03, 0x00, 0x00, 0x00, 0x00, 0xfe,
   0x00, 0x18, 0x00, 0x00, 0x00, 0x1c, 0x00, 0x80, 0x3f, 0x0e, 0x07, 0x00,
   0x00, 0x00, 0x00, 0xbe, 0x00, 0x10, 0x00, 0x00, 0x00, 0x0c, 0x00, 0xc0,
   0x7f, 0x0e, 0x07, 0x00, 0x00, 0x00, 0x00, 0x9e, 0x00, 0x30, 0x00, 0x00,
   0x00, 0x0e, 0x00, 0xe0, 0x7f, 0x0c, 0x07, 0x00, 0x00, 0x00, 0x00, 0xfb,
   0x03, 0x30, 0x00, 0x00, 0x00, 0x0e, 0x00, 0xe0, 0x7f, 0x1c, 0x06, 0x00,
   0x00, 0x00, 0x00, 0x71, 0xf8, 0x30, 0x00, 0x00, 0x00, 0x0e, 0x00, 0xe0,
   0x7f, 0x1c, 0x0e, 0x00, 0x00, 0x00, 0x80, 0x50, 0xfc, 0x11, 0x00, 0x00,
   0x00, 0xff, 0x03, 0xf0, 0x7f, 0x1c, 0x0e, 0x00, 0x00, 0x00, 0xc0, 0x91,
   0x7c, 0x11, 0x00, 0x00, 0x00, 0xff, 0x87, 0xf0, 0x7f, 0x1c, 0x0c, 0x00,
   0x00, 0x00, 0x40, 0xee, 0x34, 0x09, 0x00, 0x00, 0x80, 0x7f, 0xcf, 0xf0,
   0x3f, 0x0e, 0x1c, 0x00, 0x00, 0x00, 0x20, 0x38, 0x98, 0x09, 0x00, 0x00,
   0x80, 0x7f, 0xee, 0xf0, 0x1f, 0x0f, 0x1c, 0x00, 0x00, 0x00, 0x30, 0xe0,
   0xf1, 0x04, 0x00, 0x00, 0xc0, 0x7f, 0x7c, 0xf0, 0x8f, 0x07, 0x1c, 0x00,
   0x00, 0x00, 0x10, 0x00, 0x0f, 0x04, 0x00, 0x00, 0xc0, 0x7f, 0x7c, 0xe0,
   0xe1, 0x03, 0x38, 0x00, 0x00, 0x00, 0x18, 0x00, 0x78, 0x02, 0x00, 0x00,
   0xe0, 0x7f, 0x3c, 0xc0, 0xff, 0x10, 0x38, 0x00, 0x00, 0x00, 0x08, 0x00,
   0x00, 0x02, 0x00, 0x00, 0xe0, 0x7f, 0x1c, 0x00, 0x7f, 0x3c, 0x38, 0x00,
   0x00, 0x00, 0x08, 0x00, 0x00, 0x01, 0x00, 0x00, 0xe0, 0x3f, 0x1e, 0x00,
   0x08, 0x3e, 0x30, 0x00, 0x00, 0x00, 0x0c, 0x00, 0x80, 0x01, 0x00, 0x00,
   0xe0, 0x1f, 0x8f, 0x0f, 0x80, 0x1f, 0x70, 0x00, 0x00, 0x00, 0x04, 0x00,
   0x80, 0x00, 0x00, 0x00, 0xe0, 0xcf, 0xcf, 0x1f, 0xe0, 0x07, 0x60, 0x00,
   0x00, 0x00, 0x04, 0x00, 0xc0, 0x00, 0x00, 0x00, 0xc0, 0xff, 0xcf, 0x1c,
   0xf8, 0x01, 0xe0, 0x00, 0x00, 0x00, 0x06, 0x00, 0x45, 0x00, 0x00, 0x00,
   0x80, 0xff, 0x0e, 0x1e, 0x7e, 0x00, 0xe0, 0x00, 0x00, 0x00, 0x06, 0x00,
   0x45, 0x00, 0x00, 0x00, 0x00, 0x1f, 0x8e, 0x0f, 0x3f, 0x00, 0xc0, 0x00,
   0x00, 0x00, 0x02, 0x80, 0x66, 0x00, 0x00, 0x00, 0x00, 0x07, 0xfc, 0xe7,
   0x0f, 0x00, 0xc0, 0x01, 0x00, 0x00, 0x02, 0x80, 0x22, 0x00, 0x00, 0x00,
   0x00, 0x07, 0xf8, 0xf9, 0x03, 0x00, 0xc0, 0x01, 0x00, 0x00, 0x02, 0x40,
   0x23, 0x00, 0xe0, 0x03, 0x00, 0x07, 0x00, 0xfe, 0x00, 0x00, 0x80, 0x03,
   0x00, 0x00, 0x02, 0x40, 0x21, 0x00, 0x06, 0x08, 0x00, 0x06, 0x80, 0x3f,
   0x00, 0x00, 0x80, 0x03, 0x00, 0x00, 0x02, 0x20, 0x91, 0x01, 0xe1, 0x00,
   0x00, 0x06, 0xf0, 0x07, 0x00, 0x00, 0x80, 0x07, 0x00, 0x00, 0x02, 0xa0,
   0x70, 0x4e, 0x40, 0x10, 0x00, 0x06, 0xfe, 0x01, 0x00, 0x00, 0x00, 0x07,
   0x00, 0xf0, 0x03, 0xd0, 0x90, 0x31, 0x40, 0x03, 0x00, 0x86, 0x7f, 0x00,
   0x00, 0x00, 0x00, 0x0f, 0x00, 0xfe, 0x07, 0x48, 0x40, 0x11, 0x00, 0x12,
   0x00, 0xfe, 0x0f, 0x00, 0x00, 0x00, 0x00, 0x0e, 0x00, 0x3f, 0x06, 0xb4,
   0xc0, 0x1f, 0x90, 0x02, 0x00, 0xfe, 0x03, 0x00, 0x00, 0x00, 0x07, 0x1c,
   0xc0, 0x07, 0x04, 0x2e, 0x61, 0x1c, 0x08, 0x06, 0x00, 0x7c, 0x00, 0x00,
   0x00, 0x10, 0x07, 0x1c, 0xe0, 0x01, 0x04, 0xfc, 0x01, 0x30, 0xc5, 0x00,
   0x00, 0x0c, 0x00, 0x00, 0x00, 0x30, 0x0e, 0x38, 0xf0, 0x00, 0x0e, 0x10,
   0x01, 0xe0, 0x10, 0x00, 0x00, 0x0c, 0x00, 0x00, 0x00, 0x30, 0x0e, 0x38,
   0x38, 0x00, 0xff, 0x7f, 0x80, 0x41, 0x01, 0x00, 0x00, 0x1c, 0x00, 0x00,
   0x00, 0x60, 0x1c, 0x70, 0x1c, 0x80, 0xff, 0xff, 0x01, 0x80, 0x04, 0x00,
   0x00, 0x1c, 0x00, 0x00, 0x00, 0x60, 0x1c, 0x70, 0x9e, 0xc3, 0x7f, 0xf8,
   0x07, 0x80, 0x20, 0x00, 0x00, 0x1c, 0x00, 0x00, 0x00, 0xc0, 0x1c, 0xe0,
   0x8e, 0xff, 0x03, 0x00, 0x2f, 0x80, 0x95, 0x00, 0x00, 0x18, 0x00, 0x00,
   0x00, 0xc0, 0x38, 0xe0, 0x07, 0x7f, 0x00, 0x00, 0x1c, 0x80, 0x10, 0x02,
   0x00, 0x38, 0x00, 0x00, 0x00, 0xc0, 0x39, 0xc0, 0x03, 0x3c, 0x00, 0x00,
   0x38, 0x80, 0x20, 0x03, 0x00, 0x38, 0x00, 0x00, 0x00, 0x80, 0x31, 0x80,
   0xe3, 0x0c, 0x00, 0x00, 0x38, 0x40, 0x09, 0x01, 0x00, 0x78, 0x00, 0x00,
   0x00, 0x80, 0x71, 0x80, 0xe3, 0x0e, 0x00, 0x00, 0x70, 0x60, 0x00, 0x00,
   0x00, 0x70, 0x00, 0x00, 0x00, 0x00, 0x73, 0x00, 0x07, 0x07, 0x00, 0x00,
   0x60, 0x18, 0x08, 0x00 };
