#define Frame_7__30ms___replace__width 128
#define Frame_7__30ms___replace__height 64
static unsigned char Frame_7__30ms___replace__bits[] = {
   0x00, 0x00, 0x00, 0x00, 0x00, 0x00, 0x00, 0x00, 0x00, 0x00, 0x00, 0x00,
   0x00, 0x00, 0x00, 0x00, 0x00, 0x00, 0x00, 0x00, 0x00, 0x00, 0x00, 0x00,
   0x00, 0x00, 0x00, 0x00, 0x00, 0x00, 0x00, 0x00, 0x00, 0x00, 0x00, 0x00,
   0x00, 0x00, 0x00, 0x00, 0x00, 0x00, 0x00, 0x00, 0x00, 0x00, 0x00, 0x00,
   0x00, 0x00, 0x00, 0x00, 0x00, 0x00, 0x00, 0x00, 0x00, 0x00, 0x00, 0x00,
   0x00, 0x00, 0x00, 0x00, 0x00, 0x00, 0x00, 0x00, 0x00, 0x00, 0x00, 0x00,
   0x00, 0x00, 0x00, 0x00, 0x00, 0x00, 0x00, 0x00, 0x00, 0x00, 0x00, 0x00,
   0x00, 0x00, 0x00, 0x00, 0x00, 0x00, 0x00, 0x00, 0x00, 0x00, 0x00, 0x00,
   0x00, 0x00, 0x00, 0x00, 0x00, 0x00, 0x00, 0x00, 0x00, 0x00, 0x00, 0x00,
   0x00, 0x00, 0x00, 0x00, 0x00, 0x00, 0x00, 0x00, 0x00, 0x00, 0x00, 0x00,
   0x00, 0x00, 0x00, 0x00, 0x00, 0x00, 0x00, 0x00, 0x00, 0x00, 0x00, 0x00,
   0x00, 0x00, 0x00, 0x00, 0x00, 0x80, 0x3f, 0x00, 0x00, 0x00, 0x00, 0x00,
   0x00, 0x00, 0x00, 0x00, 0x00, 0x00, 0x00, 0x00, 0x00, 0xe0, 0xff, 0x00,
   0x00, 0x00, 0x00, 0x00, 0x00, 0x00, 0x00, 0x00, 0x00, 0x00, 0x00, 0x00,
   0x00, 0x78, 0x80, 0x03, 0x00, 0x00, 0x00, 0x00, 0x00, 0x00, 0x00, 0x00,
   0x00, 0x00, 0x00, 0x00, 0x00, 0x1c, 0x00, 0x06, 0x00, 0x00, 0x00, 0x00,
   0x00, 0x00, 0x00, 0x00, 0x00, 0x00, 0x00, 0x00, 0x00, 0x07, 0x00, 0x0c,
   0x00, 0x00, 0x00, 0x00, 0x00, 0x00, 0x00, 0x00, 0x00, 0x00, 0x00, 0x00,
   0x80, 0x03, 0x00, 0x18, 0x00, 0x00, 0x00, 0x00, 0x00, 0x00, 0x00, 0x00,
   0x00, 0x00, 0x00, 0x00, 0xc0, 0x01, 0x00, 0x10, 0x00, 0x00, 0x00, 0x00,
   0x00, 0x00, 0x00, 0x00, 0x00, 0x00, 0x00, 0x00, 0xc0, 0x00, 0x00, 0x30,
   0x00, 0x00, 0x00, 0x00, 0x00, 0x00, 0x00, 0x00, 0x00, 0x00, 0x00, 0x00,
   0xf8, 0x03, 0x00, 0x30, 0x00, 0x00, 0x00, 0x00, 0x00, 0x00, 0x00, 0x00,
   0x00, 0x00, 0x00, 0x00, 0xfc, 0x07, 0x00, 0x20, 0x00, 0x00, 0x00, 0x00,
   0x00, 0x00, 0x00, 0x00, 0x00, 0x00, 0x00, 0x00, 0xfe, 0x06, 0x00, 0x20,
   0x00, 0x00, 0x00, 0x00, 0x01, 0x00, 0x00, 0x00, 0x00, 0x00, 0x00, 0x00,
   0xfe, 0x04, 0xfc, 0x20, 0x00, 0x00, 0x00, 0x00, 0x03, 0x00, 0x00, 0x00,
   0x00, 0x00, 0x00, 0x00, 0x7e, 0x3e, 0xff, 0x21, 0x00, 0x00, 0x00, 0x00,
   0x07, 0x00, 0x00, 0x00, 0x00, 0x00, 0x00, 0x00, 0x0c, 0x1e, 0x7f, 0x31,
   0x00, 0x00, 0x00, 0x00, 0x0f, 0x00, 0x00, 0x00, 0x00, 0x00, 0x00, 0x00,
   0xfe, 0x83, 0x7f, 0x31, 0x00, 0x00, 0x00, 0x00, 0x1f, 0x00, 0x00, 0x00,
   0x00, 0x00, 0x00, 0x00, 0x86, 0x81, 0x3f, 0x31, 0x00, 0x00, 0x00, 0x00,
   0x3e, 0x00, 0x00, 0x00, 0x00, 0x00, 0x00, 0x00, 0xc2, 0x8c, 0x1f, 0x11,
   0x00, 0x00, 0x00, 0x00, 0x7c, 0x00, 0x00, 0x00, 0x00, 0x00, 0x00, 0x00,
   0x83, 0x19, 0x83, 0x19, 0x00, 0x00, 0x00, 0x00, 0xfc, 0x00, 0x00, 0x00,
   0x00, 0x00, 0x00, 0x00, 0x01, 0x1f, 0xff, 0x18, 0x00, 0x00, 0x00, 0x00,
   0xf8, 0x00, 0x00, 0x00, 0x00, 0x00, 0x00, 0x80, 0x1f, 0x0e, 0x38, 0x18,
   0x00, 0x00, 0x00, 0x00, 0xf0, 0x01, 0x00, 0x00, 0x00, 0x00, 0x00, 0x80,
   0xff, 0x07, 0x00, 0x08, 0x00, 0x00, 0x00, 0x00, 0xe0, 0x03, 0x00, 0x00,
   0x00, 0x00, 0x00, 0x80, 0xc0, 0xff, 0x7f, 0x08, 0x00, 0x00, 0x00, 0x00,
   0xe0, 0x03, 0x00, 0x00, 0x00, 0x00, 0x00, 0x80, 0x00, 0x00, 0x7e, 0x0c,
   0x00, 0x00, 0x00, 0x00, 0xc0, 0x07, 0x00, 0x00, 0x00, 0x00, 0x00, 0xc0,
   0x00, 0x00, 0x00, 0x0c, 0x00, 0x00, 0x00, 0x00, 0x80, 0x07, 0x00, 0x00,
   0x00, 0x00, 0x00, 0xc0, 0x00, 0x00, 0x00, 0x04, 0x00, 0x00, 0x00, 0x00,
   0x80, 0x0f, 0x00, 0x00, 0x00, 0x00, 0x00, 0xc0, 0x00, 0x00, 0x00, 0x04,
   0x00, 0x00, 0x00, 0x00, 0x00, 0x0f, 0x00, 0x00, 0x00, 0x00, 0x00, 0x60,
   0x00, 0x00, 0x00, 0x06, 0x00, 0x00, 0x00, 0x00, 0x00, 0x1f, 0x00, 0x00,
   0x00, 0x00, 0x00, 0x60, 0x00, 0x00, 0x00, 0x06, 0x00, 0x00, 0x00, 0x00,
   0x03, 0x1e, 0x00, 0x00, 0x00, 0x00, 0x00, 0x60, 0x00, 0x00, 0x00, 0x06,
   0x00, 0x00, 0xfe, 0x00, 0x07, 0x3c, 0x00, 0x00, 0x00, 0x00, 0x00, 0x60,
   0x00, 0x00, 0x02, 0x06, 0x00, 0x80, 0x1f, 0x02, 0x0f, 0x7c, 0x00, 0x00,
   0x00, 0x00, 0x00, 0x60, 0x00, 0x00, 0x12, 0x06, 0x00, 0x40, 0x12, 0x00,
   0x0f, 0x78, 0x00, 0x00, 0x00, 0x00, 0x00, 0x60, 0x00, 0x00, 0x12, 0x06,
   0x00, 0x90, 0x0e, 0x04, 0x1e, 0xf8, 0x00, 0x00, 0x00, 0x00, 0x00, 0x30,
   0x00, 0x00, 0x1a, 0x06, 0x00, 0x0c, 0x07, 0x08, 0x3c, 0xf0, 0x00, 0x00,
   0x00, 0x00, 0x00, 0x30, 0x00, 0x00, 0x1a, 0x06, 0x00, 0x02, 0x76, 0x08,
   0x3c, 0xe0, 0x01, 0x00, 0x00, 0x00, 0x00, 0x30, 0x00, 0x00, 0x1b, 0x02,
   0x00, 0x01, 0xf4, 0x08, 0x38, 0xe0, 0x01, 0x00, 0x00, 0x00, 0x00, 0x30,
   0x00, 0x00, 0x1b, 0x02, 0x80, 0x01, 0x34, 0x04, 0x38, 0xc0, 0x03, 0x00,
   0x00, 0x00, 0x00, 0x30, 0x00, 0x00, 0x09, 0x02, 0x80, 0x00, 0xe8, 0x02,
   0x38, 0x80, 0x07, 0x00, 0x00, 0x00, 0x00, 0x30, 0x00, 0x00, 0x09, 0xf2,
   0x5f, 0x00, 0x10, 0x01, 0x3c, 0x80, 0x0f, 0x00, 0x00, 0x00, 0x00, 0x60,
   0x00, 0x00, 0x0d, 0x3e, 0x78, 0x00, 0x41, 0x00, 0x3c, 0x00, 0x0f, 0x00,
   0x00, 0x00, 0x00, 0x60, 0x00, 0x80, 0x0d, 0x0e, 0x20, 0x80, 0x22, 0x00,
   0x3c, 0x00, 0x1f, 0x00, 0x00, 0x00, 0x00, 0x60, 0x00, 0x80, 0x0c, 0xc2,
   0x20, 0x40, 0x09, 0x00, 0x3e, 0x00, 0x1e, 0x00, 0x00, 0x00, 0x00, 0x60,
   0x00, 0x80, 0x04, 0x92, 0x39, 0x50, 0x04, 0x00, 0x1f, 0x00, 0x3c, 0x00,
   0x00, 0x00, 0x00, 0x60, 0x00, 0x80, 0x04, 0xd2, 0x3f, 0x32, 0x02, 0x00,
   0x0f, 0x00, 0x7c, 0x00, 0x00, 0x00, 0x00, 0x60, 0x00, 0x80, 0x06, 0x70,
   0xf0, 0x1c, 0x01, 0x00, 0x0f, 0x03, 0x78, 0x00, 0x00, 0x00, 0x00, 0xc0,
   0x00, 0x80, 0x06, 0x30, 0x80, 0x9d, 0x06, 0x00, 0x87, 0x07, 0xf0, 0x00,
   0x00, 0x00, 0x00, 0xc0, 0x00, 0x40, 0x0c, 0x00, 0x00, 0x17, 0x0b, 0x00,
   0xc3, 0x07, 0xf0, 0x01, 0x00, 0x00, 0x00, 0xc0, 0x00, 0x20, 0x18, 0x00,
   0x00, 0x0c, 0xc2, 0x00, 0xf1, 0x03, 0xe0, 0x03, 0x00, 0x00, 0x00, 0xe0,
   0x01, 0xd0, 0x36, 0x00, 0x00, 0x08, 0x0c, 0x04, 0xf8, 0x03, 0xc0, 0x03,
   0x00, 0x00, 0x00, 0xf8, 0x01, 0xd8, 0x6f, 0x00, 0x03, 0x98, 0x00, 0x0a,
   0xf8, 0x01, 0xc0, 0x07, 0x00, 0x00, 0x00, 0xfc, 0x01, 0xf8, 0x7b, 0x00,
   0x01, 0x10, 0x10, 0x10, 0x7c, 0x00, 0x80, 0x0f, 0x00, 0x00, 0x00, 0xff,
   0x03, 0xb0, 0x03, 0x00, 0x00, 0x10, 0x48, 0x06, 0x3e, 0x00, 0x00, 0x1f,
   0x00, 0x00, 0xc0, 0x7f, 0x07, 0x80, 0x01, 0x00, 0x00, 0x10, 0xe8, 0x10,
   0x1f, 0x00, 0x00, 0x3e, 0x00, 0x00, 0xe0, 0x0f, 0x06, 0xc0, 0xff, 0x01,
   0x00, 0x10, 0x24, 0x00, 0x0f, 0x00, 0x00, 0x7e, 0x00, 0x00, 0xf0, 0x03,
   0x0e, 0xfc, 0xff, 0x6f, 0x00, 0xf8, 0x23, 0x00, 0x07, 0x00, 0x00, 0x7c,
   0x00, 0x00, 0xf8, 0x00, 0x1e, 0xff, 0xff, 0x1f, 0x00, 0x18, 0x00, 0x00,
   0x03, 0x00, 0x00, 0xf8, 0x00, 0x00, 0x7c, 0x00, 0xfe, 0xff, 0xc3, 0xff,
   0x00, 0x0c, 0x08, 0x00 };
