#define Frame_8__30ms___replace__width 128
#define Frame_8__30ms___replace__height 64
static unsigned char Frame_8__30ms___replace__bits[] = {
   0x00, 0x00, 0x00, 0x00, 0x00, 0x00, 0x00, 0x00, 0x00, 0x00, 0x00, 0x00,
   0x00, 0x00, 0x00, 0x00, 0x00, 0x00, 0x00, 0x00, 0x00, 0x00, 0x00, 0x00,
   0x00, 0x00, 0x00, 0x00, 0x00, 0x00, 0x00, 0x00, 0x00, 0x00, 0x00, 0x00,
   0x00, 0x00, 0x00, 0x00, 0x00, 0x00, 0x00, 0x00, 0x00, 0x00, 0x00, 0x00,
   0x00, 0x00, 0x00, 0x00, 0x00, 0x00, 0x00, 0x00, 0x00, 0x00, 0x00, 0x00,
   0x00, 0x00, 0x00, 0x00, 0x00, 0x00, 0x00, 0x00, 0x00, 0x00, 0x00, 0x00,
   0x00, 0x00, 0x00, 0x00, 0x00, 0x00, 0x00, 0x00, 0x00, 0x00, 0x00, 0x00,
   0x00, 0x00, 0x00, 0x00, 0x00, 0x00, 0x00, 0x00, 0x00, 0x00, 0x00, 0x00,
   0x00, 0x00, 0x00, 0x00, 0x00, 0x00, 0x00, 0x00, 0x00, 0x00, 0x00, 0x00,
   0x00, 0x00, 0x00, 0x00, 0x00, 0x00, 0x00, 0x00, 0x00, 0x00, 0x00, 0x00,
   0x00, 0xfc, 0x07, 0x00, 0x00, 0x00, 0x00, 0x00, 0x00, 0x00, 0x00, 0x00,
   0x00, 0x00, 0x00, 0x00, 0x80, 0x0f, 0x3e, 0x00, 0x00, 0x00, 0x00, 0x00,
   0x00, 0x00, 0x00, 0x00, 0x00, 0x00, 0x00, 0x00, 0xc0, 0x03, 0x78, 0x00,
   0x00, 0x00, 0x00, 0x00, 0x00, 0x00, 0x00, 0x00, 0x00, 0x00, 0x00, 0x00,
   0xe0, 0x00, 0xe0, 0x00, 0x00, 0x00, 0x00, 0x00, 0x00, 0x00, 0x00, 0x00,
   0x00, 0x00, 0x00, 0x00, 0x30, 0x00, 0xc0, 0x01, 0x00, 0x00, 0x00, 0x00,
   0x00, 0x00, 0x00, 0x00, 0x00, 0x00, 0x00, 0x00, 0x18, 0x00, 0x80, 0x01,
   0x00, 0x00, 0x00, 0x00, 0x00, 0x00, 0x00, 0x00, 0x00, 0x00, 0x00, 0x00,
   0x0c, 0x00, 0x00, 0x03, 0x00, 0x00, 0x00, 0x00, 0x00, 0x00, 0x00, 0x00,
   0x00, 0x00, 0x00, 0x00, 0x06, 0x00, 0x00, 0x03, 0x00, 0x00, 0x00, 0x00,
   0x00, 0x00, 0x00, 0x00, 0x00, 0x00, 0x00, 0x00, 0x07, 0x00, 0x00, 0x06,
   0x00, 0x00, 0x00, 0x00, 0x00, 0x00, 0x00, 0x00, 0x00, 0x00, 0x00, 0xc0,
   0x1f, 0x00, 0x00, 0x06, 0x00, 0x00, 0x00, 0x00, 0x00, 0x00, 0x00, 0x00,
   0x00, 0x00, 0x00, 0xe0, 0x3f, 0x00, 0x00, 0x06, 0x00, 0x00, 0x00, 0x00,
   0x00, 0x00, 0x00, 0x00, 0x00, 0x00, 0x00, 0xf0, 0x27, 0xc0, 0x0f, 0x06,
   0x00, 0x00, 0x00, 0x00, 0x00, 0x00, 0x00, 0x00, 0x00, 0x00, 0x00, 0xf0,
   0x27, 0xe0, 0x1f, 0x06, 0x00, 0x00, 0x00, 0x00, 0x00, 0x00, 0x00, 0x00,
   0x00, 0x00, 0x00, 0xf0, 0xf3, 0xf1, 0x37, 0x06, 0x00, 0x00, 0x00, 0x00,
   0x00, 0x00, 0x00, 0x00, 0x00, 0x00, 0x00, 0xf0, 0x70, 0xf8, 0x37, 0x06,
   0x00, 0x00, 0x00, 0x00, 0x00, 0x00, 0x00, 0x00, 0x00, 0x00, 0x00, 0xf0,
   0x3f, 0xf8, 0x33, 0x03, 0x00, 0x00, 0x00, 0x00, 0x00, 0x00, 0x00, 0x00,
   0x00, 0x00, 0x00, 0x30, 0x0c, 0xf8, 0x33, 0x03, 0x00, 0x00, 0x00, 0x00,
   0x00, 0x00, 0x00, 0x00, 0x00, 0x00, 0x00, 0x10, 0xec, 0xd8, 0x30, 0x03,
   0x00, 0x00, 0x00, 0x00, 0x00, 0x00, 0x00, 0x00, 0x00, 0x00, 0x00, 0x18,
   0xcc, 0x31, 0x1e, 0x01, 0x00, 0x00, 0x00, 0x00, 0x00, 0x00, 0x00, 0x00,
   0x00, 0x00, 0x00, 0x18, 0xf8, 0xe1, 0x0f, 0x01, 0x00, 0x00, 0x00, 0x00,
   0x00, 0x00, 0x00, 0x00, 0x00, 0x00, 0x00, 0x08, 0xf0, 0x00, 0x80, 0x01,
   0x00, 0x00, 0x00, 0x00, 0x00, 0x00, 0x00, 0x00, 0x00, 0x00, 0x00, 0xfc,
   0x0f, 0x00, 0x80, 0x01, 0x00, 0x00, 0x00, 0x00, 0x00, 0x00, 0x00, 0x00,
   0x00, 0x00, 0x00, 0xec, 0xff, 0xff, 0x8f, 0x01, 0x00, 0x00, 0x00, 0x00,
   0x00, 0x00, 0x00, 0x00, 0x00, 0x00, 0x00, 0x0c, 0x00, 0x00, 0x80, 0x01,
   0x00, 0x00, 0x00, 0x00, 0x00, 0x00, 0x00, 0x00, 0x00, 0x00, 0x00, 0x04,
   0x00, 0x00, 0x80, 0x00, 0x00, 0x00, 0x00, 0x00, 0x01, 0x00, 0x00, 0x00,
   0x00, 0x00, 0x00, 0x06, 0x00, 0x00, 0x80, 0x00, 0x00, 0x00, 0x00, 0x00,
   0x03, 0x00, 0x00, 0x00, 0x00, 0x00, 0x00, 0x06, 0x00, 0x00, 0xc0, 0x00,
   0x00, 0x00, 0x00, 0x00, 0x03, 0x00, 0x00, 0x00, 0x00, 0x00, 0x00, 0x06,
   0x00, 0x00, 0xc0, 0x00, 0x00, 0x00, 0x3b, 0x00, 0x07, 0x00, 0x00, 0x00,
   0x00, 0x00, 0x00, 0x06, 0x00, 0x00, 0xc0, 0x00, 0x00, 0x80, 0x87, 0x00,
   0x0f, 0x00, 0x00, 0x00, 0x00, 0x00, 0x00, 0x07, 0x00, 0x00, 0xc0, 0x00,
   0x00, 0x60, 0x0a, 0x00, 0x0f, 0x00, 0x00, 0x00, 0x00, 0x00, 0x00, 0x03,
   0x00, 0x00, 0xc0, 0x00, 0x00, 0x28, 0x07, 0x02, 0x1f, 0x00, 0x00, 0x00,
   0x00, 0x00, 0x00, 0x03, 0x00, 0x60, 0xc2, 0x00, 0x00, 0x44, 0x0c, 0x00,
   0x3e, 0x00, 0x00, 0x00, 0x00, 0x00, 0x00, 0x03, 0x00, 0x40, 0xc3, 0x00,
   0x00, 0x82, 0x13, 0x04, 0x3e, 0x00, 0x00, 0x00, 0x00, 0x00, 0x00, 0x03,
   0x00, 0x40, 0xc3, 0x00, 0x00, 0x01, 0x78, 0x04, 0x7c, 0x00, 0x00, 0x00,
   0x00, 0x00, 0x00, 0x03, 0x00, 0x40, 0xc3, 0x00, 0x80, 0x00, 0x71, 0x00,
   0x78, 0x00, 0x00, 0x00, 0x00, 0x00, 0x00, 0x03, 0x00, 0x60, 0xc3, 0x00,
   0x40, 0x00, 0x4e, 0x02, 0xf8, 0x00, 0x00, 0x00, 0x00, 0x00, 0x00, 0x03,
   0x00, 0x20, 0xc3, 0x00, 0x20, 0x00, 0x34, 0x01, 0xf0, 0x01, 0x00, 0x00,
   0x00, 0x00, 0x00, 0x03, 0x00, 0x20, 0xc3, 0x00, 0x20, 0x00, 0xc8, 0x00,
   0xf0, 0x01, 0x00, 0x00, 0x00, 0x00, 0x00, 0x03, 0x00, 0x20, 0xc3, 0xf8,
   0x1f, 0x80, 0x20, 0x00, 0xe0, 0x03, 0x00, 0x00, 0x00, 0x00, 0x00, 0x03,
   0x00, 0x20, 0xc1, 0x0f, 0x1c, 0x40, 0x11, 0x00, 0xc0, 0x07, 0x00, 0x00,
   0x00, 0x00, 0x00, 0x03, 0x00, 0x20, 0xc1, 0x03, 0x18, 0xa0, 0x08, 0x00,
   0xc0, 0x07, 0x00, 0x00, 0x00, 0x00, 0x00, 0x03, 0x00, 0xa0, 0xc1, 0x30,
   0x08, 0x40, 0x06, 0x00, 0x80, 0x0f, 0x00, 0x00, 0x00, 0x00, 0x00, 0x06,
   0x00, 0xb0, 0xc1, 0x70, 0x0c, 0x16, 0x01, 0x00, 0x00, 0x1f, 0x00, 0x00,
   0x00, 0x00, 0x00, 0x06, 0x00, 0xb0, 0x80, 0xe4, 0x1f, 0x8b, 0x00, 0x00,
   0x00, 0x1e, 0x00, 0x00, 0x00, 0x00, 0x00, 0x06, 0x00, 0x90, 0x80, 0x38,
   0x7c, 0x0e, 0x03, 0x00, 0x00, 0x3e, 0x00, 0x00, 0x00, 0x00, 0x00, 0x06,
   0x00, 0x90, 0x00, 0x1c, 0xe0, 0x0d, 0x04, 0x00, 0x00, 0x7c, 0x00, 0x00,
   0x00, 0x00, 0x00, 0x0c, 0x00, 0x90, 0x00, 0x0c, 0x80, 0x8b, 0x08, 0x00,
   0x00, 0xf8, 0x00, 0x00, 0x00, 0x00, 0x00, 0x0c, 0x00, 0x98, 0x01, 0x00,
   0x00, 0x06, 0x0a, 0x04, 0x00, 0xf0, 0x00, 0x00, 0x00, 0x00, 0x00, 0x0c,
   0x00, 0x0c, 0x07, 0x00, 0x00, 0x0c, 0x04, 0x08, 0x00, 0xf0, 0x01, 0x00,
   0x00, 0x00, 0x00, 0x18, 0x00, 0xd6, 0x0c, 0x80, 0x01, 0x08, 0x04, 0x00,
   0x06, 0xe0, 0x03, 0x00, 0x00, 0x00, 0x00, 0x18, 0x00, 0xd2, 0x09, 0xc0,
   0x00, 0x08, 0x60, 0x06, 0x0f, 0xc0, 0x07, 0x00, 0x00, 0x00, 0x00, 0x1e,
   0x00, 0xda, 0x1f, 0x40, 0x00, 0x18, 0x08, 0x00, 0x0f, 0x80, 0x0f, 0x00,
   0x00, 0x00, 0x80, 0x3f, 0x00, 0x7e, 0x00, 0x00, 0x00, 0x18, 0x00, 0x0c,
   0x0f, 0x80, 0x1f, 0x00, 0x00, 0x00, 0xe0, 0x7f, 0x00, 0x60, 0x00, 0x00,
   0x00, 0x08, 0x04, 0x00, 0x07, 0x00, 0x1f, 0x00, 0x00, 0x00, 0xf0, 0x7f,
   0x00, 0x80, 0x7f, 0x20, 0x00, 0xf8, 0x01, 0x00, 0x07, 0x00, 0x3e, 0x00,
   0x00, 0x00, 0xf8, 0xe7, 0x00, 0xf8, 0xff, 0x31, 0x00, 0x08, 0x90, 0x00,
   0x03, 0x00, 0x7e, 0x00, 0x00, 0x00, 0xfc, 0xc0, 0x01, 0xff, 0xff, 0x0f,
   0x00, 0x0c, 0x08, 0x00 };
