#define Background__30ms__width 128
#define Background__30ms__height 64
static unsigned char Background__30ms__bits[] = {
   0x00, 0x00, 0x00, 0x00, 0x00, 0x00, 0x00, 0x00, 0x00, 0x00, 0x00, 0x00,
   0x00, 0x00, 0x00, 0x00, 0x00, 0x00, 0x00, 0x00, 0x00, 0x00, 0x00, 0x00,
   0x00, 0x00, 0x00, 0x00, 0x00, 0x00, 0x00, 0x00, 0x00, 0x00, 0x00, 0x00,
   0x00, 0x00, 0x00, 0x00, 0x00, 0x00, 0x00, 0x00, 0x00, 0x00, 0x00, 0x00,
   0x00, 0x00, 0x00, 0x00, 0x00, 0x00, 0x00, 0x00, 0x00, 0x00, 0x00, 0x00,
   0x00, 0x00, 0x00, 0x00, 0x00, 0x00, 0x00, 0x00, 0x00, 0x00, 0x00, 0x00,
   0x00, 0x00, 0x00, 0x00, 0x00, 0x00, 0x00, 0x00, 0x00, 0x00, 0x00, 0x00,
   0x00, 0x00, 0x00, 0x00, 0x00, 0x00, 0x00, 0x00, 0x00, 0x00, 0x00, 0x00,
   0x00, 0x00, 0x00, 0x00, 0x00, 0x00, 0x00, 0x00, 0x00, 0x00, 0x00, 0x00,
   0x00, 0x00, 0x00, 0x00, 0x00, 0x00, 0x00, 0x00, 0x00, 0x00, 0x00, 0x00,
   0x00, 0x00, 0x00, 0x00, 0x00, 0x00, 0x00, 0x00, 0x00, 0x00, 0x00, 0x00,
   0xf8, 0x3f, 0x00, 0x00, 0x00, 0x00, 0x00, 0x00, 0x00, 0x00, 0x00, 0x00,
   0x00, 0x00, 0x00, 0x00, 0xfe, 0xff, 0x00, 0x00, 0x00, 0x00, 0x00, 0x00,
   0x00, 0x00, 0x00, 0x00, 0x00, 0x00, 0x00, 0x80, 0x1f, 0xf8, 0x03, 0x00,
   0x00, 0x00, 0x00, 0x00, 0x00, 0x00, 0x00, 0x00, 0x00, 0x00, 0x00, 0xe0,
   0x03, 0x80, 0x07, 0x00, 0x00, 0x00, 0x00, 0x00, 0x00, 0x00, 0x00, 0x00,
   0x00, 0x00, 0x00, 0xf0, 0x00, 0x00, 0x1e, 0x00, 0x00, 0x00, 0x00, 0x00,
   0x00, 0x00, 0x00, 0x00, 0x00, 0x00, 0x00, 0x38, 0x00, 0x00, 0x3c, 0x00,
   0x00, 0x00, 0x00, 0x00, 0x00, 0x00, 0x00, 0x00, 0x00, 0x00, 0x00, 0x3c,
   0x00, 0x00, 0x38, 0x00, 0x00, 0x00, 0x00, 0x00, 0x00, 0x00, 0x00, 0x00,
   0x00, 0x00, 0x00, 0x0e, 0x00, 0x00, 0x70, 0x00, 0x00, 0x00, 0x00, 0x00,
   0x00, 0x00, 0x00, 0x00, 0x00, 0x00, 0x00, 0x07, 0x00, 0x00, 0x60, 0x00,
   0x00, 0x00, 0x00, 0x00, 0x00, 0x00, 0x00, 0x00, 0x00, 0x00, 0x80, 0x07,
   0x00, 0x00, 0xe0, 0x00, 0x00, 0x00, 0x00, 0x00, 0x00, 0x00, 0x00, 0x00,
   0x00, 0x00, 0x80, 0x03, 0x00, 0x00, 0xc0, 0x00, 0x00, 0x00, 0x00, 0x00,
   0x00, 0x00, 0x00, 0x00, 0x00, 0x00, 0xc0, 0x01, 0x00, 0x00, 0xc0, 0x00,
   0x00, 0x00, 0x00, 0x00, 0x00, 0x00, 0x00, 0x00, 0x00, 0x00, 0xc0, 0x01,
   0x00, 0x00, 0xc0, 0x01, 0x00, 0x00, 0x00, 0x00, 0x00, 0x00, 0x00, 0x00,
   0x00, 0x00, 0xe0, 0x00, 0x00, 0x00, 0xc0, 0x01, 0x00, 0x00, 0x00, 0x00,
   0x00, 0x00, 0x00, 0x00, 0x00, 0x00, 0xe0, 0x00, 0x00, 0xf8, 0x81, 0x03,
   0x00, 0x00, 0x00, 0x00, 0x00, 0x00, 0x00, 0x00, 0x00, 0x00, 0x60, 0x00,
   0x00, 0xfe, 0x83, 0x03, 0x00, 0x00, 0x00, 0x00, 0xf0, 0x07, 0x00, 0x00,
   0x00, 0x00, 0x70, 0x00, 0x00, 0x7f, 0x87, 0x03, 0x00, 0x00, 0x00, 0x00,
   0x1c, 0x0c, 0x00, 0x00, 0x00, 0x00, 0x70, 0x00, 0x80, 0x7f, 0x86, 0x03,
   0x00, 0x00, 0x00, 0x80, 0x07, 0x30, 0x00, 0x00, 0x00, 0x00, 0x30, 0x00,
   0xc0, 0x7f, 0x0c, 0x03, 0x00, 0x00, 0x00, 0xc0, 0x07, 0x60, 0x00, 0x00,
   0x00, 0x00, 0x30, 0x00, 0xc0, 0x7f, 0x0c, 0x03, 0x00, 0x00, 0x00, 0xe0,
   0x07, 0x40, 0x00, 0x00, 0x00, 0x00, 0xf8, 0x07, 0xe0, 0x7f, 0x1c, 0x07,
   0x00, 0x00, 0x00, 0xe0, 0x05, 0xc0, 0x00, 0x00, 0x00, 0x00, 0xf8, 0x1f,
   0xe0, 0x7f, 0x1c, 0x07, 0x00, 0x00, 0x00, 0xf0, 0x0c, 0x80, 0x00, 0x00,
   0x00, 0x00, 0xfc, 0x1d, 0xe3, 0x7f, 0x1c, 0x07, 0x00, 0x00, 0x00, 0x10,
   0x87, 0x83, 0x00, 0x00, 0x00, 0x00, 0xfe, 0xb9, 0xe1, 0x3f, 0x0e, 0x06,
   0x00, 0x00, 0x00, 0x08, 0xe1, 0x87, 0x00, 0x00, 0x00, 0x00, 0xff, 0xf9,
   0xe0, 0x1f, 0x07, 0x0e, 0x00, 0x00, 0x00, 0x34, 0xe5, 0x4b, 0x00, 0x00,
   0x00, 0x00, 0xff, 0xf1, 0xe0, 0xc1, 0x07, 0x0e, 0x00, 0x00, 0x00, 0xe6,
   0xe6, 0x49, 0x00, 0x00, 0x00, 0x00, 0xff, 0x79, 0xc0, 0xff, 0x03, 0x0c,
   0x00, 0x00, 0x00, 0x82, 0x43, 0x24, 0x00, 0x00, 0x00, 0x00, 0xff, 0x78,
   0x80, 0xff, 0x10, 0x0c, 0x00, 0x00, 0x00, 0x01, 0x9c, 0x33, 0x00, 0x00,
   0x00, 0x00, 0x7f, 0x3c, 0x00, 0x1c, 0x1c, 0x0c, 0x00, 0x00, 0x80, 0x01,
   0xe0, 0x10, 0x00, 0x00, 0x00, 0x00, 0x3f, 0x9f, 0x1f, 0x00, 0x1f, 0x1c,
   0x00, 0x00, 0x80, 0x00, 0x80, 0x09, 0x00, 0x00, 0x00, 0x00, 0xdf, 0x9f,
   0x1f, 0xc0, 0x0f, 0x18, 0x00, 0x00, 0x80, 0x00, 0x00, 0x08, 0x00, 0x00,
   0x00, 0x00, 0xfe, 0x1d, 0x18, 0xf0, 0x03, 0x18, 0x00, 0x00, 0x40, 0x00,
   0x00, 0x04, 0x00, 0x00, 0x00, 0x00, 0x1c, 0x1c, 0x1e, 0xfe, 0x00, 0x38,
   0x00, 0x00, 0x40, 0x00, 0x00, 0x06, 0x00, 0x00, 0x00, 0x00, 0x1c, 0xf8,
   0x8f, 0x1f, 0x00, 0x38, 0x00, 0x00, 0x40, 0x00, 0x08, 0x02, 0x00, 0x00,
   0x00, 0x00, 0x1c, 0xf0, 0xf3, 0x07, 0x00, 0x70, 0x00, 0x00, 0x20, 0x00,
   0x28, 0x03, 0x00, 0x00, 0x00, 0x00, 0x1c, 0x00, 0xfc, 0x01, 0x00, 0x70,
   0x00, 0x00, 0x20, 0x00, 0x24, 0x01, 0x00, 0x00, 0x00, 0x00, 0x1c, 0x80,
   0x7f, 0x00, 0x00, 0x70, 0x00, 0x00, 0x20, 0x00, 0x94, 0x01, 0x00, 0x00,
   0x00, 0x00, 0x18, 0xf0, 0x0f, 0x00, 0x00, 0xe0, 0x00, 0x00, 0x20, 0x00,
   0x9a, 0x01, 0x00, 0x00, 0x00, 0x00, 0x18, 0xfe, 0x01, 0x00, 0x00, 0xe0,
   0x00, 0x00, 0x20, 0x00, 0x8a, 0x00, 0x00, 0x00, 0x00, 0x00, 0x98, 0x7f,
   0x00, 0x00, 0x00, 0xe0, 0x00, 0x00, 0x20, 0x00, 0x85, 0x00, 0xf0, 0x03,
   0x00, 0x00, 0xf8, 0x0f, 0x00, 0x00, 0x00, 0xc0, 0x01, 0x00, 0x3c, 0x00,
   0xc5, 0x07, 0x86, 0x08, 0x00, 0x00, 0xf8, 0x00, 0x00, 0x00, 0x00, 0xc0,
   0x01, 0xc0, 0x3f, 0x80, 0x42, 0x38, 0x80, 0x11, 0x00, 0x00, 0x18, 0x00,
   0x00, 0x00, 0xc0, 0x81, 0x03, 0xf0, 0x3f, 0x60, 0x02, 0x62, 0x40, 0x11,
   0x00, 0x00, 0x38, 0x00, 0x00, 0x00, 0x8c, 0x81, 0x03, 0x7c, 0x20, 0x50,
   0x02, 0x04, 0x00, 0x13, 0x00, 0x00, 0x38, 0x00, 0x00, 0x00, 0x9c, 0x03,
   0x07, 0x1e, 0x60, 0x50, 0x85, 0x3f, 0x80, 0x11, 0x00, 0x00, 0x30, 0x00,
   0x00, 0x00, 0x98, 0x03, 0x07, 0x07, 0x70, 0xc0, 0x07, 0x30, 0x08, 0x0c,
   0x00, 0x00, 0x30, 0x00, 0x00, 0x00, 0x18, 0x03, 0x8e, 0x03, 0xf0, 0x5c,
   0x04, 0x40, 0xc5, 0x00, 0x00, 0x00, 0x30, 0x00, 0x00, 0x00, 0x30, 0x07,
   0xce, 0x09, 0xf8, 0xff, 0x03, 0x82, 0x12, 0x00, 0x00, 0x00, 0x70, 0x00,
   0x00, 0x00, 0x30, 0x07, 0xfc, 0xf8, 0xff, 0xf9, 0x0f, 0x80, 0x10, 0x00,
   0x00, 0x00, 0x70, 0x00, 0x00, 0x00, 0x20, 0x06, 0x7c, 0xf8, 0x1f, 0x00,
   0x1f, 0x00, 0x09, 0x00, 0x00, 0x00, 0x60, 0x00, 0x00, 0x00, 0x60, 0x0e,
   0x38, 0xc0, 0x03, 0x00, 0x7c, 0x00, 0x31, 0x00, 0x00, 0x00, 0x60, 0x00,
   0x00, 0x00, 0x60, 0x0e, 0x38, 0xc4, 0x00, 0x00, 0x70, 0x00, 0x11, 0x00,
   0x00, 0x00, 0xe0, 0x00, 0x00, 0x00, 0x60, 0x0c, 0x30, 0x6e, 0x00, 0x00,
   0x60, 0x80, 0x10, 0x02, 0x00, 0x00, 0xe0, 0x00, 0x00, 0x00, 0x40, 0x0c,
   0x60, 0x70, 0x00, 0x00, 0xe0, 0xc0, 0x41, 0x01, 0x00, 0x00, 0xc0, 0x01,
   0x00, 0x00, 0xc0, 0x1c, 0x60, 0x38, 0x00, 0x00, 0xc0, 0x60, 0x10, 0x00,
   0x00, 0x00, 0xc0, 0x01, 0x00, 0x00, 0xc0, 0x18, 0x40, 0x38, 0x00, 0x00,
   0xc0, 0x1d, 0x28, 0x00 };
