#define Frame_15__30ms___replace__width 128
#define Frame_15__30ms___replace__height 64
static unsigned char Frame_15__30ms___replace__bits[] = {
   0x00, 0x00, 0x00, 0x00, 0x00, 0x00, 0x00, 0x00, 0x00, 0x00, 0x00, 0x00,
   0x00, 0x00, 0x00, 0x00, 0x00, 0x00, 0x00, 0x00, 0x00, 0x00, 0x00, 0x00,
   0x00, 0x00, 0x00, 0x00, 0x00, 0x00, 0x00, 0x00, 0x00, 0x00, 0x00, 0x00,
   0x00, 0x00, 0x00, 0x00, 0x00, 0x00, 0x00, 0x00, 0x00, 0x00, 0x00, 0x00,
   0x00, 0x00, 0x00, 0x00, 0x00, 0x00, 0x00, 0x00, 0x00, 0x00, 0x00, 0x00,
   0x00, 0x00, 0x00, 0x00, 0x00, 0x00, 0x00, 0x00, 0x00, 0x00, 0x00, 0x00,
   0x00, 0x00, 0x00, 0x00, 0x00, 0x00, 0x00, 0x00, 0x00, 0x00, 0x00, 0x00,
   0x00, 0x00, 0x00, 0x00, 0x00, 0x00, 0x00, 0x00, 0x00, 0x00, 0x00, 0x00,
   0x00, 0x00, 0x00, 0x00, 0x00, 0x00, 0x00, 0x00, 0x00, 0x00, 0x00, 0x00,
   0x00, 0x00, 0x00, 0x00, 0x00, 0x00, 0x00, 0x00, 0x80, 0xff, 0x0f, 0x00,
   0x00, 0x00, 0x00, 0x00, 0x00, 0x00, 0x00, 0x00, 0x00, 0x00, 0x00, 0x00,
   0xe0, 0xff, 0x3f, 0x00, 0x00, 0x00, 0x00, 0x00, 0x00, 0x00, 0x00, 0x00,
   0x00, 0x00, 0x00, 0x00, 0xf0, 0x01, 0x7c, 0x00, 0x00, 0x00, 0x00, 0x00,
   0x00, 0x00, 0x00, 0x00, 0x00, 0x00, 0x00, 0x00, 0x3c, 0x00, 0xe0, 0x00,
   0x00, 0x00, 0x00, 0x00, 0x00, 0x00, 0x00, 0x00, 0x00, 0x00, 0x00, 0x00,
   0x0e, 0x00, 0xc0, 0x03, 0x00, 0x00, 0x00, 0x00, 0x00, 0x00, 0x00, 0x00,
   0x00, 0x00, 0x00, 0x00, 0x07, 0x00, 0x80, 0x07, 0x00, 0x00, 0x00, 0x00,
   0x00, 0x00, 0x00, 0x00, 0x00, 0x00, 0x00, 0x80, 0x03, 0x00, 0x00, 0x07,
   0x00, 0x00, 0x00, 0x00, 0x00, 0x00, 0x00, 0x00, 0x00, 0x00, 0x00, 0xc0,
   0x01, 0x00, 0x00, 0x0e, 0x00, 0x00, 0x00, 0x00, 0x00, 0x00, 0x00, 0x00,
   0x00, 0x00, 0x00, 0xe0, 0x00, 0x00, 0x00, 0x0c, 0x00, 0x00, 0x00, 0x00,
   0x00, 0x00, 0x00, 0x00, 0x00, 0x00, 0x00, 0x60, 0x00, 0x00, 0x00, 0x1c,
   0x00, 0x00, 0x00, 0x00, 0x00, 0x00, 0x00, 0x00, 0x00, 0x00, 0x00, 0x70,
   0x00, 0x00, 0x00, 0x1c, 0x00, 0x00, 0x00, 0x00, 0x00, 0x00, 0x00, 0x00,
   0x00, 0x00, 0x00, 0x38, 0x00, 0x00, 0x00, 0x18, 0x00, 0x00, 0x00, 0x00,
   0x00, 0x00, 0x00, 0x00, 0x00, 0x00, 0x00, 0x38, 0x00, 0x00, 0x00, 0x18,
   0x00, 0x00, 0x00, 0x00, 0x00, 0x00, 0x00, 0x00, 0x00, 0x00, 0x00, 0x18,
   0x00, 0x00, 0x0e, 0x38, 0x00, 0x00, 0x00, 0x00, 0x00, 0x00, 0x00, 0x00,
   0x00, 0x00, 0x00, 0x1c, 0x00, 0xc0, 0x3f, 0x38, 0x00, 0x00, 0x00, 0x00,
   0x00, 0x00, 0x00, 0x00, 0x00, 0x00, 0x00, 0x1c, 0x00, 0xe0, 0x77, 0x30,
   0x00, 0x00, 0x00, 0x00, 0x00, 0x00, 0x00, 0x00, 0x00, 0x00, 0x00, 0x0e,
   0x00, 0xf0, 0xcf, 0x30, 0x00, 0x00, 0x00, 0x00, 0x00, 0x00, 0x00, 0x00,
   0x00, 0x00, 0x00, 0x0e, 0x00, 0xf8, 0xcf, 0x30, 0x00, 0x00, 0x00, 0x00,
   0x80, 0x0f, 0x00, 0x00, 0x00, 0x00, 0x00, 0xfe, 0x00, 0xf8, 0xcf, 0x71,
   0x00, 0x00, 0x00, 0x00, 0x60, 0x30, 0x00, 0x00, 0x00, 0x00, 0x00, 0xff,
   0x03, 0xfc, 0x8f, 0x71, 0x00, 0x00, 0x00, 0x00, 0x1e, 0xc0, 0x00, 0x00,
   0x00, 0x00, 0x80, 0xbf, 0x63, 0xfc, 0x87, 0x71, 0x00, 0x00, 0x00, 0x00,
   0x3f, 0x80, 0x00, 0x00, 0x00, 0x00, 0xc0, 0x3f, 0x77, 0xfc, 0xc7, 0x71,
   0x00, 0x00, 0x00, 0x00, 0x2f, 0x00, 0x01, 0x00, 0x00, 0x00, 0xc0, 0x3f,
   0x3e, 0xfc, 0xc7, 0x60, 0x00, 0x00, 0x00, 0x80, 0x23, 0x00, 0x01, 0x00,
   0x00, 0x00, 0xe0, 0x3f, 0x1e, 0xfc, 0xf3, 0x60, 0x00, 0x00, 0x00, 0xc0,
   0x7c, 0x00, 0x01, 0x00, 0x00, 0x00, 0xe0, 0x3f, 0x0f, 0x3c, 0x7c, 0x60,
   0x00, 0x00, 0x00, 0x20, 0x04, 0x0f, 0x01, 0x00, 0x00, 0x00, 0xe0, 0x1f,
   0x07, 0xf8, 0x3f, 0xe0, 0x00, 0x00, 0x00, 0xf0, 0x94, 0x1f, 0x01, 0x00,
   0x00, 0x00, 0xe0, 0x9f, 0x07, 0xe0, 0x0f, 0xe0, 0x00, 0x00, 0x00, 0x90,
   0xab, 0x2f, 0x01, 0x00, 0x00, 0x00, 0xc0, 0xe7, 0xf3, 0x01, 0xc1, 0xc1,
   0x00, 0x00, 0x00, 0x08, 0x96, 0xb6, 0x01, 0x00, 0x00, 0x00, 0xc0, 0xff,
   0xfb, 0x01, 0xf8, 0xc1, 0x00, 0x00, 0x00, 0x0c, 0x38, 0x93, 0x00, 0x00,
   0x00, 0x00, 0x80, 0x9f, 0x83, 0x01, 0xfe, 0xc0, 0x01, 0x00, 0x00, 0x04,
   0xe0, 0x4c, 0x00, 0x00, 0x00, 0x00, 0x80, 0x83, 0xe7, 0xc1, 0x1f, 0xc0,
   0x01, 0x00, 0x00, 0x06, 0x00, 0x67, 0x00, 0x00, 0x00, 0x00, 0x80, 0x03,
   0xff, 0xf1, 0x07, 0x80, 0x01, 0x00, 0x00, 0x02, 0x00, 0x20, 0x00, 0x00,
   0x00, 0x00, 0x80, 0x03, 0x7e, 0xfe, 0x00, 0x80, 0x01, 0x00, 0x00, 0x01,
   0x00, 0x10, 0x00, 0x00, 0x00, 0x00, 0x80, 0x03, 0xc0, 0x3f, 0x00, 0x80,
   0x03, 0x00, 0x00, 0x01, 0x00, 0x08, 0x00, 0x00, 0x00, 0x00, 0x80, 0x03,
   0xfc, 0x07, 0x00, 0x80, 0x03, 0x00, 0x00, 0x01, 0x20, 0x08, 0x00, 0x00,
   0x00, 0x00, 0x80, 0x83, 0xff, 0x00, 0x00, 0x00, 0x03, 0x00, 0x80, 0x00,
   0x40, 0x04, 0x00, 0x00, 0x00, 0x00, 0x80, 0xf3, 0x1f, 0x00, 0x00, 0x00,
   0x07, 0x00, 0x80, 0x00, 0x50, 0x04, 0x00, 0x00, 0x00, 0x00, 0x80, 0xff,
   0x03, 0x00, 0x00, 0x00, 0x07, 0x00, 0x80, 0x00, 0x68, 0x02, 0x00, 0x00,
   0x00, 0x00, 0x00, 0x1f, 0x00, 0x00, 0x00, 0x00, 0x06, 0x00, 0x80, 0x00,
   0x28, 0x02, 0x00, 0x00, 0x00, 0x00, 0x00, 0x03, 0x00, 0x00, 0x00, 0x00,
   0x0e, 0x00, 0x80, 0x00, 0x14, 0x01, 0x00, 0x00, 0x00, 0x00, 0x00, 0x03,
   0x00, 0x00, 0x00, 0x04, 0x0e, 0x00, 0x80, 0x00, 0x14, 0x01, 0x00, 0x00,
   0x00, 0x00, 0x00, 0x03, 0x00, 0x00, 0x40, 0x0c, 0x0c, 0x00, 0xff, 0x00,
   0x8a, 0x07, 0x18, 0x07, 0x00, 0x00, 0x00, 0x03, 0x00, 0x00, 0xe0, 0x0c,
   0x1c, 0xc0, 0xff, 0x00, 0x85, 0x38, 0xc2, 0x03, 0x00, 0x00, 0x00, 0x07,
   0x00, 0x00, 0xc0, 0x1c, 0x18, 0xf0, 0x81, 0xc0, 0x84, 0x44, 0x80, 0x00,
   0x00, 0x00, 0x00, 0x07, 0x00, 0x00, 0x80, 0x18, 0x38, 0x38, 0x80, 0x80,
   0x0a, 0x08, 0x80, 0x03, 0x00, 0x00, 0x00, 0x07, 0x00, 0x00, 0x80, 0x18,
   0x38, 0x1c, 0xc0, 0xc1, 0x0a, 0x7f, 0x80, 0x07, 0x00, 0x00, 0x00, 0x06,
   0x00, 0x00, 0x80, 0x19, 0x30, 0x0e, 0xc0, 0x81, 0x0d, 0x60, 0x20, 0x12,
   0x00, 0x00, 0x00, 0x06, 0x00, 0x00, 0x80, 0x39, 0x70, 0xe7, 0xf0, 0xff,
   0x01, 0x40, 0x11, 0x06, 0x00, 0x00, 0x00, 0x0e, 0x00, 0x00, 0x00, 0x31,
   0xe0, 0xe3, 0xff, 0xff, 0x07, 0x84, 0x20, 0x00, 0x00, 0x00, 0x00, 0x0e,
   0x00, 0x00, 0x00, 0x33, 0xe0, 0x81, 0x3f, 0x00, 0x1f, 0x00, 0x1b, 0x00,
   0x00, 0x00, 0x00, 0x0e, 0x00, 0x00, 0x00, 0x73, 0xe0, 0x00, 0x07, 0x00,
   0x3c, 0x00, 0x19, 0x00, 0x00, 0x00, 0x00, 0x0c, 0x00, 0x00, 0x00, 0x73,
   0xc0, 0xb8, 0x03, 0x00, 0x70, 0x00, 0x31, 0x00, 0x00, 0x00, 0x00, 0x1c,
   0x00, 0x00, 0x00, 0x73, 0xc0, 0xd1, 0x00, 0x00, 0xe0, 0x00, 0x91, 0x00,
   0x00, 0x00, 0x00, 0x1c, 0x00, 0x00, 0x00, 0x66, 0x80, 0xe1, 0x00, 0x00,
   0xc0, 0x80, 0x10, 0x01, 0x00, 0x00, 0x00, 0x1c, 0x00, 0x00, 0x00, 0x66,
   0x00, 0x61, 0x00, 0x00, 0xc0, 0xc1, 0x00, 0x01, 0x00, 0x00, 0x00, 0x38,
   0x00, 0x00, 0x00, 0x66, 0x00, 0x60, 0x00, 0x00, 0x80, 0x61, 0x60, 0x01,
   0x00, 0x00, 0x00, 0x38, 0x00, 0x00, 0x00, 0xe6, 0x00, 0x20, 0xc0, 0x00,
   0x80, 0x1f, 0x08, 0x02 };
