#define Frame_11__30ms___replace__width 128
#define Frame_11__30ms___replace__height 64
static unsigned char Frame_11__30ms___replace__bits[] = {
   0x00, 0x00, 0x00, 0x00, 0x00, 0x00, 0x00, 0x00, 0x00, 0x00, 0x00, 0x00,
   0x00, 0x00, 0x00, 0x00, 0x00, 0x00, 0x00, 0x00, 0x00, 0x00, 0x00, 0x00,
   0x00, 0x00, 0x00, 0x00, 0x00, 0x00, 0x00, 0x00, 0x00, 0x00, 0x00, 0x00,
   0x00, 0x00, 0x00, 0x00, 0x00, 0x00, 0x00, 0x00, 0x00, 0x00, 0x00, 0x00,
   0x00, 0x00, 0x00, 0x00, 0x00, 0x00, 0x00, 0x00, 0x00, 0x00, 0x00, 0x00,
   0x00, 0x00, 0x00, 0x00, 0x00, 0x00, 0x00, 0x00, 0x00, 0x00, 0x00, 0xe0,
   0x0f, 0x00, 0x00, 0x00, 0x00, 0x00, 0x00, 0x00, 0x00, 0x00, 0x00, 0x00,
   0x00, 0x00, 0x00, 0xf8, 0x7f, 0x00, 0x00, 0x00, 0x00, 0x00, 0x00, 0x00,
   0x00, 0x00, 0x00, 0x00, 0x00, 0x00, 0x00, 0x3e, 0xf8, 0x01, 0x00, 0x00,
   0x00, 0x00, 0x00, 0x00, 0x00, 0x00, 0x00, 0x00, 0x00, 0x00, 0x80, 0x07,
   0xc0, 0x03, 0x00, 0x00, 0x00, 0x00, 0x00, 0x00, 0x00, 0x00, 0x00, 0x00,
   0x00, 0x00, 0xc0, 0x01, 0x00, 0x07, 0x00, 0x00, 0x00, 0x00, 0x00, 0x00,
   0x00, 0x00, 0x00, 0x00, 0x00, 0x00, 0xe0, 0x00, 0x00, 0x0e, 0x00, 0x00,
   0x00, 0x00, 0x00, 0x00, 0x00, 0x00, 0x00, 0x00, 0x00, 0x00, 0x70, 0x00,
   0x00, 0x1c, 0x00, 0x00, 0x00, 0x00, 0x00, 0x00, 0x00, 0x00, 0x00, 0x00,
   0x00, 0x00, 0x38, 0x00, 0x00, 0x18, 0x00, 0x00, 0x00, 0x00, 0x00, 0x00,
   0x00, 0x00, 0x00, 0x00, 0x00, 0x00, 0x1c, 0x00, 0x00, 0x30, 0x00, 0x00,
   0x00, 0x00, 0x00, 0x00, 0x00, 0x00, 0x00, 0x00, 0x00, 0x00, 0x0c, 0x00,
   0x00, 0x30, 0x00, 0x00, 0x00, 0x00, 0x00, 0x00, 0x00, 0x00, 0x00, 0x00,
   0x00, 0x00, 0x06, 0x00, 0x00, 0x30, 0x00, 0x00, 0x00, 0x00, 0x00, 0x00,
   0x00, 0x00, 0x00, 0x00, 0x00, 0x00, 0x07, 0x00, 0x00, 0x60, 0x00, 0x00,
   0x00, 0x00, 0x00, 0x00, 0x00, 0x00, 0x00, 0x00, 0x00, 0x00, 0x03, 0x00,
   0x00, 0x60, 0x00, 0x00, 0x00, 0x00, 0x00, 0x00, 0x00, 0x00, 0x00, 0x00,
   0x00, 0x80, 0x3f, 0x00, 0x7e, 0x60, 0x00, 0x00, 0x00, 0x00, 0x00, 0x00,
   0x00, 0x00, 0x00, 0x00, 0x00, 0xe0, 0x7f, 0x00, 0xff, 0x61, 0x00, 0x00,
   0x00, 0x00, 0x00, 0x00, 0x00, 0x00, 0x00, 0x00, 0x00, 0xe0, 0x6f, 0x80,
   0xbf, 0x61, 0x00, 0x00, 0x00, 0x00, 0x00, 0x00, 0x00, 0x00, 0x00, 0x00,
   0x00, 0xf0, 0x67, 0xc0, 0x3f, 0x63, 0x00, 0x00, 0x00, 0x00, 0x00, 0x00,
   0x00, 0x00, 0x00, 0x00, 0x00, 0xf0, 0x47, 0xe3, 0x3f, 0x63, 0x00, 0x00,
   0x00, 0x00, 0x00, 0x00, 0x00, 0x00, 0x00, 0x00, 0x00, 0xf8, 0xe7, 0xe1,
   0x1f, 0x63, 0x00, 0x00, 0x00, 0x00, 0x00, 0x00, 0x00, 0x00, 0x00, 0x00,
   0x00, 0xf0, 0xe3, 0xe0, 0x1f, 0x63, 0x00, 0x00, 0x00, 0x00, 0x00, 0x00,
   0x00, 0x00, 0x00, 0x00, 0x00, 0xf0, 0x78, 0xe0, 0x8f, 0x63, 0x00, 0x00,
   0x00, 0x00, 0x00, 0x00, 0x00, 0x00, 0x00, 0x00, 0x00, 0xe0, 0x3f, 0xe0,
   0xe0, 0x21, 0x00, 0x00, 0x00, 0x00, 0x00, 0x00, 0x00, 0x00, 0x00, 0x00,
   0x00, 0x20, 0x9a, 0x87, 0xff, 0x20, 0x00, 0x00, 0x00, 0x00, 0x00, 0x00,
   0x00, 0x00, 0x00, 0x00, 0x00, 0x30, 0x98, 0x0f, 0x3f, 0x20, 0x00, 0x00,
   0x00, 0x00, 0x00, 0x00, 0x00, 0x00, 0x00, 0x00, 0x00, 0x30, 0x38, 0x0c,
   0x00, 0x30, 0x00, 0x00, 0x00, 0x00, 0x00, 0x00, 0x00, 0x00, 0x00, 0x00,
   0x00, 0x30, 0xf0, 0x07, 0xf0, 0x21, 0x00, 0x00, 0x00, 0x00, 0x01, 0x00,
   0x00, 0x00, 0x00, 0x00, 0x00, 0x10, 0xc0, 0x81, 0xff, 0x31, 0x00, 0x00,
   0x00, 0x7c, 0x1c, 0x00, 0x00, 0x00, 0x00, 0x00, 0x00, 0x10, 0xc0, 0xff,
   0x1f, 0x20, 0x00, 0x00, 0x00, 0x3c, 0x20, 0x00, 0x00, 0x00, 0x00, 0x00,
   0x00, 0xf8, 0xff, 0x7f, 0x00, 0x30, 0x00, 0x00, 0x00, 0x4f, 0x40, 0x00,
   0x00, 0x00, 0x00, 0x00, 0x00, 0xf8, 0xff, 0x00, 0x00, 0x20, 0x00, 0x00,
   0x80, 0x29, 0x40, 0x00, 0x00, 0x00, 0x00, 0x00, 0x00, 0x18, 0x00, 0x00,
   0x00, 0x20, 0x00, 0x00, 0xc0, 0x78, 0x80, 0x00, 0x00, 0x00, 0x00, 0x00,
   0x00, 0x18, 0x00, 0x00, 0x00, 0x60, 0x00, 0x00, 0x20, 0x13, 0x83, 0x00,
   0x00, 0x00, 0x00, 0x00, 0x00, 0x18, 0x00, 0x00, 0x00, 0x60, 0x00, 0x00,
   0x18, 0xbc, 0x8f, 0x00, 0x00, 0x00, 0x00, 0x00, 0x00, 0x18, 0x00, 0x00,
   0x00, 0x60, 0x00, 0x00, 0x08, 0x08, 0x4f, 0x00, 0x00, 0x00, 0x00, 0x00,
   0x00, 0x18, 0x00, 0x00, 0x00, 0x60, 0x00, 0x00, 0x04, 0x90, 0x49, 0x00,
   0x00, 0x00, 0x00, 0x00, 0x00, 0x1c, 0x00, 0x00, 0x00, 0x60, 0x00, 0x00,
   0x02, 0x60, 0x27, 0x00, 0x00, 0x00, 0x00, 0x00, 0x00, 0x1c, 0x00, 0x00,
   0x88, 0x60, 0x00, 0x00, 0x02, 0x80, 0x10, 0x00, 0x00, 0x00, 0x00, 0x00,
   0x00, 0x1c, 0x00, 0x00, 0x98, 0x61, 0x00, 0x00, 0x01, 0x00, 0x08, 0x00,
   0x00, 0x00, 0x00, 0x00, 0x00, 0x1c, 0x00, 0x00, 0x98, 0x61, 0x00, 0x00,
   0x01, 0x00, 0x06, 0x00, 0x00, 0x00, 0x00, 0x00, 0x00, 0x1c, 0x00, 0x00,
   0x90, 0x61, 0x00, 0x80, 0x00, 0x08, 0x02, 0x00, 0x00, 0x00, 0x00, 0x00,
   0x00, 0x18, 0x00, 0x00, 0x90, 0xc1, 0x00, 0x80, 0x00, 0x10, 0x01, 0x00,
   0x00, 0x00, 0x00, 0x00, 0x00, 0x18, 0x00, 0x00, 0x90, 0xc1, 0x80, 0xff,
   0x00, 0x88, 0x00, 0x00, 0x00, 0x00, 0x00, 0x00, 0x00, 0x18, 0x00, 0x00,
   0x90, 0xc1, 0xf0, 0x7f, 0x00, 0x46, 0x00, 0x00, 0x00, 0x00, 0x00, 0x00,
   0x00, 0x18, 0x00, 0x00, 0x90, 0xc1, 0x78, 0x60, 0x00, 0x45, 0x00, 0x00,
   0x00, 0x00, 0x00, 0x00, 0x00, 0x18, 0x00, 0x00, 0x90, 0xc1, 0x1e, 0x40,
   0x80, 0x22, 0x00, 0x00, 0x00, 0x00, 0x00, 0x00, 0x00, 0x18, 0x00, 0x00,
   0x90, 0x81, 0x47, 0x60, 0x30, 0x31, 0x00, 0x00, 0x00, 0x00, 0x00, 0x00,
   0x00, 0x18, 0x00, 0x00, 0x90, 0x81, 0xc3, 0xf0, 0xb8, 0x80, 0x00, 0x00,
   0x00, 0x00, 0x00, 0x00, 0x00, 0x38, 0x00, 0x00, 0x90, 0x81, 0x81, 0xff,
   0x63, 0x61, 0xf2, 0x07, 0x00, 0x00, 0x00, 0x00, 0x00, 0x30, 0x00, 0x00,
   0x90, 0x81, 0x99, 0xff, 0xaf, 0x71, 0x06, 0x0d, 0x00, 0x00, 0x00, 0x00,
   0x00, 0x30, 0x00, 0x00, 0x90, 0x81, 0xd1, 0x01, 0x3c, 0x80, 0x03, 0x05,
   0x00, 0x00, 0x00, 0x00, 0x00, 0x30, 0x00, 0x00, 0x90, 0x01, 0x71, 0x00,
   0xe0, 0x00, 0x01, 0x00, 0x00, 0x00, 0x00, 0x00, 0x00, 0x70, 0x00, 0x00,
   0x90, 0x01, 0x30, 0x00, 0xc0, 0x21, 0x0a, 0x26, 0x00, 0x00, 0x00, 0x00,
   0x00, 0x60, 0x00, 0x00, 0x90, 0x01, 0x30, 0x00, 0x80, 0x03, 0x22, 0x04,
   0x00, 0x00, 0x00, 0x00, 0x00, 0x60, 0x00, 0x00, 0x90, 0x01, 0x00, 0x00,
   0x00, 0x07, 0xcc, 0x0f, 0x00, 0x00, 0x00, 0x00, 0x00, 0xe0, 0x00, 0x00,
   0xb0, 0x01, 0x00, 0x10, 0x00, 0x06, 0x04, 0x00, 0x00, 0x00, 0x00, 0x00,
   0x00, 0xc0, 0x00, 0x00, 0x30, 0x07, 0x00, 0x0c, 0x00, 0x06, 0x02, 0x00,
   0x00, 0x00, 0x00, 0x00, 0x00, 0xc0, 0x01, 0x00, 0x18, 0x1c, 0x00, 0x04,
   0x00, 0x06, 0x62, 0x00, 0x00, 0x00, 0x00, 0x00, 0x00, 0x80, 0x01, 0x00,
   0x88, 0x31, 0x00, 0x00, 0x00, 0xc6, 0x03, 0x00, 0x00, 0x00, 0x00, 0x00,
   0x00, 0x80, 0x01, 0x00, 0xac, 0x63, 0x00, 0x00, 0x00, 0x7e, 0x08, 0x00,
   0x00, 0x00, 0x00, 0x00, 0x00, 0x00, 0x03, 0x00, 0x26, 0x7f, 0x00, 0x00,
   0x00, 0x06, 0x88, 0x00 };
