#define Frame_2__80ms___replace__width 85
#define Frame_2__80ms___replace__height 64
static unsigned char Frame_2__80ms___replace__bits[] = {
   0x00, 0x00, 0x00, 0x00, 0x00, 0x00, 0x00, 0x00, 0x00, 0x00, 0x00, 0x00,
   0x00, 0x00, 0x00, 0x00, 0x00, 0x00, 0x00, 0x00, 0x00, 0x00, 0x00, 0x00,
   0x00, 0x00, 0x00, 0x00, 0x00, 0x00, 0x00, 0x00, 0x00, 0x00, 0x00, 0x00,
   0x00, 0x00, 0x00, 0x00, 0x00, 0x00, 0x00, 0x00, 0x00, 0x00, 0x00, 0x00,
   0x00, 0x00, 0x00, 0x00, 0x00, 0x00, 0x00, 0x00, 0x00, 0x00, 0x00, 0x00,
   0x00, 0x00, 0x00, 0x00, 0x00, 0x00, 0x00, 0x00, 0x00, 0x00, 0x00, 0x00,
   0x00, 0x00, 0x00, 0x00, 0x00, 0x00, 0x00, 0x00, 0x00, 0x00, 0xfc, 0x03,
   0x00, 0x00, 0x00, 0x00, 0x00, 0x00, 0x00, 0x00, 0x80, 0xff, 0x3f, 0x00,
   0x00, 0x00, 0x00, 0x00, 0x00, 0x00, 0x00, 0xc0, 0x01, 0x78, 0x00, 0x00,
   0x00, 0x00, 0x00, 0x00, 0x00, 0x00, 0x60, 0x00, 0xc0, 0x00, 0x00, 0x00,
   0x00, 0x00, 0x00, 0x00, 0x00, 0x30, 0x00, 0x80, 0x01, 0x00, 0x00, 0x00,
   0x00, 0x00, 0x00, 0x00, 0x18, 0x00, 0x00, 0x03, 0x00, 0x00, 0x00, 0x00,
   0x00, 0x00, 0x00, 0x0c, 0x00, 0x00, 0x03, 0x00, 0x00, 0x00, 0x00, 0x00,
   0x00, 0x00, 0x06, 0x00, 0x80, 0x07, 0x00, 0x00, 0x00, 0x00, 0x00, 0x00,
   0x00, 0x02, 0xf0, 0xc0, 0x0f, 0x00, 0x00, 0x00, 0x00, 0x00, 0x00, 0x00,
   0x03, 0xfc, 0xe3, 0x1f, 0x00, 0x00, 0x00, 0x00, 0x00, 0x00, 0x00, 0x01,
   0xfe, 0xb3, 0x1f, 0x00, 0x00, 0x00, 0x00, 0x00, 0x00, 0x00, 0x01, 0xfa,
   0xa7, 0x1f, 0x00, 0x00, 0x00, 0x00, 0x00, 0x00, 0x00, 0x01, 0xf2, 0x27,
   0x1e, 0x00, 0x00, 0x00, 0x00, 0x00, 0x00, 0x80, 0x01, 0xf2, 0x63, 0x08,
   0x00, 0x00, 0x00, 0x00, 0x00, 0x00, 0x80, 0x01, 0x06, 0xc3, 0x07, 0x00,
   0x00, 0x00, 0x00, 0x00, 0x00, 0x80, 0x01, 0xfc, 0x81, 0x04, 0x00, 0x00,
   0x00, 0x00, 0x00, 0x00, 0x00, 0x01, 0x30, 0x08, 0x05, 0x00, 0x00, 0x00,
   0x00, 0x00, 0x00, 0x00, 0x01, 0x00, 0xf8, 0x05, 0x00, 0x00, 0x00, 0x00,
   0x00, 0x00, 0x00, 0x01, 0x00, 0x80, 0x0f, 0x00, 0x00, 0x00, 0x00, 0x00,
   0x00, 0x00, 0x03, 0xf8, 0xff, 0x0f, 0x00, 0x00, 0x00, 0x00, 0x00, 0x00,
   0x00, 0x03, 0xfc, 0x01, 0x0c, 0x00, 0x00, 0x00, 0x00, 0x00, 0x00, 0x00,
   0x02, 0x00, 0x00, 0x0c, 0x00, 0x00, 0x00, 0x00, 0x00, 0x00, 0x00, 0x02,
   0x00, 0x00, 0x0c, 0x00, 0x00, 0x00, 0x00, 0x00, 0x00, 0x1c, 0x02, 0x00,
   0x00, 0x0c, 0x00, 0x00, 0x00, 0x00, 0x00, 0x00, 0x16, 0x06, 0x00, 0x00,
   0x0c, 0x00, 0x00, 0x00, 0x00, 0x00, 0x00, 0x32, 0x06, 0x00, 0x00, 0x0c,
   0x00, 0x00, 0x00, 0x00, 0x00, 0x00, 0x22, 0x04, 0x00, 0x00, 0x0c, 0x00,
   0x00, 0x00, 0x00, 0x00, 0x00, 0x22, 0x04, 0x00, 0x00, 0x0c, 0x00, 0x00,
   0x00, 0x00, 0x00, 0x00, 0x22, 0x0c, 0x00, 0x00, 0x0c, 0x00, 0x00, 0x00,
   0x00, 0x00, 0x00, 0x22, 0x0c, 0x00, 0x00, 0x0c, 0x00, 0x00, 0x00, 0x00,
   0x00, 0x00, 0x22, 0x08, 0x00, 0x00, 0x0c, 0x00, 0x00, 0x00, 0x00, 0x00,
   0x00, 0xe2, 0x0f, 0x00, 0x00, 0x0c, 0x00, 0x00, 0x00, 0x00, 0x00, 0x00,
   0xe6, 0x88, 0x02, 0x00, 0x0c, 0x00, 0x00, 0x00, 0x00, 0x00, 0x00, 0x43,
   0x80, 0x02, 0x00, 0x0c, 0x00, 0x00, 0x00, 0x00, 0x00, 0x80, 0xfd, 0x80,
   0x04, 0x00, 0x0c, 0x00, 0x00, 0x00, 0x00, 0x00, 0x80, 0x0f, 0x80, 0x05,
   0x00, 0x0c, 0x00, 0x00, 0x00, 0x00, 0x00, 0x00, 0x03, 0x00, 0x1d, 0x00,
   0x0c, 0x00, 0x00, 0x00, 0x00, 0x00, 0x80, 0x01, 0x00, 0x31, 0x00, 0x0c,
   0x00, 0x00, 0x00, 0x00, 0x00, 0x80, 0x08, 0x00, 0x39, 0x00, 0x0c, 0x00,
   0x00, 0x00, 0x00, 0x00, 0xc0, 0x08, 0x80, 0x0b, 0x00, 0x0c, 0x00, 0x00,
   0x00, 0x00, 0x00, 0xc0, 0x00, 0x80, 0x0f, 0x00, 0x0c, 0x00, 0x00, 0x00,
   0x00, 0x00, 0x40, 0x00, 0x00, 0x00, 0x00, 0x0c, 0x00, 0x00, 0x00, 0x00,
   0x00, 0x40, 0x00, 0x00, 0x00, 0x00, 0x04, 0x00, 0x00, 0x00, 0x00, 0x00,
   0x40, 0x00, 0x00, 0x00, 0x00, 0x04, 0x00, 0x00, 0x00, 0x00, 0x00, 0xc0,
   0x00, 0x04, 0x00, 0x00, 0x06, 0x00, 0x00, 0x00, 0x00, 0x00, 0x80, 0x80,
   0x07, 0x00, 0x00, 0x03, 0x00, 0x00, 0x00, 0x00, 0x00, 0x80, 0xf1, 0x01,
   0x00, 0x80, 0x01, 0x00, 0x00, 0x00, 0x00, 0x00, 0x00, 0x1f, 0x06, 0x00,
   0xe0, 0x00, 0x00, 0x00, 0x00, 0x00, 0x00, 0x00, 0x84, 0x01, 0x00, 0x78,
   0x00, 0x00, 0x00, 0x00, 0x00, 0x00, 0x00, 0xe4, 0x1f, 0xc0, 0x1f, 0x00,
   0x00, 0x00, 0x00, 0x00, 0x00, 0x00, 0x24, 0xfe, 0xff, 0x19, 0x00, 0x00,
   0x00, 0x00, 0x00, 0x00, 0x00, 0x24, 0x00, 0x00, 0x09, 0x00, 0x00, 0x00,
   0x00, 0x00, 0x00, 0x00, 0x6c, 0x00, 0x80, 0x78, 0x00, 0x00, 0x00, 0x00,
   0x00, 0x00, 0x00, 0x68, 0x00, 0xc0, 0xc0, 0x00, 0x00, 0x00, 0x00, 0x00,
   0x00, 0x00, 0x38, 0x00, 0x80, 0xff, 0x00, 0x00, 0x00, 0x00, 0x00, 0x00,
   0x00, 0x00, 0x00, 0x00, 0x00, 0x00, 0x00, 0x00, 0x00, 0x00, 0x00, 0x00,
   0x00, 0x00, 0x00, 0x00, 0x00, 0x00, 0x00, 0x00 };
