#define Frame_10__30ms___replace__width 64
#define Frame_10__30ms___replace__height 64
static unsigned char Frame_10__30ms___replace__bits[] = {
   0x00, 0x00, 0x00, 0x00, 0x00, 0x00, 0x00, 0x00, 0x00, 0x00, 0x00, 0x00,
   0x00, 0x00, 0x00, 0x00, 0x00, 0x00, 0x00, 0x00, 0x0c, 0x00, 0x00, 0x00,
   0x00, 0x00, 0x00, 0x80, 0x71, 0x00, 0x00, 0x00, 0x00, 0x00, 0x00, 0x60,
   0x80, 0x00, 0x00, 0x00, 0x00, 0x00, 0x00, 0x30, 0x80, 0x01, 0x00, 0x00,
   0x00, 0x00, 0x00, 0x10, 0x00, 0x01, 0x00, 0x00, 0x00, 0x00, 0x00, 0x08,
   0x00, 0x01, 0x00, 0x00, 0x00, 0x00, 0x00, 0x3c, 0x18, 0x00, 0x00, 0x00,
   0x00, 0x00, 0x00, 0x3e, 0x7c, 0x00, 0x00, 0x00, 0x00, 0x00, 0x00, 0xee,
   0x5e, 0x01, 0x00, 0x00, 0x00, 0x00, 0x00, 0x36, 0x5e, 0x01, 0x00, 0x00,
   0x00, 0x00, 0x00, 0x5a, 0x62, 0x01, 0x00, 0x00, 0x00, 0x00, 0x00, 0x90,
   0x1c, 0x01, 0x00, 0x00, 0x00, 0x00, 0x00, 0x61, 0x30, 0x01, 0x00, 0x00,
   0x00, 0x00, 0x00, 0xff, 0x07, 0x01, 0x00, 0x00, 0x00, 0x00, 0x00, 0x01,
   0x00, 0x01, 0xc0, 0x08, 0x00, 0x00, 0x00, 0x01, 0x00, 0x01, 0xd0, 0x00,
   0x00, 0x00, 0x00, 0x01, 0x00, 0x01, 0xe0, 0x03, 0x00, 0x00, 0x00, 0x01,
   0x00, 0x01, 0x44, 0x06, 0x00, 0x00, 0x00, 0x01, 0x28, 0x01, 0x02, 0x0a,
   0x00, 0x00, 0x00, 0x01, 0x28, 0x01, 0x00, 0x00, 0x00, 0x00, 0x00, 0x01,
   0x28, 0xe1, 0x01, 0x00, 0x00, 0x00, 0x00, 0x01, 0x28, 0x0d, 0x01, 0x00,
   0x00, 0x00, 0x00, 0x01, 0x28, 0x12, 0x00, 0x00, 0x00, 0x00, 0x00, 0x01,
   0x28, 0xf2, 0x41, 0x01, 0x00, 0x00, 0x00, 0x01, 0x28, 0x12, 0xd6, 0x22,
   0x00, 0x00, 0x00, 0x03, 0x28, 0x08, 0x18, 0x51, 0x00, 0x00, 0x00, 0x02,
   0x28, 0x00, 0x30, 0x3e, 0x00, 0x00, 0x00, 0x02, 0xc0, 0x40, 0x20, 0x00,
   0x00, 0x00, 0x00, 0x04, 0xec, 0x00, 0x20, 0x0d, 0x01, 0x00, 0x00, 0x04,
   0x1c, 0x00, 0x20, 0x00, 0x03, 0x00, 0x00, 0x0e, 0xd0, 0x27, 0x10, 0x00,
   0x07, 0x00, 0x80, 0x1f, 0xf8, 0x3f, 0x10, 0x00, 0x0e, 0x00, 0xc0, 0x33,
   0x7e, 0x78, 0x08, 0x00, 0x1c, 0x00, 0xe0, 0xf0, 0x0f, 0xe0, 0x04, 0x00,
   0x38, 0x00, 0x60, 0xf0, 0x03, 0xc0, 0x03, 0x00, 0x70, 0x00, 0x30, 0xf0,
   0x00, 0x80, 0x03, 0x00, 0xe0, 0x00, 0x38, 0x70, 0x00, 0x00, 0x07, 0x00,
   0xc0, 0x03, 0x18, 0x38, 0x00, 0x00, 0x06, 0x00, 0x80, 0x07, 0x0c, 0x1c,
   0x00, 0x00, 0x06, 0x00, 0x00, 0x0f, 0xcc, 0x0f, 0x00, 0x00, 0x0c, 0x00,
   0x00, 0x1e, 0xcc, 0x07, 0x00, 0x00, 0x0c, 0x00, 0x00, 0x3c, 0x0e, 0x06,
   0x00, 0x00, 0x0c, 0x00, 0x00, 0xf0, 0x06, 0x06, 0x04, 0x00, 0x0c, 0x00,
   0x18, 0xe0, 0xc7, 0x06, 0x06, 0x00, 0x0c, 0x00, 0x38, 0x80, 0x47, 0x06,
   0x06, 0x00, 0x1c, 0x00, 0x70, 0x00, 0x0f, 0x07, 0x06, 0x00, 0x1c, 0x00,
   0xe3, 0x00, 0x1e, 0x06, 0x00, 0x00, 0x1c, 0x00, 0xc7, 0x01, 0x38, 0x00,
   0x00, 0x00, 0x1c, 0x00, 0x8c, 0x03, 0x00, 0x00, 0x00, 0x00, 0x1c, 0x00,
   0x18, 0x07, 0x00, 0x00, 0x00, 0x00, 0x0c, 0x00, 0x30, 0x0e, 0x00, 0x00,
   0x20, 0x00, 0x0c, 0x00, 0x60, 0x1c, 0x00, 0x00, 0x20, 0xf1, 0x3f, 0x00,
   0xc0, 0x38, 0x00, 0x00, 0xb0, 0xff, 0xff, 0x03, 0xc0, 0x31, 0x00, 0x00,
   0xe0, 0xff, 0xff, 0x1f, 0x00, 0x63, 0x00, 0x00, 0xf8, 0xff, 0xff, 0x7f,
   0x00, 0xe7, 0x00, 0x00, 0xfe, 0xff, 0xff, 0xff, 0x00, 0xc6, 0xf1, 0x03,
   0xff, 0x07, 0xe0, 0xff, 0x00, 0x8c, 0x7f, 0x87, 0xff, 0x00, 0x00, 0xff,
   0x00, 0x38, 0x07, 0xc3, 0x1f, 0x00, 0x00, 0xf8, 0x00, 0x70, 0xc0, 0xe1,
   0x0f, 0x00, 0x00, 0xe0, 0x00, 0xe0, 0xf8, 0xf0, 0x07, 0x00, 0x00, 0x80,
   0x00, 0xc0, 0x38, 0xf8, 0x03, 0x00, 0x00, 0x00 };
