#define Frame_8__30ms___replace__width 64
#define Frame_8__30ms___replace__height 64
static unsigned char Frame_8__30ms___replace__bits[] = {
   0x00, 0x00, 0x00, 0x00, 0x00, 0x00, 0x00, 0x00, 0x00, 0x00, 0x00, 0x00,
   0x00, 0x00, 0x00, 0x00, 0x00, 0x00, 0x00, 0x00, 0x00, 0x00, 0x00, 0x00,
   0x00, 0x00, 0x00, 0x00, 0xc0, 0x01, 0x00, 0x00, 0x00, 0x00, 0x00, 0x00,
   0x18, 0x06, 0x00, 0x00, 0x00, 0x00, 0x00, 0x00, 0x04, 0x08, 0x00, 0x00,
   0x00, 0x00, 0x00, 0x00, 0x02, 0x10, 0x00, 0x00, 0x00, 0x00, 0x00, 0x00,
   0x01, 0x10, 0x00, 0x00, 0x00, 0x00, 0x00, 0x80, 0x07, 0x10, 0x00, 0x00,
   0x00, 0x00, 0x00, 0xc0, 0x87, 0x13, 0x00, 0x00, 0x00, 0x00, 0x00, 0xc0,
   0xcd, 0x15, 0x00, 0x00, 0x00, 0x00, 0x00, 0xc0, 0xe3, 0x15, 0x00, 0x00,
   0x00, 0x00, 0x00, 0x40, 0x4a, 0x16, 0x00, 0x00, 0x00, 0x00, 0x00, 0x20,
   0x8c, 0x11, 0x00, 0x00, 0x00, 0x00, 0x00, 0xe0, 0xff, 0x03, 0x00, 0x00,
   0x00, 0x00, 0x00, 0x20, 0x00, 0x08, 0x00, 0x00, 0x01, 0x00, 0x00, 0x20,
   0x00, 0x08, 0x00, 0x00, 0x01, 0x00, 0x00, 0x10, 0x00, 0x08, 0x00, 0x0f,
   0x03, 0x00, 0x00, 0x10, 0x00, 0x08, 0x40, 0x02, 0x07, 0x00, 0x00, 0x10,
   0x00, 0x09, 0x80, 0x01, 0x06, 0x00, 0x00, 0x10, 0x00, 0x09, 0x00, 0x0e,
   0x0e, 0x00, 0x00, 0x10, 0x00, 0x09, 0x00, 0x14, 0x0c, 0x00, 0x00, 0x10,
   0x00, 0xc9, 0x05, 0x08, 0x18, 0x00, 0x00, 0x10, 0x40, 0x19, 0x02, 0x02,
   0x38, 0x00, 0x00, 0x10, 0x40, 0x49, 0x42, 0x01, 0x70, 0x00, 0x00, 0x20,
   0xc0, 0xe8, 0x97, 0x00, 0x60, 0x00, 0x00, 0x20, 0xc0, 0x20, 0x38, 0x03,
   0xc0, 0x00, 0x00, 0x20, 0x20, 0x01, 0x20, 0x22, 0xc0, 0x01, 0x00, 0x20,
   0xc0, 0x82, 0x20, 0x52, 0x83, 0x03, 0x00, 0x70, 0xf0, 0x03, 0x00, 0x0a,
   0x03, 0x03, 0x00, 0xfc, 0x00, 0x00, 0x20, 0x01, 0x01, 0x06, 0x00, 0x9e,
   0xe0, 0x5f, 0x20, 0x00, 0x00, 0x0e, 0x00, 0x87, 0xfd, 0x7d, 0x10, 0x00,
   0x00, 0x1c, 0x80, 0x83, 0x1f, 0xe0, 0x18, 0x00, 0x00, 0x38, 0xc0, 0xc1,
   0x03, 0x80, 0x0d, 0x00, 0x00, 0x70, 0xc0, 0xc0, 0x01, 0x00, 0x03, 0x00,
   0x00, 0xe0, 0x60, 0xe0, 0x00, 0x00, 0x03, 0x00, 0x00, 0xc0, 0x61, 0x3f,
   0x00, 0x00, 0x06, 0x00, 0x00, 0x80, 0x63, 0x3e, 0x00, 0x00, 0x06, 0x00,
   0x80, 0x03, 0x37, 0x10, 0x00, 0x00, 0x06, 0x00, 0x00, 0x03, 0x3e, 0x1a,
   0x00, 0x00, 0x0c, 0x00, 0x30, 0x06, 0x3c, 0x1b, 0x08, 0x00, 0x0c, 0x00,
   0x60, 0x0c, 0x30, 0x18, 0x0c, 0x00, 0x0c, 0x00, 0xc0, 0x1c, 0x60, 0x18,
   0x0c, 0x00, 0x0c, 0x00, 0x80, 0x39, 0xc0, 0x08, 0x00, 0x00, 0x0c, 0x00,
   0x00, 0x31, 0x00, 0x00, 0x00, 0x00, 0x0e, 0x00, 0x00, 0x63, 0x00, 0x00,
   0x00, 0x00, 0x06, 0x00, 0x00, 0xe6, 0x00, 0x00, 0x00, 0x00, 0x06, 0x00,
   0x00, 0xcc, 0x00, 0x00, 0x20, 0x00, 0x06, 0x00, 0x00, 0x98, 0x01, 0x00,
   0x30, 0x01, 0x06, 0x00, 0x00, 0x18, 0x03, 0x00, 0xa0, 0xff, 0x07, 0x00,
   0x00, 0x30, 0x03, 0x00, 0xf0, 0xff, 0x3f, 0x00, 0x00, 0x60, 0xfe, 0x07,
   0xfc, 0xff, 0xff, 0x00, 0x00, 0xc0, 0x7c, 0x06, 0xff, 0xff, 0xff, 0x03,
   0x00, 0x80, 0x01, 0xc7, 0xff, 0x00, 0xff, 0x0f, 0x00, 0x80, 0xf1, 0xe3,
   0x1f, 0x00, 0xf0, 0x1f, 0x00, 0x00, 0xf1, 0xf0, 0x07, 0x00, 0xc0, 0x7f,
   0x00, 0x00, 0x61, 0xf8, 0x03, 0x00, 0x00, 0xff, 0x00, 0x00, 0xdd, 0xfc,
   0x01, 0x00, 0x00, 0xfc, 0x00, 0x00, 0xfb, 0xfc, 0x00, 0x00, 0x00, 0xf8,
   0x00, 0x00, 0xfb, 0x7e, 0x00, 0x00, 0x00, 0xf0, 0x00, 0x00, 0x1b, 0x3f,
   0x00, 0x00, 0x00, 0xe0, 0x00, 0x00, 0x1e, 0x1f, 0x00, 0x00, 0x00, 0xc0,
   0x00, 0x00, 0x84, 0x0f, 0x00, 0x00, 0x00, 0x80 };
