#define Frame_11__30ms___replace__width 64
#define Frame_11__30ms___replace__height 64
static unsigned char Frame_11__30ms___replace__bits[] = {
   0x00, 0x00, 0x00, 0x00, 0x00, 0x00, 0x00, 0x00, 0x00, 0x00, 0x00, 0x00,
   0x00, 0x00, 0x00, 0x00, 0x00, 0x00, 0x00, 0xc0, 0x03, 0x00, 0x00, 0x00,
   0x00, 0x00, 0x00, 0x30, 0x18, 0x00, 0x00, 0x00, 0x00, 0x00, 0x00, 0x08,
   0x20, 0x00, 0x00, 0x00, 0x00, 0x00, 0x00, 0x04, 0x60, 0x00, 0x00, 0x00,
   0x00, 0x00, 0x00, 0x02, 0x40, 0x00, 0x00, 0x00, 0x00, 0x00, 0x00, 0x03,
   0x40, 0x00, 0x00, 0x00, 0x00, 0x00, 0x00, 0x03, 0x46, 0x00, 0x00, 0x00,
   0x00, 0x00, 0xc0, 0x07, 0x4f, 0x00, 0x00, 0x00, 0x00, 0x00, 0xc0, 0x9b,
   0x57, 0x00, 0x00, 0x00, 0x00, 0x00, 0xc0, 0xcd, 0x57, 0x00, 0x00, 0x00,
   0x00, 0x00, 0xc0, 0x87, 0x5b, 0x00, 0x00, 0x00, 0x00, 0x00, 0x40, 0x3e,
   0x4f, 0x00, 0x00, 0x00, 0x00, 0x00, 0x40, 0x3c, 0x40, 0x00, 0x00, 0x00,
   0x00, 0x00, 0x40, 0xe0, 0x4f, 0x00, 0x60, 0x04, 0x00, 0x00, 0xc0, 0x1f,
   0x40, 0x00, 0x20, 0x08, 0x00, 0x00, 0x00, 0x00, 0x40, 0x00, 0x30, 0x08,
   0x00, 0x00, 0x20, 0x00, 0x40, 0x00, 0xa2, 0x0b, 0x00, 0x00, 0x20, 0x00,
   0x40, 0x00, 0x40, 0x02, 0x00, 0x00, 0x20, 0x00, 0x88, 0x00, 0x01, 0x00,
   0x00, 0x00, 0x20, 0x00, 0x88, 0x00, 0x00, 0x00, 0x00, 0x00, 0x20, 0x00,
   0x8c, 0x80, 0x00, 0x00, 0x00, 0x00, 0x60, 0x00, 0x9c, 0xcc, 0x20, 0x00,
   0x00, 0x00, 0x40, 0x00, 0x9c, 0x83, 0x58, 0x00, 0x00, 0x00, 0x40, 0x00,
   0x94, 0xf9, 0x0c, 0x01, 0x00, 0x00, 0x40, 0x00, 0x04, 0x1d, 0xc7, 0x20,
   0x00, 0x00, 0x40, 0x00, 0x0c, 0x04, 0x08, 0x01, 0x00, 0x00, 0x40, 0x00,
   0x0c, 0x04, 0x10, 0x02, 0x00, 0x00, 0x80, 0x00, 0x14, 0x00, 0x10, 0x00,
   0x00, 0x00, 0x80, 0x00, 0x62, 0x20, 0x00, 0x05, 0x00, 0x00, 0x00, 0x01,
   0x76, 0x00, 0x00, 0x04, 0x00, 0x00, 0x00, 0x01, 0x16, 0x00, 0x10, 0x00,
   0x00, 0x00, 0x00, 0x02, 0xca, 0x17, 0x10, 0x00, 0x00, 0x00, 0x80, 0x07,
   0xf8, 0x3f, 0x08, 0x00, 0x00, 0x00, 0xc0, 0x0f, 0x7e, 0x78, 0x04, 0x00,
   0x00, 0x00, 0xe0, 0x18, 0x0f, 0xe0, 0x06, 0x00, 0x01, 0x00, 0x70, 0xf8,
   0x03, 0xc0, 0x01, 0x00, 0x07, 0x00, 0x38, 0xf8, 0x00, 0x80, 0x03, 0x00,
   0x0f, 0x00, 0x1c, 0x78, 0x00, 0x00, 0x07, 0x00, 0x1e, 0x00, 0x0c, 0x38,
   0x00, 0x00, 0x06, 0x00, 0x3c, 0x00, 0x0e, 0x1c, 0x00, 0x00, 0x0e, 0x00,
   0xf8, 0x00, 0x06, 0x0e, 0x00, 0x00, 0x0c, 0x00, 0xf0, 0x01, 0xe6, 0x07,
   0x00, 0x00, 0x0c, 0x00, 0xc0, 0x03, 0xf7, 0x07, 0x00, 0x00, 0x1c, 0x00,
   0x80, 0x07, 0x63, 0x03, 0x00, 0x00, 0x1c, 0x00, 0x00, 0x1e, 0x03, 0x03,
   0x02, 0x00, 0x18, 0x00, 0x00, 0x3c, 0x43, 0x03, 0x06, 0x00, 0x18, 0x00,
   0x02, 0xf8, 0x63, 0x03, 0x02, 0x00, 0x18, 0x00, 0x0e, 0xe0, 0x03, 0x03,
   0x06, 0x00, 0x18, 0x00, 0x1e, 0x80, 0x07, 0x03, 0x00, 0x00, 0x18, 0x00,
   0x38, 0x00, 0x0f, 0x03, 0x00, 0x00, 0x18, 0x00, 0x70, 0x00, 0x1c, 0x00,
   0x00, 0x00, 0x18, 0x00, 0xe1, 0x00, 0x00, 0x00, 0x00, 0x00, 0x18, 0x00,
   0xc7, 0x01, 0x00, 0x00, 0x20, 0x00, 0x1c, 0x00, 0x8e, 0x03, 0x00, 0x00,
   0x20, 0xfb, 0xff, 0x07, 0x1c, 0x07, 0x00, 0x00, 0x30, 0xff, 0xff, 0x3f,
   0x38, 0x0e, 0x00, 0x00, 0xc0, 0xff, 0xff, 0xff, 0x70, 0x1c, 0x00, 0x00,
   0xf0, 0xff, 0xff, 0xff, 0xe0, 0x38, 0x00, 0x00, 0xfc, 0xff, 0xff, 0xff,
   0xc0, 0x71, 0x00, 0x00, 0xfe, 0x0f, 0x00, 0xfe, 0x80, 0xe3, 0xf0, 0x03,
   0xff, 0x01, 0x00, 0xf0, 0x00, 0xc7, 0xff, 0x87, 0x7f, 0x00, 0x00, 0xc0,
   0x00, 0x8e, 0x0f, 0xc3, 0x1f, 0x00, 0x00, 0x00 };
