#define Frame_15__30ms__width 64
#define Frame_15__30ms__height 64
static unsigned char Frame_15__30ms__bits[] = {
   0x00, 0x00, 0x00, 0x00, 0x00, 0x00, 0x00, 0x00, 0x00, 0x00, 0x00, 0x00,
   0x00, 0x00, 0x00, 0x00, 0x00, 0x00, 0x00, 0x00, 0x00, 0x00, 0x00, 0x00,
   0x00, 0x00, 0xf0, 0x01, 0x00, 0x00, 0x00, 0x00, 0x00, 0x00, 0x1c, 0x07,
   0x00, 0x00, 0x00, 0x00, 0x00, 0x00, 0x06, 0x18, 0x00, 0x00, 0x00, 0x00,
   0x00, 0x00, 0x01, 0x10, 0x00, 0x00, 0x00, 0x00, 0x00, 0x80, 0x00, 0x20,
   0x00, 0x00, 0x00, 0x00, 0x00, 0xc0, 0x00, 0x20, 0x00, 0x00, 0x00, 0x00,
   0x00, 0x40, 0x00, 0x60, 0x00, 0x00, 0x00, 0x00, 0x00, 0x60, 0x00, 0x47,
   0x00, 0x00, 0x00, 0x00, 0x00, 0x20, 0xc0, 0x4b, 0x00, 0x00, 0x00, 0x00,
   0x00, 0xe0, 0xc0, 0x4b, 0x00, 0x00, 0x78, 0x00, 0x00, 0xf0, 0xe1, 0x4b,
   0x00, 0x00, 0x87, 0x00, 0x00, 0x78, 0xe5, 0xc9, 0x00, 0x00, 0x03, 0x01,
   0x00, 0x78, 0xe3, 0xcc, 0x00, 0x80, 0x06, 0x01, 0x00, 0x38, 0xc3, 0x83,
   0x00, 0x40, 0x77, 0x01, 0x00, 0xf8, 0x1d, 0x9c, 0x00, 0x20, 0x42, 0x00,
   0x00, 0x10, 0x19, 0x87, 0x00, 0x00, 0x18, 0x00, 0x00, 0x10, 0xef, 0x81,
   0x01, 0x10, 0x40, 0x00, 0x00, 0x10, 0x3c, 0x00, 0x01, 0x00, 0x20, 0x00,
   0x00, 0x90, 0x07, 0x00, 0x01, 0x00, 0x2c, 0x00, 0x00, 0xf0, 0x00, 0x00,
   0x03, 0x08, 0x10, 0x00, 0x00, 0x10, 0x00, 0x00, 0x02, 0x08, 0x14, 0x00,
   0x00, 0x10, 0x00, 0x28, 0x82, 0x0f, 0x33, 0x32, 0x00, 0x10, 0x00, 0x28,
   0xc6, 0x08, 0xb2, 0x48, 0x00, 0x30, 0x00, 0x68, 0x24, 0x08, 0x41, 0x00,
   0x00, 0x30, 0x00, 0x50, 0xd4, 0xfc, 0x81, 0x08, 0x00, 0x20, 0x00, 0x50,
   0x08, 0x03, 0x06, 0x04, 0x00, 0x20, 0x00, 0x50, 0xc8, 0x01, 0x0c, 0x06,
   0x00, 0x60, 0x00, 0xd0, 0xd0, 0x00, 0x88, 0x10, 0x00, 0x60, 0x00, 0x80,
   0x40, 0x00, 0x58, 0x04, 0x00, 0x40, 0x00, 0xa0, 0x00, 0x0c, 0x10, 0x00,
   0x00, 0xc0, 0x00, 0xa0, 0x00, 0x00, 0x10, 0x00, 0x00, 0x80, 0x00, 0xa0,
   0x07, 0x00, 0x18, 0x00, 0x00, 0x80, 0x01, 0x20, 0x08, 0x00, 0x08, 0x00,
   0x00, 0x00, 0x01, 0x60, 0x0f, 0x04, 0x08, 0x00, 0x00, 0x00, 0x03, 0xe0,
   0xc1, 0x07, 0x04, 0x00, 0x00, 0x00, 0x02, 0xe0, 0xf9, 0x3f, 0x06, 0x00,
   0x00, 0x00, 0x04, 0x60, 0xff, 0xff, 0x02, 0x00, 0x00, 0x00, 0x0c, 0x00,
   0x1f, 0xf0, 0x01, 0x00, 0x00, 0x00, 0x18, 0xc0, 0x07, 0xc0, 0x07, 0x00,
   0x00, 0x00, 0x38, 0xe0, 0x01, 0x00, 0x0f, 0x00, 0x00, 0x00, 0x7c, 0xe0,
   0x00, 0x00, 0x1e, 0x00, 0x00, 0x00, 0x9e, 0x7b, 0x00, 0x00, 0x1c, 0x00,
   0x00, 0x00, 0x8f, 0x3f, 0x00, 0x00, 0x38, 0x00, 0x00, 0x00, 0x87, 0x1f,
   0x00, 0x00, 0x38, 0x00, 0x00, 0x80, 0x83, 0x0f, 0x00, 0x00, 0x70, 0x00,
   0x00, 0x80, 0x03, 0x07, 0x00, 0x00, 0x70, 0x00, 0x00, 0xc0, 0x81, 0x07,
   0x00, 0x00, 0xe0, 0x00, 0x00, 0xc0, 0x80, 0x03, 0x00, 0x00, 0xe0, 0x00,
   0x00, 0xc0, 0x80, 0x03, 0x00, 0x00, 0xe0, 0x00, 0x00, 0xe0, 0xc0, 0x01,
   0x00, 0x00, 0xc0, 0x00, 0x00, 0xe0, 0xf0, 0x01, 0x00, 0x00, 0xc0, 0x01,
   0x00, 0x60, 0xfc, 0x01, 0x02, 0x00, 0xc0, 0x01, 0x00, 0x60, 0xfe, 0x00,
   0x06, 0x00, 0xc0, 0x01, 0x03, 0x60, 0xcc, 0x00, 0x06, 0x00, 0xc0, 0x03,
   0x0f, 0x60, 0xc0, 0x01, 0x06, 0x00, 0x80, 0x03, 0x3f, 0x60, 0xc0, 0x01,
   0x06, 0x00, 0x80, 0x03, 0xfe, 0x60, 0xd8, 0x01, 0x04, 0x00, 0x80, 0xff,
   0xf8, 0x63, 0xd8, 0x01, 0x00, 0x00, 0xe0, 0xff, 0xe0, 0x7f, 0x80, 0x03,
   0x00, 0x00, 0xfc, 0xff, 0x00, 0xff, 0x80, 0x03, 0x80, 0x00, 0xff, 0xff,
   0x00, 0xfc, 0x03, 0x00, 0x80, 0xd9, 0xff, 0xff };
