#define Frame_9__30ms___replace__width 64
#define Frame_9__30ms___replace__height 64
static unsigned char Frame_9__30ms___replace__bits[] = {
   0x00, 0x00, 0x00, 0x00, 0x00, 0x00, 0x00, 0x00, 0x00, 0x00, 0x00, 0x00,
   0x00, 0x00, 0x00, 0x00, 0x00, 0x00, 0x00, 0x00, 0x00, 0x00, 0x00, 0x00,
   0x00, 0x00, 0x00, 0x00, 0xfc, 0x00, 0x00, 0x00, 0x00, 0x00, 0x00, 0x00,
   0x03, 0x03, 0x00, 0x00, 0x00, 0x00, 0x00, 0x80, 0x00, 0x02, 0x00, 0x00,
   0x00, 0x00, 0x00, 0x40, 0x00, 0x04, 0x00, 0x00, 0x00, 0x00, 0x00, 0x40,
   0x00, 0x04, 0x00, 0x00, 0x00, 0x00, 0x00, 0xf0, 0x00, 0x04, 0x00, 0x00,
   0x00, 0x00, 0x00, 0x78, 0xf1, 0x05, 0x00, 0x00, 0x00, 0x00, 0x00, 0x38,
   0x7b, 0x05, 0x00, 0x00, 0x00, 0x00, 0x00, 0xf0, 0x78, 0x05, 0x00, 0x00,
   0x00, 0x00, 0x00, 0x48, 0x9b, 0x05, 0x00, 0x00, 0x00, 0x00, 0x00, 0x88,
   0x63, 0x04, 0x00, 0x00, 0x00, 0x00, 0x00, 0x38, 0xf8, 0x04, 0x00, 0x00,
   0x00, 0x00, 0x00, 0x00, 0x00, 0x04, 0x00, 0x00, 0x00, 0x00, 0x00, 0x04,
   0x00, 0x00, 0x80, 0x07, 0x00, 0x00, 0x00, 0x04, 0x00, 0x00, 0xc0, 0x00,
   0x00, 0x00, 0x00, 0x04, 0x00, 0x02, 0x10, 0x11, 0x00, 0x00, 0x00, 0x04,
   0x20, 0x02, 0x08, 0x06, 0x00, 0x00, 0x00, 0x04, 0x20, 0x00, 0x04, 0x10,
   0x00, 0x00, 0x00, 0x04, 0x20, 0x00, 0x00, 0x0a, 0x00, 0x00, 0x00, 0x04,
   0x20, 0xe4, 0x03, 0x00, 0x00, 0x00, 0x00, 0x04, 0x60, 0x1c, 0x00, 0x01,
   0x01, 0x00, 0x00, 0x04, 0x40, 0x24, 0x00, 0x00, 0x03, 0x00, 0x00, 0x04,
   0x40, 0xd4, 0x1b, 0x01, 0x03, 0x00, 0x00, 0x08, 0x40, 0x30, 0x8c, 0x0a,
   0x07, 0x00, 0x00, 0x08, 0x40, 0x00, 0x10, 0x30, 0x0e, 0x00, 0x00, 0x08,
   0x90, 0x80, 0x20, 0x34, 0x1c, 0x00, 0x00, 0x10, 0x48, 0x41, 0x20, 0x22,
   0x38, 0x00, 0x00, 0x18, 0x78, 0x00, 0x20, 0x01, 0x30, 0x00, 0x00, 0x3e,
   0x20, 0x03, 0x20, 0x00, 0x70, 0x00, 0x00, 0x2f, 0xf0, 0x3f, 0x10, 0x00,
   0xe0, 0x00, 0x80, 0x43, 0xfc, 0x78, 0x10, 0x00, 0xc0, 0x01, 0xc0, 0xc1,
   0x0f, 0xe0, 0x08, 0x00, 0x80, 0x03, 0xe0, 0xe0, 0x03, 0x80, 0x07, 0x00,
   0x00, 0x07, 0x60, 0xe0, 0x00, 0x80, 0x03, 0x00, 0x00, 0x0e, 0x30, 0x70,
   0x00, 0x00, 0x07, 0x00, 0x00, 0x1c, 0x30, 0x38, 0x00, 0x00, 0x06, 0x00,
   0x00, 0x78, 0xb8, 0x1f, 0x00, 0x00, 0x06, 0x00, 0x00, 0xf0, 0x98, 0x1f,
   0x00, 0x00, 0x0e, 0x00, 0x00, 0xe0, 0x19, 0x0c, 0x00, 0x00, 0x0c, 0x00,
   0x60, 0x80, 0x0f, 0x0d, 0x04, 0x00, 0x0c, 0x00, 0xe0, 0x00, 0x8f, 0x0d,
   0x04, 0x00, 0x0c, 0x00, 0xcc, 0x01, 0x0e, 0x0e, 0x04, 0x00, 0x0c, 0x00,
   0x8c, 0x03, 0x3c, 0x0e, 0x04, 0x00, 0x0c, 0x00, 0x38, 0x07, 0x30, 0x04,
   0x00, 0x00, 0x0c, 0x00, 0x30, 0x0e, 0x20, 0x00, 0x00, 0x00, 0x0c, 0x00,
   0x60, 0x1c, 0x00, 0x00, 0x00, 0x00, 0x0c, 0x00, 0xc0, 0x18, 0x00, 0x00,
   0x00, 0x00, 0x0e, 0x00, 0x80, 0x31, 0x00, 0x00, 0x20, 0x00, 0x0e, 0x00,
   0x00, 0x63, 0x00, 0x00, 0x30, 0xa1, 0x06, 0x00, 0x00, 0xe6, 0x00, 0x00,
   0xa0, 0xff, 0x3f, 0x00, 0x00, 0xc6, 0x00, 0x00, 0xf0, 0xff, 0xff, 0x01,
   0x00, 0x8c, 0x81, 0x00, 0xfc, 0xff, 0xff, 0x0f, 0x00, 0x98, 0xf7, 0x07,
   0xff, 0xff, 0xff, 0x1f, 0x00, 0x30, 0x3f, 0x86, 0xff, 0x01, 0xfc, 0x7f,
   0x00, 0x60, 0x00, 0xc7, 0x3f, 0x00, 0xc0, 0xff, 0x00, 0xc0, 0xf0, 0xe1,
   0x0f, 0x00, 0x00, 0xff, 0x00, 0x80, 0xf8, 0xf0, 0x07, 0x00, 0x00, 0xfc,
   0x00, 0x80, 0x71, 0xf8, 0x03, 0x00, 0x00, 0xf0, 0x00, 0x80, 0x67, 0xfc,
   0x00, 0x00, 0x00, 0xe0, 0x00, 0x80, 0xfd, 0xfc, 0x00, 0x00, 0x00, 0xc0,
   0x00, 0x80, 0xf9, 0x7e, 0x00, 0x00, 0x00, 0x00 };
