#define Frame_13__30ms___replace__width 64
#define Frame_13__30ms___replace__height 64
static unsigned char Frame_13__30ms___replace__bits[] = {
   0x00, 0x00, 0x00, 0x00, 0x00, 0x00, 0x00, 0x00, 0x00, 0x00, 0x00, 0x00,
   0x00, 0x00, 0x00, 0x00, 0x00, 0x00, 0x00, 0x1c, 0x00, 0x00, 0x00, 0x00,
   0x00, 0x00, 0x80, 0xe3, 0x00, 0x00, 0x00, 0x00, 0x00, 0x00, 0x40, 0x00,
   0x01, 0x00, 0x00, 0x00, 0x00, 0x00, 0x20, 0x00, 0x02, 0x00, 0x00, 0x00,
   0x00, 0x00, 0x10, 0x00, 0x06, 0x00, 0x00, 0x00, 0x00, 0x00, 0x18, 0x00,
   0x04, 0x00, 0x00, 0x00, 0x00, 0x00, 0x08, 0x00, 0x04, 0x00, 0x00, 0x00,
   0x00, 0x00, 0x0c, 0xf0, 0x04, 0x00, 0x00, 0x00, 0x00, 0x00, 0x3c, 0xb8,
   0x04, 0x00, 0x00, 0x00, 0x00, 0x00, 0x2e, 0x3c, 0x05, 0x00, 0x00, 0x00,
   0x00, 0x00, 0xcf, 0x3c, 0x05, 0x00, 0x00, 0x00, 0x00, 0x00, 0x6f, 0x9c,
   0x04, 0x00, 0xe0, 0x00, 0x00, 0x00, 0x3b, 0x78, 0x04, 0x00, 0x18, 0x02,
   0x00, 0x00, 0xb2, 0x81, 0x0c, 0x00, 0x04, 0x00, 0x00, 0x00, 0xe2, 0xf1,
   0x08, 0x00, 0x4a, 0x00, 0x00, 0x00, 0x02, 0x1f, 0x08, 0x00, 0xf1, 0x00,
   0x00, 0x00, 0xfe, 0x00, 0x08, 0x80, 0x50, 0x02, 0x00, 0x00, 0x06, 0x00,
   0x08, 0x40, 0x40, 0x01, 0x00, 0x00, 0x02, 0x00, 0x08, 0x40, 0x80, 0x00,
   0x00, 0x00, 0x02, 0x00, 0x18, 0x00, 0x00, 0x00, 0x00, 0x00, 0x02, 0x40,
   0x11, 0x20, 0x58, 0x00, 0x00, 0x00, 0x02, 0x40, 0x11, 0x3e, 0x2c, 0x00,
   0x00, 0x00, 0x02, 0x00, 0x93, 0x23, 0x20, 0x00, 0x00, 0x00, 0x02, 0x80,
   0xe2, 0x20, 0x63, 0x10, 0x00, 0x00, 0x02, 0x80, 0x62, 0xfe, 0x85, 0x00,
   0x00, 0x00, 0x06, 0x80, 0xa2, 0x05, 0x06, 0x42, 0x00, 0x00, 0x04, 0x80,
   0x42, 0x02, 0x08, 0x05, 0x00, 0x00, 0x04, 0x80, 0x02, 0x01, 0x18, 0x01,
   0x00, 0x00, 0x04, 0x80, 0x02, 0x10, 0x10, 0x04, 0x00, 0x00, 0x0c, 0x00,
   0x06, 0x00, 0x70, 0x04, 0x00, 0x00, 0x08, 0x80, 0x18, 0x00, 0x10, 0x00,
   0x00, 0x00, 0x18, 0x80, 0x24, 0x00, 0x10, 0x00, 0x00, 0x00, 0x10, 0x40,
   0x1d, 0x08, 0x18, 0x00, 0x00, 0x00, 0x20, 0xc0, 0xe7, 0x07, 0x08, 0x00,
   0x00, 0x00, 0x60, 0x80, 0xf8, 0x3f, 0x04, 0x00, 0x00, 0x00, 0xe0, 0x00,
   0x7e, 0xfc, 0x06, 0x00, 0x00, 0x00, 0xf0, 0x80, 0x0f, 0xf0, 0x03, 0x00,
   0x00, 0x00, 0xf8, 0xc3, 0x03, 0xc0, 0x03, 0x00, 0x00, 0x00, 0x3c, 0xe6,
   0x00, 0x80, 0x07, 0x00, 0x00, 0x00, 0x1c, 0x7e, 0x00, 0x00, 0x07, 0x00,
   0x00, 0x00, 0x0e, 0x3e, 0x00, 0x00, 0x0e, 0x00, 0x00, 0x00, 0x07, 0x1e,
   0x00, 0x00, 0x1c, 0x00, 0x00, 0x00, 0x03, 0x0e, 0x00, 0x00, 0x1c, 0x00,
   0x00, 0x80, 0x03, 0x07, 0x00, 0x00, 0x18, 0x00, 0x00, 0x80, 0x03, 0x07,
   0x00, 0x00, 0x38, 0x00, 0x01, 0x80, 0x81, 0x03, 0x00, 0x00, 0x38, 0x00,
   0x07, 0x80, 0xf1, 0x03, 0x00, 0x00, 0x30, 0x00, 0x1f, 0xc0, 0xfd, 0x01,
   0x00, 0x00, 0x30, 0x00, 0x3e, 0xc0, 0xbd, 0x01, 0x02, 0x00, 0x70, 0x00,
   0xf8, 0xc0, 0x80, 0x01, 0x03, 0x00, 0x70, 0x00, 0xf0, 0xc3, 0x80, 0x01,
   0x03, 0x00, 0x70, 0x00, 0xc0, 0xcf, 0xb0, 0x01, 0x03, 0x00, 0x70, 0x00,
   0x00, 0xff, 0xb8, 0x01, 0x06, 0x00, 0x60, 0x00, 0x00, 0xfc, 0x80, 0x01,
   0x00, 0x00, 0x60, 0x00, 0x00, 0xf0, 0x81, 0x01, 0x00, 0x00, 0x60, 0x00,
   0x01, 0xc0, 0x07, 0x01, 0x00, 0x00, 0xf0, 0x3f, 0x07, 0x00, 0x0f, 0x00,
   0x40, 0x80, 0xff, 0xff, 0x0f, 0x00, 0x0c, 0x00, 0x60, 0xf4, 0xff, 0xff,
   0x3e, 0x00, 0x00, 0x00, 0x60, 0xfe, 0xff, 0xff, 0x78, 0x00, 0x00, 0x00,
   0x40, 0xff, 0xff, 0xff, 0xf0, 0x00, 0x00, 0x00, 0xc0, 0xff, 0xff, 0xff,
   0xe1, 0x01, 0x00, 0x00, 0xe0, 0xff, 0x03, 0xc0 };
