#define Background__30ms__width 64
#define Background__30ms__height 64
static unsigned char Background__30ms__bits[] = {
   0x00, 0x00, 0x00, 0x00, 0x00, 0x00, 0x00, 0x00, 0x00, 0x00, 0x00, 0x00,
   0x00, 0x00, 0x00, 0x00, 0x00, 0x00, 0x00, 0x00, 0x00, 0x00, 0x00, 0x00,
   0x00, 0x00, 0x00, 0x00, 0x00, 0x00, 0x00, 0x00, 0x00, 0x00, 0xfe, 0x00,
   0x00, 0x00, 0x00, 0x00, 0x00, 0x80, 0x83, 0x01, 0x00, 0x00, 0x00, 0x00,
   0x00, 0xc0, 0x00, 0x06, 0x00, 0x00, 0x00, 0x00, 0x00, 0x20, 0x00, 0x04,
   0x00, 0x00, 0x00, 0x00, 0x00, 0x10, 0x00, 0x0c, 0x00, 0x00, 0x00, 0x00,
   0x00, 0x18, 0x00, 0x08, 0x00, 0x00, 0x00, 0x00, 0x00, 0x08, 0x00, 0x18,
   0x00, 0x00, 0x00, 0x00, 0x00, 0x0c, 0xe0, 0x19, 0x00, 0x00, 0x18, 0x00,
   0x00, 0x04, 0x70, 0x13, 0x00, 0x00, 0x42, 0x00, 0x00, 0x04, 0xf8, 0x12,
   0x00, 0x80, 0x03, 0x00, 0x00, 0x3c, 0x78, 0x12, 0x00, 0xc0, 0x82, 0x00,
   0x00, 0x6e, 0x7d, 0x32, 0x00, 0x00, 0x99, 0x00, 0x00, 0xcf, 0xb8, 0x21,
   0x00, 0xc0, 0xbb, 0x00, 0x00, 0x4f, 0xf8, 0x20, 0x00, 0x10, 0x5b, 0x00,
   0x00, 0x67, 0x03, 0x27, 0x00, 0x00, 0x18, 0x00, 0x00, 0xff, 0xc3, 0x61,
   0x00, 0x08, 0x20, 0x00, 0x00, 0xe2, 0x73, 0x40, 0x00, 0x00, 0x00, 0x00,
   0x00, 0x82, 0x1d, 0x40, 0x00, 0x00, 0x16, 0x00, 0x00, 0x82, 0x07, 0xc0,
   0x00, 0x04, 0x00, 0x00, 0x00, 0xf2, 0x00, 0x80, 0x00, 0x04, 0x0b, 0x18,
   0x00, 0x1c, 0x00, 0x80, 0x01, 0x07, 0x38, 0x09, 0x00, 0x04, 0x00, 0x1a,
   0xe1, 0x45, 0x01, 0x18, 0x00, 0x04, 0x00, 0x12, 0x31, 0xc4, 0x49, 0x14,
   0x00, 0x04, 0x00, 0x14, 0x1b, 0xfc, 0x80, 0x01, 0x00, 0x04, 0x00, 0x34,
   0xee, 0x8f, 0x03, 0x04, 0x00, 0x0c, 0x00, 0x20, 0x84, 0x01, 0x04, 0x0c,
   0x00, 0x08, 0x00, 0x28, 0x64, 0x00, 0x88, 0x14, 0x00, 0x08, 0x00, 0x28,
   0x48, 0x00, 0x48, 0x04, 0x00, 0x18, 0x00, 0x68, 0x00, 0x04, 0x18, 0x00,
   0x00, 0x10, 0x00, 0x50, 0x00, 0x04, 0x18, 0x00, 0x00, 0x10, 0x00, 0x50,
   0x00, 0x00, 0x18, 0x00, 0x00, 0x30, 0x00, 0xd0, 0x00, 0x00, 0x08, 0x00,
   0x00, 0x20, 0x00, 0x20, 0x07, 0x00, 0x08, 0x00, 0x00, 0x60, 0x00, 0x90,
   0x0d, 0x04, 0x0c, 0x00, 0x00, 0xc0, 0x00, 0xb0, 0x83, 0x0f, 0x04, 0x00,
   0x00, 0x80, 0x00, 0xd0, 0xf1, 0x7f, 0x06, 0x00, 0x00, 0x80, 0x01, 0xf0,
   0xfd, 0xff, 0x03, 0x00, 0x00, 0x00, 0x03, 0x20, 0x3f, 0xf0, 0x03, 0x00,
   0x00, 0x00, 0x06, 0x80, 0x0f, 0x80, 0x0f, 0x00, 0x00, 0x00, 0x0c, 0xc0,
   0x03, 0x00, 0x1f, 0x00, 0x00, 0x00, 0x1c, 0xe0, 0x01, 0x00, 0x1c, 0x00,
   0x00, 0x00, 0x3e, 0xf0, 0x00, 0x00, 0x38, 0x00, 0x00, 0x00, 0xfe, 0x39,
   0x00, 0x00, 0x78, 0x00, 0x00, 0x00, 0x8f, 0x3f, 0x00, 0x00, 0x70, 0x00,
   0x00, 0x80, 0x87, 0x1f, 0x00, 0x00, 0xe0, 0x00, 0x00, 0x80, 0x83, 0x0f,
   0x00, 0x00, 0xe0, 0x00, 0x00, 0xc0, 0x83, 0x07, 0x00, 0x00, 0xc0, 0x01,
   0x00, 0xc0, 0x81, 0x07, 0x00, 0x00, 0xc0, 0x01, 0x00, 0xc0, 0x80, 0x03,
   0x00, 0x00, 0xc0, 0x03, 0x00, 0xe0, 0x80, 0x03, 0x00, 0x00, 0x80, 0x03,
   0x00, 0xe0, 0xc0, 0x01, 0x00, 0x00, 0x80, 0x03, 0x00, 0x60, 0xc0, 0x01,
   0x00, 0x00, 0x80, 0x03, 0x00, 0x60, 0xf8, 0x01, 0x02, 0x00, 0x00, 0x07,
   0x00, 0x60, 0xfc, 0x01, 0x06, 0x00, 0x00, 0x07, 0x00, 0x70, 0xfe, 0x01,
   0x06, 0x00, 0x00, 0x07, 0x00, 0x70, 0xce, 0x01, 0x06, 0x00, 0x00, 0x0f,
   0x01, 0x70, 0xc0, 0x01, 0x0c, 0x00, 0x00, 0x0f, 0x0f, 0x60, 0xd0, 0x01,
   0x0c, 0x00, 0x00, 0x0e, 0x3f, 0x60, 0xb0, 0x01, 0x00, 0x00, 0x00, 0x0e,
   0xff, 0x61, 0x98, 0x03, 0x00, 0x00, 0x00, 0x0e };
