#define Frame_6__30ms___replace__width 64
#define Frame_6__30ms___replace__height 64
static unsigned char Frame_6__30ms___replace__bits[] = {
   0x00, 0x00, 0x00, 0x00, 0x00, 0x00, 0x00, 0x00, 0x00, 0x00, 0x00, 0x00,
   0x00, 0x00, 0x00, 0x00, 0x00, 0x00, 0x00, 0x00, 0x00, 0x00, 0x00, 0x00,
   0x00, 0x00, 0x00, 0x00, 0x00, 0x00, 0x00, 0x00, 0x00, 0x00, 0x00, 0x00,
   0x00, 0x00, 0x00, 0x00, 0x00, 0x00, 0x00, 0x00, 0x00, 0x3e, 0x00, 0x00,
   0x03, 0x00, 0x00, 0x00, 0x80, 0xc1, 0x00, 0x00, 0x0f, 0x00, 0x00, 0x00,
   0x40, 0x80, 0x00, 0x00, 0x1c, 0x00, 0x00, 0x00, 0x70, 0x00, 0x01, 0x00,
   0x38, 0x00, 0x00, 0x00, 0xf8, 0x00, 0x01, 0x00, 0x60, 0x00, 0x00, 0x00,
   0xb8, 0x39, 0x01, 0x00, 0xc0, 0x00, 0x00, 0x00, 0x78, 0x5c, 0x01, 0x00,
   0xc0, 0x00, 0x00, 0x00, 0xa0, 0x5c, 0x01, 0x00, 0x80, 0x01, 0x00, 0x00,
   0xcc, 0xbd, 0x00, 0x00, 0x80, 0x03, 0x00, 0x00, 0xf4, 0x81, 0x00, 0x00,
   0x0f, 0x03, 0x00, 0x00, 0x02, 0x98, 0x00, 0x00, 0x1f, 0x07, 0x00, 0x00,
   0x02, 0x40, 0x00, 0x00, 0x33, 0x06, 0x00, 0x00, 0x02, 0x40, 0x00, 0x00,
   0x67, 0x04, 0x00, 0x00, 0x02, 0x40, 0x00, 0x00, 0x67, 0x0c, 0x00, 0x00,
   0x00, 0x4c, 0x00, 0x16, 0x67, 0x18, 0x00, 0x00, 0x01, 0x48, 0x40, 0x27,
   0x67, 0x18, 0x00, 0x00, 0x01, 0x08, 0x20, 0x08, 0x37, 0x30, 0x00, 0x00,
   0x01, 0x0a, 0x10, 0x20, 0x3b, 0x30, 0x00, 0x00, 0x01, 0x46, 0x08, 0x10,
   0x9c, 0x61, 0x00, 0x00, 0x02, 0x06, 0x09, 0x05, 0xcf, 0xe0, 0x00, 0x00,
   0x02, 0x84, 0x2f, 0x02, 0xf0, 0xc0, 0x00, 0x00, 0x02, 0x05, 0x10, 0x02,
   0x38, 0x80, 0x01, 0x80, 0x83, 0x05, 0x00, 0x00, 0x1c, 0x80, 0x03, 0xe0,
   0x87, 0x0a, 0x40, 0x22, 0x0e, 0x00, 0x03, 0x70, 0x04, 0x1f, 0x40, 0x14,
   0x07, 0x00, 0x06, 0x18, 0xfc, 0xff, 0x40, 0x00, 0x01, 0x00, 0x0e, 0x0c,
   0x7c, 0xc0, 0x20, 0x04, 0x00, 0x00, 0x1c, 0x06, 0x0e, 0x80, 0x11, 0x00,
   0x00, 0x30, 0x38, 0xb6, 0x03, 0x00, 0x0b, 0x00, 0x00, 0x60, 0x30, 0xf3,
   0x01, 0x00, 0x06, 0x00, 0x00, 0x66, 0x60, 0xc1, 0x00, 0x00, 0x06, 0x00,
   0x00, 0xcc, 0xc0, 0xd1, 0x00, 0x00, 0x06, 0x00, 0x00, 0x98, 0x81, 0x71,
   0x00, 0x00, 0x04, 0x00, 0x00, 0x90, 0x01, 0x63, 0x30, 0x00, 0x04, 0x00,
   0x00, 0x30, 0x03, 0x66, 0x10, 0x00, 0x04, 0x00, 0x00, 0x20, 0x03, 0x00,
   0x10, 0x00, 0x04, 0x00, 0x00, 0x40, 0x06, 0x00, 0x00, 0x00, 0x06, 0x00,
   0x00, 0xc0, 0x0c, 0x00, 0x00, 0x00, 0x06, 0x00, 0x00, 0x80, 0x0c, 0x00,
   0x00, 0x00, 0x06, 0x00, 0x00, 0x80, 0x19, 0x00, 0x40, 0x00, 0x06, 0x00,
   0x00, 0x00, 0x19, 0x00, 0x60, 0x00, 0x06, 0x00, 0x00, 0x00, 0xf3, 0x07,
   0x00, 0x07, 0x03, 0x00, 0x00, 0x00, 0xf6, 0x1f, 0xf0, 0xff, 0x03, 0x00,
   0x00, 0x00, 0x0c, 0x18, 0xfe, 0xff, 0x0f, 0x00, 0x00, 0x00, 0xcc, 0x8f,
   0xff, 0xff, 0x3f, 0x00, 0x00, 0x00, 0xcc, 0xc3, 0x7f, 0xf0, 0x7f, 0x00,
   0x00, 0x00, 0xbc, 0xe1, 0x07, 0x00, 0xfe, 0x01, 0x00, 0x00, 0xec, 0xf1,
   0x03, 0x00, 0xf8, 0x03, 0x00, 0x00, 0xec, 0xf9, 0x00, 0x00, 0xe0, 0x07,
   0x00, 0x00, 0xe8, 0x7d, 0x00, 0x00, 0xc0, 0x0f, 0x00, 0x00, 0x38, 0x3e,
   0x00, 0x00, 0x80, 0x1f, 0x00, 0x00, 0x00, 0x1f, 0x00, 0x00, 0x00, 0x3f,
   0x01, 0x00, 0x00, 0x1f, 0x00, 0x00, 0x00, 0x7e, 0x07, 0x00, 0x80, 0x0f,
   0x00, 0x00, 0x00, 0x7c, 0x0e, 0x00, 0xc0, 0x07, 0x00, 0x00, 0x00, 0xf8,
   0x3c, 0x00, 0xc0, 0x03, 0x00, 0x00, 0x00, 0xf0, 0x70, 0x00, 0xe0, 0x01,
   0x00, 0x00, 0x00, 0xf0, 0xe0, 0x01, 0xe0, 0x01, 0x00, 0x00, 0x00, 0xe0,
   0x80, 0x07, 0xf0, 0x00, 0x00, 0x00, 0x00, 0xc0 };
