#define Frame_2__30ms___replace__width 64
#define Frame_2__30ms___replace__height 64
static unsigned char Frame_2__30ms___replace__bits[] = {
   0x00, 0x00, 0x00, 0x00, 0x00, 0x00, 0x00, 0x00, 0x00, 0x00, 0x00, 0x00,
   0x00, 0x00, 0x00, 0x00, 0x00, 0x00, 0x00, 0x00, 0x00, 0x00, 0x00, 0x00,
   0x00, 0x80, 0x01, 0x00, 0x00, 0x00, 0x00, 0x00, 0x00, 0xf8, 0x0f, 0x00,
   0x00, 0x00, 0x00, 0x00, 0x00, 0x0c, 0x38, 0x00, 0x00, 0x00, 0x00, 0x00,
   0x00, 0x03, 0x60, 0x00, 0x00, 0x00, 0x00, 0x00, 0x00, 0x01, 0x40, 0x00,
   0x00, 0x00, 0x00, 0x00, 0x80, 0x00, 0xc0, 0x00, 0x00, 0x00, 0x00, 0x00,
   0xc0, 0x00, 0x80, 0x00, 0x00, 0x00, 0x00, 0x00, 0x40, 0x00, 0x80, 0x01,
   0x00, 0x00, 0x1b, 0x00, 0x60, 0x00, 0x1e, 0x01, 0x00, 0x40, 0x20, 0x00,
   0x20, 0x00, 0x37, 0x01, 0x00, 0xe0, 0x00, 0x00, 0x20, 0x80, 0x27, 0x03,
   0x00, 0xb0, 0x40, 0x00, 0x30, 0xc0, 0x27, 0x03, 0x00, 0x40, 0x4e, 0x00,
   0xf0, 0xc1, 0x27, 0x02, 0x00, 0x58, 0x14, 0x00, 0x70, 0xcb, 0x37, 0x02,
   0x00, 0xc4, 0x2c, 0x00, 0xf8, 0xc6, 0x18, 0x06, 0x00, 0x00, 0x06, 0x00,
   0x78, 0x86, 0x4f, 0x04, 0x00, 0x02, 0x10, 0x00, 0x78, 0x13, 0x70, 0x04,
   0x00, 0x02, 0x00, 0x00, 0xf8, 0x3b, 0x1c, 0x0c, 0x00, 0x00, 0x0b, 0x00,
   0xf0, 0x33, 0x07, 0x08, 0x00, 0x00, 0x00, 0x00, 0x10, 0xde, 0x01, 0x18,
   0x00, 0x80, 0x05, 0x08, 0x10, 0x70, 0x00, 0x18, 0x00, 0x00, 0x04, 0x09,
   0x30, 0x1e, 0x00, 0x30, 0x80, 0xc1, 0x24, 0x50, 0xb0, 0x07, 0x00, 0x30,
   0xf0, 0xa1, 0x10, 0x00, 0xe0, 0x00, 0x00, 0x21, 0x18, 0xe2, 0x80, 0x10,
   0x20, 0x00, 0x40, 0x62, 0x04, 0x33, 0x80, 0x01, 0x20, 0x00, 0x80, 0xc2,
   0x86, 0xff, 0x81, 0x06, 0x60, 0x00, 0x80, 0xc6, 0xf3, 0x00, 0x07, 0x00,
   0x40, 0x00, 0x80, 0x84, 0x21, 0x00, 0x84, 0x08, 0x40, 0x00, 0x00, 0x05,
   0x39, 0x00, 0x4c, 0x14, 0xc0, 0x00, 0x00, 0x0d, 0x13, 0x00, 0x18, 0x00,
   0xc0, 0x00, 0x00, 0x09, 0x10, 0x02, 0x08, 0x00, 0x80, 0x00, 0x00, 0x0a,
   0x00, 0x02, 0x08, 0x00, 0x80, 0x01, 0x00, 0x1a, 0x00, 0x00, 0x08, 0x00,
   0x00, 0x01, 0x00, 0x12, 0x00, 0x00, 0x08, 0x00, 0x00, 0x03, 0x00, 0xf4,
   0x00, 0x00, 0x0c, 0x00, 0x00, 0x02, 0x00, 0x84, 0x03, 0x02, 0x04, 0x00,
   0x00, 0x06, 0x00, 0xe4, 0x03, 0x00, 0x06, 0x00, 0x00, 0x04, 0x00, 0xec,
   0xf0, 0x1f, 0x06, 0x00, 0x00, 0x0c, 0x00, 0x74, 0xfc, 0xff, 0x03, 0x00,
   0x00, 0x18, 0x00, 0x7e, 0xff, 0xff, 0x03, 0x00, 0x00, 0x30, 0x00, 0x8c,
   0x1f, 0xe0, 0x07, 0x00, 0x00, 0x60, 0x00, 0xc0, 0x07, 0x80, 0x1f, 0x00,
   0x00, 0xc0, 0x00, 0xe0, 0x01, 0x00, 0x1e, 0x00, 0x00, 0x80, 0x01, 0xf0,
   0x00, 0x00, 0x3c, 0x00, 0x00, 0x00, 0x03, 0x78, 0x00, 0x00, 0x78, 0x00,
   0x00, 0x80, 0x0f, 0x3c, 0x00, 0x00, 0xf0, 0x00, 0x00, 0xc0, 0x3f, 0x1e,
   0x00, 0x00, 0xe0, 0x00, 0x00, 0xc0, 0xf3, 0x0f, 0x00, 0x00, 0xe0, 0x01,
   0x00, 0xe0, 0xe1, 0x07, 0x00, 0x00, 0xc0, 0x01, 0x00, 0xe0, 0xe0, 0x07,
   0x00, 0x00, 0xc0, 0x03, 0x00, 0xf0, 0xe0, 0x03, 0x00, 0x00, 0x80, 0x03,
   0x00, 0x70, 0xe0, 0x01, 0x00, 0x00, 0x80, 0x07, 0x00, 0x38, 0xe0, 0x01,
   0x00, 0x00, 0x00, 0x07, 0x00, 0x38, 0xe0, 0x00, 0x00, 0x00, 0x00, 0x0f,
   0x00, 0x38, 0xe0, 0x00, 0x00, 0x00, 0x00, 0x0f, 0x00, 0x1c, 0xf0, 0x00,
   0x00, 0x00, 0x00, 0x0e, 0x00, 0x1c, 0x70, 0x00, 0x00, 0x00, 0x00, 0x1e,
   0x00, 0x1c, 0x7c, 0x00, 0x03, 0x00, 0x00, 0x1e, 0x00, 0x1c, 0x7f, 0x00,
   0x07, 0x00, 0x00, 0x1c, 0x00, 0x9c, 0x7f, 0x00, 0x06, 0x00, 0x00, 0x1c,
   0x00, 0x9c, 0x67, 0x00, 0x06, 0x00, 0x00, 0x3c };
