#define Frame_5__30ms___replace__width 64
#define Frame_5__30ms___replace__height 64
static unsigned char Frame_5__30ms___replace__bits[] = {
   0x00, 0x00, 0x00, 0x00, 0x00, 0x00, 0x00, 0x00, 0x00, 0x00, 0x00, 0x00,
   0x00, 0x00, 0x00, 0x00, 0x00, 0x00, 0x00, 0x00, 0x00, 0x00, 0x00, 0x00,
   0x00, 0x00, 0x00, 0x00, 0x00, 0x00, 0x00, 0x00, 0x00, 0x00, 0x00, 0x00,
   0x00, 0x00, 0x00, 0x00, 0x7f, 0x00, 0x00, 0x00, 0x00, 0x00, 0x00, 0x00,
   0xf0, 0x01, 0x00, 0x00, 0x00, 0xf8, 0x00, 0x00, 0x80, 0x03, 0x00, 0x00,
   0x00, 0x06, 0x01, 0x00, 0x00, 0x07, 0x00, 0x00, 0x00, 0x01, 0x02, 0x00,
   0x00, 0x06, 0x00, 0x00, 0xc0, 0x03, 0x00, 0x00, 0x00, 0x0c, 0x00, 0x00,
   0xc0, 0x03, 0x04, 0x00, 0x00, 0x18, 0x00, 0x00, 0xc0, 0xf7, 0x04, 0x00,
   0x00, 0x18, 0x00, 0x00, 0x20, 0x71, 0x02, 0x00, 0x00, 0x30, 0x00, 0x00,
   0x00, 0xb5, 0x02, 0x00, 0xf8, 0x31, 0x00, 0x00, 0xd0, 0x61, 0x02, 0x00,
   0x3c, 0x23, 0x00, 0x00, 0x10, 0x7c, 0x01, 0x00, 0x7e, 0x62, 0x00, 0x00,
   0x08, 0x00, 0x01, 0x00, 0x7e, 0x66, 0x00, 0x00, 0x08, 0x00, 0x01, 0x00,
   0x7e, 0xc6, 0x00, 0x00, 0x08, 0x00, 0x00, 0x00, 0x7e, 0xc6, 0x00, 0x00,
   0x00, 0xa0, 0x00, 0x00, 0x7e, 0x83, 0x01, 0x00, 0x00, 0x80, 0x00, 0x0d,
   0xbe, 0x83, 0x01, 0x00, 0x04, 0x98, 0x00, 0x02, 0xfe, 0x0c, 0x03, 0x00,
   0x04, 0x90, 0x20, 0x18, 0x78, 0x0e, 0x03, 0x00, 0x00, 0x84, 0x18, 0x28,
   0x00, 0x07, 0x06, 0x00, 0x00, 0x0c, 0x12, 0x00, 0xc1, 0x01, 0x0c, 0x00,
   0x08, 0x0c, 0x4f, 0x00, 0xe3, 0x00, 0x0c, 0x00, 0x0e, 0x10, 0x60, 0x00,
   0x73, 0x00, 0x18, 0x80, 0x0f, 0x1a, 0x40, 0x03, 0x3d, 0x00, 0x38, 0xc0,
   0x10, 0x04, 0x42, 0x00, 0x0e, 0x00, 0x30, 0x30, 0xf8, 0x7f, 0x00, 0x10,
   0x03, 0x00, 0x60, 0x10, 0xf8, 0xe0, 0xc0, 0x12, 0x01, 0x80, 0xc1, 0x18,
   0x1c, 0x80, 0x01, 0x04, 0x00, 0x30, 0xc3, 0xed, 0x07, 0x00, 0x13, 0x00,
   0x00, 0x20, 0x83, 0x8d, 0x03, 0x00, 0x0e, 0x00, 0x00, 0x40, 0x06, 0x07,
   0x01, 0x00, 0x06, 0x00, 0x00, 0xc0, 0x06, 0xa6, 0x01, 0x00, 0x04, 0x00,
   0x00, 0x80, 0x0c, 0x8c, 0x40, 0x00, 0x04, 0x00, 0x00, 0x80, 0x0d, 0x88,
   0x60, 0x00, 0x0c, 0x00, 0x00, 0x00, 0x19, 0x80, 0x20, 0x00, 0x0c, 0x00,
   0x00, 0x00, 0x13, 0x00, 0x00, 0x00, 0x04, 0x00, 0x00, 0x00, 0x32, 0x00,
   0x00, 0x00, 0x04, 0x00, 0x00, 0x00, 0x26, 0x00, 0x00, 0x00, 0x06, 0x00,
   0x00, 0x00, 0x64, 0x00, 0x00, 0x00, 0x06, 0x00, 0x00, 0x00, 0x6c, 0x00,
   0x40, 0x00, 0x06, 0x00, 0x00, 0x00, 0xc8, 0x1f, 0x40, 0x02, 0x03, 0x00,
   0x00, 0x00, 0x10, 0x30, 0xf0, 0x7f, 0x03, 0x00, 0x00, 0x00, 0x10, 0x3f,
   0xfe, 0xff, 0x03, 0x00, 0x00, 0x00, 0x10, 0x0f, 0xff, 0xff, 0x0f, 0x00,
   0x00, 0x00, 0x50, 0xc3, 0x3f, 0xf8, 0x3f, 0x00, 0x01, 0x00, 0xd0, 0xe2,
   0x07, 0x80, 0x7f, 0x00, 0x01, 0x00, 0x90, 0xf7, 0x03, 0x00, 0xfe, 0x00,
   0x03, 0x00, 0xf0, 0xfa, 0x00, 0x00, 0xf8, 0x01, 0x06, 0x00, 0x60, 0x7c,
   0x00, 0x00, 0xe0, 0x03, 0x0c, 0x00, 0x00, 0x3e, 0x00, 0x00, 0xc0, 0x07,
   0x38, 0x00, 0x00, 0x1f, 0x00, 0x00, 0x80, 0x0f, 0x70, 0x00, 0x00, 0x0f,
   0x00, 0x00, 0x00, 0x1f, 0xe0, 0x00, 0x80, 0x07, 0x00, 0x00, 0x00, 0x1f,
   0xc0, 0x01, 0xc0, 0x07, 0x00, 0x00, 0x00, 0x3e, 0x00, 0x07, 0xc0, 0x03,
   0x00, 0x00, 0x00, 0x7c, 0x00, 0x1e, 0xe0, 0x01, 0x00, 0x00, 0x00, 0x7c,
   0x00, 0xff, 0xe0, 0x01, 0x00, 0x00, 0x00, 0xf8, 0x00, 0xff, 0xff, 0x00,
   0x00, 0x00, 0x00, 0xf0, 0x80, 0x8f, 0xff, 0x00, 0x00, 0x00, 0x00, 0xf0,
   0x80, 0x07, 0x7f, 0x00, 0x00, 0x00, 0x00, 0xe0 };
