#define Frame_3__30ms___replace__width 64
#define Frame_3__30ms___replace__height 64
static unsigned char Frame_3__30ms___replace__bits[] = {
   0x00, 0x00, 0x00, 0x00, 0x00, 0x00, 0x00, 0x00, 0x00, 0x00, 0x00, 0x00,
   0x00, 0x00, 0x00, 0x00, 0x00, 0x00, 0x00, 0x00, 0x00, 0x00, 0x00, 0x00,
   0x00, 0x1c, 0x00, 0x00, 0x00, 0x00, 0x00, 0x00, 0xc0, 0xff, 0x00, 0x00,
   0x00, 0x00, 0x00, 0x00, 0xe0, 0x80, 0x01, 0x00, 0x00, 0x00, 0x00, 0x00,
   0x30, 0x00, 0x07, 0x00, 0x00, 0x00, 0x00, 0x00, 0x18, 0x00, 0x06, 0x00,
   0x00, 0x00, 0x00, 0x00, 0x0c, 0x00, 0x0c, 0x00, 0x00, 0x00, 0x01, 0x00,
   0x06, 0x00, 0x08, 0x00, 0x00, 0x40, 0x08, 0x00, 0x02, 0x00, 0x18, 0x00,
   0x00, 0x10, 0x10, 0x00, 0x03, 0x40, 0x10, 0x00, 0x00, 0x1c, 0x00, 0x00,
   0x01, 0xf0, 0x31, 0x00, 0x00, 0x2c, 0x20, 0x00, 0x01, 0x78, 0x33, 0x00,
   0x00, 0x10, 0x07, 0x00, 0x01, 0x7c, 0x32, 0x00, 0x00, 0x92, 0x13, 0x00,
   0x01, 0x7c, 0x26, 0x00, 0x00, 0x18, 0x17, 0x00, 0x0f, 0x7c, 0x62, 0x00,
   0x00, 0xc1, 0x09, 0x00, 0xdf, 0x7c, 0x43, 0x00, 0x00, 0x00, 0x08, 0x00,
   0x53, 0x8c, 0x41, 0x00, 0x80, 0x00, 0x00, 0x00, 0x37, 0xfc, 0xc4, 0x00,
   0x80, 0x00, 0x04, 0x00, 0x37, 0x00, 0x87, 0x00, 0x00, 0x00, 0x00, 0x00,
   0xbb, 0x83, 0x83, 0x01, 0x00, 0xc0, 0x02, 0x08, 0xdd, 0xe2, 0x80, 0x01,
   0x00, 0x80, 0x02, 0x21, 0xb3, 0x3b, 0x00, 0x03, 0x00, 0x60, 0x1e, 0x04,
   0xe1, 0x1e, 0x00, 0x03, 0x00, 0x60, 0x20, 0x10, 0x81, 0x07, 0x00, 0x06,
   0x78, 0x50, 0x3c, 0x02, 0xe1, 0x01, 0x00, 0x06, 0x9c, 0x38, 0xa0, 0x05,
   0x79, 0x00, 0x20, 0x0c, 0x83, 0x00, 0x00, 0x00, 0x1f, 0x00, 0x6c, 0x08,
   0xc1, 0xff, 0x80, 0x04, 0x03, 0x00, 0x48, 0x98, 0xe4, 0x81, 0x81, 0x10,
   0x03, 0x00, 0xd0, 0xf0, 0x3c, 0x00, 0x82, 0x20, 0x02, 0x00, 0x90, 0x60,
   0x18, 0x00, 0x46, 0x00, 0x06, 0x00, 0xb0, 0x61, 0x0a, 0x00, 0x1c, 0x00,
   0x06, 0x00, 0xa0, 0x41, 0x0c, 0x00, 0x0c, 0x00, 0x06, 0x00, 0x20, 0x81,
   0x04, 0x01, 0x0c, 0x00, 0x0c, 0x00, 0x40, 0x03, 0x80, 0x00, 0x08, 0x00,
   0x0c, 0x00, 0x40, 0x02, 0x80, 0x00, 0x0c, 0x00, 0x08, 0x00, 0xc0, 0x02,
   0x00, 0x00, 0x0c, 0x00, 0x18, 0x00, 0x80, 0x06, 0x00, 0x00, 0x04, 0x00,
   0x10, 0x00, 0x80, 0x7d, 0x00, 0x01, 0x04, 0x00, 0x30, 0x00, 0x00, 0xd1,
   0x80, 0x01, 0x06, 0x00, 0x60, 0x00, 0x00, 0xc9, 0x80, 0x07, 0x02, 0x00,
   0x60, 0x00, 0x00, 0x7b, 0xf8, 0x7f, 0x03, 0x00, 0xc0, 0x00, 0x80, 0x17,
   0xfe, 0xff, 0x01, 0x00, 0x80, 0x01, 0x80, 0x9d, 0x7f, 0xfc, 0x07, 0x00,
   0x80, 0x03, 0x80, 0xdf, 0x0f, 0xc0, 0x0f, 0x00, 0x00, 0x07, 0x00, 0xe3,
   0x03, 0x00, 0x1f, 0x00, 0x00, 0x06, 0x00, 0xf0, 0x01, 0x00, 0x3e, 0x00,
   0x00, 0x1c, 0x00, 0x78, 0x00, 0x00, 0x78, 0x00, 0x00, 0x38, 0x00, 0x3c,
   0x00, 0x00, 0xf0, 0x00, 0x00, 0x70, 0x00, 0x1e, 0x00, 0x00, 0xe0, 0x01,
   0x00, 0xe0, 0x01, 0x0e, 0x00, 0x00, 0xe0, 0x03, 0x00, 0xf0, 0x03, 0x07,
   0x00, 0x00, 0xc0, 0x03, 0x00, 0xf0, 0xff, 0x07, 0x00, 0x00, 0x80, 0x07,
   0x00, 0x78, 0xfc, 0x03, 0x00, 0x00, 0x80, 0x07, 0x00, 0x78, 0xf8, 0x01,
   0x00, 0x00, 0x00, 0x0f, 0x00, 0x3c, 0xf8, 0x01, 0x00, 0x00, 0x00, 0x0f,
   0x00, 0x1c, 0xf8, 0x00, 0x00, 0x00, 0x00, 0x1e, 0x00, 0x1e, 0xf0, 0x00,
   0x00, 0x00, 0x00, 0x1e, 0x00, 0x0e, 0x70, 0x00, 0x00, 0x00, 0x00, 0x1c,
   0x00, 0x0e, 0x70, 0x00, 0x00, 0x00, 0x00, 0x3c, 0x00, 0x07, 0x78, 0x00,
   0x00, 0x00, 0x00, 0x3c, 0x00, 0x07, 0x38, 0x00, 0x00, 0x00, 0x00, 0x78,
   0x00, 0x07, 0x3c, 0x00, 0x01, 0x00, 0x00, 0x78 };
