#define Frame_12__30ms___replace__width 64
#define Frame_12__30ms___replace__height 64
static unsigned char Frame_12__30ms___replace__bits[] = {
   0x00, 0x00, 0x00, 0x00, 0x00, 0x00, 0x00, 0x00, 0x00, 0x00, 0x00, 0x00,
   0x00, 0x00, 0x00, 0x00, 0x00, 0x00, 0x00, 0xf0, 0x00, 0x00, 0x00, 0x00,
   0x00, 0x00, 0x00, 0x0e, 0x07, 0x00, 0x00, 0x00, 0x00, 0x00, 0x00, 0x03,
   0x0c, 0x00, 0x00, 0x00, 0x00, 0x00, 0x80, 0x01, 0x08, 0x00, 0x00, 0x00,
   0x00, 0x00, 0xc0, 0x00, 0x10, 0x00, 0x00, 0x00, 0x00, 0x00, 0x40, 0x00,
   0x10, 0x00, 0x00, 0x00, 0x00, 0x00, 0x60, 0x00, 0x10, 0x00, 0x00, 0x00,
   0x00, 0x00, 0xe0, 0xc0, 0x13, 0x00, 0x00, 0x00, 0x00, 0x00, 0x70, 0xe1,
   0x15, 0x00, 0x00, 0x00, 0x00, 0x00, 0x78, 0xf7, 0x15, 0x00, 0x00, 0x00,
   0x00, 0x00, 0x38, 0xf1, 0x14, 0x00, 0x00, 0x00, 0x00, 0x00, 0xf0, 0xa1,
   0x13, 0x00, 0x00, 0x00, 0x00, 0x00, 0x80, 0xc6, 0x10, 0x00, 0x70, 0x03,
   0x00, 0x00, 0x88, 0x87, 0x13, 0x00, 0x30, 0x04, 0x00, 0x00, 0x08, 0x7e,
   0x10, 0x00, 0x64, 0x00, 0x00, 0x00, 0xf8, 0x07, 0x20, 0x00, 0xba, 0x01,
   0x00, 0x00, 0x08, 0x00, 0x20, 0x00, 0xc1, 0x04, 0x00, 0x00, 0x08, 0x00,
   0x20, 0x00, 0x40, 0x01, 0x00, 0x00, 0x08, 0x00, 0x20, 0x80, 0x00, 0x01,
   0x00, 0x00, 0x08, 0x00, 0x25, 0x00, 0x00, 0x00, 0x00, 0x00, 0x08, 0x00,
   0x25, 0x40, 0x30, 0x00, 0x00, 0x00, 0x08, 0x00, 0x65, 0x7e, 0x58, 0x00,
   0x00, 0x00, 0x08, 0x00, 0x45, 0x43, 0x0c, 0x00, 0x00, 0x00, 0x08, 0x00,
   0xc5, 0x64, 0x0e, 0x00, 0x00, 0x00, 0x10, 0x00, 0x45, 0xfc, 0xcb, 0x41,
   0x00, 0x00, 0x10, 0x00, 0x85, 0x04, 0x0c, 0x29, 0x00, 0x00, 0x10, 0x00,
   0x04, 0x02, 0x08, 0x3a, 0x00, 0x00, 0x30, 0x00, 0x04, 0x00, 0x10, 0x04,
   0x00, 0x00, 0x20, 0x00, 0x0e, 0x10, 0x10, 0x01, 0x00, 0x00, 0x20, 0x00,
   0x31, 0x00, 0x30, 0x04, 0x00, 0x00, 0x40, 0x00, 0x7b, 0x00, 0x10, 0x00,
   0x00, 0x00, 0x40, 0x00, 0x0a, 0x10, 0x10, 0x00, 0x00, 0x00, 0x80, 0x00,
   0xc7, 0x07, 0x08, 0x00, 0x00, 0x00, 0x80, 0x01, 0xf8, 0x3f, 0x0c, 0x00,
   0x00, 0x00, 0xc0, 0x03, 0x7e, 0x7c, 0x04, 0x00, 0x00, 0x00, 0xf0, 0x87,
   0x0f, 0xe0, 0x03, 0x00, 0x00, 0x00, 0x70, 0xcc, 0x03, 0xc0, 0x03, 0x00,
   0x00, 0x00, 0x38, 0xfc, 0x00, 0x80, 0x07, 0x00, 0x00, 0x00, 0x1c, 0x7c,
   0x00, 0x00, 0x07, 0x00, 0x00, 0x00, 0x0e, 0x3c, 0x00, 0x00, 0x0e, 0x00,
   0x01, 0x00, 0x06, 0x1c, 0x00, 0x00, 0x0c, 0x00, 0x07, 0x00, 0x07, 0x0e,
   0x00, 0x00, 0x1c, 0x00, 0x0f, 0x00, 0x03, 0x07, 0x00, 0x00, 0x1c, 0x00,
   0x1e, 0x00, 0xc3, 0x07, 0x00, 0x00, 0x18, 0x00, 0x7c, 0x80, 0xf3, 0x03,
   0x00, 0x00, 0x18, 0x00, 0xf8, 0x80, 0xfb, 0x03, 0x00, 0x00, 0x38, 0x00,
   0xe0, 0x83, 0x01, 0x01, 0x02, 0x00, 0x38, 0x00, 0x80, 0x87, 0x81, 0x01,
   0x02, 0x00, 0x38, 0x00, 0x00, 0x9f, 0xa1, 0x01, 0x02, 0x00, 0x38, 0x00,
   0x00, 0xfc, 0xb1, 0x03, 0x02, 0x00, 0x38, 0x00, 0x01, 0xf8, 0x81, 0x03,
   0x02, 0x00, 0x38, 0x00, 0x07, 0xe0, 0x83, 0x03, 0x00, 0x00, 0x30, 0x00,
   0x0f, 0x80, 0x0f, 0x01, 0x00, 0x00, 0x30, 0x00, 0x1e, 0x00, 0x0e, 0x00,
   0x00, 0x00, 0x38, 0x00, 0x38, 0x00, 0x00, 0x00, 0x60, 0x80, 0xff, 0x1f,
   0x70, 0x00, 0x00, 0x00, 0x20, 0xf2, 0xff, 0xff, 0xe1, 0x01, 0x00, 0x00,
   0x60, 0xfe, 0xff, 0xff, 0xc3, 0x03, 0x00, 0x00, 0x80, 0xff, 0xff, 0xff,
   0x8e, 0x07, 0x00, 0x00, 0xe0, 0xff, 0xff, 0xff, 0x1c, 0x0f, 0x00, 0x00,
   0xf8, 0xff, 0x03, 0xff, 0x38, 0x1c, 0x00, 0x00, 0xfc, 0x1f, 0x00, 0xe0,
   0x70, 0x38, 0x00, 0x00, 0xfe, 0x03, 0x00, 0x00 };
