#define Frame_7__30ms___replace__width 64
#define Frame_7__30ms___replace__height 64
static unsigned char Frame_7__30ms___replace__bits[] = {
   0x00, 0x00, 0x00, 0x00, 0x00, 0x00, 0x00, 0x00, 0x00, 0x00, 0x00, 0x00,
   0x00, 0x00, 0x00, 0x00, 0x00, 0x00, 0x00, 0x00, 0x00, 0x00, 0x00, 0x00,
   0x00, 0x00, 0x00, 0x00, 0x00, 0x00, 0x00, 0x00, 0x00, 0x00, 0x00, 0x00,
   0x80, 0x0f, 0x00, 0x00, 0x00, 0x00, 0x00, 0x00, 0x60, 0x10, 0x00, 0x00,
   0x00, 0x00, 0x00, 0x00, 0x10, 0x20, 0x00, 0x00, 0x00, 0x00, 0x00, 0x00,
   0x08, 0x40, 0x00, 0x00, 0x00, 0x00, 0x00, 0x00, 0x1e, 0x40, 0x00, 0x00,
   0x00, 0x00, 0x00, 0x00, 0x0e, 0x44, 0x00, 0x00, 0x01, 0x00, 0x00, 0x00,
   0x66, 0x5f, 0x00, 0x00, 0x03, 0x00, 0x00, 0x00, 0x9c, 0x57, 0x00, 0x00,
   0x06, 0x00, 0x00, 0x00, 0x69, 0x53, 0x00, 0x00, 0x0e, 0x00, 0x00, 0x00,
   0x31, 0x0e, 0x00, 0x00, 0x1c, 0x00, 0x00, 0x00, 0xfe, 0x27, 0x00, 0x00,
   0x18, 0x00, 0x00, 0x80, 0x00, 0x20, 0x00, 0x00, 0x38, 0x00, 0x00, 0x80,
   0x00, 0x20, 0x00, 0x00, 0x30, 0x00, 0x00, 0x80, 0x00, 0x20, 0x00, 0x00,
   0x61, 0x00, 0x00, 0x40, 0x00, 0x10, 0x00, 0x03, 0x63, 0x00, 0x00, 0x40,
   0x00, 0x14, 0xc0, 0x02, 0xc6, 0x00, 0x00, 0x40, 0x00, 0x11, 0x00, 0x27,
   0xc6, 0x01, 0x00, 0x40, 0x00, 0x11, 0x10, 0x2c, 0x86, 0x01, 0x00, 0x40,
   0x00, 0x93, 0x0b, 0x10, 0x06, 0x03, 0x00, 0x40, 0x00, 0x32, 0x04, 0x00,
   0x06, 0x03, 0x00, 0x40, 0x00, 0x92, 0xc4, 0x02, 0x03, 0x06, 0x00, 0x80,
   0x80, 0x80, 0x07, 0x01, 0x13, 0x0c, 0x00, 0x80, 0x80, 0x42, 0x10, 0x02,
   0x19, 0x1c, 0x00, 0x80, 0xc0, 0x05, 0x20, 0x10, 0x1c, 0x18, 0x00, 0xe0,
   0x81, 0x07, 0x01, 0x22, 0x06, 0x30, 0x00, 0xf0, 0x81, 0x01, 0x40, 0x10,
   0x03, 0x70, 0x00, 0x1c, 0xc2, 0x9f, 0x40, 0x00, 0x01, 0xe0, 0x00, 0x0e,
   0xff, 0x7f, 0x20, 0x00, 0x00, 0xc0, 0x01, 0x07, 0x1f, 0xc0, 0x30, 0x00,
   0x00, 0x80, 0x03, 0x03, 0x07, 0x80, 0x19, 0x00, 0x00, 0x00, 0x83, 0xc1,
   0x01, 0x00, 0x07, 0x00, 0x00, 0x00, 0x86, 0xfd, 0x00, 0x00, 0x07, 0x00,
   0x00, 0x0c, 0xcc, 0x7c, 0x00, 0x00, 0x06, 0x00, 0x80, 0x1c, 0xd8, 0x20,
   0x00, 0x00, 0x06, 0x00, 0x80, 0x19, 0x70, 0x2c, 0x00, 0x00, 0x06, 0x00,
   0x00, 0x33, 0x60, 0x34, 0x10, 0x00, 0x04, 0x00, 0x00, 0x62, 0xc0, 0x30,
   0x18, 0x00, 0x0c, 0x00, 0x00, 0x66, 0x80, 0x31, 0x08, 0x00, 0x0c, 0x00,
   0x00, 0xcc, 0x00, 0x01, 0x08, 0x00, 0x06, 0x00, 0x00, 0x88, 0x01, 0x00,
   0x00, 0x00, 0x06, 0x00, 0x00, 0x98, 0x01, 0x00, 0x00, 0x00, 0x06, 0x00,
   0x00, 0x30, 0x03, 0x00, 0x00, 0x00, 0x06, 0x00, 0x00, 0x20, 0x02, 0x00,
   0x20, 0x00, 0x06, 0x00, 0x00, 0x60, 0x06, 0x00, 0x20, 0x00, 0x06, 0x00,
   0x00, 0xc0, 0x0c, 0x00, 0x80, 0x7f, 0x03, 0x00, 0x00, 0x80, 0xfc, 0x07,
   0xf8, 0xff, 0x0f, 0x00, 0x00, 0x80, 0xf9, 0x0e, 0xfe, 0xff, 0x3f, 0x00,
   0x00, 0x00, 0x03, 0x8e, 0xff, 0xff, 0xff, 0x00, 0x00, 0x00, 0xe2, 0xc7,
   0xff, 0xc0, 0xff, 0x03, 0x00, 0x00, 0xe2, 0xe1, 0x0f, 0x00, 0xfc, 0x07,
   0x00, 0x00, 0xda, 0xf0, 0x03, 0x00, 0xf0, 0x0f, 0x00, 0x00, 0xba, 0xf8,
   0x01, 0x00, 0xc0, 0x1f, 0x00, 0x00, 0xf2, 0xfd, 0x00, 0x00, 0x00, 0x3f,
   0x00, 0x00, 0xf6, 0x7f, 0x00, 0x00, 0x00, 0x7e, 0x00, 0x00, 0x3c, 0x3e,
   0x00, 0x00, 0x00, 0xfc, 0x00, 0x00, 0x1c, 0x1f, 0x00, 0x00, 0x00, 0xf8,
   0x00, 0x00, 0x80, 0x0f, 0x00, 0x00, 0x00, 0xf0, 0x00, 0x00, 0x80, 0x07,
   0x00, 0x00, 0x00, 0xe0, 0x00, 0x00, 0xc0, 0x07, 0x00, 0x00, 0x00, 0xe0,
   0x01, 0x00, 0xc0, 0x03, 0x00, 0x00, 0x00, 0xc0 };
