#define Frame_14__30ms___replace__width 64
#define Frame_14__30ms___replace__height 64
static unsigned char Frame_14__30ms___replace__bits[] = {
   0x00, 0x00, 0x00, 0x00, 0x00, 0x00, 0x00, 0x00, 0x00, 0x00, 0x00, 0x00,
   0x00, 0x00, 0x00, 0x00, 0x00, 0x00, 0x00, 0x00, 0x00, 0x00, 0x00, 0x00,
   0x00, 0x00, 0xe0, 0x1f, 0x00, 0x00, 0x00, 0x00, 0x00, 0x00, 0x30, 0x20,
   0x00, 0x00, 0x00, 0x00, 0x00, 0x00, 0x08, 0x40, 0x00, 0x00, 0x00, 0x00,
   0x00, 0x00, 0x04, 0x80, 0x00, 0x00, 0x00, 0x00, 0x00, 0x00, 0x02, 0x80,
   0x00, 0x00, 0x00, 0x00, 0x00, 0x00, 0x03, 0x00, 0x01, 0x00, 0x00, 0x00,
   0x00, 0x00, 0x01, 0x08, 0x01, 0x00, 0x00, 0x00, 0x00, 0x00, 0x01, 0x3e,
   0x01, 0x00, 0x00, 0x00, 0x00, 0x80, 0x07, 0x2f, 0x01, 0x00, 0x00, 0x00,
   0x00, 0xc0, 0xaf, 0x0f, 0x01, 0x00, 0x00, 0x00, 0x00, 0xe0, 0x9b, 0x2f,
   0x01, 0x00, 0x0c, 0x00, 0x00, 0xe0, 0x99, 0x37, 0x03, 0x00, 0x06, 0x00,
   0x00, 0xe0, 0x0e, 0x1f, 0x02, 0x00, 0x1d, 0x02, 0x00, 0xc0, 0x75, 0x70,
   0x02, 0x80, 0x6d, 0x02, 0x00, 0x40, 0x7c, 0x1c, 0x02, 0x00, 0xe4, 0x00,
   0x00, 0x40, 0xc0, 0x03, 0x02, 0x40, 0x50, 0x01, 0x00, 0x40, 0x7c, 0x00,
   0x02, 0x20, 0x80, 0x00, 0x00, 0xc0, 0x07, 0x00, 0x06, 0x20, 0x40, 0x00,
   0x00, 0x40, 0x00, 0x00, 0x04, 0x00, 0x08, 0x00, 0x00, 0x40, 0x00, 0x00,
   0x04, 0x10, 0x2c, 0x00, 0x00, 0x40, 0x00, 0xd0, 0x0c, 0x1c, 0x00, 0x00,
   0x00, 0xc0, 0x00, 0xa0, 0x88, 0x1f, 0x34, 0x1c, 0x00, 0x80, 0x00, 0xa0,
   0xc8, 0x10, 0x83, 0x00, 0x00, 0x80, 0x00, 0xa0, 0xb8, 0x39, 0xc5, 0x40,
   0x00, 0x80, 0x00, 0xa0, 0x10, 0x9f, 0x03, 0x25, 0x00, 0x80, 0x00, 0x00,
   0x91, 0x03, 0x04, 0x05, 0x00, 0x80, 0x01, 0x40, 0x81, 0x01, 0x08, 0x03,
   0x00, 0x00, 0x01, 0x40, 0x81, 0x00, 0x18, 0x14, 0x00, 0x00, 0x01, 0x40,
   0x01, 0x08, 0x70, 0x08, 0x00, 0x00, 0x03, 0x40, 0x01, 0x08, 0x10, 0x00,
   0x00, 0x00, 0x02, 0x40, 0x0e, 0x00, 0x10, 0x00, 0x00, 0x00, 0x06, 0x40,
   0x12, 0x00, 0x18, 0x00, 0x00, 0x00, 0x04, 0xc0, 0x1e, 0x0c, 0x08, 0x00,
   0x00, 0x00, 0x0c, 0xa0, 0xc3, 0x17, 0x0c, 0x00, 0x00, 0x00, 0x18, 0xc0,
   0xfb, 0x3f, 0x04, 0x00, 0x00, 0x00, 0x10, 0x00, 0xfe, 0xff, 0x02, 0x00,
   0x00, 0x00, 0x20, 0x00, 0x1f, 0xf0, 0x03, 0x00, 0x00, 0x00, 0x78, 0xc0,
   0x07, 0xc0, 0x03, 0x00, 0x00, 0x00, 0xfc, 0xe1, 0x01, 0x00, 0x07, 0x00,
   0x00, 0x00, 0x1c, 0x77, 0x00, 0x00, 0x0e, 0x00, 0x00, 0x00, 0x0e, 0x3f,
   0x00, 0x00, 0x1e, 0x00, 0x00, 0x00, 0x07, 0x1f, 0x00, 0x00, 0x1c, 0x00,
   0x00, 0x00, 0x07, 0x1f, 0x00, 0x00, 0x38, 0x00, 0x00, 0x80, 0x03, 0x0f,
   0x00, 0x00, 0x38, 0x00, 0x00, 0x80, 0x01, 0x07, 0x00, 0x00, 0x30, 0x00,
   0x00, 0xc0, 0x81, 0x03, 0x00, 0x00, 0x70, 0x00, 0x00, 0xc0, 0x80, 0x03,
   0x00, 0x00, 0x70, 0x00, 0x00, 0xc0, 0xc0, 0x01, 0x00, 0x00, 0x70, 0x00,
   0x01, 0xc0, 0xf8, 0x01, 0x00, 0x00, 0xe0, 0x00, 0x03, 0xe0, 0xfc, 0x01,
   0x02, 0x00, 0xe0, 0x00, 0x0f, 0xe0, 0x8c, 0x01, 0x03, 0x00, 0xe0, 0x00,
   0x3f, 0xe0, 0xc0, 0x01, 0x02, 0x00, 0xe0, 0x00, 0xfc, 0xe0, 0xc0, 0x01,
   0x06, 0x00, 0xe0, 0x00, 0xf0, 0xe3, 0xf8, 0x01, 0x06, 0x00, 0xc0, 0x00,
   0xc0, 0xef, 0xd8, 0x01, 0x00, 0x00, 0xc0, 0x00, 0x00, 0xff, 0x80, 0x01,
   0x00, 0x00, 0xc0, 0xff, 0x00, 0xfc, 0x80, 0x01, 0x00, 0x00, 0xfc, 0xff,
   0x00, 0xf0, 0x03, 0x01, 0x40, 0x80, 0xff, 0xff, 0x00, 0x80, 0x0f, 0x00,
   0xc0, 0xec, 0xff, 0xff, 0x03, 0x00, 0x0e, 0x00, 0xc0, 0xfc, 0xff, 0xff,
   0x07, 0x00, 0x00, 0x00, 0xc0, 0xfe, 0xff, 0xff };
