#define Frame_4__30ms___replace__width 64
#define Frame_4__30ms___replace__height 64
static unsigned char Frame_4__30ms___replace__bits[] = {
   0x00, 0x00, 0x00, 0x00, 0x00, 0x00, 0x00, 0x00, 0x00, 0x00, 0x00, 0x00,
   0x00, 0x00, 0x00, 0x00, 0x00, 0x00, 0x00, 0x00, 0x00, 0x00, 0x00, 0x00,
   0x00, 0x00, 0x00, 0x00, 0x00, 0x00, 0x00, 0x00, 0xf8, 0x07, 0x00, 0x00,
   0x00, 0x00, 0x00, 0x00, 0x3e, 0x1f, 0x00, 0x00, 0x00, 0x00, 0x00, 0x00,
   0x03, 0x38, 0x00, 0x00, 0x00, 0x00, 0x00, 0x00, 0x00, 0x60, 0x00, 0x00,
   0x00, 0xe0, 0x01, 0x00, 0x00, 0x60, 0x00, 0x00, 0x00, 0x18, 0x04, 0x00,
   0x00, 0xc0, 0x00, 0x00, 0x00, 0x04, 0x00, 0x00, 0x00, 0x80, 0x01, 0x00,
   0x00, 0x0f, 0x08, 0x00, 0x00, 0x80, 0x01, 0x00, 0x00, 0x0b, 0x08, 0x00,
   0x00, 0x06, 0x01, 0x00, 0x00, 0xcf, 0x0b, 0x00, 0x80, 0x1f, 0x03, 0x00,
   0x80, 0xcc, 0x0a, 0x00, 0xc0, 0x37, 0x03, 0x00, 0x00, 0x4b, 0x02, 0x00,
   0xc0, 0x27, 0x02, 0x00, 0x40, 0x38, 0x04, 0x00, 0xe0, 0x67, 0x06, 0x00,
   0x00, 0x00, 0x00, 0x00, 0xe0, 0x67, 0x04, 0x00, 0x20, 0x00, 0x02, 0x00,
   0xe0, 0x37, 0x0c, 0x00, 0x20, 0x00, 0x02, 0x00, 0xe6, 0x3b, 0x0c, 0x00,
   0x20, 0x20, 0x00, 0x00, 0xc3, 0x9f, 0x18, 0x00, 0x00, 0x60, 0x01, 0x00,
   0x83, 0xe7, 0x18, 0x00, 0x00, 0x40, 0x01, 0x2b, 0x01, 0x70, 0x30, 0x00,
   0x00, 0x10, 0x01, 0x04, 0x3d, 0x1c, 0x30, 0x00, 0x00, 0x20, 0x1b, 0x18,
   0x35, 0x0e, 0x60, 0x00, 0x00, 0x00, 0x04, 0x28, 0xb9, 0x03, 0x60, 0x00,
   0x38, 0x08, 0x1e, 0x0a, 0xdf, 0x01, 0xc0, 0x00, 0x3e, 0x1c, 0x20, 0x02,
   0x70, 0x00, 0x80, 0x81, 0x23, 0x28, 0x40, 0x00, 0x1c, 0x00, 0x80, 0xc1,
   0x60, 0x3e, 0x00, 0x0c, 0x0f, 0x00, 0x0c, 0x63, 0xe0, 0xff, 0x82, 0x30,
   0x03, 0x80, 0x0d, 0x26, 0x79, 0x80, 0xc3, 0x02, 0x00, 0x00, 0x19, 0x36,
   0x1f, 0x00, 0x43, 0x00, 0x00, 0x00, 0x12, 0x1c, 0x04, 0x00, 0x16, 0x08,
   0x00, 0x00, 0x32, 0x98, 0x06, 0x00, 0x04, 0x00, 0x00, 0x00, 0x24, 0x18,
   0x03, 0x00, 0x04, 0x00, 0x00, 0x00, 0x64, 0x30, 0x83, 0x00, 0x0c, 0x00,
   0x00, 0x00, 0x48, 0x00, 0x41, 0x00, 0x0c, 0x00, 0x00, 0x00, 0x48, 0x00,
   0x40, 0x00, 0x0c, 0x00, 0x00, 0x00, 0xd8, 0x00, 0x00, 0x00, 0x04, 0x00,
   0x00, 0x00, 0x90, 0x00, 0x00, 0x00, 0x04, 0x00, 0x01, 0x00, 0xb0, 0x01,
   0x00, 0x00, 0x06, 0x00, 0x01, 0x00, 0xa0, 0x1f, 0x80, 0x00, 0x06, 0x00,
   0x03, 0x00, 0x60, 0x7e, 0x80, 0x02, 0x02, 0x00, 0x03, 0x00, 0x40, 0x60,
   0xe0, 0x1f, 0x03, 0x00, 0x06, 0x00, 0x40, 0x3e, 0xfc, 0xff, 0x03, 0x00,
   0x06, 0x00, 0xc0, 0x05, 0xff, 0xff, 0x03, 0x00, 0x0c, 0x00, 0x40, 0xcd,
   0x3f, 0xf8, 0x0f, 0x00, 0x18, 0x00, 0x40, 0xef, 0x07, 0xc0, 0x3f, 0x00,
   0x30, 0x00, 0xc0, 0xfd, 0x03, 0x00, 0x7e, 0x00, 0x60, 0x00, 0xc0, 0xf8,
   0x00, 0x00, 0xfc, 0x00, 0xe0, 0x00, 0x00, 0x7c, 0x00, 0x00, 0xf8, 0x01,
   0xc0, 0x01, 0x00, 0x3e, 0x00, 0x00, 0xe0, 0x03, 0x00, 0x03, 0x00, 0x1e,
   0x00, 0x00, 0xc0, 0x03, 0x00, 0x0e, 0x00, 0x0f, 0x00, 0x00, 0xc0, 0x07,
   0x00, 0x1c, 0x80, 0x07, 0x00, 0x00, 0x80, 0x0f, 0x00, 0x78, 0x80, 0x03,
   0x00, 0x00, 0x00, 0x0f, 0x00, 0xfc, 0xc3, 0x03, 0x00, 0x00, 0x00, 0x1f,
   0x00, 0xfe, 0xff, 0x01, 0x00, 0x00, 0x00, 0x1e, 0x00, 0x1e, 0xfe, 0x01,
   0x00, 0x00, 0x00, 0x3c, 0x00, 0x1f, 0xfe, 0x00, 0x00, 0x00, 0x00, 0x3c,
   0x00, 0x0f, 0xfc, 0x00, 0x00, 0x00, 0x00, 0x78, 0x00, 0x0f, 0x7c, 0x00,
   0x00, 0x00, 0x00, 0x78, 0x80, 0x07, 0x7c, 0x00, 0x00, 0x00, 0x00, 0xf0,
   0x80, 0x07, 0x3c, 0x00, 0x00, 0x00, 0x00, 0xf0 };
