#define Frame_2__80ms___replace__width 39
#define Frame_2__80ms___replace__height 55
static unsigned char Frame_2__80ms___replace__bits[] = {
   0x00, 0x00, 0xf0, 0x0f, 0x00, 0x00, 0x00, 0xfe, 0xff, 0x00, 0x00, 0x00,
   0x07, 0xe0, 0x01, 0x00, 0x80, 0x01, 0x00, 0x03, 0x00, 0xc0, 0x00, 0x00,
   0x06, 0x00, 0x60, 0x00, 0x00, 0x0c, 0x00, 0x30, 0x00, 0x00, 0x0c, 0x00,
   0x18, 0x00, 0x00, 0x1e, 0x00, 0x08, 0xc0, 0x03, 0x3f, 0x00, 0x0c, 0xf0,
   0x8f, 0x7f, 0x00, 0x04, 0xf8, 0xcf, 0x7e, 0x00, 0x04, 0xe8, 0x8f, 0x7e,
   0x00, 0x04, 0xc8, 0x9f, 0x78, 0x00, 0x06, 0xc8, 0x8f, 0x21, 0x00, 0x06,
   0x18, 0x0c, 0x1f, 0x00, 0x06, 0xf0, 0x07, 0x12, 0x00, 0x04, 0xc0, 0x20,
   0x14, 0x00, 0x04, 0x00, 0xe0, 0x17, 0x00, 0x04, 0x00, 0x00, 0x3e, 0x00,
   0x0c, 0xe0, 0xff, 0x3f, 0x00, 0x0c, 0xf0, 0x07, 0x30, 0x00, 0x08, 0x00,
   0x00, 0x30, 0x00, 0x08, 0x00, 0x00, 0x30, 0x70, 0x08, 0x00, 0x00, 0x30,
   0x58, 0x18, 0x00, 0x00, 0x30, 0xc8, 0x18, 0x00, 0x00, 0x30, 0x88, 0x10,
   0x00, 0x00, 0x30, 0x88, 0x10, 0x00, 0x00, 0x30, 0x88, 0x30, 0x00, 0x00,
   0x30, 0x88, 0x30, 0x00, 0x00, 0x30, 0x88, 0x20, 0x00, 0x00, 0x30, 0x88,
   0x3f, 0x00, 0x00, 0x30, 0x98, 0x23, 0x0a, 0x00, 0x30, 0x0c, 0x01, 0x0a,
   0x00, 0x30, 0xf6, 0x03, 0x12, 0x00, 0x30, 0x3e, 0x00, 0x16, 0x00, 0x30,
   0x0c, 0x00, 0x74, 0x00, 0x30, 0x06, 0x00, 0xc4, 0x00, 0x30, 0x22, 0x00,
   0xe4, 0x00, 0x30, 0x23, 0x00, 0x2e, 0x00, 0x30, 0x03, 0x00, 0x3e, 0x00,
   0x30, 0x01, 0x00, 0x00, 0x00, 0x30, 0x01, 0x00, 0x00, 0x00, 0x10, 0x01,
   0x00, 0x00, 0x00, 0x10, 0x03, 0x10, 0x00, 0x00, 0x18, 0x02, 0x1e, 0x00,
   0x00, 0x0c, 0xc6, 0x07, 0x00, 0x00, 0x06, 0x7c, 0x18, 0x00, 0x80, 0x03,
   0x10, 0x06, 0x00, 0xe0, 0x01, 0x90, 0x7f, 0x00, 0x7f, 0x00, 0x90, 0xf8,
   0xff, 0x67, 0x00, 0x90, 0x00, 0x00, 0x24, 0x00, 0xb0, 0x01, 0x00, 0xe2,
   0x01, 0xa0, 0x01, 0x00, 0x03, 0x03, 0xe0, 0x00, 0x00, 0xfe, 0x03 };
