#define Frame_7__80ms___replace__width 39
#define Frame_7__80ms___replace__height 58
static unsigned char Frame_7__80ms___replace__bits[] = {
   0x00, 0x00, 0xf0, 0x1f, 0x00, 0x00, 0x00, 0xfe, 0x7f, 0x00, 0x00, 0x00,
   0x07, 0xe0, 0x00, 0x00, 0xc0, 0x01, 0x80, 0x01, 0x00, 0xe0, 0x00, 0x00,
   0x03, 0x00, 0x30, 0x00, 0x00, 0x06, 0x00, 0x18, 0x00, 0x00, 0x0c, 0x00,
   0x18, 0x00, 0x00, 0x3c, 0x00, 0x0c, 0x00, 0x00, 0x3e, 0x00, 0x0c, 0x80,
   0x1f, 0x7e, 0x00, 0x0c, 0xe0, 0x3f, 0x7e, 0x00, 0x0c, 0x60, 0x7f, 0x7a,
   0x00, 0x0c, 0x20, 0x7f, 0x46, 0x00, 0x0c, 0x60, 0x7f, 0x7e, 0x00, 0x0c,
   0x60, 0x7e, 0x1c, 0x00, 0x08, 0xc0, 0x60, 0x38, 0x00, 0x18, 0x80, 0xbf,
   0x30, 0x00, 0x18, 0x00, 0x8e, 0x3f, 0x00, 0x10, 0x00, 0x00, 0x20, 0x00,
   0x30, 0x00, 0x00, 0x7f, 0x00, 0x30, 0x00, 0xfe, 0x63, 0x00, 0x30, 0x80,
   0x1f, 0x60, 0x00, 0x20, 0x00, 0x00, 0x40, 0x00, 0x20, 0x00, 0x00, 0x40,
   0x00, 0x60, 0x00, 0x00, 0x40, 0x00, 0x60, 0x00, 0x00, 0x40, 0x06, 0x40,
   0x00, 0x00, 0x40, 0x1f, 0x40, 0x00, 0x00, 0x40, 0x33, 0x40, 0x00, 0x00,
   0x40, 0xe3, 0x40, 0x00, 0x00, 0x40, 0xc6, 0x40, 0x00, 0x00, 0x40, 0x8c,
   0x7f, 0x00, 0x00, 0x40, 0x0c, 0x7f, 0x10, 0x00, 0x40, 0x18, 0x23, 0x14,
   0x00, 0x60, 0x10, 0x06, 0x14, 0x00, 0x60, 0x90, 0x0f, 0x14, 0x00, 0x60,
   0xf8, 0x01, 0x14, 0x00, 0x20, 0x38, 0x00, 0x32, 0x00, 0x20, 0x18, 0x00,
   0x51, 0x00, 0x30, 0x0c, 0x00, 0x77, 0x00, 0x30, 0x44, 0x00, 0x7f, 0x00,
   0x10, 0x04, 0x00, 0x18, 0x00, 0x18, 0x04, 0x02, 0x00, 0x00, 0x08, 0x04,
   0x00, 0x00, 0x00, 0x0c, 0x44, 0x00, 0x00, 0x00, 0x06, 0x04, 0x00, 0x00,
   0x00, 0x03, 0x0c, 0x00, 0x00, 0x80, 0x01, 0x18, 0x00, 0x00, 0xc0, 0x00,
   0x70, 0x00, 0x00, 0x60, 0x00, 0xe0, 0x01, 0xb0, 0x38, 0x00, 0x80, 0xff,
   0xbe, 0x0f, 0x00, 0x00, 0xf8, 0xbf, 0x01, 0x00, 0x00, 0xe0, 0xb8, 0x00,
   0x00, 0x00, 0xc0, 0x91, 0x00, 0x00, 0x00, 0x00, 0x9f, 0x0f, 0x00, 0x00,
   0x00, 0x08, 0x08, 0x00, 0x00, 0x00, 0x0c, 0x08, 0x00, 0x00, 0x00, 0xf8,
   0x0f, 0x00 };
