#define Frame_3__80ms___replace__width 39
#define Frame_3__80ms___replace__height 58
static unsigned char Frame_3__80ms___replace__bits[] = {
   0x00, 0x00, 0xf8, 0x07, 0x00, 0x00, 0x00, 0xff, 0x3f, 0x00, 0x00, 0x80,
   0x03, 0xf0, 0x00, 0x00, 0xe0, 0x00, 0x80, 0x03, 0x00, 0x60, 0x00, 0x00,
   0x03, 0x00, 0x30, 0x00, 0x00, 0x06, 0x00, 0x18, 0x00, 0x00, 0x1c, 0x00,
   0x18, 0x00, 0x00, 0x3e, 0x00, 0x0c, 0x00, 0x0f, 0x3e, 0x00, 0x0c, 0x80,
   0x1f, 0x3f, 0x00, 0x0c, 0xc0, 0x3f, 0x3f, 0x00, 0x04, 0x60, 0x3f, 0x7a,
   0x00, 0x04, 0x20, 0x7f, 0x26, 0x00, 0x04, 0x20, 0x7f, 0x3e, 0x00, 0x04,
   0x60, 0x3e, 0x1c, 0x00, 0x0c, 0xc0, 0xb0, 0x38, 0x00, 0x0c, 0x80, 0x9f,
   0x30, 0x00, 0x0c, 0x00, 0x80, 0x3f, 0x00, 0x18, 0x00, 0x00, 0x30, 0x00,
   0x18, 0x00, 0x80, 0x3f, 0x00, 0x10, 0x00, 0xfe, 0x20, 0x00, 0x30, 0x80,
   0x00, 0x20, 0x00, 0x30, 0x00, 0x00, 0x60, 0x00, 0x60, 0x00, 0x00, 0x60,
   0x00, 0x60, 0x00, 0x00, 0x60, 0x00, 0x60, 0x00, 0x00, 0x60, 0x0e, 0x60,
   0x00, 0x00, 0x60, 0x19, 0x40, 0x00, 0x00, 0x40, 0x61, 0x40, 0x00, 0x00,
   0x40, 0xc3, 0x40, 0x00, 0x00, 0x40, 0x86, 0x40, 0x00, 0x00, 0x40, 0x84,
   0x41, 0x00, 0x00, 0x40, 0x08, 0x7f, 0x14, 0x00, 0x40, 0x18, 0x46, 0x34,
   0x00, 0x60, 0x30, 0x46, 0x34, 0x00, 0x60, 0x90, 0x0f, 0x14, 0x00, 0x60,
   0xf0, 0x00, 0x34, 0x00, 0x20, 0x38, 0x00, 0x76, 0x00, 0x30, 0x08, 0x00,
   0xc2, 0x00, 0x30, 0x0c, 0x00, 0xf7, 0x00, 0x30, 0x04, 0x00, 0x14, 0x00,
   0x18, 0x04, 0x00, 0x18, 0x00, 0x18, 0x04, 0x00, 0x00, 0x00, 0x0c, 0x04,
   0x00, 0x00, 0x00, 0x0c, 0x04, 0x00, 0x00, 0x00, 0x06, 0x04, 0x00, 0x08,
   0x00, 0x03, 0x0c, 0x00, 0x09, 0x80, 0x03, 0x18, 0x00, 0x11, 0xc0, 0x01,
   0x30, 0x80, 0x13, 0x70, 0x00, 0xe0, 0xe1, 0x19, 0x3c, 0x00, 0x80, 0x3f,
   0xfc, 0x0f, 0x00, 0x00, 0x60, 0xfe, 0x01, 0x00, 0x00, 0xc0, 0x98, 0x00,
   0x00, 0x00, 0x80, 0x9f, 0x00, 0x00, 0x00, 0x00, 0xce, 0x07, 0x00, 0x00,
   0x00, 0x0c, 0x0e, 0x00, 0x00, 0x00, 0x0c, 0x08, 0x00, 0x00, 0x00, 0xf8,
   0x0f, 0x00 };
