#define Frame_6__80ms___replace__width 42
#define Frame_6__80ms___replace__height 55
static unsigned char Frame_6__80ms___replace__bits[] = {
   0x00, 0x00, 0x00, 0x3f, 0x00, 0x00, 0x00, 0x00, 0xe0, 0xff, 0x00, 0x00,
   0x00, 0x00, 0x70, 0x80, 0x03, 0x00, 0x00, 0x00, 0x1c, 0x00, 0x0e, 0x00,
   0x00, 0x00, 0x06, 0x00, 0x1c, 0x00, 0x00, 0x00, 0x03, 0x00, 0x30, 0x00,
   0x00, 0x80, 0x01, 0x00, 0x60, 0x00, 0x00, 0xc0, 0x00, 0x00, 0xc0, 0x00,
   0x00, 0x60, 0x00, 0xf0, 0xa3, 0x01, 0x00, 0x60, 0x00, 0xf8, 0xa7, 0x01,
   0x00, 0x60, 0x00, 0xe8, 0xaf, 0x01, 0x00, 0x60, 0x00, 0xec, 0x4f, 0x01,
   0x00, 0x20, 0x00, 0xe4, 0xcf, 0x01, 0x00, 0x60, 0x00, 0xcc, 0xcf, 0x01,
   0x00, 0x60, 0x00, 0x08, 0x8f, 0x01, 0x00, 0x60, 0x00, 0xf8, 0x07, 0x01,
   0x00, 0x60, 0x00, 0x60, 0x10, 0x03, 0x00, 0x60, 0x00, 0x00, 0xf0, 0x03,
   0x00, 0x40, 0x00, 0x00, 0xe0, 0x01, 0x00, 0xc0, 0x00, 0x00, 0xff, 0x01,
   0x00, 0xc0, 0x00, 0xf8, 0x07, 0x01, 0x60, 0x80, 0x01, 0x00, 0x00, 0x03,
   0xf0, 0x80, 0x01, 0x00, 0x00, 0x03, 0xd8, 0x80, 0x01, 0x00, 0x00, 0x03,
   0x88, 0x00, 0x01, 0x00, 0x00, 0x03, 0x88, 0x00, 0x01, 0x00, 0x00, 0x03,
   0x88, 0x00, 0x01, 0x00, 0x00, 0x03, 0x88, 0x01, 0x01, 0x00, 0x00, 0x03,
   0x88, 0x01, 0x01, 0x00, 0x00, 0x03, 0x88, 0x01, 0x01, 0x00, 0x00, 0x03,
   0x88, 0x01, 0x01, 0x00, 0x00, 0x03, 0x10, 0xbf, 0x41, 0x00, 0x00, 0x02,
   0x30, 0xfb, 0x51, 0x00, 0x00, 0x02, 0x30, 0x82, 0x10, 0x00, 0x00, 0x02,
   0xf0, 0x47, 0x30, 0x00, 0x00, 0x02, 0xb8, 0x03, 0x28, 0x00, 0x00, 0x02,
   0x0c, 0x00, 0x46, 0x00, 0x00, 0x03, 0x46, 0x00, 0xae, 0x00, 0x00, 0x03,
   0x06, 0x00, 0xfc, 0x00, 0x00, 0x03, 0x03, 0x00, 0xd8, 0x00, 0x00, 0x01,
   0x03, 0x02, 0x00, 0x00, 0x80, 0x01, 0x23, 0x00, 0x00, 0x00, 0x80, 0x01,
   0x03, 0x00, 0x00, 0x00, 0x80, 0x00, 0x03, 0x00, 0x00, 0x00, 0xc0, 0x00,
   0x06, 0x00, 0x00, 0x00, 0x60, 0x00, 0x0c, 0x00, 0x00, 0x60, 0x30, 0x00,
   0x18, 0x00, 0x00, 0x80, 0x38, 0x00, 0x70, 0x00, 0x00, 0x00, 0x0f, 0x00,
   0xe0, 0x01, 0x00, 0x3e, 0x07, 0x00, 0x80, 0xff, 0xff, 0x6f, 0x03, 0x00,
   0x80, 0xf9, 0xff, 0x40, 0x03, 0x00, 0x00, 0x19, 0x00, 0x40, 0x0f, 0x00,
   0x00, 0x13, 0x00, 0x60, 0x30, 0x00, 0x00, 0x16, 0x00, 0x20, 0x60, 0x00,
   0x00, 0x1c, 0x00, 0xf0, 0x7f, 0x00 };
