#define Frame_8__80ms___replace__width 43
#define Frame_8__80ms___replace__height 62
static unsigned char Frame_8__80ms___replace__bits[] = {
   0x00, 0x00, 0xc0, 0x3f, 0x00, 0x00, 0x00, 0x00, 0xf8, 0xff, 0x01, 0x00,
   0x00, 0x00, 0x1e, 0xc0, 0x03, 0x00, 0x00, 0x00, 0x03, 0x00, 0x0e, 0x00,
   0x00, 0x80, 0x01, 0x00, 0x1c, 0x00, 0x00, 0x80, 0x00, 0x00, 0x18, 0x00,
   0x00, 0xc0, 0x00, 0x00, 0x30, 0x00, 0x00, 0x40, 0x00, 0x00, 0xf0, 0x03,
   0x00, 0x40, 0x00, 0x00, 0xf8, 0x03, 0x00, 0x40, 0x00, 0x7e, 0xe8, 0x07,
   0x00, 0x60, 0x00, 0xff, 0xe9, 0x07, 0x00, 0x60, 0x00, 0xfd, 0xc9, 0x07,
   0x00, 0x40, 0x80, 0xfd, 0x9b, 0x07, 0x00, 0x40, 0x00, 0xf9, 0x3b, 0x03,
   0x00, 0x40, 0x00, 0xf9, 0xf1, 0x01, 0x00, 0xc0, 0x00, 0x83, 0xe1, 0x01,
   0x00, 0xc0, 0x00, 0xfe, 0x44, 0x01, 0x00, 0xc0, 0x00, 0x18, 0x46, 0x01,
   0x00, 0x80, 0x00, 0x00, 0x7c, 0x03, 0x00, 0x80, 0x01, 0x00, 0xe0, 0x03,
   0x00, 0x00, 0x01, 0x00, 0xff, 0x03, 0x00, 0x00, 0x03, 0xf0, 0x07, 0x02,
   0x00, 0x00, 0x02, 0x18, 0x00, 0x02, 0x00, 0x00, 0x02, 0x00, 0x00, 0x02,
   0x00, 0x00, 0x06, 0x00, 0x00, 0x02, 0x00, 0x00, 0x06, 0x00, 0x00, 0x02,
   0x00, 0x00, 0x04, 0x00, 0x00, 0x02, 0x00, 0x00, 0x04, 0x00, 0x00, 0x02,
   0x00, 0x00, 0x04, 0x00, 0x00, 0x02, 0xfc, 0x00, 0x04, 0x00, 0x00, 0x02,
   0x87, 0x03, 0x04, 0x00, 0x00, 0x02, 0x01, 0x06, 0x04, 0x00, 0x00, 0x02,
   0x01, 0x0c, 0x04, 0x00, 0x00, 0x06, 0x27, 0xfc, 0x43, 0x00, 0x00, 0x06,
   0xfc, 0xd8, 0x62, 0x00, 0x00, 0x06, 0x80, 0x19, 0x22, 0x00, 0x00, 0x06,
   0x80, 0x3f, 0xa0, 0x00, 0x00, 0x06, 0x80, 0x03, 0xa0, 0x00, 0x00, 0x06,
   0xc0, 0x00, 0xa0, 0x01, 0x00, 0x06, 0x40, 0x00, 0x20, 0x03, 0x00, 0x06,
   0x40, 0x04, 0x20, 0x0e, 0x00, 0x02, 0x60, 0x00, 0x60, 0x0b, 0x00, 0x02,
   0x60, 0x00, 0xd0, 0x0e, 0x00, 0x02, 0x60, 0x00, 0xf0, 0x03, 0x00, 0x03,
   0x60, 0x00, 0x00, 0x00, 0x00, 0x03, 0x40, 0x00, 0x00, 0x00, 0x00, 0x01,
   0xc0, 0x10, 0x00, 0x00, 0x00, 0x01, 0x80, 0x00, 0x00, 0x00, 0x80, 0x01,
   0x80, 0x01, 0x00, 0x00, 0x80, 0x00, 0x00, 0x07, 0x00, 0x00, 0xc0, 0x00,
   0x00, 0x1c, 0x00, 0x00, 0x60, 0x00, 0x00, 0xf8, 0x93, 0x00, 0x30, 0x00,
   0x00, 0xc0, 0x9f, 0x00, 0x1e, 0x00, 0x00, 0x00, 0xc8, 0xff, 0x3f, 0x00,
   0x00, 0x00, 0x48, 0xcc, 0x40, 0x00, 0x00, 0x00, 0x4c, 0x40, 0x40, 0x00,
   0x00, 0x00, 0x24, 0xc0, 0x3f, 0x00, 0x00, 0x00, 0x24, 0x00, 0x0f, 0x00,
   0x00, 0x00, 0xe6, 0x00, 0x00, 0x00, 0x00, 0x00, 0x82, 0x01, 0x00, 0x00,
   0x00, 0x00, 0x03, 0x01, 0x00, 0x00, 0x00, 0x00, 0xfc, 0x01, 0x00, 0x00 };
