#define Frame_4__80ms___replace__width 41
#define Frame_4__80ms___replace__height 61
static unsigned char Frame_4__80ms___replace__bits[] = {
   0x00, 0x00, 0x80, 0x7f, 0x00, 0x00, 0x00, 0x00, 0xf8, 0xff, 0x01, 0x00,
   0x00, 0x00, 0x1c, 0x80, 0x07, 0x00, 0x00, 0x00, 0x06, 0x00, 0x0e, 0x00,
   0x00, 0x00, 0x03, 0x00, 0x1c, 0x00, 0x00, 0x80, 0x01, 0x00, 0x38, 0x00,
   0x00, 0x80, 0x00, 0x00, 0x60, 0x00, 0x00, 0xc0, 0x00, 0x00, 0x70, 0x00,
   0x00, 0x40, 0x00, 0xf0, 0xf9, 0x00, 0x00, 0x40, 0x00, 0xf8, 0xd3, 0x00,
   0x00, 0x40, 0x00, 0xfc, 0xd7, 0x00, 0x00, 0x40, 0x00, 0xf4, 0xb7, 0x00,
   0x00, 0x40, 0x00, 0xf4, 0xe7, 0x00, 0x00, 0x40, 0x00, 0xe4, 0xc7, 0x00,
   0x00, 0xc0, 0x00, 0xcc, 0xc7, 0x00, 0x00, 0xc0, 0x00, 0x98, 0x8b, 0x01,
   0x00, 0xc0, 0x00, 0xf0, 0x89, 0x01, 0x00, 0x80, 0x00, 0x00, 0xf0, 0x00,
   0x00, 0x80, 0x00, 0x00, 0x80, 0x00, 0x00, 0x80, 0x01, 0x00, 0xf8, 0x00,
   0x00, 0x80, 0x01, 0x80, 0x9f, 0x00, 0x00, 0x00, 0x01, 0xf0, 0x80, 0x00,
   0x00, 0x00, 0x03, 0x00, 0x80, 0x01, 0x00, 0x00, 0x03, 0x00, 0x80, 0x01,
   0x00, 0x00, 0x03, 0x00, 0x80, 0x01, 0x00, 0x00, 0x02, 0x00, 0x00, 0x01,
   0x00, 0x00, 0x02, 0x00, 0x00, 0x01, 0x00, 0x00, 0x02, 0x00, 0x00, 0x01,
   0xfc, 0x01, 0x02, 0x00, 0x00, 0x01, 0x86, 0x03, 0x03, 0x00, 0x00, 0x01,
   0x03, 0x06, 0x03, 0x00, 0x00, 0x01, 0x01, 0x7c, 0x01, 0x00, 0x00, 0x01,
   0x7e, 0xf8, 0x11, 0x00, 0x00, 0x01, 0xc0, 0x18, 0xd0, 0x00, 0x80, 0x01,
   0xe0, 0x3f, 0x50, 0x00, 0x80, 0x01, 0xe0, 0x03, 0x50, 0x00, 0x80, 0x00,
   0x60, 0x00, 0x50, 0x00, 0x80, 0x00, 0x20, 0x00, 0xd8, 0x00, 0x80, 0x00,
   0x30, 0x00, 0x8c, 0x01, 0xc0, 0x00, 0x10, 0x01, 0x5c, 0x01, 0xc0, 0x00,
   0x18, 0x00, 0xdc, 0x03, 0xc0, 0x00, 0x18, 0x08, 0xb0, 0x01, 0x40, 0x00,
   0x08, 0x00, 0x00, 0x00, 0x40, 0x00, 0x08, 0x01, 0x00, 0x00, 0x60, 0x00,
   0x18, 0x00, 0x00, 0x00, 0x20, 0x00, 0x30, 0x00, 0x00, 0x00, 0x30, 0x00,
   0x30, 0x00, 0x00, 0xf0, 0x3f, 0x00, 0xe0, 0x00, 0x00, 0x00, 0x1c, 0x00,
   0xc0, 0x01, 0x00, 0xf8, 0x0c, 0x00, 0x00, 0x0f, 0x00, 0xfc, 0x04, 0x00,
   0x00, 0xfc, 0xff, 0xff, 0x04, 0x00, 0x00, 0x80, 0xff, 0x40, 0x3c, 0x00,
   0x00, 0x00, 0xd8, 0x40, 0x20, 0x00, 0x00, 0x00, 0x58, 0x80, 0x21, 0x00,
   0x00, 0x00, 0x6c, 0x00, 0x3f, 0x00, 0x00, 0x00, 0x6c, 0x00, 0x00, 0x00,
   0x00, 0x00, 0x24, 0x00, 0x00, 0x00, 0x00, 0x00, 0xf6, 0x03, 0x00, 0x00,
   0x00, 0x00, 0x06, 0x02, 0x00, 0x00, 0x00, 0x00, 0x3e, 0x03, 0x00, 0x00,
   0x00, 0x00, 0xfc, 0x01, 0x00, 0x00 };
