#define Frame_5__80ms___replace__width 41
#define Frame_5__80ms___replace__height 61
static unsigned char Frame_5__80ms___replace__bits[] = {
   0x00, 0x00, 0xf0, 0x07, 0x00, 0x00, 0x00, 0x00, 0xfe, 0x3f, 0x00, 0x00,
   0x00, 0x00, 0x0f, 0xf0, 0x00, 0x00, 0x00, 0xc0, 0x01, 0xc0, 0x01, 0x00,
   0x00, 0xe0, 0x00, 0x00, 0x03, 0x00, 0x00, 0x60, 0x00, 0x00, 0x07, 0x00,
   0x00, 0x30, 0x00, 0x00, 0x06, 0x00, 0x00, 0x18, 0x00, 0x00, 0x0c, 0x00,
   0x00, 0x18, 0x00, 0x00, 0x3c, 0x00, 0x00, 0x18, 0x00, 0x7c, 0x38, 0x00,
   0x00, 0x18, 0x00, 0xf6, 0x78, 0x00, 0x00, 0x18, 0x00, 0xf3, 0x79, 0x00,
   0x00, 0x18, 0x00, 0xf3, 0x4b, 0x00, 0x00, 0x18, 0x00, 0xf3, 0x7b, 0x00,
   0x00, 0x18, 0x00, 0xf2, 0x73, 0x00, 0x00, 0x10, 0x00, 0xc6, 0x63, 0x00,
   0x00, 0x30, 0x00, 0xcc, 0xcd, 0x00, 0x00, 0x30, 0x00, 0x78, 0x9c, 0x00,
   0x00, 0x20, 0x00, 0x00, 0xf8, 0x00, 0x00, 0x60, 0x00, 0x00, 0x60, 0x00,
   0x00, 0x60, 0x00, 0x00, 0x7e, 0x00, 0x00, 0x60, 0x00, 0xf0, 0x7f, 0x00,
   0x00, 0x40, 0x00, 0x18, 0x40, 0x00, 0x00, 0xc0, 0x00, 0x00, 0xc0, 0x00,
   0x00, 0xc0, 0x00, 0x00, 0xc0, 0x00, 0x02, 0xc0, 0x00, 0x00, 0xc0, 0x00,
   0x1f, 0x80, 0x00, 0x00, 0xc0, 0x00, 0x31, 0x80, 0x00, 0x00, 0xc0, 0x00,
   0x63, 0x80, 0x00, 0x00, 0xc0, 0x00, 0xc3, 0x80, 0x01, 0x00, 0xc0, 0x00,
   0x86, 0x81, 0x01, 0x00, 0xc0, 0x00, 0x0c, 0x81, 0x01, 0x00, 0xc0, 0x00,
   0x18, 0xf9, 0x00, 0x00, 0xc0, 0x00, 0x30, 0xff, 0x00, 0x00, 0xc0, 0x00,
   0x30, 0x82, 0x00, 0x00, 0xc0, 0x00, 0xf8, 0x83, 0x28, 0x00, 0xc0, 0x00,
   0xf8, 0x07, 0x1c, 0x00, 0xc0, 0x00, 0x0c, 0x00, 0x14, 0x00, 0x40, 0x00,
   0x06, 0x80, 0x17, 0x00, 0x40, 0x00, 0x06, 0xc0, 0x18, 0x00, 0x40, 0x00,
   0x42, 0xe0, 0x11, 0x00, 0x60, 0x00, 0x03, 0xe0, 0x15, 0x00, 0x60, 0x00,
   0x03, 0x00, 0x2f, 0x00, 0x60, 0x00, 0x03, 0x00, 0x3b, 0x00, 0x60, 0x00,
   0x03, 0x00, 0x00, 0x00, 0x20, 0x00, 0x02, 0x00, 0x00, 0x00, 0x20, 0x00,
   0x06, 0x00, 0x00, 0x00, 0x30, 0x00, 0x06, 0x00, 0x00, 0x00, 0x30, 0x00,
   0x1c, 0x00, 0x00, 0x00, 0x10, 0x00, 0x38, 0x00, 0x00, 0x00, 0x18, 0x00,
   0xe0, 0x00, 0x00, 0x00, 0x08, 0x00, 0xc0, 0x07, 0x00, 0x00, 0x0c, 0x00,
   0x00, 0xfe, 0xff, 0xbf, 0x07, 0x00, 0x00, 0x80, 0xff, 0x3f, 0x83, 0x00,
   0x00, 0xe0, 0x19, 0x60, 0x62, 0x01, 0x00, 0x30, 0x08, 0x40, 0x34, 0x01,
   0x00, 0x30, 0x06, 0x80, 0x9c, 0x01, 0x00, 0xa0, 0x0f, 0x80, 0xc1, 0x00,
   0x00, 0x60, 0x18, 0x00, 0x73, 0x00, 0x00, 0x60, 0x1c, 0x00, 0x1e, 0x00,
   0x00, 0xc0, 0x0f, 0x00, 0x00, 0x00 };
